<?xml version="1.0" encoding="utf-8"?>
<!-- Generator: Adobe Illustrator 16.0.0, SVG Export Plug-In . SVG Version: 6.00 Build 0)  -->
<!DOCTYPE svg PUBLIC "-//W3C//DTD SVG 1.1//EN" "http://www.w3.org/Graphics/SVG/1.1/DTD/svg11.dtd">
<svg version="1.1" id="Layer_1" xmlns="http://www.w3.org/2000/svg" xmlns:xlink="http://www.w3.org/1999/xlink" x="0px" y="0px"
	 width="375.348px" height="368.912px" viewBox="0 0 375.348 368.912" enable-background="new 0 0 375.348 368.912"
	 xml:space="preserve">
<g id="Layer_2">
</g>
<g id="Layer_1_1_" opacity="0.6">
	<g>
		<path fill="#D3CDCC" stroke="#CFC9C8" stroke-miterlimit="10" d="M120.43,362.396c0.197-0.801,0.641-1.39,1.52-1.371
			c4.788,0.099,9.389-1.031,13.9-2.381c4.521-1.354,9.387,0.231,13.933-1.814c-7.041-2.188-14.004-4.07-20.767-6.514
			c-11.436-4.129-22.688-8.741-32.997-15.319c-5.341-3.409-10.592-6.959-15.884-10.445c-9.478-7.379-18.437-15.338-26.492-24.257
			c-21.729-24.059-36.108-51.872-42.71-83.681c-2.624-12.645-4.07-25.386-3.701-38.285c1.238-43.13,16.274-80.88,44.863-113.115
			c25.722-29.002,58.168-46.529,95.786-54.859c17.088-3.785,34.486-4.588,51.808-3.205c29.081,2.321,56.381,11.059,81.369,26.192
			c16.353,9.903,30.733,22.242,43.341,36.776c19.707,22.722,33.025,48.59,39.617,77.843c5.764,25.583,5.385,51.227-0.195,76.873
			c-3.639,16.714-10.088,32.336-18.137,47.252c-6.188,11.471-14.473,21.616-22.896,31.568c-0.482,0.548-0.965,1.094-1.447,1.639
			l-0.014,0.016c-0.709,0.285-1.199,0.787-1.477,1.498l-0.051-0.008c-7.959,7.514-15.994,14.895-25.035,21.176
			c-10.854,7.537-22.35,13.803-34.327,19.321c-7.737,3.565-16.009,5.562-23.87,8.729c-0.994,0.4-2.216,0.229-3.329,0.341
			c-0.759,0.077-1.624,0.202-1.649,1.146c-0.026,0.942,0.828,1.02,1.572,1.23c4.606,1.316,9.486,0.128,14.061,1.527
			c2.011,0.615,4.576-0.252,5.96,2.125 M9.241,179.813c-0.478,14.687,1.431,27.797,4.344,40.857
			c2.086,9.354,4.987,18.431,8.652,27.206c6.012,14.398,13.689,27.916,23.353,40.242c9.501,12.119,20.226,22.992,32.351,32.521
			c5.664,4.449,11.598,8.49,17.746,12.164c6.145,3.672,12.464,7.184,19.044,9.967c9.077,3.843,18.23,7.515,27.888,9.92
			c9.229,2.3,18.455,5.043,27.859,5.761c15.851,1.209,31.717,1.288,47.604-1.497c12.597-2.208,24.895-5.112,36.813-9.604
			c22.373-8.433,42.175-21.031,59.428-37.567c11.551-11.071,21.27-23.642,29.279-37.472c8.697-15.02,14.703-31.095,18.539-48.041
			c1.738-7.681,2.418-15.471,3.574-23.213c1.641-10.974,0.484-21.966-0.379-32.823c-0.818-10.286-3.213-20.512-6.43-30.441
			c-3.436-10.603-7.383-20.988-12.619-30.85c-6.037-11.368-13.207-21.932-21.422-31.882c-14.529-17.597-31.986-31.554-51.793-42.608
			c-11.984-6.689-24.715-11.68-37.938-15.542c-10.98-3.208-22.116-5.837-33.436-6.574c-16.149-1.052-32.308-0.955-48.426,2.143
			c-10.768,2.069-21.312,4.674-31.551,8.397c-24.189,8.797-45.431,22.515-63.485,40.731C47.799,72.142,38.692,83.824,31.351,97.013
			c-8.624,15.494-14.967,31.704-18.682,48.875C10.177,157.41,8.298,169.162,9.241,179.813z"/>
		<path fill="#D3CDCC" stroke="#CFC9C8" stroke-miterlimit="10" d="M321.34,305.292c0.482-0.545,0.965-1.091,1.447-1.639
			C322.909,304.729,322.481,305.326,321.34,305.292z"/>
		<path fill="#D3CDCC" stroke="#CFC9C8" stroke-miterlimit="10" d="M319.85,306.806c0.277-0.711,0.768-1.213,1.477-1.498
			C321.385,306.351,320.887,306.844,319.85,306.806z"/>
		<path fill="#D3CDCC" stroke="#CFC9C8" stroke-miterlimit="10" d="M128.532,304.53c1.105-1.407,0.83-3.068,0.827-4.665
			c-0.02-13.375-0.001-26.75-0.127-40.124c-0.026-2.799,0.493-4.998,2.843-6.85c3.019-2.375,5.372-5.484,8.312-8.02
			c2.177-1.876,4.254-2.602,7.031-2.545c26.733,0.544,53.469,1.007,80.204,1.443c1.869,0.03,3.328,0.525,4.646,1.896
			c4.054,4.215,9.479,7.711,11.938,12.688c2.418,4.896,0.617,11.287,0.668,17.02c0.08,9.249,0.072,18.5-0.047,27.749
			c-0.037,2.854,0.911,3.147,3.246,2.019c17.297-8.387,32.245-19.805,44.492-34.632c2.339-2.829,4.257-6.006,6.645-8.854
			c3.59-4.278,5.279-9.067,5.266-15.033c-0.092-40.243,0.225-80.488,0.492-120.732c0.02-2.878-0.68-5.282-2.189-7.71
			c-8.855-14.231-19.852-26.542-33.203-36.63c-6.599-4.985-13.613-9.407-20.979-13.27c-3.192-1.674-3.471-0.492-3.463,2.284
			c0.041,13.875-0.061,27.75,0.017,41.624c0.015,2.535-0.551,4.435-2.501,6.233c-4.018,3.704-7.104,9.19-11.996,10.962
			c-4.757,1.723-10.607,0.536-15.977,0.443c-22.731-0.39-45.462-0.872-68.194-1.244c-2.296-0.038-3.964-0.752-5.542-2.445
			c-3.141-3.367-6.441-6.593-9.813-9.73c-1.803-1.678-2.396-3.54-2.384-5.959c0.072-13.875-0.045-27.75,0.04-41.625
			c0.019-3.055-0.502-3.66-3.523-2.245c-9.981,4.676-18.887,10.925-27.423,17.791c-0.815,0.655-1.519,1.755-2.874,1.299
			c1.325-4.21,5.547-5.42,8.487-7.846c6.584-5.432,14.098-9.536,21.721-13.369c3.863-1.942,5.545-0.93,5.563,3.394
			c0.058,13.994,0.101,27.988,0.02,41.982c-0.015,2.557,1,4.271,2.479,6.288c6.441,8.778,14.658,11.583,25.588,11.061
			c22.576-1.079,45.176,1.182,67.787,1.153c2.566-0.003,4.219-1.026,6.234-2.496c8.396-6.123,11.879-13.698,10.808-24.378
			c-1.056-10.517-0.237-21.225-0.188-31.848c0.021-4.568,1.26-5.285,5.449-3.158c23.92,12.148,42.856,29.604,56.559,52.76
			c1.678,2.833,1.131,5.577,1.133,8.287c0.014,40.618-0.211,81.236-0.145,121.854c0.008,4.942-2.447,8.575-4.875,12.107
			c-13.348,19.417-30.481,34.57-51.848,44.76c-0.67,0.319-1.354,0.621-2.052,0.866c-3.611,1.263-4.449,0.7-4.455-3.194
			c-0.021-12.871-0.201-25.746,0.133-38.607c0.118-4.518-1.571-7.412-4.364-10.773c-6.175-7.427-13.449-9.797-23.018-9.326
			c-18.583,0.914-37.186-0.971-55.795-1.055c-2.32-0.011-4.671,0.184-6.956-0.115c-6.327-0.828-11.113,0.971-15.781,5.79
			c-4.63,4.782-7.036,9.251-6.666,16.111c0.646,11.965,0.236,23.989,0.137,35.985C130.907,303.074,132.159,306.276,128.532,304.53z"
			/>
		<path fill="#D3CDCC" stroke="#CFC9C8" stroke-miterlimit="10" d="M243.913,315.657c-0.941-2.299,0.908-3.318,2.281-4.072
			c5.938-3.261,11.985-6.322,18.016-9.414c3.935-2.016,9.096,0.607,8.299,4.752c-0.524,2.73,0.861,3.814,1.75,5.381
			c2.978,5.234,2.854,5.625-2.391,8.232c-4.951,2.46-9.772,5.184-14.914,7.931c1.51,1.57,2.797,0.921,4.086,0.244
			c4.928-2.587,9.737-5.437,14.816-7.674c4.211-1.854,3.544-2.199,6.743,3.212c1.591,2.689,0.226,4.094-2.375,5.389
			c-8.771,4.37-17.46,8.916-26.045,13.641c-2.089,1.148-3.323,0.793-4.324-0.926c-4.146-7.115-8.245-14.26-12.252-21.455
			c-2.074-3.727-1.291-4.969,2.992-5.01c1.079-0.01,2.101-1.005,3.206-0.175c-0.567,0.466-1.066,1.06-1.704,1.366
			c-1.739,0.836-2.157,1.516-1.084,3.592c2.922,5.649,6.751,10.792,9.429,16.504c1.678,3.577,3.266,3.137,6.075,1.965
			c6.325-2.636,11.767-6.885,18.056-9.602c1.859-0.804,3.982-1.299,5.559-2.83c0.885-0.861,1.166-1.691,0.287-2.531
			c-0.601-0.574-1.056-1.979-2.213-1.264c-5.955,3.68-13.08,5.07-18.605,9.593c-1.219,0.998-3.299,1.693-3.672-0.19
			c-0.368-1.865-4.184-3.372-0.975-5.754c5.254-3.896,11.406-6.209,16.95-9.59c0.646-0.395,2.011-0.246,1.804-1.479
			c-0.188-1.104-1.353-1.386-2.246-1.767c-1.041-0.445-1.813,0.299-2.731,0.674c-4.433,1.805-8.022,5.011-12.258,7.13
			c-1.476,0.737-2.864,1.329-4.606,1.112c-1.765-0.219-2.087-1.721-2.734-2.785c-0.803-1.316,0.637-2.266,1.471-2.504
			c2.572-0.732,4.27-2.84,6.908-3.666c4.037-1.264,7.344-4.325,11.35-5.974c2.416-0.993-0.484-2.278-0.229-3.584
			c0.217-1.095-0.936-0.996-1.582-0.675c-3.518,1.747-7.242,3.217-10.428,5.452C252.627,311.708,248.375,313.834,243.913,315.657z"
			/>
		<path fill="#D3CDCC" stroke="#CFC9C8" stroke-miterlimit="10" d="M204.821,37.38c2.227,1.873,4.424,2.306,6.547,2.309
			c3.559,0.006,6.813,1.415,10.283,1.786c3.044,0.327,2.145,2.791,2.174,4.679c0.038,2.582-0.494,4.756-3.652,5.027
			c-2.504,0.215-4.908-0.311-7.352-0.79c-5.833-1.143-11.705-2.077-17.551-3.157c-2.262-0.417-3.061-1.982-2.698-4.132
			c1.007-5.958,2.069-11.907,3.106-17.86c0.441-2.542,0.886-5.083,1.311-7.628c0.469-2.801,1.203-4.271,4.862-3.342
			c7.522,1.909,15.217,3.197,22.892,4.429c3.377,0.542,3.297,2.666,2.814,4.89c-0.539,2.486-0.549,5.813-4.729,5.101
			c-4.961-0.844-9.928-1.646-14.897-2.468c-0.224,1.47,0.644,1.449,1.364,1.404c4.17-0.26,8.136,1.075,12.213,1.506
			c3.466,0.366,3.636,2.698,2.943,5.145c-0.636,2.248-0.595,5.393-4.716,4.527c-3.247-0.682-6.587-0.891-9.823-1.789
			C208.465,36.615,206.831,36.62,204.821,37.38z M216.542,47.917c0.358,0,0.857,0.014,1.355-0.002
			c1.207-0.041,2.501,0.249,2.757-1.635c0.24-1.775-0.812-2.108-2.101-2.393c-1.417-0.312-2.76-0.809-4.23-1.055
			c-3.6-0.604-7.365-0.362-10.814-1.938c-1.076-0.492-2.122-0.697-1.981-2.207c0.405-4.357,3.517-5.846,7.91-4.589
			c3.313,0.947,6.755,2.4,10.412,1.21c0.712-0.231,1.468-0.207,1.588-1.22c0.117-0.992-0.163-1.632-1.112-2.079
			c-0.994-0.468-1.791-1.262-3.052-1.178c-3.453,0.229-6.823-0.394-10.181-1.139c-1.526-0.339-3.811-0.071-3.359-2.409
			c0.37-1.922,0.691-4.346,4.116-4.016c3.974,0.383,7.944,0.569,11.737,1.893c1.691,0.591,3.347,0.327,4.83-0.275
			c0.537-0.218,1.027-2.268,0.705-2.56c-0.942-0.852-2.324-1.761-3.5-1.72c-5.566,0.193-10.709-1.739-16.049-2.618
			c-1.521-0.251-4.173-1.772-5.285,0.436c-0.777,1.541-1.385,3.442-1.697,5.169c-0.949,5.24-1.238,10.598-2.166,15.842
			c-0.859,4.871-0.865,4.685,4.166,5.829c3.5,0.797,7.268-0.283,10.492,1.581C212.803,47.839,214.477,48.306,216.542,47.917z"/>
		<path fill="#D3CDCC" stroke="#CFC9C8" stroke-miterlimit="10" d="M46.194,281.206c-0.084-1.059-0.017-1.941,0.863-2.736
			c5.688-5.136,11.337-10.314,16.987-15.494c1.748-1.603,3.457-2.519,5.217-0.026c0.135,0.192,0.406,0.284,0.604,0.435
			c8.519,6.441,6.663,5.03,0.562,11.027c-1.845,1.813-1.383,1.938,0.062,3.271c3.095,2.863,6.188,5.808,8.771,9.114
			c1.417,1.815,2.306,1.638,3.765,0.595c0.201-0.144,0.469-0.195,0.661-0.349c1.789-1.418,3.056-4.386,5.49-3.867
			c2.904,0.62,4.428,3.722,6.498,5.789c1.287,1.287,1.456,3.035,0.07,4.306c-6.521,5.978-12.674,12.521-19.904,17.485
			c-3.789,2.603-5.542-3.517-8.293-5.556c-1.645-1.219-1.088-2.782,0.299-4.123c5.092-4.928,5.078-4.941,0.374-9.975
			c-0.339-0.361-0.628-0.781-1.007-1.092c-2.095-1.724-2.938-4.916-5.724-5.66c-3.164-0.848-4.169,2.846-6.585,3.907
			c-1.647,0.724-2.655,0.993-3.839-0.444C49.319,285.692,46.455,284.396,46.194,281.206z M53.243,286.104
			c1.62-1.529,3.231-2.916,4.683-4.453c2.231-2.362,3.984-2.022,6.032,0.394c3.118,3.679,6.494,7.142,9.815,10.646
			c3.209,3.385,3.238,3.951-0.092,7.144c-0.433,0.415-0.964,0.728-1.435,1.104c-1.43,1.146-3.389,2.465-1.167,4.242
			c1.731,1.385,3.599,4.577,6.423,1.192c4.275-5.124,9.666-9.097,14.356-13.797c1.084-1.086,1.326-1.613,0.366-2.995
			c-1.042-1.5-2.197-3.371-3.861-2.54c-1.785,0.892-4.04,1.733-5.049,3.668c-1.227,2.353-2.486,1.969-4.08,0.58
			c-4.731-4.123-7.709-9.915-12.955-13.56c-1.008-0.7-0.378-1.846,0.19-2.276c2.355-1.789,2.859-5.224,5.869-6.433
			c-0.838-0.947-1.674-1.861-2.474-2.809c-1.319-1.559-2.154-2.221-4.395-0.497c-5.184,3.986-9.47,8.909-14.521,12.983
			c-2.304,1.857-1.738,3.424-0.102,5.15C51.604,284.646,52.448,285.36,53.243,286.104z"/>
		<path fill="#D3CDCC" stroke="#CFC9C8" stroke-miterlimit="10" d="M266.086,38.971c-0.127,2.312-0.082,3.575-0.283,4.797
			c-0.545,3.306-2.297,4.242-5.309,2.915c-2.601-1.145-4.641-2.541-6.188-5.332c-1.899-3.424-6.315-4.803-9.765-4.791
			c-3.072,0.01-3.91,4.274-4.912,7.158c-0.813,2.339,1.014,3.899,2.591,4.263c3.345,0.772,6.163,3.881,10.475,1.256
			c2.339-1.424,6.173,0.602,8.205,2.958c1.661,1.926-0.344,3.964-1.483,5.671c-3.32,4.968-6.365,5.717-12.119,3.742
			c-5.832-2.002-11.537-4.211-16.43-8.035c-4.144-3.237-4.242-7.004-1.582-11.625c1.619-2.813,1.887-6.284,3.42-9.349
			c4.063-8.115,7.226-10.226,18.102-5.863c3.326,1.334,6.666,2.608,9.829,4.322C264.235,33.008,267.333,35.171,266.086,38.971z
			 M263.616,40.66c0.305-2.7-0.334-5.525-3.181-6.585c-4.812-1.792-8.815-5.175-14.095-6.181c-3.818-0.728-6.33-0.768-8.635,2.534
			c-3.248,4.652-5.463,9.835-7.521,15.091c-0.933,2.382,0.045,4.232,1.834,5.546c3.638,2.672,7.614,4.986,11.892,6.237
			c2.909,0.85,5.688,2.816,9.071,1.986c2.517-0.618,3.634-2.473,4.547-4.526c0.318-0.717,0.382-1.681-0.79-2.147
			c-1.859-0.743-3.635-1.75-5.197,0.555c-0.281,0.418-1.279,0.851-1.601,0.667c-3.653-2.085-8.185-2.578-11.073-6.041
			c-3.959-4.75,0.508-8.125,2.088-11.87c1.221-2.894,3.724-2.296,6.068-1.335c4.266,1.746,10.051,0.852,11.688,7.213
			c0.283,1.103,2.287,2.762,4.09,2.293C264.352,43.693,263.68,42.06,263.616,40.66z"/>
		<path fill="#D3CDCC" stroke="#CFC9C8" stroke-miterlimit="10" d="M181.146,349.103c0.016,4.808-1.288,5.607-6.196,4.804
			c-3.611-0.593-6.625-1.064-5.879-5.917c0.31-2.018-1.799-2.247-3.119-2.545c-3.247-0.732-6.554-1.215-9.849-1.713
			c-2.236-0.34-3.714,0.343-3.396,2.988c0.268,2.225-1.208,2.717-2.939,2.936c-2.778,0.352-5.43-0.563-8.105-0.995
			c-2.103-0.341-1.868-2.442-1.686-4.019c0.455-3.918,0.826-7.879,1.729-11.703c0.476-2.016,0.221-3.948,0.456-5.901
			c0.651-5.433,3.353-9.769,10.078-8.535c7.121,1.306,14.304,2.697,21.555,3.496c4.532,0.5,8.467,2.291,10.271,7.239
			c1.367,3.748,0.299,7.257-1.579,9.893c-1.917,2.688-2.469,4.838-1.376,7.74C181.357,347.524,181.146,348.353,181.146,349.103z
			 M148.192,321.024c-0.886-0.403-1.406-0.146-2.162,1.92c-2.033,5.557-1.481,11.445-2.773,17.084
			c-0.367,1.604-1.451,4.111-0.548,5.389c1.494,2.111,4.403,0.962,6.658,1.039c1.893,0.064,0.932-1.865,0.993-2.914
			c0.083-1.416-0.018-3.328,1.917-2.785c5.325,1.495,11.065-0.007,16.221,2.471c1.992,0.959,3.749,1.916,3.587,4.568
			c-0.226,3.697,3.198,2.188,4.814,3.27c0.707,0.475,1.602,0.498,1.787-0.385c0.376-1.791,0.881-3.69-0.688-5.274
			c-0.701-0.708-1.329-1.489-2.047-2.181c-2.308-2.219-0.834-3.289,1.282-3.957c4.094-1.293,6.042-6.486,3.749-10.127
			c-1.691-2.687-4.501-3.612-7.248-4.339C165.64,322.665,157.259,322.336,148.192,321.024z"/>
		<path fill="#D3CDCC" stroke="#CFC9C8" stroke-miterlimit="10" d="M98.141,38.579c5.119,0.398,10.929,6.351,11.608,12.319
			c0.227,2.001,0.972,3.135,2.603,4.096c1.919,1.13,3.403,2.764,4.793,4.535c1.917,2.443,1.576,4.226-1.108,5.664
			c-1.191,0.638-2.392,1.262-3.565,1.931c-1.7,0.969-2.993,0.787-4.026-1.051c-1.724-3.065-3.879-3.402-6.452-0.863
			c-0.687,0.677-1.578,1.222-2.472,1.601c-2.438,1.036-3.367,2.217-1.721,4.923c1.847,3.038-0.351,5.919-4.255,8.032
			c-2.997,1.623-3.969-0.853-5.18-2.566c-4.623-6.541-9.214-13.106-13.69-19.748c-1.285-1.906-2.665-3.961,0.511-5.837
			c6.678-3.945,12.61-9.088,19.743-12.322C95.977,38.816,96.969,38.364,98.141,38.579z M115.358,62.239
			c-1.388-2.573-3.13-4.628-5.889-5.257c-2.776-0.634-5.737-0.613-2.739-4.755c0.594-0.821,0.578-3.333-1.108-4.715
			c-1.212-0.992-2.056-2.418-3.162-3.555c-3.677-3.778-5.432-4.268-9.636-0.902c-4.315,3.454-8.834,6.523-13.625,9.17
			c-2.772,1.532-4.166,2.456-0.705,4.859c1.432,0.995,2.044,3.095,3.264,4.485c3.355,3.825,4.921,8.852,8.576,12.487
			c1.188,1.181,1.652,3.056,3.928,1.346c2.37-1.779,0.424-2.878-0.272-4.28c-1.202-2.42-0.603-4.658,1.818-5.546
			c2.385-0.875,4.333-2.268,6.311-3.677c2.378-1.694,4.885-1.915,6.67,0.316C111.082,65.08,112.978,64.128,115.358,62.239z"/>
		<path fill="#D3CDCC" stroke="#CFC9C8" stroke-miterlimit="10" d="M158.184,15.931c5.454-1.613,7.626,2.611,10.172,6.053
			c2.609,3.526,2.759,3.549,4.921-0.359c1.015-1.836,2.112-3.632,3.261-5.387c0.76-1.162,1.71-2.01,3.333-1.948
			c1.351,0.052,2.76-0.138,4.068-0.495c1.917-0.523,3.937-0.868,5.125,0.908c1.261,1.887-0.401,3.486-1.382,5.041
			c-2.955,4.682-5.827,9.42-8.899,14.025c-1.864,2.792-1.262,5.699-0.971,8.649c0.26,2.636,0.899,5.46-3.159,5.771
			c-6.656,0.507-8.083-0.068-7.562-4.789c0.855-7.747-4.877-11.539-8.931-16.238c-2.08-2.411-4.039-4.947-6.177-7.321
			c-1.78-1.976-1.06-3.529,1.619-3.875C155.075,15.775,156.591,15.931,158.184,15.931z M185.662,16.848
			c-2.443,0.206-5.535-0.831-7.155,1.141c-2.273,2.766-3.846,6.19-5.303,9.515c-0.901,2.058-1.644,1.783-2.901,0.612
			c-2.7-2.517-5.279-5.132-7.319-8.244c-1.033-1.576-6.306-2.657-7.03-1.327c-1.132,2.076,1.026,3.031,2.165,4.322
			c3.515,3.984,6.949,8.04,10.435,12.05c0.533,0.613,0.737,1.251,0.638,2.05c-0.233,1.885,0.327,3.595,0.879,5.397
			c0.526,1.719,0.854,2.527,2.938,2.276c2.41-0.291,2.22-1.869,1.81-3.176c-1.428-4.544,0.834-7.978,2.795-11.724
			C179.964,25.25,184.417,22.132,185.662,16.848z"/>
		<path fill="#D3CDCC" stroke="#CFC9C8" stroke-miterlimit="10" d="M277.215,298.782c-0.332-2.168,0.474-3.842,1.707-5.535
			c5.274-7.244,11.469-13.576,18.515-19.09c3.112-2.436,6.3-2.873,10.015-1.039c5.707,2.818,10.414,6.648,13.672,12.12
			c2.537,4.262,1.121,8.317-1.693,11.63c-5.66,6.665-11.49,13.242-18.799,18.215c-4.371,2.975-7.268,2.648-11.459-0.45
			c-3.209-2.373-6.09-5.067-8.85-7.925C278.159,304.466,276.708,301.979,277.215,298.782z M303.393,274.812
			c-2.477-0.465-4.527,0.729-6.073,2.631c-4.136,5.09-9.825,8.56-13.849,13.832c-3.033,3.978-4.854,7.506-2.885,10.343
			c2.621,3.78,5.418,7.448,9.44,10.141c2.36,1.578,4.642,3.938,7.118,2.138c2.074-1.508,4.557-2.178,6.494-4.184
			c3.947-4.08,7.809-8.26,11.84-12.251c4.85-4.807,5.299-8.702,1.102-14.081c-2.215-2.837-5.615-4.048-8.021-6.492
			C307.088,275.39,305.604,274.593,303.393,274.812z"/>
		<path fill="#D3CDCC" stroke="#CFC9C8" stroke-miterlimit="10" d="M128.102,326.638c0,4.327,0.029,8.656-0.009,12.983
			c-0.031,3.534-1.145,4.164-4.346,2.549c-1.645-0.831-3.282-1.679-4.938-2.485c-1.914-0.934-3.294-2.199-3.022-4.563
			c0.258-2.237-1.021-3.346-2.871-4.207c-2.677-1.25-5.328-2.57-7.903-4.018c-2.675-1.502-5.194-2.813-7.953-0.112
			c-0.976,0.955-2.515,0.805-3.435,0.028c-2.03-1.711-4.562-2.391-6.75-3.731c-2.897-1.776-3.007-3.606-0.156-5.295
			c8.367-4.952,16.84-9.728,25.176-14.729c1.375-0.824,2.649-1.004,3.831-0.444c3.13,1.479,6.179,3.146,9.17,4.894
			c0.908,0.529,1.562,1.426,1.641,2.738c0.331,5.469,0.806,10.928,1.228,16.389C127.876,326.634,127.989,326.636,128.102,326.638z
			 M124.021,317.955c0-1.718,0.078-2.847-0.018-3.958c-0.156-1.811,0.032-4.672-1.331-5.071c-4.186-1.229-7.462-6.106-13.211-1.792
			c-5.724,4.296-12.332,7.576-18.422,11.514c-1.818,1.176-2.177,2.485,0.284,3.539c2.621,1.121,5.256,2.383,7.817,0.118
			c0.985-0.87,1.447-0.382,2.447-0.108c4.085,1.115,6.617,4.941,10.85,5.796c4.017,0.81,6.961,2.776,6.441,7.665
			c-0.121,1.138,5.072,4.335,6.211,4.021c0.611-0.168,0.968-0.519,0.812-1.355c-0.22-1.181,0.1-2.399,0.087-3.621
			C125.929,328.835,123.794,323.229,124.021,317.955z"/>
		<path fill="#D3CDCC" stroke="#CFC9C8" stroke-miterlimit="10" d="M70.122,115.504c-1.623,12.154-0.643,24.364-0.673,36.544
			c-0.078,31.449,0.124,62.898,0.138,94.348c0.001,2.354,0.516,4.412,1.711,6.365c11.09,18.125,25.95,32.567,43.562,44.245
			c3.567,2.364,7.774,3.745,10.859,6.896c-1.028,0.355-1.956,0.048-2.864-0.424c-17.579-9.139-32.103-21.904-44.368-37.354
			c-3.46-4.356-6.654-8.879-9.41-13.735c-0.939-1.656-1.146-3.214-1.15-4.951c-0.092-41.976-0.191-83.951-0.26-125.925
			C67.663,119.225,67.109,116.605,70.122,115.504z"/>
		<path fill="#D3CDCC" stroke="#CFC9C8" stroke-miterlimit="10" d="M324.635,83.649c-0.158,0.492-0.33,1.496-0.779,2.353
			c-4.354,8.283-8.73,16.553-13.15,24.801c-1.588,2.964-3.094,3.149-5.342,0.566c-2.521-2.9-6.043-5.66-2.443-10.092
			c0.363-0.448,0.229-0.923-0.119-1.346c-2.268-2.771-4.557-5.525-6.793-8.32c-0.803-1.001-1.926-0.881-2.719-0.492
			c-2.772,1.366-4.391,0.108-5.813-2.106c-0.463-0.72-1.219-1.246-1.791-1.903c-2.896-3.318-2.381-5.133,1.827-6.166
			c8.723-2.142,17.45-4.255,26.19-6.325C317.719,73.668,324.489,79.014,324.635,83.649z M287.29,84.179
			c3.303,3.958,3.307,3.983,8.008,3.193c0.949-0.16,1.25,0.398,1.773,0.956c1.75,1.863,3.068,4.075,4.646,5.999
			c2.398,2.923,5.586,4.955,3.293,9.553c-1.129,2.263,1.227,4.619,2.609,5.087c1.979,0.671,2.258-1.85,2.473-3.572
			c0.061-0.474,0.268-1.014,0.584-1.358c4.797-5.2,5.68-12.644,10.293-17.968c0.553-0.635,1.322-1.453,0.574-2.909
			c-2.756-5.366-4.896-6.452-10.549-4.711c-0.35,0.108-0.729,0.124-1.094,0.168C302.276,79.53,295.125,82.254,287.29,84.179z"/>
		<path fill="#D3CDCC" stroke="#CFC9C8" stroke-miterlimit="10" d="M112.097,36.194c-0.748-5.191,2.856-7.585,6.506-9.427
			c5.253-2.65,10.939-4.242,16.784-5.164c5.251-0.828,7.988,0.731,10.684,5.327c2.485,4.235,3.8,8.871,5.278,13.445
			c1.925,5.956,0.286,9.602-5.598,12.445c-6.042,2.918-12.353,5.109-19.128,5.611c-3.474,0.257-6.025-0.729-8.076-4
			C114.991,48.756,112.845,42.742,112.097,36.194z M148.964,42.988c-1.118-6.124-3.728-11.698-7.024-17.013
			c-1.473-2.376-3.502-2.659-6.089-2.391c-2.095,0.217-3.596,1.613-5.721,1.907c-5.086,0.706-9.377,3.623-13.662,6.317
			c-1.9,1.195-2.367,2.899-1.788,5.138c1.587,6.135,4.525,11.658,7.407,17.224c0.795,1.535,2.568,2.076,3.521,1.773
			c6.461-2.048,13.442-2.419,19.338-6.414C147.452,47.832,149.398,46.401,148.964,42.988z"/>
		<path fill="#D3CDCC" stroke="#CFC9C8" stroke-miterlimit="10" d="M221.263,319.656c9.64,0.032,11.675,1.518,13.394,9.089
			c0.846,3.72,2.139,7.381,1.986,11.3c-0.188,4.851-2.668,8.301-7.379,9.427c-10.2,2.438-20.521,4.262-30.917,5.662
			c-2.239,0.303-3.392-0.179-3.862-2.684c-1.529-8.123-3.35-16.191-4.994-24.295c-0.347-1.706-0.104-3.051,2.129-3.553
			C202.02,322.263,212.536,320.712,221.263,319.656z M216.536,349.663c3.752,0.031,7.346-0.982,10.885-1.938
			c6.483-1.75,8.935-7.73,6.064-13.963c-0.406-0.885-0.934-1.656-1.078-2.713c-1.029-7.523-5.769-10.773-13.066-9.021
			c-7.995,1.92-16.112,3.207-24.252,4.207c-2.729,0.337-3.082,1.951-2.5,3.379c2.457,6.037,1.556,12.623,3.451,18.752
			c1.145,3.697,2.217,4.814,5.951,3.883C206.788,351.051,211.584,349.933,216.536,349.663z"/>
		<path fill="#D3CDCC" stroke="#CFC9C8" stroke-miterlimit="10" d="M81.626,77.942c0.294,3.294-1.734,5.606-3.485,7.969
			c-1.164,1.571-2.633,2.921-4.004,4.333c-2.156,2.218-2.76,4.348,0.12,6.488c1.559,1.159,1.223,2.279,0.115,3.76
			c-4.637,6.194-5.148,6.273-10.979,1.063c-5.337-4.769-10.693-9.516-16.099-14.207c-2.592-2.249-2.791-4.186-0.211-6.761
			c4.181-4.172,7.91-8.796,12.077-12.983c4.771-4.794,8.175-4.852,13.727-0.886c2.818,2.013,5.688,3.872,7.495,7.036
			C81.168,75.132,81.528,76.462,81.626,77.942z M79.31,79.638c-0.747-2.61-0.809-4.989-2.811-6.462
			c-2.475-1.82-5.278-3.295-7.423-5.436c-2.299-2.295-3.792-1.55-6.057-0.029c-5.356,3.595-7.852,9.9-13.193,13.445
			c-2.649,1.758-1.759,3.226,0.319,4.787c2.831,2.127,5.584,4.365,8.293,6.647c3.135,2.641,6.195,5.372,9.271,8.083
			c0.869,0.766,1.751,1.292,2.261-0.209c0.299-0.882,2.452-1.414,0.857-2.625c-3.555-2.7-2.833-4.903,0.001-7.768
			c1.308-1.321,2.586-2.858,3.805-4.357C76.308,83.652,77.877,81.508,79.31,79.638z"/>
		<path fill="#D3CDCC" stroke="#CFC9C8" stroke-miterlimit="10" d="M301.915,59.633c-1.066,1.818-2.363,4.243-4.809,5.902
			c-2.467,1.675-3.568-0.533-4.986-1.646c-4.088-3.208-5.019-3.073-7.939,0.915c-2.52,3.437-5.178,6.775-7.874,10.075
			c-2.157,2.641-4.423,2.196-8.56-1.129c-2.52-2.024-1.56-3.529,0.08-5.508c3.106-3.75,5.82-7.829,8.981-11.528
			c1.702-1.992,1.214-3.221-0.495-4.57c-0.872-0.688-1.759-1.36-2.656-2.015c-2.435-1.776-3.255-3.327-0.881-6.224
			c4.152-5.067,4.462-5.455,9.508-1.243c5.588,4.665,11.383,9.019,17.477,12.999C300.842,56.37,302.114,57.211,301.915,59.633z
			 M273.502,74.429c2.941-4.067,5.67-8.13,8.694-11.958c4.892-6.189,4.976-6.125,11.009-1.011c0.188,0.16,0.31,0.401,0.502,0.554
			c2.453,1.935,3.166-0.345,4.506-1.679c2.053-2.042-0.238-1.731-0.984-2.583c-1.672-1.908-4.132-2.925-5.686-4.477
			c-3.438-3.439-7.799-5.532-11.191-8.9c-1.65-1.638-3.311-2.352-5.075,0.084c-1.767,2.438,0.451,2.862,1.688,3.823
			c1.281,0.994,2.643,1.896,3.851,2.972c1.325,1.18,1.767,2.188,0.331,4.042c-3.075,3.969-5.756,8.143-9.536,11.639
			c-3.622,3.35-2.894,5.066,1.907,7.495C273.618,74.479,273.743,74.479,273.502,74.429z"/>
		<path fill="#D3CDCC" stroke="#CFC9C8" stroke-miterlimit="10" d="M347.625,179.4c2.881,0.512,3.027,3.168,3.475,5.109
			c1.898,8.219-3.369,16.862-11.182,18.821c-9.248,2.319-17.785-2.606-20.121-11.613c-1.635-6.305,1.012-13.623,5.99-16.569
			c6.563-3.882,14.98-3.332,20.078,1.18c1.012,0.894,1.623,1.823,1.801,3.104c-1.584-0.062-2.225-1.49-3.273-2.309
			c-6.057-4.721-14.893-4.013-20.031,1.655c-4.385,4.838-4.094,12.122,0.691,17.276c4.725,5.086,12.857,6.09,18.848,2.165
			c4.387-2.874,8.291-8.467,4.242-16.69C347.829,180.891,347.792,180.114,347.625,179.4z"/>
		<path fill="#D3CDCC" stroke="#CFC9C8" stroke-miterlimit="10" d="M39.502,167.435c8.788,0.051,16.489,7.57,16.119,16.491
			c-0.353,8.509-6.368,14.919-16.485,14.897c-9.247-0.021-15.505-7.492-15.573-15.512C23.483,173.94,30.325,167.424,39.502,167.435z
			 M53.801,183.405c0.004-7.782-6.404-14.289-14.243-14.461c-7.45-0.163-13.659,5.492-13.654,12.434
			c0.006,7.852,6.783,14.582,14.721,14.423C46.698,195.681,54.584,190.959,53.801,183.405z"/>
		<path fill="#D3CDCC" stroke="#CFC9C8" stroke-miterlimit="10" d="M91.212,88.744c0.216,1.232-0.333,2.172-1.189,2.958
			c-7.165,6.58-12.689,14.466-18.008,22.522c-0.154,0.232-0.635,0.248-0.962,0.362c-0.492-3.862,2.688-5.906,4.428-8.581
			c3.97-6.102,9.078-11.296,14.125-16.51C89.992,89.099,90.67,88.988,91.212,88.744z"/>
		<path fill="#D3CDCC" stroke="#CFC9C8" stroke-miterlimit="10" d="M159.197,327.376c2.623,1.42,7.575,1.004,12.08,2.645
			c2.265,0.824,3.366,2.125,2.57,4.486c-0.793,2.355-2.757,3.578-5.049,3.432c-2.139-0.138-4.301-0.155-6.454-1.328
			c-2.209-1.202-5.042,0.006-7.644-0.459c-2.889-0.517-3.506-1.754-2.661-4.362C152.915,329.081,153.127,325.813,159.197,327.376z
			 M167.161,335.315c1.673-0.316,3.59,0.639,3.807-1.375c0.223-2.071-1.895-1.939-3.2-2.211c-3.396-0.705-6.838-1.187-10.253-1.807
			c-1.148-0.208-2.231-0.579-2.54,1.127c-0.265,1.465,0.548,2.277,1.732,2.374C160.388,333.729,163.981,334.511,167.161,335.315z"/>
		<path fill="#D3CDCC" stroke="#CFC9C8" stroke-miterlimit="10" d="M101.678,52.742c0.355,2.237-0.624,3.561-3.001,4.583
			c-2.643,1.137-5.095,2.88-7.455,4.522c-2.569,1.787-3.43,0.302-4.482-1.32c-1.325-2.044-3.635-4.27-0.67-6.56
			c2.806-2.17,5.848-4.086,8.962-5.792C98.9,46.058,101.933,48.145,101.678,52.742z M99.596,52.601
			c-1.242-0.562-1.301-2.624-3.296-1.341c-2.28,1.467-4.749,2.65-6.964,4.201c-0.548,0.384-2.301,0.979-0.913,2.566
			c0.948,1.084,1.746,1.786,3.086,0.867c2.233-1.531,4.446-3.092,6.634-4.686C98.614,53.865,98.947,53.331,99.596,52.601z"/>
		<path fill="#D3CDCC" stroke="#CFC9C8" stroke-miterlimit="10" d="M296.745,306.113c-3.623-0.13-8.838-4.464-9.752-7.57
			c-0.884-2.999,1.715-4.19,3-5.924c3.014-4.058,6.452-7.735,11.193-9.946c4.018-1.873,5.916,1.328,8.209,3.344
			c2.111,1.855,3.025,4.006,1.604,7.047c-2.514,5.377-6.652,9.041-11.463,12.119C298.643,305.754,297.61,306.431,296.745,306.113z
			 M296.756,303.872c0.74-0.448,1.617-0.885,2.389-1.463c3.064-2.296,5.496-5.25,8.158-7.963c2.088-2.131,2.221-3.93-0.227-6.105
			c-2.434-2.163-4.566-4.578-7.816-1.641c-2.551,2.305-5.039,4.719-7.232,7.354c-0.973,1.17-2.902,2.553-1.604,4.521
			C291.93,300.853,293.938,302.685,296.756,303.872z"/>
		<path fill="#D3CDCC" stroke="#CFC9C8" stroke-miterlimit="10" d="M111.813,321.122c-3.019,2.146-3.73-1.256-5.114-2.395
			c-1.743-1.437,0.442-1.979,1.296-2.508c2.091-1.294,4.373-2.395,6.4-3.654c2.685-1.668,3.171-0.082,3.4,1.484
			c0.43,2.942,0.385,5.959,0.457,8.946c0.027,1.162-0.815,2.119-1.839,1.916c-1.644-0.326-3.124-1.22-3.443-3.169
			c2.168-1.051,2.963-2.887,1.731-4.839c-1.227-1.945-2.39,0.323-3.286,0.815C109.397,318.832,112.268,319.878,111.813,321.122z"/>
		<path fill="#D3CDCC" stroke="#CFC9C8" stroke-miterlimit="10" d="M314.932,83.026c0.639,0.06,0.865,0.826,0.283,1.907
			c-1.486,2.755-2.969,5.516-4.576,8.199c-0.867,1.448-2.043,1.673-3.189,0.171c-0.75-0.979-1.436-2.02-2.266-2.928
			c-3.354-3.673-3.422-3.803,1.086-5.394C308.805,84.087,311.543,83.768,314.932,83.026z"/>
		<path fill="#D3CDCC" stroke="#CFC9C8" stroke-miterlimit="10" d="M128.294,48.995c-2.542,0.13-4.237-1.192-5.329-3.33
			c-1.155-2.261-1.936-4.696-2.221-7.202c-0.175-1.533,0.51-3.347,1.893-3.902c3.73-1.498,7.022-4.106,11.344-4.2
			c4.066-0.089,6.995,1.823,7.583,5.813c0.217,1.472,0.57,2.869,1.001,4.264c0.863,2.796,0.131,4.317-2.778,5.699
			C136.06,47.907,132.313,48.793,128.294,48.995z M128.93,46.608c5.105-0.041,11.013-3.123,10.961-5.719
			c-0.07-3.55-2.856-7.597-5.28-7.669c-3.733-0.113-10.936,3.063-11.034,4.862C123.371,41.852,126.37,46.629,128.93,46.608z"/>
		<path fill="#D3CDCC" stroke="#CFC9C8" stroke-miterlimit="10" d="M217.261,343.583c-2.339,2.797-6.025,1.066-9.21,2.114
			c-2.924,0.96-5.206-0.378-5.387-3.425c-0.158-2.709-0.427-5.351-1.149-7.965c-0.709-2.563,1.192-4.06,3.001-4.222
			c4.766-0.429,9.429-0.667,13.992-2.583c2.507-1.052,5.218,0.057,6.25,3.105c0.705,2.08,1.281,4.215,1.775,6.356
			c0.68,2.956-0.888,5.563-3.865,5.92C221,343.087,219.708,344.979,217.261,343.583z M223.151,336.968
			c-0.05-5.894-0.613-6.477-5.975-6.089c-1.973,0.144-3.924,0.53-5.887,0.798c-8.105,1.107-8,1.083-6.194,9.252
			c0.409,1.854,1.057,2.264,2.688,2.008c4.041-0.634,8.125-1.054,12.117-1.908C221.938,340.59,224.062,339.581,223.151,336.968z"/>
		<path fill="#E7E4E3" stroke="#CFC9C8" stroke-width="3" stroke-miterlimit="10" d="M72.807,78.418
			c-0.411,0.682-0.69,1.392-1.176,1.908c-1.771,1.878-3.472,3.783-5.045,5.855c-0.974,1.283-2.716,3.77-4.261,2.937
			c-2.139-1.154-4.679-2.263-6.034-4.642c-0.72-1.264-0.127-2.432,0.832-2.884c3.271-1.545,4.258-5.253,7.152-7.176
			c1.321-0.878,1.984-2.295,3.999-1.083C70.401,74.614,71.829,76.277,72.807,78.418z"/>
	</g>
</g>
</svg>
