<?xml version="1.0" encoding="UTF-8" standalone="no"?>
<svg
   xmlns:dc="http://purl.org/dc/elements/1.1/"
   xmlns:cc="http://creativecommons.org/ns#"
   xmlns:rdf="http://www.w3.org/1999/02/22-rdf-syntax-ns#"
   xmlns:svg="http://www.w3.org/2000/svg"
   xmlns="http://www.w3.org/2000/svg"
   version="1.1"
   id="svg5183"
   viewBox="0 0 235.1982 42.477969"
   height="11.988227mm"
   width="66.378159mm">
  <defs
     id="defs5185" />
  <metadata
     id="metadata5188">
    <rdf:RDF>
      <cc:Work
         rdf:about="">
        <dc:format>image/svg+xml</dc:format>
        <dc:type
           rdf:resource="http://purl.org/dc/dcmitype/StillImage" />
        <dc:title></dc:title>
      </cc:Work>
    </rdf:RDF>
  </metadata>
  <g
     transform="translate(-413.04713,-951.86841)"
     id="layer1">
    <g
       transform="translate(-3,-9.0474362)"
       id="g5808">
      <g
         id="g5920">
        <g
           id="g5679"
           transform="matrix(0.11721218,0,0,0.11721218,414.28649,892.45132)">
          <g
             id="g5410">
            <g
               id="g5326"
               transform="matrix(1.0093259,0,0,1.0093259,-3.5580118,-8.8169258)">
              <g
                 style="fill:#fffcfc;fill-opacity:0.78233439"
                 transform="translate(13.345463,583.04318)"
                 id="g5276">
                <g
                   style="fill:#fffcfc;fill-opacity:0.78233439"
                   id="Layer_2" />
                <g
                   style="fill:#fffcfc;fill-opacity:0.78233439"
                   id="Layer_1">
                  <g
                     style="fill:#fffcfc;fill-opacity:0.78233439"
                     id="g5208">
                    <path
                       style="clip-rule:evenodd;fill:#fffcfc;fill-opacity:0.78233439;fill-rule:evenodd"
                       d="m 321.34,305.292 c 0.482,-0.545 0.965,-1.091 1.447,-1.638 0.121,1.076 -0.306,1.672 -1.447,1.638 z"
                       id="path5212" />
                    <path
                       style="clip-rule:evenodd;fill:#fffcfc;fill-opacity:0.78233439;fill-rule:evenodd"
                       d="m 319.851,306.806 c 0.276,-0.711 0.767,-1.213 1.476,-1.498 0.059,1.043 -0.439,1.536 -1.476,1.498 z"
                       id="path5214" />
                    <path
                       style="clip-rule:evenodd;fill:#fffcfc;fill-opacity:0.78233439;fill-rule:evenodd"
                       d="m 128.532,304.53 c 1.105,-1.407 0.83,-3.068 0.827,-4.665 -0.02,-13.375 -0.001,-26.75 -0.127,-40.124 -0.026,-2.798 0.493,-4.998 2.843,-6.849 3.019,-2.376 5.372,-5.485 8.312,-8.02 2.177,-1.876 4.254,-2.602 7.031,-2.545 26.733,0.544 53.469,1.007 80.204,1.444 1.868,0.03 3.328,0.525 4.645,1.895 4.054,4.215 9.48,7.711 11.939,12.689 2.418,4.896 0.617,11.286 0.668,17.019 0.08,9.249 0.072,18.5 -0.047,27.749 -0.037,2.854 0.911,3.148 3.246,2.018 17.296,-8.386 32.245,-19.804 44.492,-34.631 2.339,-2.83 4.257,-6.006 6.645,-8.854 3.59,-4.278 5.279,-9.067 5.266,-15.033 -0.093,-40.243 0.224,-80.488 0.491,-120.732 0.02,-2.878 -0.68,-5.282 -2.19,-7.71 -8.854,-14.231 -19.851,-26.542 -33.203,-36.63 -6.598,-4.985 -13.613,-9.407 -20.978,-13.27 -3.192,-1.674 -3.47,-0.492 -3.462,2.284 0.04,13.875 -0.061,27.75 0.016,41.624 0.014,2.535 -0.551,4.435 -2.501,6.233 -4.018,3.704 -7.104,9.19 -11.996,10.962 -4.757,1.723 -10.608,0.536 -15.976,0.443 -22.732,-0.39 -45.463,-0.872 -68.195,-1.244 -2.296,-0.038 -3.964,-0.752 -5.542,-2.445 -3.141,-3.367 -6.441,-6.593 -9.813,-9.73 -1.803,-1.678 -2.396,-3.54 -2.384,-5.959 0.072,-13.875 -0.045,-27.75 0.04,-41.625 0.019,-3.055 -0.502,-3.66 -3.523,-2.245 -9.981,4.676 -18.887,10.925 -27.423,17.791 -0.815,0.655 -1.519,1.755 -2.874,1.299 1.325,-4.21 5.547,-5.42 8.487,-7.846 6.584,-5.432 14.098,-9.536 21.721,-13.369 3.863,-1.942 5.545,-0.93 5.563,3.394 0.058,13.994 0.101,27.988 0.02,41.982 -0.015,2.557 1,4.271 2.479,6.288 6.441,8.778 14.658,11.583 25.588,11.061 22.576,-1.079 45.176,1.182 67.787,1.153 2.567,-0.003 4.219,-1.026 6.234,-2.496 8.396,-6.123 11.879,-13.698 10.808,-24.378 -1.055,-10.517 -0.237,-21.225 -0.189,-31.848 0.021,-4.568 1.26,-5.285 5.449,-3.158 23.921,12.148 42.857,29.604 56.56,52.76 1.677,2.833 1.131,5.577 1.132,8.287 0.014,40.618 -0.211,81.236 -0.145,121.854 0.008,4.942 -2.447,8.575 -4.875,12.107 -13.347,19.417 -30.481,34.571 -51.847,44.76 -0.67,0.319 -1.353,0.621 -2.052,0.866 -3.611,1.262 -4.449,0.7 -4.455,-3.195 -0.02,-12.87 -0.201,-25.745 0.133,-38.607 0.118,-4.517 -1.572,-7.412 -4.365,-10.773 -6.174,-7.427 -13.449,-9.797 -23.017,-9.326 -18.583,0.913 -37.186,-0.971 -55.795,-1.055 -2.32,-0.011 -4.671,0.184 -6.956,-0.115 -6.327,-0.828 -11.113,0.97 -15.781,5.79 -4.63,4.782 -7.036,9.251 -6.666,16.111 0.646,11.965 0.236,23.989 0.137,35.986 -0.011,1.172 1.241,4.374 -2.386,2.628 z"
                       id="path5216" />
                    <path
                       style="clip-rule:evenodd;fill:#fffcfc;fill-opacity:0.78233439;fill-rule:evenodd"
                       d="m 204.821,37.38 c 2.226,1.873 4.423,2.306 6.546,2.309 3.559,0.006 6.814,1.415 10.284,1.786 3.044,0.327 2.145,2.791 2.173,4.679 0.039,2.582 -0.493,4.756 -3.651,5.027 -2.504,0.215 -4.909,-0.311 -7.352,-0.79 -5.833,-1.143 -11.705,-2.077 -17.551,-3.157 -2.261,-0.417 -3.061,-1.982 -2.698,-4.132 1.007,-5.958 2.069,-11.907 3.106,-17.86 0.442,-2.542 0.886,-5.083 1.311,-7.628 0.468,-2.801 1.203,-4.271 4.862,-3.342 7.522,1.909 15.217,3.197 22.891,4.429 3.378,0.542 3.298,2.666 2.815,4.89 -0.539,2.486 -0.548,5.813 -4.729,5.101 -4.96,-0.844 -9.927,-1.646 -14.897,-2.468 -0.224,1.47 0.643,1.449 1.364,1.404 4.17,-0.26 8.136,1.075 12.214,1.506 3.465,0.366 3.635,2.698 2.943,5.145 -0.636,2.248 -0.595,5.393 -4.716,4.527 -3.247,-0.682 -6.587,-0.891 -9.823,-1.789 -1.447,-0.402 -3.082,-0.397 -5.092,0.363 z m 11.721,10.537 c 0.358,0 0.857,0.014 1.355,-0.002 1.207,-0.041 2.501,0.249 2.757,-1.635 0.24,-1.775 -0.811,-2.108 -2.101,-2.393 -1.417,-0.312 -2.76,-0.809 -4.23,-1.055 -3.6,-0.604 -7.366,-0.362 -10.815,-1.938 -1.076,-0.492 -2.122,-0.697 -1.981,-2.207 0.405,-4.357 3.517,-5.846 7.91,-4.589 3.313,0.947 6.755,2.4 10.412,1.21 0.712,-0.231 1.468,-0.207 1.588,-1.22 0.117,-0.992 -0.163,-1.632 -1.113,-2.079 -0.993,-0.468 -1.791,-1.262 -3.051,-1.178 -3.453,0.229 -6.823,-0.394 -10.181,-1.139 -1.526,-0.339 -3.811,-0.071 -3.359,-2.409 0.37,-1.922 0.692,-4.346 4.116,-4.016 3.974,0.383 7.944,0.569 11.737,1.893 1.692,0.591 3.347,0.327 4.83,-0.275 0.537,-0.218 1.028,-2.268 0.706,-2.56 -0.943,-0.852 -2.324,-1.761 -3.501,-1.72 -5.566,0.193 -10.708,-1.739 -16.048,-2.618 -1.522,-0.251 -4.173,-1.772 -5.286,0.436 -0.777,1.541 -1.384,3.442 -1.697,5.169 -0.949,5.24 -1.238,10.598 -2.165,15.842 -0.86,4.871 -0.866,4.685 4.166,5.829 3.5,0.797 7.267,-0.283 10.492,1.581 1.72,0.995 3.394,1.462 5.459,1.073 z"
                       id="path5220" />
                    <path
                       style="clip-rule:evenodd;fill:#fffcfc;fill-opacity:0.78233439;fill-rule:evenodd"
                       d="m 46.194,281.206 c -0.084,-1.059 -0.017,-1.941 0.863,-2.736 5.688,-5.136 11.337,-10.315 16.987,-15.494 1.748,-1.603 3.457,-2.519 5.217,-0.027 0.135,0.192 0.406,0.285 0.604,0.435 8.519,6.441 6.663,5.03 0.562,11.027 -1.845,1.813 -1.383,1.937 0.062,3.272 3.095,2.863 6.188,5.807 8.771,9.114 1.417,1.815 2.306,1.638 3.765,0.595 0.201,-0.144 0.469,-0.196 0.661,-0.349 1.789,-1.418 3.056,-4.386 5.49,-3.867 2.904,0.62 4.428,3.721 6.498,5.789 1.287,1.287 1.456,3.035 0.07,4.306 -6.521,5.977 -12.674,12.521 -19.904,17.485 -3.789,2.602 -5.542,-3.517 -8.293,-5.556 -1.645,-1.219 -1.088,-2.782 0.299,-4.123 5.092,-4.927 5.078,-4.941 0.374,-9.974 -0.339,-0.362 -0.628,-0.782 -1.007,-1.093 -2.095,-1.723 -2.938,-4.915 -5.724,-5.66 -3.164,-0.847 -4.169,2.846 -6.585,3.908 -1.647,0.723 -2.655,0.993 -3.839,-0.445 -1.746,-2.12 -4.61,-3.418 -4.871,-6.607 z m 7.049,4.898 c 1.62,-1.529 3.231,-2.915 4.683,-4.452 2.231,-2.363 3.984,-2.023 6.032,0.393 3.118,3.678 6.494,7.141 9.815,10.645 3.209,3.385 3.238,3.951 -0.092,7.144 -0.433,0.415 -0.964,0.727 -1.435,1.104 -1.43,1.147 -3.389,2.465 -1.167,4.243 1.731,1.385 3.599,4.577 6.423,1.192 4.275,-5.124 9.666,-9.096 14.356,-13.797 1.084,-1.086 1.326,-1.613 0.366,-2.995 -1.042,-1.5 -2.197,-3.371 -3.861,-2.54 -1.785,0.891 -4.04,1.733 -5.049,3.668 -1.227,2.352 -2.486,1.969 -4.08,0.58 -4.731,-4.123 -7.709,-9.915 -12.955,-13.559 -1.008,-0.701 -0.378,-1.846 0.19,-2.277 2.355,-1.789 2.859,-5.223 5.869,-6.432 -0.838,-0.948 -1.674,-1.862 -2.474,-2.809 -1.319,-1.559 -2.154,-2.221 -4.395,-0.497 -5.184,3.986 -9.47,8.909 -14.521,12.983 -2.304,1.858 -1.738,3.424 -0.102,5.15 0.758,0.798 1.602,1.512 2.397,2.256 z"
                       id="path5222" />
                    <path
                       style="clip-rule:evenodd;fill:#fffcfc;fill-opacity:0.78233439;fill-rule:evenodd"
                       d="m 266.086,38.971 c -0.126,2.312 -0.082,3.575 -0.283,4.797 -0.545,3.306 -2.297,4.242 -5.309,2.915 -2.6,-1.145 -4.64,-2.541 -6.188,-5.332 -1.899,-3.424 -6.315,-4.803 -9.764,-4.791 -3.073,0.01 -3.91,4.274 -4.913,7.158 -0.813,2.339 1.014,3.899 2.591,4.263 3.345,0.772 6.164,3.881 10.475,1.256 2.338,-1.424 6.173,0.602 8.205,2.958 1.661,1.926 -0.344,3.964 -1.484,5.671 -3.32,4.968 -6.364,5.717 -12.118,3.742 -5.833,-2.002 -11.538,-4.211 -16.431,-8.035 -4.143,-3.237 -4.241,-7.004 -1.581,-11.625 1.619,-2.812 1.886,-6.284 3.42,-9.349 4.062,-8.115 7.225,-10.226 18.101,-5.863 3.327,1.334 6.666,2.608 9.829,4.322 3.599,1.95 6.697,4.113 5.45,7.913 z m -2.47,1.689 c 0.304,-2.7 -0.334,-5.525 -3.181,-6.585 -4.812,-1.792 -8.815,-5.175 -14.095,-6.181 -3.818,-0.728 -6.33,-0.768 -8.635,2.534 -3.248,4.652 -5.462,9.835 -7.52,15.091 -0.933,2.382 0.045,4.232 1.834,5.546 3.638,2.672 7.615,4.986 11.892,6.237 2.909,0.85 5.688,2.816 9.071,1.986 2.516,-0.618 3.633,-2.473 4.547,-4.526 0.318,-0.717 0.381,-1.681 -0.79,-2.147 -1.86,-0.743 -3.635,-1.75 -5.197,0.555 -0.282,0.418 -1.28,0.851 -1.601,0.667 -3.653,-2.085 -8.185,-2.578 -11.073,-6.041 -3.96,-4.75 0.507,-8.125 2.087,-11.87 1.221,-2.894 3.724,-2.296 6.069,-1.335 4.266,1.746 10.051,0.852 11.687,7.213 0.283,1.103 2.287,2.762 4.091,2.293 1.55,-0.404 0.878,-2.037 0.814,-3.437 z"
                       id="path5224" />
                    <path
                       style="clip-rule:evenodd;fill:#fffcfc;fill-opacity:0.78233439;fill-rule:evenodd"
                       d="m 181.146,349.102 c 0.016,4.808 -1.288,5.608 -6.196,4.804 -3.611,-0.592 -6.625,-1.064 -5.879,-5.917 0.31,-2.017 -1.799,-2.247 -3.119,-2.545 -3.247,-0.732 -6.554,-1.214 -9.849,-1.713 -2.236,-0.339 -3.714,0.343 -3.396,2.989 0.268,2.225 -1.208,2.717 -2.939,2.935 -2.778,0.352 -5.43,-0.563 -8.105,-0.995 -2.103,-0.34 -1.868,-2.442 -1.686,-4.018 0.455,-3.919 0.826,-7.879 1.729,-11.704 0.476,-2.015 0.221,-3.948 0.456,-5.901 0.651,-5.432 3.353,-9.769 10.078,-8.535 7.121,1.306 14.304,2.697 21.555,3.496 4.532,0.5 8.467,2.291 10.271,7.24 1.367,3.747 0.299,7.256 -1.579,9.892 -1.917,2.687 -2.469,4.838 -1.376,7.74 0.246,0.654 0.035,1.483 0.035,2.232 z m -32.954,-28.077 c -0.886,-0.404 -1.406,-0.146 -2.162,1.919 -2.033,5.557 -1.481,11.445 -2.773,17.084 -0.367,1.604 -1.451,4.112 -0.548,5.389 1.494,2.111 4.403,0.962 6.658,1.039 1.893,0.064 0.932,-1.865 0.993,-2.914 0.083,-1.416 -0.018,-3.328 1.917,-2.785 5.325,1.495 11.065,-0.007 16.221,2.471 1.992,0.958 3.749,1.916 3.587,4.568 -0.226,3.697 3.198,2.188 4.814,3.27 0.707,0.474 1.602,0.498 1.787,-0.386 0.376,-1.79 0.881,-3.69 -0.688,-5.274 -0.701,-0.708 -1.329,-1.489 -2.047,-2.18 -2.308,-2.219 -0.834,-3.289 1.282,-3.958 4.094,-1.292 6.042,-6.486 3.749,-10.127 -1.691,-2.686 -4.501,-3.612 -7.248,-4.338 -8.094,-2.138 -16.475,-2.467 -25.542,-3.778 z"
                       id="path5226" />
                    <path
                       style="clip-rule:evenodd;fill:#fffcfc;fill-opacity:0.78233439;fill-rule:evenodd"
                       d="m 98.141,38.579 c 5.119,0.398 10.929,6.351 11.608,12.319 0.227,2.001 0.972,3.135 2.603,4.096 1.919,1.13 3.403,2.764 4.793,4.535 1.917,2.443 1.576,4.226 -1.108,5.664 -1.191,0.638 -2.392,1.262 -3.565,1.931 -1.7,0.969 -2.993,0.787 -4.026,-1.051 -1.724,-3.065 -3.879,-3.402 -6.452,-0.863 -0.687,0.677 -1.578,1.222 -2.472,1.601 -2.438,1.036 -3.367,2.217 -1.721,4.923 1.847,3.038 -0.351,5.919 -4.255,8.032 -2.997,1.623 -3.969,-0.853 -5.18,-2.566 -4.623,-6.541 -9.214,-13.106 -13.69,-19.748 -1.285,-1.906 -2.665,-3.961 0.511,-5.837 6.678,-3.945 12.61,-9.088 19.743,-12.322 1.047,-0.477 2.039,-0.929 3.211,-0.714 z m 17.217,23.66 c -1.388,-2.573 -3.13,-4.628 -5.889,-5.257 -2.776,-0.634 -5.737,-0.613 -2.739,-4.755 0.594,-0.821 0.578,-3.333 -1.108,-4.715 -1.212,-0.992 -2.056,-2.418 -3.162,-3.555 -3.677,-3.778 -5.432,-4.268 -9.636,-0.902 -4.315,3.454 -8.834,6.523 -13.625,9.17 -2.772,1.532 -4.166,2.456 -0.705,4.859 1.432,0.995 2.044,3.095 3.264,4.485 3.355,3.825 4.921,8.852 8.576,12.487 1.188,1.181 1.652,3.056 3.928,1.346 2.37,-1.779 0.424,-2.878 -0.272,-4.28 -1.202,-2.42 -0.603,-4.658 1.818,-5.546 2.385,-0.875 4.333,-2.268 6.311,-3.677 2.378,-1.694 4.885,-1.915 6.67,0.316 2.293,2.865 4.189,1.913 6.569,0.024 z"
                       id="path5228" />
                    <path
                       style="clip-rule:evenodd;fill:#fffcfc;fill-opacity:0.78233439;fill-rule:evenodd"
                       d="m 158.184,15.931 c 5.454,-1.613 7.626,2.611 10.172,6.053 2.609,3.526 2.759,3.549 4.921,-0.359 1.015,-1.836 2.112,-3.632 3.261,-5.387 0.76,-1.162 1.71,-2.01 3.333,-1.948 1.351,0.052 2.76,-0.138 4.068,-0.495 1.917,-0.523 3.937,-0.868 5.125,0.908 1.261,1.887 -0.401,3.486 -1.382,5.041 -2.955,4.682 -5.827,9.42 -8.899,14.025 -1.864,2.792 -1.262,5.699 -0.971,8.649 0.26,2.636 0.899,5.46 -3.159,5.771 -6.656,0.507 -8.083,-0.068 -7.562,-4.789 0.855,-7.747 -4.877,-11.539 -8.931,-16.238 -2.08,-2.411 -4.039,-4.947 -6.177,-7.321 -1.78,-1.976 -1.06,-3.529 1.619,-3.875 1.473,-0.191 2.989,-0.035 4.582,-0.035 z m 27.478,0.917 c -2.443,0.206 -5.535,-0.831 -7.155,1.141 -2.273,2.766 -3.846,6.19 -5.303,9.515 -0.901,2.058 -1.644,1.783 -2.901,0.612 -2.7,-2.517 -5.279,-5.132 -7.319,-8.244 -1.033,-1.576 -6.306,-2.657 -7.03,-1.327 -1.132,2.076 1.026,3.031 2.165,4.322 3.515,3.984 6.949,8.04 10.435,12.05 0.533,0.613 0.737,1.251 0.638,2.05 -0.233,1.885 0.327,3.595 0.879,5.397 0.526,1.719 0.854,2.527 2.938,2.276 2.41,-0.291 2.22,-1.869 1.81,-3.176 -1.428,-4.544 0.834,-7.978 2.795,-11.724 2.35,-4.49 6.803,-7.608 8.048,-12.892 z"
                       id="path5230" />
                    <path
                       style="clip-rule:evenodd;fill:#fffcfc;fill-opacity:0.78233439;fill-rule:evenodd"
                       d="m 277.216,298.782 c -0.333,-2.168 0.473,-3.842 1.706,-5.535 5.275,-7.244 11.469,-13.576 18.515,-19.09 3.113,-2.436 6.3,-2.873 10.014,-1.039 5.707,2.818 10.415,6.649 13.673,12.12 2.537,4.262 1.12,8.318 -1.693,11.63 -5.661,6.665 -11.492,13.243 -18.8,18.215 -4.371,2.974 -7.267,2.649 -11.459,-0.45 -3.209,-2.373 -6.09,-5.067 -8.849,-7.925 -2.165,-2.242 -3.615,-4.729 -3.107,-7.926 z m 26.178,-23.97 c -2.478,-0.466 -4.528,0.728 -6.074,2.631 -4.136,5.089 -9.825,8.559 -13.849,13.832 -3.033,3.977 -4.853,7.505 -2.885,10.342 2.622,3.781 5.418,7.449 9.441,10.141 2.36,1.578 4.641,3.938 7.118,2.138 2.075,-1.509 4.556,-2.178 6.495,-4.184 3.947,-4.08 7.808,-8.26 11.838,-12.251 4.851,-4.807 5.3,-8.702 1.102,-14.081 -2.215,-2.837 -5.615,-4.048 -8.021,-6.493 -1.47,-1.498 -2.955,-2.294 -5.165,-2.075 z"
                       id="path5232" />
                    <path
                       style="clip-rule:evenodd;fill:#fffcfc;fill-opacity:0.78233439;fill-rule:evenodd;stroke:#ffffff;stroke-opacity:1"
                       d="m 128.102,326.638 c 0,4.327 0.029,8.656 -0.009,12.983 -0.031,3.534 -1.145,4.164 -4.346,2.549 -1.645,-0.831 -3.282,-1.679 -4.938,-2.485 -1.914,-0.934 -3.294,-2.199 -3.022,-4.563 0.258,-2.237 -1.021,-3.345 -2.871,-4.207 -2.677,-1.25 -5.328,-2.57 -7.903,-4.017 -2.675,-1.502 -5.194,-2.813 -7.953,-0.113 -0.976,0.955 -2.515,0.805 -3.435,0.029 -2.03,-1.711 -4.562,-2.391 -6.75,-3.732 -2.897,-1.776 -3.007,-3.607 -0.156,-5.295 8.367,-4.952 16.84,-9.727 25.176,-14.729 1.375,-0.824 2.649,-1.004 3.831,-0.445 3.13,1.48 6.179,3.147 9.17,4.894 0.908,0.529 1.562,1.426 1.641,2.738 0.331,5.469 0.806,10.928 1.228,16.389 0.111,0 0.224,0.002 0.337,0.004 z m -4.081,-8.683 c 0,-1.717 0.078,-2.846 -0.018,-3.958 -0.156,-1.811 0.032,-4.672 -1.331,-5.071 -4.186,-1.229 -7.462,-6.106 -13.211,-1.792 -5.724,4.296 -12.332,7.576 -18.422,11.513 -1.818,1.176 -2.177,2.486 0.284,3.539 2.621,1.121 5.256,2.384 7.817,0.119 0.985,-0.87 1.447,-0.382 2.447,-0.108 4.085,1.115 6.617,4.941 10.85,5.795 4.017,0.81 6.961,2.777 6.441,7.665 -0.121,1.138 5.072,4.335 6.211,4.021 0.611,-0.168 0.968,-0.519 0.812,-1.356 -0.22,-1.181 0.1,-2.399 0.087,-3.621 -0.059,-5.866 -2.194,-11.471 -1.967,-16.746 z"
                       id="path5234" />
                    <path
                       style="clip-rule:evenodd;fill:#fffcfc;fill-opacity:0.78233439;fill-rule:evenodd"
                       d="m 70.122,115.504 c -1.623,12.154 -0.643,24.364 -0.673,36.544 -0.078,31.449 0.124,62.898 0.138,94.348 10e-4,2.354 0.516,4.412 1.711,6.365 11.09,18.125 25.95,32.567 43.562,44.245 3.567,2.364 7.774,3.745 10.859,6.896 -1.028,0.355 -1.956,0.047 -2.864,-0.425 -17.579,-9.138 -32.103,-21.904 -44.368,-37.354 -3.46,-4.357 -6.654,-8.879 -9.41,-13.736 -0.939,-1.656 -1.146,-3.213 -1.15,-4.95 -0.092,-41.976 -0.191,-83.951 -0.26,-125.926 -0.004,-2.286 -0.558,-4.906 2.455,-6.007 z"
                       id="path5236" />
                    <path
                       style="clip-rule:evenodd;fill:#fffcfc;fill-opacity:0.98107252;fill-rule:evenodd"
                       d="m 324.635,83.649 c -0.158,0.492 -0.33,1.496 -0.78,2.353 -4.353,8.283 -8.73,16.553 -13.149,24.801 -1.588,2.964 -3.095,3.149 -5.342,0.566 -2.522,-2.9 -6.043,-5.66 -2.444,-10.092 0.364,-0.448 0.228,-0.923 -0.118,-1.346 -2.269,-2.771 -4.557,-5.525 -6.794,-8.32 -0.802,-1.001 -1.926,-0.881 -2.718,-0.492 -2.773,1.366 -4.391,0.108 -5.813,-2.106 -0.463,-0.72 -1.218,-1.246 -1.791,-1.903 -2.896,-3.318 -2.381,-5.133 1.827,-6.166 8.723,-2.142 17.451,-4.255 26.19,-6.325 4.017,-0.951 10.786,4.395 10.932,9.03 z m -37.345,0.53 c 3.302,3.958 3.306,3.983 8.008,3.193 0.949,-0.16 1.25,0.398 1.773,0.956 1.75,1.863 3.069,4.075 4.646,5.999 2.399,2.923 5.586,4.955 3.293,9.553 -1.129,2.263 1.227,4.619 2.609,5.087 1.979,0.671 2.259,-1.85 2.473,-3.572 0.06,-0.474 0.267,-1.014 0.584,-1.358 4.797,-5.2 5.679,-12.644 10.294,-17.968 0.551,-0.635 1.321,-1.453 0.573,-2.909 -2.756,-5.366 -4.897,-6.452 -10.548,-4.711 -0.35,0.108 -0.728,0.124 -1.095,0.168 -7.625,0.913 -14.774,3.637 -22.61,5.562 z"
                       id="path5238" />
                    <path
                       style="clip-rule:evenodd;fill:#fffcfc;fill-opacity:0.78233439;fill-rule:evenodd"
                       d="m 112.097,36.194 c -0.748,-5.191 2.856,-7.585 6.506,-9.427 5.253,-2.65 10.939,-4.242 16.784,-5.164 5.251,-0.828 7.988,0.731 10.684,5.327 2.485,4.235 3.8,8.871 5.278,13.445 1.925,5.956 0.286,9.602 -5.598,12.445 -6.042,2.918 -12.353,5.109 -19.128,5.611 -3.474,0.257 -6.025,-0.729 -8.076,-4 -3.556,-5.675 -5.702,-11.689 -6.45,-18.237 z m 36.867,6.794 c -1.118,-6.124 -3.728,-11.698 -7.024,-17.013 -1.473,-2.376 -3.502,-2.659 -6.089,-2.391 -2.095,0.217 -3.596,1.613 -5.721,1.907 -5.086,0.706 -9.377,3.623 -13.662,6.317 -1.9,1.195 -2.367,2.899 -1.788,5.138 1.587,6.135 4.525,11.658 7.407,17.224 0.795,1.535 2.568,2.076 3.521,1.773 6.461,-2.048 13.442,-2.419 19.338,-6.414 2.506,-1.697 4.452,-3.128 4.018,-6.541 z"
                       id="path5240" />
                    <path
                       style="clip-rule:evenodd;fill:#fffcfc;fill-opacity:0.78233439;fill-rule:evenodd"
                       d="m 221.263,319.656 c 9.64,0.033 11.675,1.518 13.394,9.089 0.846,3.72 2.138,7.381 1.986,11.3 -0.188,4.85 -2.668,8.301 -7.379,9.427 -10.2,2.438 -20.521,4.261 -30.917,5.662 -2.239,0.303 -3.391,-0.179 -3.862,-2.684 -1.529,-8.123 -3.35,-16.191 -4.994,-24.295 -0.347,-1.706 -0.104,-3.051 2.128,-3.553 10.401,-2.339 20.917,-3.89 29.644,-4.946 z m -4.728,30.007 c 3.752,0.031 7.347,-0.982 10.885,-1.938 6.484,-1.75 8.935,-7.73 6.065,-13.962 -0.407,-0.885 -0.934,-1.656 -1.078,-2.713 -1.029,-7.523 -5.769,-10.773 -13.067,-9.021 -7.995,1.919 -16.112,3.207 -24.251,4.207 -2.729,0.336 -3.083,1.95 -2.501,3.378 2.458,6.038 1.556,12.624 3.452,18.752 1.144,3.697 2.217,4.815 5.951,3.883 4.796,-1.198 9.593,-2.317 14.544,-2.586 z"
                       id="path5242" />
                    <path
                       style="clip-rule:evenodd;fill:#fffcfc;fill-opacity:0.78233439;fill-rule:evenodd"
                       d="m 81.626,77.942 c 0.294,3.294 -1.734,5.606 -3.485,7.969 -1.164,1.571 -2.633,2.921 -4.004,4.333 -2.156,2.218 -2.76,4.348 0.12,6.488 1.559,1.159 1.223,2.279 0.115,3.76 -4.637,6.194 -5.148,6.273 -10.979,1.063 C 58.056,96.786 52.7,92.039 47.294,87.348 c -2.592,-2.249 -2.791,-4.186 -0.211,-6.761 4.181,-4.172 7.91,-8.796 12.077,-12.983 4.771,-4.794 8.175,-4.852 13.727,-0.886 2.818,2.013 5.688,3.872 7.495,7.036 0.786,1.378 1.146,2.708 1.244,4.188 z m -2.316,1.696 c -0.747,-2.61 -0.809,-4.989 -2.811,-6.462 -2.475,-1.82 -5.278,-3.295 -7.423,-5.436 -2.299,-2.295 -3.792,-1.55 -6.057,-0.029 -5.356,3.595 -7.852,9.9 -13.193,13.445 -2.649,1.758 -1.759,3.226 0.319,4.787 2.831,2.127 5.584,4.365 8.293,6.647 3.135,2.641 6.195,5.372 9.271,8.083 0.869,0.766 1.751,1.292 2.261,-0.209 0.299,-0.882 2.452,-1.414 0.857,-2.625 -3.555,-2.7 -2.833,-4.903 0.001,-7.768 1.308,-1.321 2.586,-2.858 3.805,-4.357 1.675,-2.062 3.244,-4.206 4.677,-6.076 z"
                       id="path5244" />
                    <path
                       style="clip-rule:evenodd;fill:#fffcfc;fill-opacity:0.78233439;fill-rule:evenodd"
                       d="m 301.915,59.633 c -1.067,1.818 -2.364,4.243 -4.809,5.902 -2.467,1.675 -3.569,-0.533 -4.987,-1.646 -4.087,-3.208 -5.018,-3.073 -7.939,0.915 -2.519,3.437 -5.178,6.775 -7.874,10.075 -2.157,2.641 -4.422,2.196 -8.56,-1.129 -2.519,-2.024 -1.559,-3.529 0.081,-5.508 3.106,-3.75 5.82,-7.829 8.981,-11.528 1.702,-1.992 1.214,-3.221 -0.495,-4.57 -0.872,-0.688 -1.759,-1.36 -2.656,-2.015 -2.435,-1.776 -3.255,-3.327 -0.881,-6.224 4.152,-5.067 4.462,-5.455 9.508,-1.243 5.588,4.665 11.383,9.019 17.476,12.999 1.083,0.709 2.354,1.55 2.155,3.972 z m -28.412,14.796 c 2.941,-4.067 5.67,-8.13 8.694,-11.958 4.892,-6.189 4.975,-6.125 11.008,-1.011 0.189,0.16 0.31,0.401 0.503,0.554 2.452,1.935 3.165,-0.345 4.505,-1.679 2.053,-2.042 -0.238,-1.731 -0.984,-2.583 -1.672,-1.908 -4.132,-2.925 -5.685,-4.477 -3.438,-3.439 -7.8,-5.532 -11.192,-8.9 -1.651,-1.638 -3.311,-2.352 -5.075,0.084 -1.767,2.438 0.451,2.862 1.689,3.823 1.28,0.994 2.642,1.896 3.85,2.972 1.325,1.18 1.767,2.188 0.331,4.042 -3.075,3.969 -5.756,8.143 -9.536,11.639 -3.622,3.35 -2.893,5.066 1.907,7.495 0.1,0.049 0.224,0.049 -0.015,-0.001 z"
                       id="path5246" />
                    <path
                       style="clip-rule:evenodd;fill:#fffcfc;fill-opacity:0.78233439;fill-rule:evenodd"
                       d="m 347.626,179.4 c 2.881,0.512 3.026,3.168 3.475,5.109 1.898,8.219 -3.371,16.862 -11.182,18.821 -9.249,2.32 -17.785,-2.606 -20.121,-11.613 -1.636,-6.305 1.011,-13.623 5.99,-16.569 6.562,-3.882 14.981,-3.332 20.078,1.18 1.011,0.894 1.622,1.823 1.801,3.104 -1.585,-0.062 -2.226,-1.49 -3.274,-2.309 -6.057,-4.721 -14.893,-4.013 -20.031,1.655 -4.385,4.838 -4.093,12.121 0.692,17.276 4.723,5.086 12.856,6.089 18.847,2.165 4.387,-2.874 8.29,-8.467 4.242,-16.69 -0.315,-0.638 -0.351,-1.415 -0.517,-2.129 z"
                       id="path5248" />
                    <path
                       style="clip-rule:evenodd;fill:#fffcfc;fill-opacity:0.78233439;fill-rule:evenodd"
                       d="m 39.502,167.435 c 8.788,0.051 16.489,7.57 16.119,16.491 -0.353,8.509 -6.368,14.919 -16.485,14.897 -9.247,-0.02 -15.505,-7.492 -15.573,-15.512 -0.08,-9.371 6.762,-15.887 15.939,-15.876 z m 14.299,15.97 c 0.004,-7.782 -6.404,-14.289 -14.243,-14.461 -7.45,-0.163 -13.659,5.492 -13.654,12.434 0.006,7.852 6.783,14.582 14.721,14.423 6.073,-0.121 13.959,-4.842 13.176,-12.396 z"
                       id="path5250" />
                    <path
                       style="clip-rule:evenodd;fill:#fffcfc;fill-opacity:0.78233439;fill-rule:evenodd"
                       d="m 91.212,88.744 c 0.216,1.232 -0.333,2.172 -1.189,2.958 -7.165,6.58 -12.689,14.466 -18.008,22.522 -0.154,0.232 -0.635,0.248 -0.962,0.362 -0.492,-3.862 2.688,-5.906 4.428,-8.581 3.97,-6.102 9.078,-11.296 14.125,-16.51 0.386,-0.396 1.064,-0.507 1.606,-0.751 z"
                       id="path5252" />
                    <path
                       style="clip-rule:evenodd;fill:#fffcfc;fill-opacity:0.78233439;fill-rule:evenodd"
                       d="m 159.197,327.376 c 2.623,1.42 7.575,1.004 12.08,2.644 2.265,0.825 3.366,2.125 2.57,4.487 -0.793,2.355 -2.757,3.578 -5.049,3.431 -2.139,-0.137 -4.301,-0.155 -6.454,-1.327 -2.209,-1.203 -5.042,0.005 -7.644,-0.46 -2.889,-0.516 -3.506,-1.753 -2.661,-4.362 0.876,-2.708 1.088,-5.976 7.158,-4.413 z m 7.964,7.939 c 1.673,-0.316 3.59,0.639 3.807,-1.374 0.223,-2.072 -1.895,-1.94 -3.2,-2.212 -3.396,-0.704 -6.838,-1.186 -10.253,-1.806 -1.148,-0.208 -2.231,-0.579 -2.54,1.127 -0.265,1.464 0.548,2.277 1.732,2.374 3.681,0.305 7.274,1.087 10.454,1.891 z"
                       id="path5254" />
                    <path
                       style="clip-rule:evenodd;fill:#fffcfc;fill-opacity:0.78233439;fill-rule:evenodd"
                       d="m 101.678,52.742 c 0.355,2.237 -0.624,3.561 -3.001,4.583 -2.643,1.137 -5.095,2.88 -7.455,4.522 -2.569,1.787 -3.43,0.302 -4.482,-1.32 -1.325,-2.044 -3.635,-4.27 -0.67,-6.56 2.806,-2.17 5.848,-4.086 8.962,-5.792 3.868,-2.117 6.901,-0.03 6.646,4.567 z M 99.596,52.601 C 98.354,52.039 98.295,49.977 96.3,51.26 c -2.28,1.467 -4.749,2.65 -6.964,4.201 -0.548,0.384 -2.301,0.979 -0.913,2.566 0.948,1.084 1.746,1.786 3.086,0.867 2.233,-1.531 4.446,-3.092 6.634,-4.686 0.471,-0.343 0.804,-0.877 1.453,-1.607 z"
                       id="path5256" />
                    <path
                       style="clip-rule:evenodd;fill:#fffcfc;fill-opacity:0.78233439;fill-rule:evenodd"
                       d="m 296.745,306.113 c -3.623,-0.13 -8.838,-4.463 -9.753,-7.57 -0.883,-2.999 1.715,-4.191 3.001,-5.924 3.014,-4.058 6.452,-7.735 11.193,-9.946 4.018,-1.873 5.916,1.328 8.209,3.343 2.112,1.856 3.026,4.007 1.604,7.048 -2.515,5.376 -6.653,9.04 -11.464,12.119 -0.891,0.571 -1.925,1.248 -2.79,0.93 z m 0.012,-2.241 c 0.74,-0.448 1.617,-0.885 2.388,-1.463 3.065,-2.296 5.496,-5.25 8.159,-7.963 2.088,-2.13 2.219,-3.93 -0.228,-6.105 -2.433,-2.163 -4.566,-4.578 -7.816,-1.641 -2.55,2.305 -5.039,4.719 -7.232,7.354 -0.973,1.169 -2.903,2.552 -1.603,4.521 1.505,2.278 3.513,4.11 6.332,5.297 z"
                       id="path5258" />
                    <g
                       id="g5478" />
                    <path
                       style="clip-rule:evenodd;fill:#2482ff;fill-opacity:0.78431373;fill-rule:evenodd;stroke:#0d74ff;stroke-opacity:0.63091479"
                       d="m 314.932,83.026 c 0.638,0.06 0.866,0.826 0.283,1.907 -1.486,2.755 -2.968,5.516 -4.576,8.199 -0.867,1.448 -2.043,1.673 -3.19,0.171 -0.75,-0.98 -1.435,-2.02 -2.264,-2.928 -3.354,-3.673 -3.422,-3.803 1.085,-5.394 2.535,-0.894 5.273,-1.213 8.662,-1.955 z"
                       id="path5262" />
                    <path
                       style="clip-rule:evenodd;fill:#fffcfc;fill-opacity:0.78233439;fill-rule:evenodd"
                       d="m 128.294,48.995 c -2.542,0.13 -4.237,-1.192 -5.329,-3.33 -1.155,-2.261 -1.936,-4.696 -2.221,-7.202 -0.175,-1.533 0.51,-3.347 1.893,-3.902 3.73,-1.498 7.022,-4.106 11.344,-4.2 4.066,-0.089 6.995,1.823 7.583,5.813 0.217,1.472 0.57,2.869 1.001,4.264 0.863,2.796 0.131,4.317 -2.778,5.699 -3.727,1.77 -7.474,2.656 -11.493,2.858 z m 0.636,-2.387 c 5.105,-0.041 11.013,-3.123 10.961,-5.719 -0.07,-3.55 -2.856,-7.597 -5.28,-7.669 -3.733,-0.113 -10.936,3.062 -11.034,4.862 -0.206,3.77 2.793,8.547 5.353,8.526 z"
                       id="path5264" />
                    <path
                       style="clip-rule:evenodd;fill:#fffcfc;fill-opacity:0.78233439;fill-rule:evenodd"
                       d="m 217.261,343.583 c -2.339,2.797 -6.025,1.067 -9.21,2.114 -2.923,0.96 -5.206,-0.378 -5.386,-3.425 -0.159,-2.708 -0.427,-5.35 -1.15,-7.965 -0.709,-2.563 1.192,-4.059 3.001,-4.221 4.766,-0.429 9.429,-0.667 13.992,-2.583 2.507,-1.052 5.218,0.056 6.25,3.106 0.705,2.08 1.281,4.214 1.775,6.356 0.681,2.956 -0.887,5.563 -3.865,5.92 -1.668,0.202 -2.96,2.095 -5.407,0.698 z m 5.89,-6.615 c -0.05,-5.894 -0.613,-6.477 -5.975,-6.089 -1.972,0.143 -3.924,0.53 -5.887,0.798 -8.105,1.107 -8,1.083 -6.194,9.252 0.409,1.853 1.057,2.263 2.688,2.007 4.041,-0.633 8.126,-1.053 12.118,-1.908 2.037,-0.438 4.161,-1.447 3.25,-4.06 z"
                       id="path5266" />
                  </g>
                </g>
              </g>
              <path
                 style="clip-rule:evenodd;fill:#fffcfc;fill-opacity:0.78233439;fill-rule:evenodd"
                 d="m 85.411278,659.3483 c 0.915403,2.07177 0.307645,3.60215 -1.728852,5.19817 -2.264232,1.77524 -4.188806,4.08746 -6.050276,6.27851 -2.026427,2.38468 -3.238638,1.16933 -4.670538,-0.12962 -1.803763,-1.63707 -4.606312,-3.19812 -2.325724,-6.17037 2.157573,-2.81557 4.608266,-5.44595 7.18228,-7.89174 3.197799,-3.03598 6.663738,-1.79424 7.59311,2.71505 z m -2.048801,0.39626 c -1.344437,-0.22561 -1.928923,-2.20392 -3.529367,-0.45329 -1.828895,2.00141 -3.913149,3.77661 -5.657721,5.84259 -0.431543,0.5114 -1.974025,1.53501 -0.226256,2.71417 1.193743,0.80545 2.144762,1.27997 3.205106,0.0488 1.767089,-2.05126 3.507169,-4.1264 5.21464,-6.22705 0.367593,-0.45207 0.55292,-1.05348 0.993598,-1.9252 z"
                 id="path5256-6" />
            </g>
            <g
               id="g5371"
               style="fill:#fffcfc;fill-opacity:0.78233439;stroke:#f4f7ff;stroke-opacity:0.96470588">
              <path
                 id="path5210"
                 d="m 120.43,362.396 c 0.197,-0.801 0.641,-1.39 1.52,-1.371 4.788,0.098 9.389,-1.032 13.9,-2.382 4.521,-1.353 9.387,0.232 13.933,-1.814 -7.041,-2.187 -14.004,-4.07 -20.767,-6.513 -11.436,-4.129 -22.688,-8.742 -32.997,-15.32 C 90.678,331.587 85.427,328.037 80.135,324.551 70.657,317.172 61.698,309.213 53.643,300.294 31.914,276.236 17.535,248.422 10.933,216.613 8.309,203.969 6.863,191.228 7.232,178.328 8.47,135.198 23.506,97.448 52.095,65.213 77.817,36.211 110.263,18.684 147.881,10.354 c 17.088,-3.785 34.486,-4.588 51.808,-3.205 29.081,2.321 56.381,11.059 81.369,26.192 16.352,9.903 30.734,22.242 43.341,36.776 19.706,22.722 33.026,48.59 39.617,77.843 5.764,25.583 5.384,51.227 -0.196,76.873 -3.638,16.714 -10.088,32.336 -18.135,47.252 -6.188,11.471 -14.474,21.616 -22.897,31.569 -0.482,0.547 -0.965,1.093 -1.447,1.638 0,0 -0.015,0.016 -0.014,0.016 -0.709,0.285 -1.199,0.787 -1.476,1.498 l -0.051,-0.008 c -7.959,7.514 -15.995,14.895 -25.036,21.175 -10.853,7.538 -22.349,13.803 -34.327,19.322 -7.738,3.566 -16.009,5.561 -23.87,8.729 -0.994,0.401 -2.216,0.229 -3.329,0.341 -0.759,0.078 -1.624,0.202 -1.65,1.146 -0.026,0.942 0.829,1.019 1.572,1.23 4.607,1.316 9.487,0.128 14.061,1.528 2.011,0.615 4.577,-0.252 5.96,2.125 M 9.241,179.813 c -0.478,14.687 1.431,27.798 4.344,40.857 2.086,9.355 4.987,18.431 8.652,27.206 6.012,14.398 13.689,27.916 23.353,40.242 9.501,12.119 20.226,22.992 32.351,32.521 5.664,4.45 11.598,8.491 17.746,12.165 6.145,3.672 12.464,7.183 19.044,9.967 9.077,3.842 18.23,7.514 27.888,9.92 9.229,2.299 18.455,5.043 27.859,5.76 15.851,1.209 31.717,1.288 47.604,-1.497 12.597,-2.208 24.895,-5.112 36.813,-9.603 22.373,-8.433 42.175,-21.031 59.428,-37.568 11.55,-11.071 21.269,-23.641 29.279,-37.472 8.697,-15.019 14.703,-31.094 18.539,-48.04 1.738,-7.681 2.419,-15.471 3.575,-23.214 1.639,-10.973 0.484,-21.965 -0.38,-32.822 -0.817,-10.286 -3.212,-20.512 -6.429,-30.441 -3.436,-10.603 -7.383,-20.988 -12.619,-30.85 C 340.251,95.576 333.081,85.012 324.865,75.062 310.336,57.465 292.879,43.508 273.073,32.454 261.089,25.765 248.358,20.774 235.135,16.912 224.155,13.704 213.019,11.075 201.7,10.338 185.551,9.286 169.392,9.383 153.274,12.481 142.506,14.55 131.962,17.155 121.723,20.878 97.534,29.675 76.292,43.393 58.238,61.609 47.799,72.142 38.692,83.824 31.351,97.013 22.727,112.507 16.384,128.717 12.669,145.888 10.177,157.41 8.298,169.162 9.241,179.813 Z"
                 style="clip-rule:evenodd;fill:#fffcfc;fill-opacity:0.78233439;fill-rule:evenodd;stroke:#f4f7ff;stroke-width:4.22635365;stroke-linejoin:bevel;stroke-miterlimit:4;stroke-dasharray:none;stroke-opacity:0.96470588"
                 transform="matrix(1.0093259,0,0,1.0093259,9.9119097,579.66366)" />
              <path
                 id="path5364"
                 d="m 101.26779,670.01944 6.18719,-5.05076"
                 style="fill:#fffcfc;fill-opacity:0.78233439;fill-rule:evenodd;stroke:#f4f7ff;stroke-width:1px;stroke-linecap:butt;stroke-linejoin:miter;stroke-opacity:0.96470588" />
              <path
                 id="path5366"
                 d="m 79.675782,697.41983 3.282996,-4.54569"
                 style="fill:#fffcfc;fill-opacity:0.78233439;fill-rule:evenodd;stroke:#f4f7ff;stroke-width:1px;stroke-linecap:butt;stroke-linejoin:miter;stroke-opacity:0.96470588" />
              <path
                 id="path5368"
                 d="m 135.61298,885.93955 5.55584,1.51523"
                 style="fill:#fffcfc;fill-opacity:0.78233439;fill-rule:evenodd;stroke:#f4f7ff;stroke-width:1px;stroke-linecap:butt;stroke-linejoin:miter;stroke-opacity:0.96470588" />
            </g>
            <path
               style="opacity:1;fill:#ffffff;fill-opacity:0.99684544;stroke:#f4f7ff;stroke-width:5.85714293;stroke-linecap:round;stroke-linejoin:round;stroke-miterlimit:5.5;stroke-dasharray:none;stroke-opacity:0.96470588"
               d="m 257.61973,865.40167 c 0,-26.95765 0.34739,-25.64792 -9.07889,-34.22919 l -6.19449,-5.63918 -8.25617,-0.1944 c -40.00652,-0.94199 -77.02252,-1.33326 -78.76818,-0.83261 -1.93301,0.55438 -12.78456,10.12091 -14.48798,12.77234 -0.43928,0.68375 -0.71429,10.18211 -0.71429,24.67053 0,21.59304 -0.1012,23.57845 -1.21286,23.79522 -0.66708,0.13008 -4.33403,-1.6004 -8.14878,-3.8455 -15.80328,-9.30073 -30.999073,-22.84818 -41.60091,-37.08833 -9.585943,-12.87561 -8.569614,-4.07911 -8.705631,-75.34868 -0.150844,-79.03879 -0.313154,-71.69793 1.632469,-73.83239 0.883928,-0.96972 3.608564,-4.60235 6.054745,-8.07251 9.24756,-13.11863 19.371777,-22.63742 34.838107,-32.75483 7.34459,-4.80452 14.51755,-8.39835 15.78873,-7.91055 0.82545,0.31676 0.99699,4.46631 0.99699,24.11763 l 0,23.73504 7.32143,7.28661 7.32143,7.28662 8.57142,0.41759 c 8.88414,0.43283 64.77333,1.54716 73.57143,1.46688 3.24359,-0.0296 5.80767,-0.47111 7.2992,-1.25685 2.44375,-1.28737 11.39835,-10.24259 12.85406,-12.85496 0.63041,-1.13131 0.87446,-8.0486 0.89286,-25.30685 0.0202,-18.92218 0.2129,-23.75 0.94814,-23.75 1.15786,0 11.86141,6.11156 17.24375,9.84591 16.2041,11.24267 29.17889,24.78916 39.08474,40.80692 l 2.39154,3.86712 -0.22988,64.70431 c -0.19179,53.98574 -0.40245,65.3265 -1.27168,68.46026 -2.23991,8.07535 -19.46049,27.84317 -33.00203,37.8836 -8.25573,6.12126 -22.30451,14.43188 -24.39653,14.43188 -0.4985,0 -0.74274,-7.44203 -0.74274,-22.63163 z"
               id="path5377" />
            <path
               style="opacity:1;fill:#ffffff;fill-opacity:0.99684544;stroke:#f4f7ff;stroke-width:5.85714293;stroke-linecap:round;stroke-linejoin:round;stroke-miterlimit:5.5;stroke-dasharray:none;stroke-opacity:0.96470588"
               d="m 343.4377,780.84048 c -5.94431,-2.38085 -8.98996,-7.25677 -8.52738,-13.65188 0.25792,-3.56563 0.65796,-4.54535 2.75557,-6.74842 3.15863,-3.31746 6.12997,-4.5576 10.82376,-4.51752 14.57752,0.12447 19.54739,17.80479 6.83711,24.32301 -2.85494,1.4641 -8.95653,1.76936 -11.88906,0.59481 z"
               id="path5379" />
            <path
               style="opacity:1;fill:#ffffff;fill-opacity:0.99684544;stroke:#f4f7ff;stroke-width:5.85714293;stroke-linecap:round;stroke-linejoin:round;stroke-miterlimit:5.5;stroke-dasharray:none;stroke-opacity:0.96470588"
               d="m 47.976875,776.62283 c -5.420383,-1.24807 -9.329562,-4.86279 -11.043307,-10.21149 -2.235452,-6.97696 2.647541,-14.26256 10.56988,-15.77063 10.970797,-2.08837 20.761566,12.03282 14.469468,20.86926 -2.559596,3.59462 -9.530377,6.1411 -13.996041,5.11286 z"
               id="path5381" />
            <path
               style="opacity:1;fill:#ffffff;fill-opacity:0.99684544;stroke:#f4f7ff;stroke-width:5.85714293;stroke-linecap:round;stroke-linejoin:round;stroke-miterlimit:5.5;stroke-dasharray:none;stroke-opacity:0.96470588"
               d="m 74.405446,677.61609 c -2.357143,-2.15766 -6.776786,-5.89766 -9.821428,-8.31112 -3.044643,-2.41346 -5.532335,-4.73156 -5.528204,-5.15132 0.0105,-1.06706 14.277847,-15.81421 16.257251,-16.80398 1.845995,-0.92306 1.621875,-1.02859 7.939771,3.73848 3.280414,2.47518 4.998091,4.33576 5.620832,6.08845 1.05184,2.96039 1.052584,2.95893 -5.458739,10.67229 -4.660184,5.52048 -5.315736,7.67549 -2.978359,9.79079 1.142689,1.03412 1.238649,1.49594 0.542467,2.6107 -0.46519,0.74489 -1.170268,1.33958 -1.566839,1.32154 -0.39657,-0.0181 -2.649609,-1.79817 -5.006752,-3.95583 z m 3.869131,-12.73724 c 4.905863,-4.93882 5.230353,-5.45528 4.795068,-7.6317 -0.618752,-3.09377 -2.379057,-4.92814 -4.729146,-4.92814 -2.581029,0 -11.435053,9.01447 -11.435053,11.64227 0,1.62885 4.116399,6.21487 5.578446,6.21487 0.290805,0 2.896613,-2.38378 5.790685,-5.2973 z"
               id="path5383" />
            <path
               style="opacity:1;fill:#ffffff;fill-opacity:0.99684544;stroke:#f4f7ff;stroke-width:5.85714293;stroke-linecap:round;stroke-linejoin:round;stroke-miterlimit:5.5;stroke-dasharray:none;stroke-opacity:0.96470588"
               d="m 100.72944,653.47662 c -1.121054,-1.32759 -3.616438,-4.91063 -5.5453,-7.96231 -1.92886,-3.05167 -4.419932,-6.58825 -5.535714,-7.85905 -1.115782,-1.27081 -2.011716,-2.58955 -1.990965,-2.93055 0.03456,-0.56798 14.986419,-10.78881 19.008409,-12.99382 1.48888,-0.81626 1.99578,-0.76752 3.71431,0.35714 1.09457,0.71633 3.20871,2.66854 4.69808,4.33826 2.23487,2.50548 2.62415,3.379 2.22825,5 -1.05349,4.31351 -0.89624,4.74274 2.09894,5.72918 3.50597,1.15466 6.43677,3.89548 5.83695,5.45859 -0.60823,1.58503 -3.57591,1.4141 -5.12267,-0.29505 -2.01887,-2.23082 -5.11823,-1.73519 -10.71428,1.71338 -5.43479,3.34918 -6.48073,5.36957 -4.35266,8.4078 0.80965,1.15595 0.89265,1.81424 0.31628,2.50871 -1.24421,1.49919 -2.45486,1.11502 -4.63963,-1.47228 z m 5.81886,-13.9103 c 5.58367,-3.37131 5.71939,-3.51974 5.9375,-6.49318 0.2467,-3.36323 -1.23944,-5.75413 -3.57666,-5.75413 -2.75434,0 -12.919024,6.20367 -13.761367,8.39878 -0.577299,1.50442 2.975776,7.31737 4.466355,7.30711 0.670942,-0.005 3.791322,-1.56098 6.934172,-3.45858 z"
               id="path5385" />
            <path
               style="opacity:1;fill:#ffffff;fill-opacity:0.99684544;stroke:#f4f7ff;stroke-width:5.85714293;stroke-linecap:round;stroke-linejoin:round;stroke-miterlimit:5.5;stroke-dasharray:none;stroke-opacity:0.96470588"
               d="m 133.88329,634.64044 c -3.4233,-3.88762 -8.88949,-18.65556 -7.71645,-20.84742 0.90609,-1.69303 7.96931,-5.99455 11.81003,-7.19233 1.57143,-0.49007 4.15361,-1.33251 5.73817,-1.87208 3.39939,-1.15754 5.65166,-1.24316 7.44565,-0.28305 2.86229,1.53185 8.6019,14.34898 8.6019,19.20892 0,2.41381 -0.37412,3.15759 -2.32143,4.61528 -3.72547,2.78876 -6.28405,3.85191 -13.9412,5.7929 -8.57069,2.17256 -8.23037,2.15211 -9.61667,0.57778 z m 14.09358,-6.98524 c 6.34984,-2.13258 7.20231,-4.12596 4.97375,-11.63035 -1.25533,-4.22715 -3.4717,-5.8487 -7.99414,-5.8487 -3.66483,0 -12.70863,4.3278 -13.23285,6.33241 -0.90902,3.47609 2.41389,11.73321 5.03263,12.50562 1.98065,0.5842 7.38292,-0.0701 11.22061,-1.35898 z"
               id="path5387" />
            <path
               style="opacity:1;fill:#ffffff;fill-opacity:0.99684544;stroke:#f4f7ff;stroke-width:5.85714293;stroke-linecap:round;stroke-linejoin:round;stroke-miterlimit:5.5;stroke-dasharray:none;stroke-opacity:0.96470588"
               d="m 181.9066,622.67918 c -0.39349,-1.03496 -0.71544,-2.98753 -0.71544,-4.33906 0,-2.07695 -1.05037,-3.67235 -6.78571,-10.30682 -7.54637,-8.7294 -8.27532,-10.42865 -4.18932,-9.76559 2.07232,0.3363 3.59819,1.50855 7.55963,5.80775 2.72978,2.96252 5.25379,5.38641 5.60891,5.38641 0.35512,0 1.78285,-2.25814 3.17274,-5.01809 3.21316,-6.38048 4.67341,-7.83906 7.84804,-7.83906 1.375,0 2.5,0.17668 2.5,0.39262 0,0.93626 -2.5375,5.19181 -4.6639,7.82167 -4.20773,5.20397 -6.35487,10.25008 -6.38255,15 -0.0227,3.89079 -0.17297,4.30673 -1.63097,4.51381 -1.18694,0.16858 -1.79268,-0.26291 -2.32143,-1.65364 z"
               id="path5389" />
            <path
               style="opacity:1;fill:#ffffff;fill-opacity:0.99684544;stroke:#f4f7ff;stroke-width:5.85714293;stroke-linecap:round;stroke-linejoin:round;stroke-miterlimit:5.5;stroke-dasharray:none;stroke-opacity:0.96470588"
               d="m 223.33402,626.87941 c -1.375,-0.60388 -5.01762,-1.35713 -8.09472,-1.6739 -3.07709,-0.31676 -5.94499,-0.9262 -6.3731,-1.35432 -0.8268,-0.8268 0.89241,-17.29632 2.32225,-22.24647 1.35189,-4.68028 1.04468,-4.60825 10.94944,-2.56737 4.94638,1.0192 9.90689,1.85309 11.02334,1.85309 3.37715,0 5.18884,3.01665 2.35236,3.91692 -0.76553,0.24297 -3.80555,-0.0568 -6.75561,-0.66615 -7.55164,-1.55984 -11.60778,-1.47132 -12.54169,0.2737 -0.40668,0.75989 -0.73942,2.16194 -0.73942,3.11568 0,1.53625 0.46173,1.82679 4.04771,2.54695 2.22623,0.4471 5.56562,0.8129 7.42086,0.8129 3.91066,0 7.37342,2.11683 5.90602,3.61042 -0.8181,0.83271 -1.87564,0.79246 -13.31039,-0.50662 -4.10054,-0.46585 -6.20705,0.95484 -6.20705,4.18621 0,2.4113 2.31159,3.65786 8.21428,4.42967 5.4394,0.71123 10.31403,1.9184 10.77798,2.66909 0.7913,1.28035 -1.31753,2.754 -3.90115,2.72613 -1.42511,-0.0154 -3.71611,-0.52205 -5.09111,-1.12593 z"
               id="path5391" />
            <path
               style="opacity:1;fill:#ffffff;fill-opacity:0.99684544;stroke:#f4f7ff;stroke-width:5.85714293;stroke-linecap:round;stroke-linejoin:round;stroke-miterlimit:5.5;stroke-dasharray:none;stroke-opacity:0.96470588"
               d="m 255.65275,637.02495 c -6.78637,-2.73595 -11.08642,-5.39417 -12.69353,-7.84693 -1.04582,-1.59611 -0.99883,-2.02262 0.67729,-6.14757 2.57739,-6.34299 6.67409,-13.42934 8.25181,-14.2737 3.08859,-1.65297 7.33031,-0.82184 15.21665,2.98155 8.03996,3.87747 8.11952,3.96282 8.53087,9.15214 0.17768,2.24138 0.014,2.5 -1.58192,2.5 -1.35415,0 -2.07958,-0.63604 -3.03172,-2.65817 -1.68354,-3.57542 -6.07609,-5.66578 -14.22231,-6.7682 -2.56704,-0.3474 -2.64357,-0.28462 -5.17857,4.24838 -1.41516,2.53054 -2.57302,5.24997 -2.57302,6.04316 0,2.55742 3.00779,5.36881 8.41832,7.86863 4.84339,2.23778 5.3868,2.34755 6.52452,1.31793 1.31149,-1.18688 2.77794,-1.40475 4.6416,-0.6896 1.70547,0.65445 1.36459,2.29873 -0.95806,4.62138 -2.69397,2.69397 -4.61213,2.63828 -12.02193,-0.349 z"
               id="path5393" />
            <path
               style="opacity:1;fill:#ffffff;fill-opacity:0.99684544;stroke:#f4f7ff;stroke-width:5.85714293;stroke-linecap:round;stroke-linejoin:round;stroke-miterlimit:5.5;stroke-dasharray:none;stroke-opacity:0.96470588"
               d="m 283.59501,652.771 -2.04671,-1.76414 1.42857,-1.76661 c 0.78572,-0.97165 3.74978,-4.61391 6.5868,-8.09393 2.83702,-3.48002 5.16738,-6.86476 5.17857,-7.52165 0.0195,-1.14656 -5.32868,-6.30566 -6.53679,-6.30566 -1.19564,0 -0.53564,-2.83368 0.83025,-3.56469 1.21872,-0.65223 2.71873,0.26472 10.76731,6.58202 5.14324,4.03689 9.87777,7.74651 10.52118,8.24357 1.06136,0.81996 0.9993,1.07431 -0.66925,2.74285 l -1.83909,1.83909 -2.41949,-2.10239 c -3.90065,-3.38942 -5.16347,-3.84722 -7.02181,-2.54559 -0.8849,0.61981 -4.02393,4.38131 -6.97562,8.35889 -2.95169,3.97758 -5.45458,7.3288 -5.56197,7.44717 -0.10739,0.11836 -1.11627,-0.57866 -2.24195,-1.54893 z"
               id="path5395" />
            <path
               style="opacity:1;fill:#ffffff;fill-opacity:1;stroke:#f4f7ff;stroke-width:0.73214287;stroke-linecap:round;stroke-linejoin:round;stroke-miterlimit:5.5;stroke-dasharray:none;stroke-opacity:0.96470588"
               d="m 320.44754,689.61613 c -1.03381,-0.32395 -2.29604,-1.59177 -2.73506,-2.74718 -0.25911,-0.68194 -0.23639,-1.5281 0.06,-2.23339 0.77889,-1.85353 0.95764,-2.82585 0.72758,-3.95749 -0.27075,-1.33171 -0.89079,-2.31456 -2.79513,-4.43064 -1.30082,-1.44546 -1.52629,-1.72803 -3.23278,-4.0515 -1.76883,-2.40833 -3.10356,-3.97163 -3.62892,-4.25033 l -0.38271,-0.20302 -1.37162,0.21775 c -0.84712,0.13448 -1.74719,0.21774 -2.35376,0.21774 -0.89122,0 -1.02761,-0.0226 -1.47322,-0.24441 -0.66973,-0.33334 -1.32765,-0.93709 -2.39919,-2.20167 -0.73143,-0.86319 -0.87519,-1.0777 -0.74859,-1.1169 0.0862,-0.0267 0.85984,-0.23277 1.71921,-0.45795 0.85938,-0.22518 3.37054,-0.92562 5.58036,-1.55654 7.99604,-2.28293 10.91547,-2.96989 14.78867,-3.47986 0.70552,-0.0929 1.92561,-0.33692 2.71133,-0.54228 1.7429,-0.45554 3.30271,-0.56956 4.36488,-0.31908 1.77924,0.41958 3.19233,1.78698 4.71398,4.56155 0.59372,1.08259 0.69792,1.37162 0.69792,1.93583 0,0.61431 -0.14147,0.89183 -0.99506,1.95195 -1.84259,2.28844 -2.72249,3.85948 -4.89921,8.74745 -2.13001,4.78307 -3.32635,6.89443 -4.95721,8.7487 -0.68099,0.77428 -0.89128,1.26446 -1.06932,2.49256 -0.25517,1.76016 -0.61397,2.60198 -1.23456,2.89646 -0.36166,0.17163 -0.59561,0.17641 -1.08758,0.0222 z m 2.47456,-14.5692 c 0.21019,-0.14773 0.5233,-0.45629 0.69581,-0.68569 0.54414,-0.72361 4.31233,-7.45106 5.01724,-8.95741 0.47453,-1.01404 0.36148,-1.91958 -0.28751,-2.30294 -0.13596,-0.0803 -0.35881,-0.14603 -0.4952,-0.14603 -0.29443,0 -5.83229,1.08735 -6.86414,1.34776 -1.05215,0.26553 -1.74486,0.48382 -2.99424,0.94357 -1.94799,0.71681 -2.64392,1.14023 -2.90632,1.76823 -0.35432,0.84802 -0.0151,1.46663 2.12787,3.88083 0.52945,0.59644 1.3577,1.61805 1.84055,2.27023 1.41139,1.90635 1.84215,2.23183 2.88494,2.17988 0.49328,-0.0246 0.66619,-0.0772 0.981,-0.29843 z"
               id="path5401" />
            <g
               id="g5406">
              <path
                 id="path5218"
                 d="m 243.913,315.657 c -0.942,-2.298 0.908,-3.318 2.281,-4.072 5.938,-3.261 11.985,-6.322 18.016,-9.414 3.934,-2.016 9.095,0.607 8.298,4.752 -0.524,2.73 0.861,3.814 1.751,5.38 2.977,5.235 2.854,5.626 -2.392,8.233 -4.951,2.46 -9.772,5.184 -14.914,7.931 1.511,1.57 2.798,0.921 4.087,0.244 4.927,-2.587 9.737,-5.436 14.816,-7.674 4.211,-1.855 3.544,-2.199 6.743,3.212 1.591,2.69 0.225,4.094 -2.375,5.389 -8.771,4.37 -17.46,8.916 -26.045,13.64 -2.089,1.149 -3.323,0.793 -4.324,-0.925 -4.146,-7.116 -8.245,-14.26 -12.252,-21.456 -2.074,-3.726 -1.291,-4.968 2.992,-5.009 1.08,-0.01 2.101,-1.005 3.206,-0.175 -0.567,0.466 -1.066,1.06 -1.704,1.366 -1.739,0.836 -2.157,1.516 -1.084,3.592 2.922,5.649 6.751,10.792 9.429,16.504 1.678,3.577 3.265,3.137 6.075,1.965 6.325,-2.636 11.766,-6.885 18.055,-9.602 1.86,-0.804 3.983,-1.299 5.559,-2.83 0.885,-0.861 1.166,-1.691 0.288,-2.531 -0.601,-0.574 -1.056,-1.979 -2.213,-1.264 -5.955,3.68 -13.081,5.07 -18.606,9.593 -1.218,0.998 -3.299,1.693 -3.672,-0.19 -0.368,-1.866 -4.184,-3.373 -0.975,-5.754 5.255,-3.896 11.407,-6.209 16.951,-9.591 0.646,-0.394 2.011,-0.245 1.803,-1.479 -0.187,-1.105 -1.352,-1.385 -2.245,-1.767 -1.042,-0.445 -1.813,0.3 -2.732,0.675 -4.432,1.804 -8.023,5.01 -12.258,7.129 -1.476,0.738 -2.864,1.33 -4.607,1.113 -1.764,-0.219 -2.086,-1.721 -2.734,-2.785 -0.803,-1.317 0.637,-2.266 1.471,-2.504 2.573,-0.733 4.269,-2.841 6.908,-3.666 4.038,-1.264 7.344,-4.326 11.35,-5.974 2.416,-0.993 -0.484,-2.278 -0.228,-3.584 0.216,-1.095 -0.936,-0.996 -1.583,-0.675 -3.517,1.747 -7.242,3.217 -10.427,5.452 -3.994,2.802 -8.247,4.928 -12.709,6.751 z"
                 style="clip-rule:evenodd;fill:#fffcfc;fill-opacity:0.78233439;fill-rule:evenodd"
                 transform="matrix(1.0093259,0,0,1.0093259,9.9119097,579.66366)" />
              <path
                 id="path5403"
                 d="m 255,899.01397 c 1.83036,-1.5625 1.83036,-1.5625 1.83036,-1.5625"
                 style="fill:none;fill-rule:evenodd;stroke:#d4deef;stroke-width:1px;stroke-linecap:butt;stroke-linejoin:miter;stroke-opacity:0.95294118" />
            </g>
          </g>
          <path
             id="path5466"
             d="m 264.83865,922.55056 c -0.68869,-0.30179 -1.41254,-1.26375 -2.33197,-3.09913 -1.0623,-2.12055 -2.83217,-5.20112 -5.85923,-10.19839 -2.85743,-4.71723 -3.99376,-6.89536 -3.99376,-7.65526 0,-0.3655 0.0869,-0.66607 0.25409,-0.8786 0.33772,-0.42933 2.1074,-1.4853 2.33976,-1.39613 0.11036,0.0424 0.52249,-0.22866 1.03598,-0.68125 0.68329,-0.60224 1.20397,-0.90784 2.62048,-1.53805 3.49997,-1.55712 6.18278,-3.04956 9.83427,-5.47077 1.86404,-1.236 3.05954,-1.89695 6.45721,-3.56995 2.29331,-1.12921 4.38632,-2.11294 4.65114,-2.18606 0.79897,-0.22061 1.31035,0.12537 1.1501,0.77812 -0.0706,0.28741 0.1256,0.72271 0.81788,1.81492 0.65365,1.03127 0.58104,1.13755 -1.47882,2.16459 -0.95359,0.47545 -2.92704,1.58855 -4.38545,2.47354 -2.97136,1.80308 -4.05617,2.35884 -6.04003,3.09435 -1.40396,0.52052 -1.95869,0.82208 -4.24586,2.30812 -0.72643,0.47199 -1.77762,1.03341 -2.33598,1.2476 -1.28588,0.49328 -1.71716,0.75916 -1.99378,1.22914 -0.34123,0.57979 -0.27077,1.07679 0.30365,2.14176 0.88443,1.63975 1.46709,2.12117 2.72365,2.25041 2.02839,0.20864 4.23648,-0.77062 9.69431,-4.29929 3.56331,-2.3038 4.23439,-2.69042 6.7554,-3.89196 2.40667,-1.14704 2.49325,-1.15597 3.99787,-0.41235 0.98422,0.48643 1.30543,0.86899 1.30543,1.55475 0,0.44985 -0.26322,0.68921 -1.04249,0.94801 -0.3303,0.1097 -1.23944,0.56572 -2.0203,1.01339 -0.78087,0.44767 -3.49373,1.89195 -6.02858,3.2095 -8.40449,4.36846 -11.11168,6.23344 -11.11168,7.65483 0,0.54395 0.28662,1.08246 1.1595,2.17845 0.44925,0.56408 0.89206,1.21752 0.98402,1.45209 0.37763,0.96323 0.53535,1.21911 0.83583,1.35601 0.77131,0.35144 1.88395,0.0494 3.01843,-0.81933 2.76843,-2.11998 5.49647,-3.58152 11.17481,-5.98687 3.56678,-1.5109 4.88702,-2.13575 6.85055,-3.24228 0.9228,-0.52004 1.3093,-0.67453 1.54161,-0.61623 0.35104,0.0881 1.80748,1.75035 1.91741,2.18836 0.12246,0.48792 -0.0695,0.91995 -0.70861,1.59437 -0.85056,0.89763 -1.65052,1.3472 -4.40493,2.47551 -2.93004,1.20027 -5.51806,2.53293 -9.86798,5.08135 -5.64531,3.30733 -8.57005,4.80734 -10.89564,5.58801 -1.05225,0.35323 -2.0762,0.40856 -2.67829,0.14472 z"
             style="opacity:1;fill:#ffffff;fill-opacity:1;stroke:#d4deef;stroke-width:1.03540635;stroke-linecap:round;stroke-linejoin:round;stroke-miterlimit:5.5;stroke-dasharray:none;stroke-opacity:0.95294118" />
          <path
             id="path5468"
             d="m 306.70126,896.83657 c -0.77482,-0.27861 -1.29159,-0.60488 -3.93668,-2.4855 -2.62976,-1.86972 -4.61976,-3.75621 -6.69694,-6.34862 -1.45141,-1.81141 -3.00994,-4.02705 -3.33078,-4.73509 -1.01005,-2.229 -0.0552,-5.06251 3.13842,-9.313 1.52638,-2.03152 3.42807,-3.96828 7.60171,-7.74187 3.78514,-3.42233 4.62964,-4.24821 6.31797,-6.17864 2.30738,-2.63825 3.49351,-3.16686 6.65953,-2.9679 2.58158,0.16224 3.01156,0.36305 5.27355,2.4628 0.52371,0.48615 1.85901,1.50392 2.96733,2.26172 2.53846,1.73564 3.66375,2.66189 4.51987,3.7204 2.10283,2.59996 3.03076,4.70943 3.03402,6.89735 0.002,1.35142 -0.23872,2.26791 -0.93943,3.57644 -0.75383,1.40775 -1.45845,2.25538 -4.21708,5.07299 -1.39389,1.42368 -4.38546,4.52043 -6.64795,6.88166 -2.26248,2.36123 -4.36749,4.52628 -4.67779,4.81122 -0.68279,0.62697 -1.5256,1.17176 -3.19865,2.06758 -0.69448,0.37186 -1.70717,0.95889 -2.25042,1.30452 -1.61935,1.03028 -2.34085,1.17271 -3.61668,0.71394 z m 4.38571,-8.45113 c 1.89742,-0.89763 5.65242,-3.73759 7.81465,-5.91032 2.32221,-2.33349 4.45275,-5.50549 5.24848,-7.81406 0.33567,-0.97386 0.37328,-1.22675 0.32686,-2.19776 -0.0843,-1.76337 -0.45239,-2.37361 -2.84274,-4.71305 -2.84108,-2.78058 -3.77772,-3.36012 -5.43053,-3.36012 -1.60631,0 -3.74645,1.02873 -6.66579,3.20411 -1.36292,1.01561 -4.42837,4.11938 -5.74594,5.81777 -0.58992,0.76043 -1.65619,2.00754 -2.36948,2.77135 -1.5515,1.66139 -2.0513,2.54123 -2.04512,3.6002 0.009,1.53948 0.79317,2.95178 2.71067,4.8819 2.14623,2.16037 4.43336,3.52265 6.56599,3.9109 1.31277,0.23899 1.56625,0.2191 2.43295,-0.19092 z"
             style="opacity:1;fill:#ffffff;fill-opacity:1;stroke:#d4deef;stroke-width:1.03540635;stroke-linecap:round;stroke-linejoin:round;stroke-miterlimit:5.5;stroke-dasharray:none;stroke-opacity:0.95294118" />
          <path
             id="path5470"
             d="m 210.77758,935.36708 c -1.20911,-0.31247 -2.02285,-1.36392 -2.75027,-3.55371 -0.81198,-2.44434 -1.11856,-4.15602 -1.65014,-9.2132 -0.53781,-5.11647 -0.95996,-7.36264 -1.82296,-9.69976 -0.25634,-0.69421 -0.38785,-1.28277 -0.38785,-1.73584 0,-0.6084 0.0506,-0.74152 0.44997,-1.18356 0.24749,-0.27394 0.68785,-0.58718 0.97859,-0.69609 0.29074,-0.10892 2.01109,-0.39316 3.82301,-0.63166 7.9279,-1.04351 14.69233,-2.24267 21.39121,-3.79212 3.71718,-0.85978 6.10655,-0.74966 8.43533,0.38874 2.68855,1.31427 4.32226,3.85739 5.07635,7.90215 0.20706,1.11059 0.41741,1.75444 0.94164,2.88215 1.15571,2.48613 1.54933,4.21866 1.4168,6.23615 -0.2217,3.37516 -2.08192,6.06473 -5.21959,7.54665 -1.6173,0.76385 -6.90462,2.12454 -9.70351,2.4972 -0.55559,0.074 -2.00453,0.18881 -3.21987,0.2552 -3.81202,0.20823 -7.29968,0.78229 -12.79465,2.10596 -2.89247,0.69676 -4.22574,0.88255 -4.96406,0.69174 z m 8.98575,-6.71258 c 0.68761,-0.20222 1.47742,-0.28392 3.59593,-0.37198 3.45646,-0.14368 4.25759,-0.33656 5.35328,-1.28884 l 0.49192,-0.42754 0.70764,0.23935 c 0.95537,0.32314 1.58417,0.24107 3.09081,-0.40338 0.68572,-0.29332 1.56417,-0.59197 1.9521,-0.66369 2.46682,-0.45601 3.98742,-2.50814 3.7658,-5.08214 -0.13053,-1.51602 -1.62373,-6.80015 -2.32304,-8.22077 -0.39831,-0.80914 -1.32161,-1.76802 -2.07358,-2.15349 -1.26861,-0.65031 -2.56982,-0.6149 -4.47994,0.12194 -2.98352,1.15089 -5.71188,1.67014 -11.60627,2.20881 -2.70819,0.2475 -3.25753,0.39441 -4.08284,1.09187 -0.56194,0.47489 -1.02087,1.47297 -1.02244,2.22364 -6.8e-4,0.32372 0.13631,1.17604 0.30442,1.89404 0.40639,1.73568 0.66893,3.51571 0.89092,6.04054 0.10075,1.14589 0.23948,2.2729 0.30829,2.50446 0.33547,1.12891 1.2681,2.10507 2.29222,2.39919 0.72744,0.20892 1.90117,0.16254 2.83478,-0.11201 z"
             style="opacity:1;fill:#ffffff;fill-opacity:1;stroke:#d4deef;stroke-width:1.03540635;stroke-linecap:round;stroke-linejoin:round;stroke-miterlimit:5.5;stroke-dasharray:none;stroke-opacity:0.95294118" />
          <path
             id="path5472"
             d="m 84.350698,889.79625 c -1.59709,-1.06535 -3.561609,-3.11629 -3.561609,-3.71827 0,-0.32501 1.285985,-1.7521 2.857745,-3.17132 2.955231,-2.66842 3.574362,-3.76713 2.925411,-5.19142 -0.626455,-1.37492 -13.674602,-15.1821 -14.556704,-15.40349 -1.403746,-0.35232 -2.381909,0.22362 -5.455855,3.21239 l -2.979404,2.89686 -1.752739,-1.89991 c -2.181564,-2.36475 -2.310788,-3.53141 -0.574791,-5.18938 3.659267,-3.49478 12.876184,-11.84861 14.217868,-12.88647 2.533148,-1.95954 3.300149,-1.86299 5.481183,0.68994 l 1.678053,1.96418 -1.118209,0.94091 c -0.615015,0.5175 -1.73286,1.84344 -2.484101,2.94653 -0.751241,1.1031 -1.706863,2.31178 -2.123604,2.68598 -0.41674,0.37419 -0.757621,0.93669 -0.757511,1.25 1.09e-4,0.3133 1.034667,1.49473 2.299019,2.62538 1.264352,1.13065 3.54064,3.54137 5.058418,5.35714 5.446955,6.5164 7.611881,8.40735 9.088785,7.9386 0.38304,-0.12157 0.696436,-0.34199 0.696436,-0.48983 0,-0.14783 0.544912,-0.9054 1.210915,-1.68347 1.471078,-1.71862 4.839775,-3.52482 5.929186,-3.17905 0.97398,0.30913 2.8599,2.90663 2.8599,3.93898 0,0.55547 -1.15751,1.85219 -3.839286,4.30102 -2.111608,1.92819 -5.941899,5.56408 -8.511759,8.07976 -2.569859,2.51569 -4.904635,4.57397 -5.18839,4.57397 -0.283755,0 -0.913285,-0.26507 -1.398957,-0.58903 z"
             style="opacity:1;fill:#ffffff;fill-opacity:1;stroke:#d4deef;stroke-width:2.92857146;stroke-linecap:round;stroke-linejoin:round;stroke-miterlimit:5.5;stroke-dasharray:none;stroke-opacity:0.95294118" />
          <path
             id="path5474"
             d="m 187.93195,933.75569 c -0.6875,-0.26012 -1.68285,-0.48202 -2.21189,-0.49311 -1.25161,-0.0262 -2.07383,-1.22043 -2.07383,-3.01206 0,-1.17387 -0.23449,-1.62747 -1.4285,-2.76331 -2.03743,-1.93816 -5.02438,-2.77981 -11.29762,-3.18341 -2.77615,-0.1786 -5.74936,-0.48717 -6.60714,-0.6857 -1.41143,-0.32667 -1.6225,-0.28568 -2.22174,0.4314 -0.51703,0.61872 -0.62789,1.20533 -0.50586,2.67681 0.10227,1.23331 0.004,2.01111 -0.28539,2.251 -0.24795,0.20578 -1.73286,0.32081 -3.38559,0.26226 -2.70664,-0.0959 -3.00046,-0.18017 -3.64536,-1.0457 -0.69814,-0.93697 -0.6979,-0.95648 0.0508,-4.14569 0.41375,-1.76235 0.99223,-5.47802 1.28551,-8.25704 0.87249,-8.26748 2.1627,-12.5 3.67372,-12.05156 0.33942,0.10074 4.15285,0.59733 8.47428,1.10353 14.51942,1.70079 20.22598,3.00437 23.07912,5.2721 0.31853,0.25317 1.00156,1.08279 1.51786,1.8436 2.31482,3.41107 0.20427,9.04706 -3.75812,10.03567 -1.14579,0.28587 -2.44601,1.43549 -2.44601,2.1627 0,0.29138 0.61205,1.20922 1.36011,2.03965 2.46542,2.73689 2.92561,3.512 2.92561,4.92765 0,1.4842 -0.53511,3.21424 -0.97331,3.14676 -0.15218,-0.0234 -0.83919,-0.25543 -1.52669,-0.51555 z m -3.91618,-14.3702 c 1.74134,-1.74134 2.18062,-3.63794 1.16142,-5.01445 -1.00052,-1.35128 -3.9365,-2.40401 -8.6108,-3.0875 -2.22428,-0.32524 -4.69538,-0.82111 -5.49134,-1.10194 -0.79595,-0.28083 -2.24292,-0.5106 -3.21548,-0.5106 -2.27365,0 -3.5576,1.18436 -4.39071,4.05016 -0.75722,2.60476 -0.59953,3.73568 0.6504,4.66452 0.88362,0.65662 1.44044,0.74001 4.48911,0.6723 2.90887,-0.0646 3.88682,0.0661 5.95555,0.79603 1.80814,0.63799 3.2324,0.87538 5.28504,0.88088 2.78118,0.007 2.82373,-0.006 4.16681,-1.3494 z"
             style="opacity:1;fill:#ffffff;fill-opacity:1;stroke:#d4deef;stroke-width:2.92857146;stroke-linecap:round;stroke-linejoin:round;stroke-miterlimit:5.5;stroke-dasharray:none;stroke-opacity:0.95294118" />
          <path
             id="path5476"
             d="m 121.69643,903.88004 c 3.57143,1.60714 3.66071,1.60714 3.66071,1.60714"
             style="fill:none;fill-rule:evenodd;stroke:#d4deef;stroke-width:1px;stroke-linecap:butt;stroke-linejoin:miter;stroke-opacity:0.95294118" />
          <path
             id="path5571"
             d="m 135.10454,921.74904 c -1.24689,-0.46345 -3.54895,-1.94229 -4.25518,-2.73354 l -0.36453,-0.4084 -0.0162,-1.24654 c -0.0123,-0.94755 -0.0614,-1.41449 -0.2045,-1.94672 -0.51621,-1.91945 -1.60073,-3.19462 -3.53962,-4.16191 -0.82481,-0.41148 -1.37079,-0.58952 -3.70536,-1.20827 -1.17761,-0.31212 -2.57925,-1.02899 -4.13389,-2.11431 -2.67092,-1.86459 -3.51942,-2.41259 -4.39289,-2.8371 -1.00032,-0.48616 -3.02606,-1.16677 -3.46379,-1.16377 -0.40113,0.003 -0.89342,0.24745 -1.65884,0.82458 -1.73897,1.31119 -3.18063,1.26784 -6.59455,-0.19829 -1.27162,-0.5461 -1.8989,-1.02151 -1.8989,-1.43916 0,-0.17455 0.11006,-0.38274 0.33483,-0.63342 0.54169,-0.60413 1.07505,-0.93613 10.72233,-6.6743 4.07342,-2.42285 5.85755,-3.58362 8.98307,-5.84442 2.46746,-1.7848 4.64687,-1.9555 7.39481,-0.57922 0.50225,0.25155 1.31496,0.68838 1.80604,0.97073 1.20376,0.69213 2.20235,1.18479 2.90178,1.43161 0.72025,0.25417 0.93968,0.44584 1.11013,0.96971 0.25801,0.79299 0.33212,1.96616 0.40389,6.39343 0.0781,4.81888 0.10369,5.13468 0.683,8.4375 1.27616,7.27571 1.42818,8.76368 1.20871,11.83036 -0.0316,0.44196 -0.0277,1.12224 0.009,1.51173 0.0556,0.59491 0.0426,0.73413 -0.0808,0.87054 -0.19461,0.21503 -0.57452,0.19957 -1.24818,-0.0508 l 0,0 z m -6.93494,-14.16749 c 0.35734,-0.13501 0.73783,-0.51613 0.93029,-0.93182 0.14436,-0.3118 0.16535,-0.5952 0.16535,-2.23214 -1e-5,-3.51967 -0.25612,-7.25786 -0.58724,-8.57143 -0.26542,-1.05289 -0.82433,-1.54823 -1.62334,-1.43872 -0.47852,0.0656 -1.14448,0.38599 -2.83014,1.36159 -1.6487,0.95421 -4.77362,2.70924 -5.89286,3.30958 -1.06346,0.57041 -1.38393,0.87867 -1.38393,1.33121 0,0.27104 0.0865,0.41029 0.56777,0.91377 0.31227,0.3267 0.80011,0.91543 1.08409,1.30828 1.08277,1.49792 1.59796,1.87358 2.54142,1.85312 0.53123,-0.0115 0.68163,0.0342 1.88818,0.57383 0.95769,0.42833 1.34293,0.64605 1.42955,0.8079 0.19281,0.36028 1.02382,1.06523 1.54808,1.31324 0.91445,0.43261 1.6964,0.5778 2.16278,0.40159 z"
             style="opacity:1;fill:#2482ff;fill-opacity:0.78431373;stroke:#ffffff;stroke-width:0.73214287;stroke-linecap:round;stroke-linejoin:round;stroke-miterlimit:5.5;stroke-dasharray:none;stroke-opacity:1" />
          <path
             id="path5573"
             d="m 134.98345,921.25663 c -1.18511,-0.51618 -3.0077,-1.70341 -3.67277,-2.39244 l -0.41384,-0.42875 -0.0494,-1.29464 c -0.0763,-1.99874 -0.56825,-3.36465 -1.63731,-4.546 -1.18722,-1.31192 -2.56092,-1.98548 -5.92309,-2.90422 -1.25003,-0.34158 -2.78868,-1.14531 -4.65778,-2.43304 -2.40192,-1.65482 -3.05568,-2.06481 -4.05362,-2.54214 -1.20648,-0.57709 -2.95707,-1.14603 -3.52624,-1.14603 -0.57734,0 -0.85213,0.12084 -1.89703,0.83425 -1.07867,0.73647 -1.59747,0.90136 -2.64612,0.841 -0.57458,-0.0331 -1.03714,-0.13545 -1.86674,-0.41316 -1.76167,-0.58974 -3.31676,-1.37702 -3.31676,-1.67916 0,-0.45981 0.83567,-1.03609 5.80357,-4.0022 8.64764,-5.1631 10.21633,-6.14632 13.30358,-8.33841 2.14377,-1.52217 3.07508,-1.9124 4.5557,-1.90889 1.37392,0.003 2.18435,0.29976 4.95494,1.81281 0.98309,0.53688 2.14827,1.12109 2.58929,1.29824 0.44102,0.17716 0.87256,0.38523 0.95899,0.46238 0.41983,0.37479 0.55971,1.86754 0.64627,6.89671 0.0741,4.30817 0.14178,5.02849 0.89287,9.50893 0.94553,5.64042 1.05102,6.55765 1.01658,8.83929 -0.0156,1.03125 -0.019,2.30692 -0.008,2.83482 l 0.0207,0.95982 -0.24689,-0.003 c -0.13579,-0.002 -0.50806,-0.11695 -0.82725,-0.25598 l 0,0 z m -6.57798,-13.34468 c 0.39948,-0.16691 1.02084,-0.89676 1.14223,-1.34166 0.1434,-0.52555 0.0418,-6.65855 -0.13964,-8.43152 -0.27403,-2.67734 -0.57868,-3.53105 -1.41173,-3.95604 -0.28068,-0.1432 -0.48195,-0.17771 -0.87185,-0.14951 -0.63415,0.0459 -1.3693,0.39232 -3.8821,1.82949 -1.03125,0.58981 -2.69866,1.5276 -3.70536,2.08396 -1.0067,0.55637 -2.00415,1.12899 -2.21656,1.2725 -0.50567,0.34162 -0.72912,0.7189 -0.72954,1.23178 -2.6e-4,0.37999 0.047,0.46362 0.68074,1.20333 0.3746,0.43722 0.91375,1.1006 1.19812,1.47417 0.99034,1.30096 1.7286,1.78021 2.74232,1.78021 0.84156,0 2.51618,0.83339 3.37967,1.68193 1.16381,1.14367 2.84494,1.72614 3.8137,1.32136 z"
             style="opacity:1;fill:#2482ff;fill-opacity:0.78431373;stroke:#ffffff;stroke-width:0.73214287;stroke-linecap:round;stroke-linejoin:round;stroke-miterlimit:5.5;stroke-dasharray:none;stroke-opacity:1" />
          <path
             id="path5575"
             d="m 134.76023,920.68263 c -1.25439,-0.61559 -2.98974,-1.81668 -3.33318,-2.30701 -0.0743,-0.10604 -0.15093,-0.63229 -0.20042,-1.3758 -0.14237,-2.13908 -0.64778,-3.48706 -1.75639,-4.68445 -1.27474,-1.37685 -2.27839,-1.87744 -6.0661,-3.0256 -1.37375,-0.41642 -2.63807,-1.10113 -5.22414,-2.82921 -1.36286,-0.91069 -2.7605,-1.7687 -3.33048,-2.04458 -1.42772,-0.69101 -2.78903,-1.12987 -3.6657,-1.18176 -0.65372,-0.0387 -0.76358,-0.0202 -1.20536,0.2033 -0.26735,0.13522 -0.72039,0.40474 -1.00677,0.59892 -0.28637,0.19418 -0.743,0.45484 -1.01473,0.57924 -0.45503,0.20832 -0.56552,0.22248 -1.39896,0.17929 -0.7194,-0.0373 -1.08795,-0.11034 -1.79777,-0.35637 -1.14875,-0.39818 -1.93487,-0.72961 -2.52604,-1.06498 -0.40196,-0.22804 -0.45569,-0.28827 -0.36001,-0.40357 0.22651,-0.27292 2.46335,-1.6762 7.3057,-4.58322 6.89906,-4.14174 8.00762,-4.83897 11.20535,-7.04758 2.51345,-1.73599 3.11632,-2.00139 4.55357,-2.00465 0.59095,-10e-4 1.07401,0.0507 1.42858,0.15388 0.29464,0.0857 1.96763,0.86827 3.71775,1.73893 l 3.18204,1.58303 0.0965,0.36346 c 0.17571,0.66201 0.27838,2.36158 0.37069,6.13657 0.11691,4.78024 0.1247,4.86216 0.94032,9.8839 0.92934,5.72194 0.86408,5.12555 0.90865,8.30357 0.0224,1.59599 0.0272,3.05417 0.0106,3.24042 l -0.0301,0.33862 -0.80357,-0.39435 z m -6.14193,-12.44451 c 0.36354,-0.16762 0.937,-0.78668 1.19231,-1.28713 0.19653,-0.38523 0.19687,-0.39495 0.14591,-4.18298 -0.0613,-4.55264 -0.22849,-6.3892 -0.69543,-7.6372 -0.51685,-1.38141 -1.65647,-1.8132 -3.18948,-1.20844 -0.80815,0.31881 -8.74232,4.76268 -9.20819,5.15745 -0.43323,0.3671 -0.63933,0.80546 -0.64369,1.36909 -0.004,0.53859 -7.1e-4,0.54414 1.40214,2.27225 1.67531,2.06368 2.12624,2.41019 3.33124,2.55979 1.19649,0.14854 2.3628,0.70019 3.33028,1.57518 1.51117,1.3667 3.20019,1.90516 4.33491,1.38199 z"
             style="opacity:1;fill:#2482ff;fill-opacity:0.78431373;stroke:#ffffff;stroke-width:0.73214287;stroke-linecap:round;stroke-linejoin:round;stroke-miterlimit:5.5;stroke-dasharray:none;stroke-opacity:1" />
          <path
             id="path5577"
             d="m 134.44773,920.05929 c -0.8367,-0.47741 -1.90142,-1.19809 -2.35301,-1.59269 l -0.34409,-0.30067 -0.12886,-1.24917 c -0.20948,-2.03076 -0.46701,-2.89993 -1.18245,-3.99089 -0.23486,-0.35813 -0.73013,-0.93784 -1.1006,-1.28824 -1.13898,-1.0773 -2.12002,-1.56148 -5.0471,-2.49097 -1.91658,-0.6086 -3.05851,-1.17962 -5.38072,-2.69062 -2.36377,-1.53804 -3.04423,-1.95605 -3.82043,-2.34692 -1.6189,-0.81522 -3.07685,-1.25403 -4.16651,-1.25403 -0.76655,0 -0.78271,0.006 -2.23516,0.88127 -0.9802,0.59044 -0.98364,0.59167 -1.74107,0.6217 -0.93635,0.0371 -1.5965,-0.10859 -3.01823,-0.66618 -1.68563,-0.6611 -1.6741,-0.56116 -0.17464,-1.51446 0.70028,-0.44521 3.42278,-2.10819 6.05002,-3.69551 6.18152,-3.73477 7.14337,-4.33757 10.08907,-6.32295 1.35034,-0.91011 2.79677,-1.81889 3.21429,-2.01949 l 0.75914,-0.36474 1.11607,0.004 c 1.11078,0.004 1.11987,0.006 1.91964,0.36856 0.81373,0.36876 5.94482,2.86351 5.99713,2.91583 0.17743,0.17743 0.32733,2.52366 0.47454,7.42755 0.10726,3.57309 0.16686,4.13473 0.98049,9.23901 0.78276,4.91067 0.82243,5.32676 0.78936,8.27975 l -0.0272,2.43154 -0.66965,-0.38209 z m -5.66744,-11.46735 c 0.46851,-0.24021 1.1692,-0.99453 1.39229,-1.49886 0.16488,-0.37273 0.17618,-0.59905 0.17172,-3.43765 -0.009,-5.81666 -0.30594,-8.34344 -1.1027,-9.38806 -0.61403,-0.80506 -1.34231,-1.09423 -2.39543,-0.95115 -0.82023,0.11144 -1.9141,0.66475 -6.90737,3.49395 -2.57916,1.46136 -3.15071,1.80801 -3.46799,2.10338 -0.59083,0.55 -0.82365,1.50145 -0.52989,2.16541 0.23214,0.52466 1.83937,2.53731 2.74515,3.43759 0.79909,0.79425 1.19246,0.99668 2.30864,1.18806 1.20207,0.20611 1.97938,0.59987 3.28997,1.66664 0.76253,0.62067 1.67943,1.12603 2.42037,1.33403 0.63337,0.1778 1.61159,0.12437 2.07524,-0.11334 z"
             style="opacity:1;fill:#2482ff;fill-opacity:0.78431373;stroke:#ffffff;stroke-width:0.73214287;stroke-linecap:round;stroke-linejoin:round;stroke-miterlimit:5.5;stroke-dasharray:none;stroke-opacity:1" />
          <path
             id="path5579"
             d="m 134.00071,919.30834 c -0.73084,-0.46503 -1.36621,-0.9107 -1.66062,-1.1648 -0.15816,-0.13652 -0.21212,-0.36451 -0.33996,-1.43653 -0.3244,-2.72028 -0.87804,-3.92357 -2.49876,-5.43086 -1.11601,-1.03791 -1.94382,-1.45262 -4.94381,-2.47673 -2.40978,-0.82264 -3.05216,-1.15504 -6.44096,-3.33298 -3.44402,-2.21342 -5.27363,-2.96639 -7.21149,-2.96787 -0.90017,-7.1e-4 -0.92825,0.01 -2.66057,1.01487 -0.69588,0.40365 -0.72957,0.41308 -1.47678,0.41308 -0.86598,0 -1.39993,-0.12 -2.63155,-0.59142 -0.68642,-0.26273 -0.83623,-0.35086 -0.74289,-0.43703 0.13386,-0.12359 1.46214,-0.94001 6.67941,-4.10546 5.58301,-3.38735 6.59678,-4.0203 9.50893,-5.93688 1.47322,-0.96957 3.01778,-1.959 3.43237,-2.19872 l 0.7538,-0.43585 0.98406,-0.0307 c 0.59562,-0.0186 1.12631,0.0114 1.34442,0.076 0.30393,0.09 6.01349,2.80056 6.37335,3.02564 0.0702,0.0439 0.15056,0.34927 0.19328,0.73424 0.0676,0.60949 0.10865,1.47501 0.35918,7.57852 0.10858,2.64529 0.20868,3.53398 0.89004,7.90201 0.77646,4.97761 0.81344,5.35361 0.78409,7.97112 l -0.0253,2.25682 -0.67024,-0.42647 z m -5.37781,-10.24985 c 0.54122,-0.16073 1.28698,-0.80006 1.71952,-1.47412 0.26688,-0.41589 0.29276,-0.52643 0.3708,-1.58372 0.10949,-1.48345 -0.055,-7.54547 -0.24275,-8.94913 -0.25101,-1.87605 -0.58609,-2.77509 -1.26885,-3.40443 -0.60164,-0.55458 -1.09371,-0.74122 -1.94139,-0.73637 -1.11321,0.006 -1.52406,0.19403 -6.38393,2.91581 -3.51697,1.96969 -4.41609,2.52676 -4.82135,2.98717 -0.44957,0.51073 -0.65686,1.13085 -0.60725,1.81662 0.0323,0.44655 0.10024,0.61628 0.4522,1.1296 1.1761,1.71532 2.92901,3.59525 3.67625,3.94263 0.24251,0.11273 0.8251,0.28678 1.29465,0.38677 1.1525,0.24542 1.74684,0.53213 2.90687,1.40227 1.69607,1.27223 2.61883,1.68933 3.75654,1.69798 0.34711,0.003 0.83702,-0.0563 1.08869,-0.13108 z"
             style="opacity:1;fill:#2482ff;fill-opacity:0.78431373;stroke:#ffffff;stroke-width:0.73214287;stroke-linecap:round;stroke-linejoin:round;stroke-miterlimit:5.5;stroke-dasharray:none;stroke-opacity:1" />
          <path
             id="path5581"
             d="m 133.4735,918.47523 c -0.41305,-0.28818 -0.78649,-0.55944 -0.82985,-0.6028 -0.0434,-0.0434 -0.1759,-0.72728 -0.29453,-1.51982 -0.36988,-2.47112 -0.84582,-3.56558 -2.13454,-4.90861 -0.76006,-0.7921 -1.30027,-1.22464 -2.02318,-1.61997 l -0.45066,-0.24644 0.49436,-0.051 c 0.64815,-0.0669 1.27227,-0.41457 1.87099,-1.04227 0.60499,-0.63427 0.83597,-1.0863 0.94682,-1.85295 0.19229,-1.32986 0.0448,-7.81696 -0.22293,-9.80363 -0.2343,-1.73878 -0.56047,-2.60303 -1.26781,-3.35923 -0.54712,-0.58492 -1.17546,-0.88078 -2.00307,-0.94318 -1.25467,-0.0946 -1.82509,0.14084 -6.07276,2.50641 -3.48975,1.94347 -4.93518,2.81054 -5.46643,3.27913 -0.90439,0.79773 -1.21649,2.14133 -0.73409,3.16031 0.23547,0.49739 1.00863,1.55306 1.82838,2.49646 0.29701,0.34181 0.52417,0.6373 0.50481,0.65666 -0.0194,0.0194 -0.36916,-0.1649 -0.77734,-0.40946 -2.56329,-1.5358 -4.08677,-2.07402 -5.87069,-2.07402 -1.03969,0 -1.25039,0.0661 -2.52715,0.7931 l -0.95926,0.54619 -0.78181,-5.4e-4 c -0.80957,-4.8e-4 -1.12896,-0.0606 -2.02338,-0.38058 -0.51985,-0.18599 -0.52442,-0.19062 -0.32423,-0.32788 0.11169,-0.0766 2.13691,-1.31771 4.5005,-2.75809 6.15965,-3.75372 7.93104,-4.85615 10.54744,-6.56426 1.27679,-0.83355 2.8015,-1.81035 3.38826,-2.17067 l 1.06683,-0.65513 1.05506,0 1.05506,0 2.52097,1.19337 c 3.94381,1.86691 3.69999,1.73053 3.7588,2.10258 0.0278,0.17607 0.13291,2.2487 0.23352,4.60584 0.23017,5.39267 0.31611,6.31679 1.02322,11.00323 0.74893,4.96357 0.77776,5.2547 0.74633,7.53757 l -0.0266,1.93366 -0.75102,-0.52396 z"
             style="opacity:1;fill:#2482ff;fill-opacity:0.78431373;stroke:#ffffff;stroke-width:0.73214287;stroke-linecap:round;stroke-linejoin:round;stroke-miterlimit:5.5;stroke-dasharray:none;stroke-opacity:1" />
          <path
             id="path5583"
             d="m 115.53617,903.03141 c -0.56199,-0.34264 -1.95036,-0.88661 -2.7439,-1.07507 -0.65566,-0.15572 -1.00231,-0.18326 -1.95898,-0.15563 -1.1328,0.0327 -1.17844,0.0419 -1.79578,0.35954 -0.34839,0.17928 -0.84235,0.44913 -1.09768,0.59968 -0.43533,0.25668 -0.5182,0.2733 -1.33085,0.26687 -0.47663,-0.004 -1.02009,-0.054 -1.20768,-0.11161 l -0.34107,-0.10475 3.42143,-2.09294 c 5.41936,-3.31512 7.50519,-4.60496 9.18036,-5.67699 0.85937,-0.54996 2.60714,-1.66819 3.88393,-2.48495 l 2.32143,-1.48503 1.07142,0.004 1.07143,0.004 1.1594,0.55789 1.1594,0.55788 -0.89154,-0.0353 c -0.74002,-0.0293 -0.98808,-0.003 -1.45954,0.15655 -0.99139,0.33491 -3.93222,1.89133 -7.73557,4.09402 -2.32054,1.34392 -3.00017,1.91808 -3.33466,2.81719 -0.43547,1.17052 -0.30392,1.98655 0.5167,3.2051 0.28936,0.42969 0.49937,0.7811 0.46668,0.78092 -0.0327,-1.8e-4 -0.19241,-0.0814 -0.35493,-0.18049 z"
             style="opacity:1;fill:#2482ff;fill-opacity:0.78431373;stroke:#ffffff;stroke-width:0.73214287;stroke-linecap:round;stroke-linejoin:round;stroke-miterlimit:5.5;stroke-dasharray:none;stroke-opacity:1" />
          <path
             id="path5585"
             d="m 106.36738,902.47864 c 1.69742,-0.98057 10.69033,-6.56869 14.53328,-9.03086 l 3.01543,-1.93198 1.0145,0 c 0.66237,0 1.1164,0.0428 1.30807,0.12344 l 0.29357,0.12344 -0.30564,0.0669 c -0.79895,0.17501 -3.1845,1.38434 -6.8235,3.45909 -2.69827,1.5384 -3.40838,2.00148 -4.07145,2.6551 -0.77589,0.76483 -1.00307,1.31845 -1.0078,2.45591 -0.003,0.64723 0.0355,0.88854 0.19645,1.24032 0.10988,0.24021 0.18454,0.45199 0.16591,0.47062 -0.0186,0.0186 -0.47165,-0.1176 -1.00671,-0.30275 l -0.97283,-0.33662 -1.60714,-7e-5 -1.60714,-7e-5 -1.0485,0.55803 c -0.99226,0.52811 -1.08084,0.55789 -1.65178,0.55533 -0.5006,-0.002 -0.5729,-0.0203 -0.42472,-0.10588 z"
             style="opacity:1;fill:#2482ff;fill-opacity:0.78431373;stroke:#ffffff;stroke-width:0.73214287;stroke-linecap:round;stroke-linejoin:round;stroke-miterlimit:5.5;stroke-dasharray:none;stroke-opacity:1" />
          <path
             id="path5587"
             d="m 113.51023,901.31176 c -0.39273,-0.17094 -0.65778,-0.19989 -2.20374,-0.24067 l -1.75731,-0.0464 2.62166,-1.62946 c 1.44191,-0.89621 2.64791,-1.62947 2.67999,-1.62947 0.0321,0 -0.0601,0.15067 -0.20479,0.33482 -0.57283,0.72892 -0.78925,1.55316 -0.71028,2.7052 0.0268,0.39049 0.0424,0.70779 0.0348,0.70511 -0.008,-0.003 -0.21477,-0.0923 -0.46031,-0.19917 z"
             style="opacity:1;fill:#2482ff;fill-opacity:0.78431373;stroke:#ffffff;stroke-width:0.73214287;stroke-linecap:round;stroke-linejoin:round;stroke-miterlimit:5.5;stroke-dasharray:none;stroke-opacity:1" />
          <path
             id="path5589"
             d="m 113.19773,900.80152 c -0.12276,-0.0393 -0.60491,-0.0761 -1.07143,-0.0818 -0.46651,-0.006 -0.90009,-0.0432 -0.9635,-0.0834 -0.0783,-0.0497 0.3074,-0.33385 1.20311,-0.8863 0.72512,-0.44723 1.32877,-0.80278 1.34144,-0.79011 0.0127,0.0127 -0.0165,0.16074 -0.0647,0.32904 -0.0483,0.1683 -0.0877,0.59756 -0.0877,0.95391 0,0.35635 -0.0301,0.64391 -0.067,0.63901 -0.0368,-0.005 -0.16741,-0.0411 -0.29018,-0.0804 z"
             style="opacity:1;fill:#2482ff;fill-opacity:0.78431373;stroke:#ffffff;stroke-width:0.73214287;stroke-linecap:round;stroke-linejoin:round;stroke-miterlimit:5.5;stroke-dasharray:none;stroke-opacity:1" />
          <path
             id="path5593"
             d="m 133.36917,917.9044 -0.40891,-0.29686 -0.20424,-1.23783 c -0.36364,-2.20388 -0.70664,-3.19998 -1.46684,-4.25983 -0.40829,-0.56923 -1.70107,-1.8745 -2.13244,-2.15304 l -0.24634,-0.15907 0.38027,-0.18502 c 0.50475,-0.24559 1.59334,-1.34259 1.83588,-1.85007 0.10644,-0.2227 0.2343,-0.61992 0.28414,-0.88272 0.11698,-0.61683 0.11718,-5.67892 3e-4,-7.74265 -0.19871,-3.5088 -0.55442,-4.83922 -1.58977,-5.9461 -0.21886,-0.23397 -0.3683,-0.42541 -0.33209,-0.42541 0.1275,0 2.25503,1.04803 2.31084,1.13833 0.0311,0.0503 0.13663,1.77346 0.23454,3.82924 0.3068,6.44181 0.36196,7.04226 1.11847,12.17529 0.641,4.3493 0.68303,4.77924 0.65188,6.66862 l -0.0268,1.62398 -0.40892,-0.29686 z"
             style="opacity:1;fill:#2482ff;fill-opacity:0.78431373;stroke:#ffffff;stroke-width:0.73214287;stroke-linecap:round;stroke-linejoin:round;stroke-miterlimit:5.5;stroke-dasharray:none;stroke-opacity:1" />
          <path
             id="path5595"
             d="m 133.29918,917.25835 c -0.0334,-0.53592 -0.49179,-2.72078 -0.71906,-3.42749 -0.36928,-1.14833 -0.87612,-1.94214 -1.92877,-3.02085 l -0.90657,-0.92901 0.77123,-0.76742 c 1.2271,-1.22104 1.33119,-1.55446 1.35454,-4.33885 0.009,-1.08036 0.0306,-1.82366 0.0478,-1.65179 0.0172,0.17188 0.0942,0.95284 0.17101,1.73547 0.0768,0.78262 0.38213,3.09289 0.67843,5.13392 0.45503,3.13452 0.54564,3.96755 0.58333,5.36276 0.0245,0.90848 0.0256,1.75223 0.002,1.875 -0.0373,0.19727 -0.0436,0.20056 -0.0543,0.0283 z"
             style="opacity:1;fill:#2482ff;fill-opacity:0.78431373;stroke:#ffffff;stroke-width:0.73214287;stroke-linecap:round;stroke-linejoin:round;stroke-miterlimit:5.5;stroke-dasharray:none;stroke-opacity:1" />
          <path
             id="path5597"
             d="m 132.57573,912.77305 c -0.23173,-0.55946 -0.80841,-1.35264 -1.52958,-2.10383 l -0.72664,-0.75688 0.64187,-0.68731 c 0.35303,-0.37802 0.73575,-0.87103 0.8505,-1.09559 0.1956,-0.38279 0.21168,-0.39434 0.25765,-0.18507 0.11069,0.504 0.69295,4.92184 0.66122,5.01702 -0.0189,0.0566 -0.0886,-0.0281 -0.15502,-0.18834 z"
             style="opacity:1;fill:#2482ff;fill-opacity:0.78431373;stroke:#ffffff;stroke-width:0.73214287;stroke-linecap:round;stroke-linejoin:round;stroke-miterlimit:5.5;stroke-dasharray:none;stroke-opacity:1" />
          <path
             id="path5599"
             d="m 131.46659,910.56207 -0.61508,-0.65565 0.4365,-0.48032 c 0.24008,-0.26418 0.45947,-0.48466 0.48753,-0.48995 0.0481,-0.009 0.37258,2.23915 0.32733,2.26804 -0.0117,0.007 -0.29799,-0.28151 -0.63628,-0.64212 z"
             style="opacity:1;fill:#2482ff;fill-opacity:0.78431373;stroke:#ffffff;stroke-width:0.73214287;stroke-linecap:round;stroke-linejoin:round;stroke-miterlimit:5.5;stroke-dasharray:none;stroke-opacity:1" />
          <path
             id="path5601"
             d="m 131.54229,896.44587 c -0.1385,-1.00944 -0.36045,-1.79224 -0.69227,-2.44162 -0.0721,-0.14108 -0.12664,-0.25651 -0.12122,-0.25651 0.0166,0 0.63855,0.3306 0.68186,0.36246 0.0349,0.0256 0.0451,0.092 0.0715,0.46431 0.0521,0.73386 0.12595,2.08581 0.11827,2.16627 -0.004,0.0419 -0.0302,-0.0908 -0.0582,-0.29491 z"
             style="opacity:1;fill:#2482ff;fill-opacity:0.78431373;stroke:#ffffff;stroke-width:0.18303572;stroke-linecap:round;stroke-linejoin:round;stroke-miterlimit:5.5;stroke-dasharray:none;stroke-opacity:1" />
          <path
             id="path5603"
             d="m 131.42164,895.30318 c -0.11162,-0.45504 -0.27891,-0.92155 -0.46071,-1.28477 -0.0229,-0.0457 -0.0294,-0.062 -0.0242,-0.06 0.0303,0.0113 0.3999,0.21353 0.40819,0.22328 0.0108,0.0127 0.022,0.10316 0.0368,0.29792 0.0161,0.21166 0.0589,0.8817 0.0565,0.88412 -7.8e-4,7.8e-4 -0.008,-0.0265 -0.0166,-0.0606 z"
             style="opacity:1;fill:#2482ff;fill-opacity:0.78431373;stroke:#ffffff;stroke-width:0.03235645;stroke-linecap:round;stroke-linejoin:round;stroke-miterlimit:5.5;stroke-dasharray:none;stroke-opacity:1" />
          <path
             id="path5605"
             d="m 131.40152,895.15537 c -0.006,-0.0295 -0.0628,-0.22125 -0.0924,-0.31373 -0.0908,-0.28377 -0.21528,-0.59734 -0.32034,-0.80691 -0.0106,-0.0212 -0.0182,-0.0385 -0.017,-0.0385 0.005,0 0.25671,0.13759 0.32998,0.18015 0.03,0.0174 0.0304,0.0179 0.0344,0.0381 0.0131,0.066 0.0257,0.21985 0.0555,0.67352 0.0147,0.22457 0.0177,0.28016 0.0148,0.28016 -0.001,0 -0.004,-0.006 -0.005,-0.0128 z"
             style="opacity:1;fill:#2482ff;fill-opacity:0.78431373;stroke:#ffffff;stroke-width:0.03235645;stroke-linecap:round;stroke-linejoin:round;stroke-miterlimit:5.5;stroke-dasharray:none;stroke-opacity:1" />
          <path
             id="path5607"
             d="m 131.36255,894.95491 c -0.0756,-0.25962 -0.21304,-0.62282 -0.32838,-0.86754 -0.0117,-0.0248 -0.0204,-0.0458 -0.0195,-0.0468 0.002,-0.002 0.17881,0.0943 0.25861,0.1403 0.0245,0.0141 0.0423,0.0271 0.0442,0.0321 0.005,0.0143 0.0184,0.14196 0.0288,0.28046 0.0165,0.22054 0.0342,0.48968 0.0329,0.50248 -8.7e-4,0.009 -0.005,-0.002 -0.0166,-0.041 z"
             style="opacity:1;fill:#2482ff;fill-opacity:0.78431373;stroke:#ffffff;stroke-width:0.03235645;stroke-linecap:round;stroke-linejoin:round;stroke-miterlimit:5.5;stroke-dasharray:none;stroke-opacity:1" />
          <path
             id="path5609"
             d="m 131.33904,894.81857 c -0.0661,-0.20487 -0.18785,-0.52041 -0.26442,-0.6854 -0.01,-0.0208 -0.0188,-0.0416 -0.0202,-0.0463 -0.003,-0.008 -0.003,-0.008 0.0144,10e-4 0.009,0.005 0.0604,0.0334 0.11316,0.0625 0.0528,0.0291 0.10128,0.0574 0.10774,0.0628 0.0133,0.0112 0.0145,0.0173 0.025,0.12233 0.0111,0.11228 0.0392,0.5001 0.037,0.51135 -7.3e-4,0.004 -0.006,-0.009 -0.0126,-0.0284 z"
             style="opacity:1;fill:#2482ff;fill-opacity:0.78431373;stroke:#ffffff;stroke-width:0.03235645;stroke-linecap:round;stroke-linejoin:round;stroke-miterlimit:5.5;stroke-dasharray:none;stroke-opacity:1" />
          <path
             id="path5611"
             d="m 131.3114,894.682 c -0.0527,-0.15185 -0.17308,-0.45633 -0.21378,-0.54068 -0.004,-0.008 -0.006,-0.0157 -0.005,-0.0169 0.003,-0.003 0.1796,0.0957 0.18761,0.10543 0.002,0.003 0.006,0.0185 0.008,0.0347 0.009,0.0599 0.0376,0.42086 0.0353,0.43979 -9.7e-4,0.008 -0.004,0.002 -0.0126,-0.0224 z"
             style="opacity:1;fill:#2482ff;fill-opacity:0.78431373;stroke:#ffffff;stroke-width:0.03235645;stroke-linecap:round;stroke-linejoin:round;stroke-miterlimit:5.5;stroke-dasharray:none;stroke-opacity:1" />
          <path
             id="path5615"
             d="m 131.27388,894.52813 c -0.0321,-0.0853 -0.10136,-0.25916 -0.12521,-0.31448 -0.0117,-0.027 -0.0206,-0.0497 -0.0199,-0.0504 0.003,-0.003 0.13076,0.0731 0.13544,0.0801 0.003,0.004 0.008,0.0331 0.0108,0.0646 0.01,0.0974 0.0227,0.25543 0.0214,0.26625 -9e-4,0.007 -0.007,-0.006 -0.0225,-0.0461 z"
             style="opacity:1;fill:#2482ff;fill-opacity:0.78431373;stroke:#ffffff;stroke-width:0.03235645;stroke-linecap:round;stroke-linejoin:round;stroke-miterlimit:5.5;stroke-dasharray:none;stroke-opacity:1" />
          <path
             id="path5617"
             d="m 131.21695,894.33491 c -0.0278,-0.0695 -0.0497,-0.12726 -0.0486,-0.12832 0.001,-10e-4 0.0196,0.009 0.0413,0.0222 0.0261,0.0161 0.0401,0.0271 0.0415,0.0329 0.004,0.0151 0.019,0.1796 0.0177,0.1898 -8.2e-4,0.006 -0.0188,-0.0341 -0.0518,-0.11665 z"
             style="opacity:1;fill:#2482ff;fill-opacity:0.78431373;stroke:#ffffff;stroke-width:0.03235645;stroke-linecap:round;stroke-linejoin:round;stroke-miterlimit:5.5;stroke-dasharray:none;stroke-opacity:1" />
          <path
             id="path5619"
             d="m 119.30428,894.90563 c 0.006,-0.006 0.21958,-0.14339 0.47433,-0.3047 0.68307,-0.43257 1.18643,-0.75397 2.79351,-1.78373 l 1.44865,-0.92825 0.48908,0.003 0.48907,0.003 -0.25245,0.11697 c -1.1102,0.51437 -3.13424,1.59246 -5.20471,2.77224 -0.20468,0.11663 -0.26063,0.14528 -0.23748,0.12165 z"
             style="opacity:1;fill:#2482ff;fill-opacity:0.78431373;stroke:#ffffff;stroke-width:0.09151786;stroke-linecap:round;stroke-linejoin:round;stroke-miterlimit:5.5;stroke-dasharray:none;stroke-opacity:1" />
          <path
             id="path5621"
             d="m 121.97538,893.31756 0,-0.0619 0.27832,-0.17823 c 0.15307,-0.098 0.61582,-0.39454 1.02832,-0.6589 l 0.75,-0.48066 0.25976,4.9e-4 c 0.14288,2.8e-4 0.31152,0.002 0.37477,0.003 l 0.11499,0.002 -0.0584,0.0271 c -0.45728,0.21193 -1.1349,0.55267 -1.89039,0.95057 -0.27749,0.14615 -0.79242,0.42096 -0.84082,0.44873 l -0.0166,0.01 0,-0.0619 z"
             style="opacity:1;fill:#2482ff;fill-opacity:0.78431373;stroke:#ffffff;stroke-width:0.03203125;stroke-linecap:round;stroke-linejoin:round;stroke-miterlimit:5.5;stroke-dasharray:none;stroke-opacity:1" />
          <path
             id="path5623"
             d="m 121.99494,893.30613 2e-5,-0.0422 0.22556,-0.14438 c 0.12406,-0.0794 0.58294,-0.37341 1.01974,-0.65332 l 0.79418,-0.50894 0.32301,3.9e-4 c 0.17765,2.2e-4 0.32693,0.002 0.33173,0.003 0.007,0.002 -8e-5,0.007 -0.0371,0.0239 -0.37437,0.17413 -1.04954,0.51322 -1.67474,0.84109 -0.33173,0.17397 -0.93072,0.49264 -0.97949,0.52111 -0.002,9.4e-4 -0.003,-0.0173 -0.003,-0.0405 z"
             style="opacity:1;fill:#2482ff;fill-opacity:0.78431373;stroke:#ffffff;stroke-width:0.03203125;stroke-linecap:round;stroke-linejoin:round;stroke-miterlimit:5.5;stroke-dasharray:none;stroke-opacity:1" />
          <path
             id="path5625"
             d="m 122.01457,893.29432 1.4e-4,-0.0226 0.37389,-0.23921 c 0.20564,-0.13157 0.66041,-0.42288 1.01061,-0.64736 l 0.63672,-0.40813 0.29492,1.6e-4 0.29492,1.6e-4 -0.0371,0.0175 c -0.32227,0.15201 -1.04782,0.51636 -1.51953,0.76305 -0.24437,0.1278 -0.64242,0.3385 -0.90039,0.47662 -0.0752,0.0403 -0.14068,0.0753 -0.14551,0.0778 -0.009,0.005 -0.009,0.004 -0.009,-0.018 z"
             style="opacity:1;fill:#2482ff;fill-opacity:0.78431373;stroke:#ffffff;stroke-width:0.03203125;stroke-linecap:round;stroke-linejoin:round;stroke-miterlimit:5.5;stroke-dasharray:none;stroke-opacity:1" />
          <path
             id="path5627"
             d="m 122.03413,893.28247 c 9e-5,-0.002 0.20619,-0.13469 0.45801,-0.29573 0.25182,-0.16104 0.70278,-0.44977 1.00213,-0.64163 l 0.54429,-0.34883 0.25096,0.001 0.25097,10e-4 -0.0648,0.0311 c -0.27004,0.12967 -0.88985,0.44102 -1.26986,0.63789 -0.25284,0.13099 -0.74875,0.39282 -1.07195,0.56596 -0.0535,0.0287 -0.0979,0.0521 -0.0986,0.0521 -7.1e-4,0 -0.001,-0.001 -0.001,-0.003 z"
             style="opacity:1;fill:#2482ff;fill-opacity:0.78431373;stroke:#ffffff;stroke-width:0.03203125;stroke-linecap:round;stroke-linejoin:round;stroke-miterlimit:5.5;stroke-dasharray:none;stroke-opacity:1" />
          <path
             id="path5629"
             d="m 122.40721,893.06307 c 0.002,-0.002 0.29727,-0.19151 0.65606,-0.42121 0.35879,-0.2297 0.72619,-0.46496 0.81644,-0.52279 l 0.1641,-0.10516 0.20895,10e-4 0.20895,10e-4 -0.125,0.0612 c -0.49574,0.24275 -1.12199,0.56301 -1.72545,0.88237 -0.1111,0.0588 -0.2033,0.10691 -0.20488,0.10691 -0.002,0 -0.001,-0.002 8.3e-4,-0.004 z"
             style="opacity:1;fill:#2482ff;fill-opacity:0.78431373;stroke:#ffffff;stroke-width:0.03203125;stroke-linecap:round;stroke-linejoin:round;stroke-miterlimit:5.5;stroke-dasharray:none;stroke-opacity:1" />
          <path
             id="path5631"
             d="m 122.77421,892.84902 c 0.002,-0.002 0.0707,-0.0466 0.15234,-0.0988 0.0816,-0.0522 0.36763,-0.23525 0.63554,-0.40679 l 0.48709,-0.31191 0.16916,1.2e-4 0.16915,1.2e-4 -0.29297,0.14571 c -0.37858,0.18829 -0.67198,0.33802 -1.11524,0.56914 -0.18878,0.0984 -0.21323,0.11066 -0.20507,0.10244 z"
             style="opacity:1;fill:#2482ff;fill-opacity:0.78431373;stroke:#ffffff;stroke-width:0.03203125;stroke-linecap:round;stroke-linejoin:round;stroke-miterlimit:5.5;stroke-dasharray:none;stroke-opacity:1" />
          <path
             id="path5633"
             d="m 123.10643,892.65691 c 0.002,-0.002 0.21552,-0.13903 0.4744,-0.30469 l 0.47069,-0.3012 0.12697,9e-5 0.12697,9e-5 -0.3711,0.18672 c -0.33475,0.16843 -0.72465,0.36759 -0.79735,0.40729 -0.0268,0.0146 -0.0384,0.0191 -0.0306,0.0117 z"
             style="opacity:1;fill:#2482ff;fill-opacity:0.78431373;stroke:#ffffff;stroke-width:0.03203125;stroke-linecap:round;stroke-linejoin:round;stroke-miterlimit:5.5;stroke-dasharray:none;stroke-opacity:1" />
          <path
             id="path5635"
             d="m 123.42908,892.47102 c 0.001,-10e-4 0.142,-0.0916 0.31326,-0.20117 l 0.31139,-0.1993 0.0868,9e-5 0.0868,8e-5 -0.2832,0.14272 c -0.15576,0.0785 -0.33451,0.16899 -0.39722,0.20109 -0.10196,0.0522 -0.12419,0.0629 -0.11783,0.0565 z"
             style="opacity:1;fill:#2482ff;fill-opacity:0.78431373;stroke:#ffffff;stroke-width:0.03203125;stroke-linecap:round;stroke-linejoin:round;stroke-miterlimit:5.5;stroke-dasharray:none;stroke-opacity:1" />
          <path
             id="path5637"
             d="m 123.73434,892.29591 c 0.004,-0.003 0.0777,-0.0499 0.16406,-0.10518 l 0.15706,-0.10052 0.0469,3e-5 0.0469,4e-5 -0.2087,0.10537 c -0.11478,0.058 -0.20971,0.10527 -0.21094,0.10514 -10e-4,-1.2e-4 9.2e-4,-0.002 0.005,-0.005 z"
             style="opacity:1;fill:#2482ff;fill-opacity:0.78431373;stroke:#ffffff;stroke-width:0.03203125;stroke-linecap:round;stroke-linejoin:round;stroke-miterlimit:5.5;stroke-dasharray:none;stroke-opacity:1" />
          <path
             id="path5639"
             d="m 124.11895,908.2559 c -0.0668,-0.0245 -0.21103,-0.0769 -0.32041,-0.11646 -0.95338,-0.34506 -1.61034,-0.64333 -2.44725,-1.11111 -0.40753,-0.22778 -1.25378,-0.73535 -1.24338,-0.74575 0.002,-0.002 0.0482,0.008 0.1018,0.0236 0.14161,0.0406 0.41449,0.10765 0.70516,0.17332 0.98375,0.22225 1.50619,0.47442 2.5025,1.20788 0.24707,0.18189 0.75264,0.54949 0.81814,0.59488 0.0402,0.0279 0.0178,0.0228 -0.11656,-0.0264 z"
             style="opacity:1;fill:#2482ff;fill-opacity:0.78431373;stroke:#ffffff;stroke-width:0.09059805;stroke-linecap:round;stroke-linejoin:round;stroke-miterlimit:5.5;stroke-dasharray:none;stroke-opacity:1" />
          <path
             id="path5641"
             d="m 123.56652,907.99981 c -1.07307,-0.4041 -1.80911,-0.77042 -3.04608,-1.51603 -0.0589,-0.0355 -0.10583,-0.066 -0.10417,-0.0676 0.004,-0.004 0.56788,0.12911 0.78587,0.1857 0.69905,0.18149 1.21238,0.43127 1.92081,0.93467 0.15289,0.10865 0.78066,0.56537 0.79657,0.57954 0.0261,0.0232 -0.0429,5e-4 -0.353,-0.11627 z"
             style="opacity:1;fill:#2482ff;fill-opacity:0.78431373;stroke:#ffffff;stroke-width:0.09059805;stroke-linecap:round;stroke-linejoin:round;stroke-miterlimit:5.5;stroke-dasharray:none;stroke-opacity:1" />
          <path
             id="path5643"
             d="m 123.35108,907.8642 c -0.83594,-0.3286 -1.45591,-0.63357 -2.37245,-1.16705 -0.14723,-0.0857 -0.26596,-0.15754 -0.26384,-0.15966 0.006,-0.006 0.57487,0.13767 0.71384,0.18059 0.61081,0.18865 1.06263,0.42666 1.75672,0.92543 0.35169,0.25272 0.43622,0.31625 0.41931,0.31513 -0.009,-5.9e-4 -0.12293,-0.0431 -0.25358,-0.0944 z"
             style="opacity:1;fill:#2482ff;fill-opacity:0.78431373;stroke:#ffffff;stroke-width:0.09059805;stroke-linecap:round;stroke-linejoin:round;stroke-miterlimit:5.5;stroke-dasharray:none;stroke-opacity:1" />
          <path
             id="path5645"
             d="m 123.19087,907.74697 c -0.59685,-0.24978 -0.84651,-0.36521 -1.29268,-0.59767 -0.32345,-0.16854 -0.88334,-0.48204 -0.86114,-0.4822 0.026,-1.8e-4 0.42688,0.11176 0.53521,0.14944 0.50734,0.17644 0.92613,0.40205 1.5026,0.80947 0.18977,0.13411 0.20514,0.14606 0.18656,0.14497 -0.008,-4.9e-4 -0.0402,-0.0113 -0.0705,-0.024 z"
             style="opacity:1;fill:#2482ff;fill-opacity:0.78431373;stroke:#ffffff;stroke-width:0.09059805;stroke-linecap:round;stroke-linejoin:round;stroke-miterlimit:5.5;stroke-dasharray:none;stroke-opacity:1" />
          <path
             id="path5647"
             d="m 122.68264,907.47616 c -0.3568,-0.15987 -1.31415,-0.65351 -1.26882,-0.65425 0.0224,-3.6e-4 0.20295,0.0616 0.35732,0.12256 0.28996,0.11456 0.60221,0.27877 0.92807,0.48804 0.25098,0.16118 0.25022,0.16319 -0.0166,0.0437 z"
             style="opacity:1;fill:#2482ff;fill-opacity:0.78431373;stroke:#ffffff;stroke-width:0.09059805;stroke-linecap:round;stroke-linejoin:round;stroke-miterlimit:5.5;stroke-dasharray:none;stroke-opacity:1" />
          <path
             id="path5649"
             d="m 113.05436,900.40315 c -0.15839,-0.0215 -0.43266,-0.0402 -0.70244,-0.0478 l -0.24307,-0.007 0.32041,-0.19981 c 0.45778,-0.28547 0.76807,-0.47211 0.77438,-0.46581 0.003,0.003 3.1e-4,0.0769 -0.006,0.16428 -0.006,0.0874 -0.0114,0.25205 -0.0115,0.36599 -8e-5,0.15912 -0.003,0.20681 -0.0139,0.20564 -0.008,-8.4e-4 -0.0606,-0.008 -0.11791,-0.0157 z"
             style="opacity:1;fill:#2482ff;fill-opacity:0.78431373;stroke:#ffffff;stroke-width:0.09059805;stroke-linecap:round;stroke-linejoin:round;stroke-miterlimit:5.5;stroke-dasharray:none;stroke-opacity:1" />
          <path
             id="path5651"
             d="m 112.99522,900.34793 c -0.15103,-0.0183 -0.44771,-0.038 -0.57701,-0.0382 -0.0547,-1.1e-4 -0.1055,-0.004 -0.1129,-0.009 -0.009,-0.005 0.0532,-0.05 0.17125,-0.12338 0.21276,-0.13227 0.61498,-0.37713 0.6513,-0.3965 l 0.0247,-0.0131 -0.005,0.13562 c -0.0158,0.40121 -0.0192,0.46144 -0.0257,0.4602 -0.004,-7.4e-4 -0.0607,-0.008 -0.12619,-0.0158 z"
             style="opacity:1;fill:#2482ff;fill-opacity:0.78431373;stroke:#ffffff;stroke-width:0.09059805;stroke-linecap:round;stroke-linejoin:round;stroke-miterlimit:5.5;stroke-dasharray:none;stroke-opacity:1" />
          <path
             id="path5653"
             d="m 112.92092,900.2917 c -0.076,-0.008 -0.21517,-0.0188 -0.30936,-0.0233 l -0.17125,-0.008 0.14363,-0.0895 c 0.079,-0.0492 0.22733,-0.14013 0.32963,-0.20206 l 0.186,-0.11261 -0.007,0.20207 c -0.007,0.20947 -0.0117,0.25285 -0.0254,0.25025 -0.004,-8.4e-4 -0.0702,-0.008 -0.14618,-0.0166 z"
             style="opacity:1;fill:#2482ff;fill-opacity:0.78431373;stroke:#ffffff;stroke-width:0.09059805;stroke-linecap:round;stroke-linejoin:round;stroke-miterlimit:5.5;stroke-dasharray:none;stroke-opacity:1" />
          <path
             id="path5655"
             d="m 112.86015,900.23747 c -0.0729,-0.008 -0.16204,-0.0143 -0.19805,-0.0149 l -0.0655,-10e-4 0.2091,-0.12839 c 0.115,-0.0706 0.21531,-0.13081 0.2229,-0.13377 0.0105,-0.004 0.0138,0.0209 0.0137,0.10353 -1.6e-4,0.14227 -0.009,0.19227 -0.0317,0.19011 -0.01,-9.2e-4 -0.0776,-0.008 -0.15047,-0.0155 z"
             style="opacity:1;fill:#2482ff;fill-opacity:0.78431373;stroke:#ffffff;stroke-width:0.09059805;stroke-linecap:round;stroke-linejoin:round;stroke-miterlimit:5.5;stroke-dasharray:none;stroke-opacity:1" />
          <path
             id="path5657"
             d="m 112.85721,900.18846 c -0.0381,-0.004 -0.0717,-0.0104 -0.0748,-0.0134 -0.004,-0.004 0.13863,-0.0968 0.1965,-0.12728 0.005,-0.002 0.008,0.0307 0.008,0.0736 l 0,0.078 -0.0304,-0.002 c -0.0167,-8.3e-4 -0.0615,-0.005 -0.0996,-0.009 z"
             style="opacity:1;fill:#2482ff;fill-opacity:0.78431373;stroke:#ffffff;stroke-width:0.09059805;stroke-linecap:round;stroke-linejoin:round;stroke-miterlimit:5.5;stroke-dasharray:none;stroke-opacity:1" />
          <path
             d="m 120.72475,894.44832 c 0.12689,-0.10006 0.24791,-0.20779 0.35436,-0.32957 0.0687,-0.0954 0.16182,-0.16776 0.24389,-0.25037 0.0518,-0.0757 0.11297,-0.13914 0.1813,-0.19934 0.0756,-0.0877 0.16278,-0.16396 0.24037,-0.2499 0.0611,-0.0856 0.15288,-0.14075 0.22009,-0.21966 0.0488,-0.0773 0.0959,-0.15581 0.15563,-0.22524 0.01,-0.0121 0.0191,-0.0241 0.0287,-0.0362 0,0 0.85298,-0.35465 0.85298,-0.35465 l 0,0 c -0.0109,0.009 -0.0218,0.018 -0.0327,0.027 -0.0522,0.0734 -0.11802,0.13567 -0.1608,0.21638 -0.055,0.12071 -0.13963,0.13955 -0.21668,0.23969 -0.081,0.0784 -0.14997,0.16898 -0.23721,0.24177 -0.0301,0.0469 -0.0528,0.0601 -0.096,0.0915 -0.041,0.0299 -0.0258,0.0301 -0.0568,0.0708 -0.009,0.0123 -0.021,0.0226 -0.0315,0.034 -0.064,0.10449 -0.17493,0.16182 -0.25196,0.25611 -0.0974,0.12984 -0.21906,0.23229 -0.33339,0.34552 0,0 -0.86031,0.34213 -0.86031,0.34213 z"
             id="path5659"
             style="opacity:1;fill:#2482ff;fill-opacity:0.78431373;stroke:#ffffff;stroke-width:8.19999981;stroke-linecap:round;stroke-linejoin:round;stroke-miterlimit:5.5;stroke-dasharray:none;stroke-opacity:1" />
          <path
             d="m 128.28036,892.2144 c 0.12487,0.005 0.24988,0.004 0.37481,0.004 0.13053,-1.9e-4 0.26106,-3.6e-4 0.39159,-4.6e-4 0.12535,-7e-5 0.25071,-8e-5 0.37606,-8e-5 0.10494,-0.0317 0.21257,-0.0471 0.32152,-0.0555 0.12069,-0.005 0.24127,-0.0254 0.35199,0.0308 0.0795,0.0485 0.15066,0.10932 0.22926,0.16014 0.0661,0.0639 0.15077,0.1003 0.22055,0.15982 0.0623,0.0416 0.11164,0.0987 0.16878,0.14669 0,0 -0.78442,0.48775 -0.78442,0.48775 l 0,0 c -0.0541,-0.0493 -0.10661,-0.10065 -0.16647,-0.1431 -0.0714,-0.0525 -0.14984,-0.0949 -0.21653,-0.15384 -0.0707,-0.0501 -0.13888,-0.10685 -0.2174,-0.14347 -0.10583,-0.0245 -0.21721,-0.002 -0.32423,0.003 -0.10892,0.0143 -0.2157,0.0444 -0.32576,0.0468 -0.12527,-10e-6 -0.25054,-10e-6 -0.37582,-9e-5 -0.13011,-9e-5 -0.26022,-2.7e-4 -0.39034,-4.5e-4 -0.12816,-8e-5 -0.2564,-9.6e-4 -0.3845,0.004 0,0 0.75091,-0.54557 0.75091,-0.54557 z"
             id="path5661"
             style="opacity:1;fill:#2482ff;fill-opacity:0.78431373;stroke:#ffffff;stroke-width:8.19999981;stroke-linecap:round;stroke-linejoin:round;stroke-miterlimit:5.5;stroke-dasharray:none;stroke-opacity:1" />
          <path
             d="m 132.10101,899.86889 c -0.007,0.12732 -0.005,0.25493 -0.005,0.38238 -0.004,0.11483 0.0278,0.22634 0.0441,0.33925 0.0143,0.13617 0.0432,0.27005 0.0609,0.40579 0.0293,0.11237 0.0562,0.22438 0.0705,0.33976 0.008,0.10752 0.0404,0.21078 0.0567,0.31723 0.0111,0.13818 0.0425,0.27348 0.0607,0.41081 0.007,0.13205 0.025,0.262 0.0444,0.39265 0.0118,0.14277 0.0451,0.28187 0.0702,0.42252 0.0211,0.12022 0.0191,0.24213 0.0449,0.36144 0.0132,0.0538 0.0218,0.10842 0.0299,0.16314 0,0 -0.81402,0.42923 -0.81402,0.42923 l 0,0 c -0.007,-0.0526 -0.0144,-0.10511 -0.0271,-0.15668 -0.0272,-0.12154 -0.0281,-0.24414 -0.0432,-0.36753 -0.0223,-0.14161 -0.0584,-0.2806 -0.0696,-0.42385 -0.0221,-0.13144 -0.0452,-0.26122 -0.0468,-0.39505 -0.0153,-0.13684 -0.0454,-0.27083 -0.0634,-0.40703 -0.0148,-0.10788 -0.0487,-0.21178 -0.0573,-0.32019 -0.012,-0.11586 -0.0373,-0.22837 -0.0668,-0.34097 -0.0149,-0.13547 -0.0442,-0.26805 -0.0639,-0.40248 -0.0153,-0.11749 -0.0495,-0.23307 -0.0465,-0.35209 1.2e-4,-0.12564 0.002,-0.25145 -0.005,-0.37694 0,0 0.82702,-0.42139 0.82702,-0.42139 z"
             id="path5663"
             style="opacity:1;fill:#2482ff;fill-opacity:0.78431373;stroke:#ffffff;stroke-width:8.19999981;stroke-linecap:round;stroke-linejoin:round;stroke-miterlimit:5.5;stroke-dasharray:none;stroke-opacity:1" />
          <path
             d="m 131.60527,908.91273 c 0.0489,0.13368 0.1244,0.25415 0.17594,0.38691 0.0307,0.11993 0.0718,0.2371 0.0993,0.3579 0.006,0.0991 0.0558,0.18149 0.0951,0.26937 0.006,0.0168 0.0117,0.0336 0.0175,0.0504 0,0 -0.80761,0.44521 -0.80761,0.44521 l 0,0 c -0.005,-0.0142 -0.009,-0.0284 -0.0139,-0.0426 -0.0412,-0.0936 -0.0961,-0.18189 -0.10207,-0.28726 -0.0237,-0.1177 -0.0637,-0.2312 -0.088,-0.34874 -0.0471,-0.13123 -0.1193,-0.24836 -0.18192,-0.3724 0,0 0.80564,-0.45872 0.80564,-0.45872 z"
             id="path5665"
             style="opacity:1;fill:#2482ff;fill-opacity:0.78431373;stroke:#ffffff;stroke-width:8.19999981;stroke-linecap:round;stroke-linejoin:round;stroke-miterlimit:5.5;stroke-dasharray:none;stroke-opacity:1" />
          <path
             id="path5677"
             d="m 115.43518,901.2623 12.68373,7.07107 0.92808,-13.43503 z"
             style="fill:#5f90d2;fill-opacity:1;fill-rule:evenodd;stroke:#0d57ba;stroke-width:2.79999995;stroke-linecap:round;stroke-linejoin:round;stroke-miterlimit:4;stroke-dasharray:none;stroke-opacity:0.65930601" />
        </g>
        <text
           id="text5787"
           y="988.07648"
           x="465"
           style="font-style:normal;font-variant:normal;font-weight:bold;font-stretch:normal;font-size:25.37142944px;line-height:125%;font-family:Gautami;-inkscape-font-specification:'Gautami, Bold';text-align:start;letter-spacing:0px;word-spacing:0px;writing-mode:lr-tb;text-anchor:start;fill:#ffffff;fill-opacity:1;stroke:none;stroke-width:1px;stroke-linecap:butt;stroke-linejoin:miter;stroke-opacity:1"
           xml:space="preserve"><tspan
             y="988.07648"
             x="465"
             id="tspan5789">Proyecta Hardeo</tspan></text>
      </g>
      <path
         style="fill:none;fill-rule:evenodd;stroke:#ffffff;stroke-width:0.5;stroke-linecap:butt;stroke-linejoin:miter;stroke-miterlimit:4;stroke-dasharray:none;stroke-opacity:1"
         d="m 465.27626,989.551 185.96908,0"
         id="path5791" />
    </g>
  </g>
</svg>
