<?xml version="1.0" encoding="UTF-8" standalone="no"?>
<svg xmlns="http://www.w3.org/2000/svg" xmlns:xlink="http://www.w3.org/1999/xlink" width="297.000mm" height="210.000mm" viewBox="0.000000 0.000000 297.000000 210.000000" stroke-linejoin="round" stroke-linecap="round" fill="none" fill-rule="evenodd"><desc>3DVIA Composer Export</desc><script type="text/ecmascript"><![CDATA[
if(typeof(top) != "undefined")
{
	top.ShowPaper = ShowPaper;
}
function ShowHotSpot(evt,hotspotid)
{
	var svgDocument = evt.target.ownerDocument;
	var strId = "hotspot."+hotspotid;
	var hotspot = svgDocument.getElementById(strId);
	if(hotspot)
		hotspot.setAttribute("opacity",".5");
}
function HideHotSpot(evt,hotspotid)
{
	var svgDocument = evt.target.ownerDocument;
	var strId = "hotspot."+hotspotid;
	var hotspot = svgDocument.getElementById(strId);
	if(hotspot)
		hotspot.setAttribute("opacity","0");

	var toolTip = svgDocument.getElementById('ToolTip');
	if(toolTip)
		toolTip.setAttribute("visibility","hidden");
}
function ShowToolTip(evt,hotspotid,strTooltip)
{
	if(strTooltip=="")
	return;

	// change text
	var svgDocument = evt.target.ownerDocument;
	var tiptext = svgDocument.getElementById('ToolTipText');
	if( !tiptext )
	return;
	tiptext.firstChild.nodeValue = " " + strTooltip + "  " ;

	// show tooltip before, else some refresh issue

	var toolTip = svgDocument.getElementById('ToolTip');
	if(!toolTip)
	return;

	toolTip.setAttribute("visibility","visible");
	toolTip.setAttribute("opacity",".95");

	// move tooltip
	// get viewbox

	var root = svgDocument.documentElement;
	var vbox = (root.getAttribute("viewBox")).split(' ');
	var x0 = parseFloat(vbox[0]);
	var y0 = parseFloat(vbox[1]);
	var vboxW = parseFloat(vbox[2]);
	var vboxH = parseFloat(vbox[3]);

	// get default width of svg

	var strW = root.getAttribute("width");
	var svgW = parseFloat(strW);
	if(strW.indexOf('mm') != -1)
	svgW *= 3.779;

	var strH = root.getAttribute("height");
	var svgH = parseFloat(strH);
	if(strH.indexOf('mm') != -1)
	svgH *= 3.779;  	// 96 dpi  -> 96/25.4 = 3.779

	// update the viewbox / width / height if svg is embedded in html with zoom fit all
	var realx0 = x0;
	var realy0 = y0;
	var realvboxW = vboxW;
	var realvboxH = vboxH;
	var realsvgW = svgW;
	var realsvgH = svgH;

	if ((typeof(top) == "undefined") || (typeof(top.svgctl1) != "undefined")) // embedded in html
	{
		// get window size in pxl

		svgW = window.innerWidth;
		svgH = window.innerHeight;

		// calculate real viewbox

		realsvgW = svgW;
		realsvgH = svgH;
		if((svgW / svgH) > (vboxW / vboxH))
		{
			realvboxW = (vboxH * svgW) / svgH;
			realvboxH = vboxH;
			realx0 = x0 - (realvboxW - vboxW)/2 ;
		}
		else
		{
			realvboxH = (vboxW * svgH) / svgW;
			realvboxW = vboxW;
			realy0 = y0 - (realvboxH - vboxH)/2 ;
		}
	}

	// get user zoom/pan

	var newScale = root.currentScale;
	var translation = root.currentTranslate;

	// transform pxl to user unit

	var xPos = (((evt.clientX+10- translation.x)/newScale) * realvboxW)/realsvgW  + realx0 ;
	var yPos = (((evt.clientY+5- translation.y)/newScale) * realvboxH)/ realsvgH  + realy0 ;
	var scaleForWidth = ( (1 / newScale) * realvboxH) / realsvgH;

	// move tooltip

	toolTip.setAttribute("transform", "translate(" + xPos + "," + yPos + ")" );

	// resize tooltip

	var fontsize = 12;
	tiptext.setAttribute("font-size",fontsize*scaleForWidth);
	tiptext.setAttribute("y", fontsize*scaleForWidth);
	var tipBG = svgDocument.getElementById('ToolTipBG');
	var outline = tiptext.getBBox();
	if(tipBG)
	{
		tipBG.setAttribute("stroke-width", 1*scaleForWidth);
		tipBG.setAttribute("width", Number(outline.width) );
		tipBG.setAttribute("height", Number(outline.height) + fontsize*.5*scaleForWidth );
	}
	var ToolTipShadow = svgDocument.getElementById('ToolTipShadow');
	if(ToolTipShadow)
	{
		ToolTipShadow.setAttribute("width", Number(outline.width) );
		ToolTipShadow.setAttribute("height", Number(outline.height) + fontsize*.5*scaleForWidth );
		ToolTipShadow.setAttribute("x", 3*scaleForWidth);
		ToolTipShadow.setAttribute("y", 3*scaleForWidth);
	}
}
function ShowPaper()
{
  var svgDocument = getDocument();
  var paper = svgDocument.getElementById("paperID");
  if(paper)
  {
    paper.setAttribute("transform","scale(1)");
    paper.setAttribute("opacity","1");
    paper.setAttribute("visibility","visible");
  }
  var svg = svgDocument.getRootElement();
  if(svg)
  {
    svg.setAttribute("width","307.000mm");
    svg.setAttribute("height","220.000mm");
    svg.setAttribute("viewBox","-5.000000 -5.000000 307.000000 220.000000");
  }
}
]]></script><defs/><g><path style="fill:#ffffff" d="M297.00,209.93L0.08,209.93L0.08,0.08L297.00,0.08z"/><path style="fill:#696969" d="M153.23,44.74L154.96,44.92L155.14,45.37L156.54,45.26L158.98,46.10L160.72,46.51L160.98,46.76L160.56,46.91L160.85,47.21L161.82,47.34L171.88,45.57L243.72,67.11L243.85,67.46L244.53,67.56L244.70,67.73L244.35,73.01L245.07,73.32L244.04,73.47L245.53,73.95L246.60,74.12L256.65,71.29L258.12,71.28L284.84,79.38L285.18,79.82L285.63,79.88L287.71,79.75L288.25,80.78L274.45,85.25L273.97,87.51L265.16,90.47L264.31,90.55L264.42,88.80L263.50,88.80L228.96,100.19L228.82,99.68L228.30,98.63L227.72,98.12L218.68,94.56L216.22,94.01L213.48,93.74L209.01,94.01L145.57,112.98L143.02,114.27L142.00,115.44L142.00,118.67L142.30,119.46L142.86,120.00L148.11,123.43L147.37,123.60L147.37,123.91L148.32,124.38L148.75,124.87L149.26,126.17L123.04,134.81L123.13,137.30L123.26,137.48L123.27,138.54L123.43,144.03L123.55,145.38L123.70,150.61L123.82,152.23L123.97,157.45L124.10,158.80L124.25,164.30L124.37,165.65L124.52,170.87L124.65,172.49L124.80,177.71L124.92,179.34L125.10,184.53L124.19,183.85L123.94,182.73L123.71,178.52L122.63,153.07L121.93,132.89L123.40,132.43L123.40,131.50L122.77,131.49L121.69,132.09L120.84,133.71L121.64,153.36L121.46,153.54L120.65,153.45L85.65,124.40L85.48,124.33L84.54,123.32L84.34,123.27L70.02,111.24L69.44,110.18L68.64,104.68L67.57,103.30L67.35,103.18L66.00,102.10L62.63,99.47L62.40,99.34L61.79,98.67L59.47,96.93L59.07,96.44L55.76,95.94L54.15,95.36L52.60,94.19L51.96,93.48L51.77,93.43L51.18,93.05L50.54,92.12L50.03,89.34L45.78,85.98L44.54,84.97L44.26,85.04L44.62,89.77L44.00,89.64L40.78,87.02L40.16,86.34L39.35,85.78L38.56,84.38L37.81,83.85L38.53,83.69L38.26,81.12L38.02,80.76L37.17,73.99L35.25,72.63L34.93,72.12L34.93,71.09L36.54,70.77L37.67,69.71L46.94,68.00L46.97,64.50L47.55,63.87L45.55,63.89L33.21,66.07L32.22,66.72L32.22,68.27L34.41,83.06L34.70,86.55L34.40,85.53L31.94,68.82L31.95,66.17L32.66,65.79L46.65,63.35L46.93,62.54L49.49,62.00L51.57,61.97L59.52,60.62L60.59,60.04L131.36,48.03L133.16,48.01L140.65,46.73L141.09,46.36L152.41,44.43z"/><path style="fill:#cacbe6" d="M216.22,94.01L218.68,94.56L227.72,98.12L228.30,98.63L228.82,99.68L151.87,124.76L151.60,127.50L125.77,136.17L124.75,137.34L124.76,145.49L126.14,181.08L126.45,183.18L125.87,183.00L125.30,181.92L125.03,179.44L124.92,179.34L124.80,177.71L124.76,172.59L124.65,172.49L124.52,170.87L124.48,165.75L124.37,165.65L124.25,164.30L124.21,158.90L124.10,158.80L123.97,157.45L123.94,152.33L123.82,152.23L123.70,150.61L123.66,145.49L123.55,145.38L123.43,144.03L123.39,138.64L123.27,138.54L123.26,137.48L123.93,135.98L125.03,135.17L149.54,127.00L150.50,126.68L150.54,124.92L149.80,124.53L148.34,123.56L148.11,123.43L142.86,120.00L142.30,119.46L142.00,118.67L142.00,115.44L143.02,114.27L145.57,112.98L209.01,94.01L213.48,93.74z"/><path style="fill:#5e5e5e" d="M125.30,181.92L125.87,183.00L126.45,183.18L127.48,184.11L129.07,184.10L131.89,183.09L141.47,178.98L143.11,177.61L143.94,176.25L144.39,172.84L144.77,172.75L144.77,176.53L144.35,177.70L142.72,178.86L127.98,185.20L126.13,185.50L125.34,184.91L125.10,184.53L124.92,179.34L125.03,179.44z"/><path style="fill:#b6b6cf" d="M249.66,95.62L249.62,98.21L246.61,122.57L245.17,133.18L244.15,135.17L242.87,136.36L242.13,136.44L240.95,137.18L240.21,137.26L239.04,138.00L238.29,138.08L237.12,138.82L236.37,138.89L235.75,139.37L235.01,139.45L233.84,140.19L233.09,140.27L231.92,141.01L231.17,141.09L229.19,142.06L206.73,151.41L206.63,150.42L198.97,145.76L198.69,143.27L198.05,143.25L197.23,144.93L184.73,149.95L183.83,150.25L183.65,149.27L183.41,149.03L183.07,149.08L182.54,149.76L182.42,150.87L182.14,155.25L182.00,156.54L181.02,157.69L163.95,164.82L163.20,165.16L144.77,172.75L144.39,172.84L143.94,176.25L143.11,177.61L141.47,178.98L131.89,183.09L129.07,184.10L127.48,184.11L126.45,183.18L126.14,181.08L124.76,145.49L124.75,137.34L125.77,136.17L151.60,127.50L151.87,124.76L228.82,99.68L228.96,100.19L228.92,101.04L228.99,101.79L241.33,97.85L248.93,95.23z"/><path style="fill:#1b1b1b" d="M167.64,167.84L144.35,177.70L144.77,176.53L144.77,172.75L163.20,165.16L162.99,168.86L164.39,168.49L167.03,167.26z"/><path style="fill:#5e5e5e" d="M139.25,72.20L151.33,69.42L151.65,69.27L151.70,70.66L151.12,70.96L150.03,71.24L149.24,71.26L148.66,71.50L147.56,71.79L146.78,71.81L146.19,72.04L145.10,72.34L144.31,72.36L141.64,72.91L141.11,73.23L140.65,73.23L139.25,72.64z"/><path style="fill:#5e5e5e" d="M264.31,90.55L265.16,90.47L273.97,87.51L274.45,85.25L288.25,80.78L288.23,82.32L282.22,117.93L281.66,119.29L280.84,120.39L243.80,136.19L242.87,136.36L244.15,135.17L245.17,133.18L246.61,122.57L249.62,98.21L249.66,95.62L248.93,95.23L247.63,94.82L228.92,101.04L228.96,100.19L263.50,88.80L264.42,88.80z"/><path style="fill:#1e1e1e" d="M51.77,93.43L43.05,95.36L42.54,95.65L42.60,95.89L44.84,97.85L45.54,97.87L52.50,96.28L52.49,94.34L52.60,94.19L54.15,95.36L55.76,95.94L59.07,96.44L59.47,96.93L59.77,99.59L61.71,99.49L62.40,99.34L62.63,99.47L66.00,102.10L63.34,102.76L64.28,103.60L64.98,103.62L67.35,103.18L67.57,103.30L68.64,104.68L69.44,110.18L70.02,111.24L84.34,123.27L76.71,125.49L76.45,125.73L77.42,126.60L80.88,125.79L85.48,124.33L85.65,124.40L120.65,153.45L121.46,153.54L121.64,153.36L122.63,153.07L123.71,178.52L121.23,176.40L40.98,101.67L40.70,98.67L40.71,95.47L41.42,95.09L51.18,93.05z"/><path style="fill:#1e1e1e" d="M263.09,105.67L261.41,118.21L261.02,118.91L249.48,123.49L249.71,122.61L252.90,121.47L260.32,118.49L260.63,117.31L249.76,121.56L251.68,105.95L254.28,106.91L254.97,106.87L258.31,105.52L260.60,104.71z"/><path style="fill:#1e1e1e" d="M275.68,110.61L275.64,110.81L274.07,112.03L272.81,112.36L270.80,113.32L270.50,113.42L269.63,112.89L268.77,111.28L268.52,109.89L268.39,107.86L269.06,107.97z"/><path style="fill:#1e1e1e" d="M167.03,167.26L164.39,168.49L162.99,168.86L163.20,165.16L163.95,164.82z"/><path style="fill:#c0c0c0" d="M179.36,133.38L179.26,133.49L160.55,140.29L160.19,158.76L157.37,156.70L156.96,156.60L156.53,156.14L156.14,156.06L156.17,138.10L175.70,131.22z"/><path style="fill:#acacac" d="M224.16,137.09L226.08,116.82L227.71,116.00L240.61,111.29L240.75,111.16L240.90,111.26L238.68,131.89L238.40,132.70L237.58,133.81L225.45,138.93L224.12,138.93L223.73,138.63L224.17,138.37z"/><path style="fill:#acacac" d="M206.00,131.80L206.63,123.66L222.83,117.85L221.18,137.17L220.88,139.28L220.34,140.66L219.54,141.23L206.65,146.68L205.10,146.54z"/><path style="fill:#acacac" d="M178.98,149.95L178.62,151.51L163.02,157.81L160.19,158.76L160.55,140.29L179.26,133.49L179.36,133.38L179.55,133.47z"/><path style="fill:#696969" d="M182.83,150.88L182.42,150.87L182.54,149.76z"/><path style="fill:#ffffff" d="M153.83,69.92L154.09,70.28L152.81,70.59L152.50,70.71L151.70,70.66L151.65,69.27L151.88,69.07z"/><path style="fill:#ffffff" d="M279.22,95.02L279.75,95.65L280.43,97.48L280.29,101.22L279.39,104.42L277.19,108.80L275.68,110.61L269.06,107.97L268.39,107.86L269.26,103.60L270.74,100.15L272.51,97.54L274.56,95.49L276.84,94.27z"/><path style="fill:#969696" d="M93.04,98.30L93.28,99.21L93.27,101.76L85.17,103.75L84.52,103.05L80.41,100.00L78.31,100.44L76.83,99.20L76.40,99.05L77.01,98.65L83.88,97.02L85.15,96.93L87.55,98.65L88.37,98.76L88.36,98.14L86.25,96.66L89.52,95.77z"/><path style="fill:#969696" d="M192.93,157.82L194.13,157.93L194.95,158.05L193.67,158.63L180.34,164.19L179.79,165.85L178.97,165.77L177.09,164.62L174.86,162.96L174.52,162.98L173.90,170.85L173.23,170.98L172.22,170.53L172.44,166.83L172.15,166.32L171.03,166.66L170.60,169.82L168.04,167.94L167.64,167.84L167.03,167.26L163.95,164.82L181.02,157.69L181.92,157.55L184.73,156.41L186.13,157.26L186.82,157.29L187.74,156.71L187.56,154.48z"/><path style="fill:#878787" d="M177.09,164.62L178.97,165.77L179.79,165.85L180.34,164.19L193.67,158.63L194.95,158.05L204.91,153.68L205.30,153.60L205.29,154.63L204.89,155.33L185.01,163.92L184.75,165.86L184.19,166.39L173.90,170.85L174.52,162.98L174.86,162.96z"/><path style="fill:#878787" d="M172.44,166.83L172.22,170.53L171.33,170.39L170.60,169.82L171.03,166.66L172.15,166.32z"/><path style="fill:#4b4b4b" d="M136.71,87.33L128.67,89.58L127.02,88.76L135.07,86.52z"/><path style="fill:#4b4b4b" d="M141.77,89.88L141.95,95.93L140.63,95.94L133.56,92.34L130.60,90.71L137.09,88.90L137.25,87.60z"/><path style="fill:#cacbe6" d="M248.93,95.23L241.33,97.85L228.99,101.79L228.92,101.04L247.63,94.82z"/><path style="fill:#cacbe6" d="M242.89,128.93L243.07,129.96L241.97,132.17L241.03,132.87L239.74,132.89L239.65,132.52L241.04,132.34L242.23,130.79L242.52,130.26L242.60,128.74z"/><path style="fill:#cacbe6" d="M188.87,131.77L188.84,134.07L188.58,135.18L187.74,136.27L185.99,137.80L183.89,137.84L183.17,137.24L184.90,136.98L186.93,135.18L187.48,134.09L187.74,131.81L187.60,130.90z"/><path style="fill:#cacbe6" d="M196.59,134.67L195.40,134.54L195.01,133.88L195.77,133.90z"/><path style="fill:#cacbe6" d="M202.11,144.86L201.62,145.25L201.07,145.24L201.31,144.32z"/><path style="fill:#cacbe6" d="M198.97,145.76L206.63,150.42L206.73,151.41L194.51,156.45L194.13,157.93L192.93,157.82L187.56,154.48L186.39,153.69L185.98,153.60L183.38,151.77L182.83,150.88L182.54,149.76L183.07,149.08L183.41,149.03L183.65,149.27L183.83,150.25L184.73,149.95L197.23,144.93L198.05,143.25L198.69,143.27z"/><path style="fill:#cacbe6" d="M156.96,156.60L156.26,157.11L156.14,156.06L156.53,156.14z"/><path style="fill:#cacbe6" d="M141.48,170.66L141.47,171.87L140.38,174.06L138.94,175.08L137.07,175.08L136.37,174.47L138.91,174.50L140.11,173.51L140.93,171.87L140.73,169.82L140.92,169.85z"/><path style="fill:#1b1b1b" d="M52.60,94.19L52.49,94.34L52.50,96.28L45.54,97.87L44.84,97.85L42.60,95.89L42.54,95.65L43.05,95.36L51.77,93.43L51.96,93.48z"/><path style="fill:#1b1b1b" d="M61.79,98.67L62.40,99.34L61.71,99.49L59.77,99.59L59.47,96.93z"/><path style="fill:#1b1b1b" d="M67.35,103.18L64.98,103.62L64.28,103.60L63.34,102.76L66.00,102.10z"/><path style="fill:#1b1b1b" d="M76.46,101.86L78.13,101.41L79.32,101.39L79.32,104.23L76.74,104.87L76.56,104.14z"/><path style="fill:#1b1b1b" d="M53.21,105.23L61.79,103.30L61.71,104.43L54.84,106.07L54.15,106.07z"/><path style="fill:#1b1b1b" d="M274.02,112.19L272.01,113.19L270.80,113.32L272.81,112.36L274.07,112.03z"/><path style="fill:#1b1b1b" d="M255.10,113.97L254.01,114.37L253.75,115.48L252.91,116.03L252.91,114.63L253.63,110.16L255.31,107.72L258.31,106.34L260.62,105.53L259.75,113.26L257.22,114.29L255.63,114.28z"/><path style="fill:#1b1b1b" d="M260.32,118.49L252.90,121.47L249.71,122.61L249.76,121.56L260.63,117.31z"/><path style="fill:#1b1b1b" d="M85.48,124.33L80.88,125.79L77.42,126.60L76.45,125.73L76.71,125.49L84.34,123.27L84.54,123.32z"/><path style="fill:#1b1b1b" d="M116.29,153.15L110.43,155.38L110.00,155.35L109.04,154.57L109.05,154.28L113.73,152.58z"/><path style="fill:#1b1b1b" d="M187.56,154.48L187.74,156.71L186.82,157.29L186.13,157.26L184.73,156.41L181.92,157.55L181.02,157.69L182.00,156.54L182.14,155.25L185.83,153.76L185.98,153.60L186.39,153.69z"/><path style="fill:#5e5e5e" d="M160.67,44.70L160.72,46.51L158.98,46.10L156.54,45.26L155.14,45.37L154.96,44.92L160.19,44.30z"/><path style="fill:#5e5e5e" d="M161.82,47.34L160.85,47.21L160.56,46.91L160.98,46.76L161.50,46.90z"/><path style="fill:#5e5e5e" d="M154.25,49.46L155.96,50.22L156.50,51.05L160.65,52.42L161.18,52.42L161.09,49.91L162.01,49.91L162.19,51.96L166.10,51.28L167.09,51.73L166.59,52.15L162.46,52.95L160.82,52.91L160.63,60.42L160.37,61.52L159.54,62.34L154.69,63.46L130.74,54.31L130.43,54.03L148.87,50.56L146.85,49.64L152.88,48.56L154.07,48.55z"/><path style="fill:#5e5e5e" d="M160.64,49.46L156.71,50.31L156.71,49.38L157.24,49.08L160.64,48.54z"/><path style="fill:#5e5e5e" d="M164.48,50.77L163.53,50.80L163.61,50.48z"/><path style="fill:#5e5e5e" d="M86.98,62.79L88.67,63.88L83.06,64.99L80.69,65.29L77.32,63.35L85.80,61.70L86.70,61.69z"/><path style="fill:#5e5e5e" d="M243.72,67.11L244.43,67.17L244.53,67.56L243.85,67.46z"/><path style="fill:#5e5e5e" d="M51.33,67.17L50.45,67.18L51.05,66.58L51.40,66.62z"/><path style="fill:#5e5e5e" d="M46.97,64.50L46.94,68.00L37.67,69.71L36.54,70.77L34.93,71.09L34.93,72.12L35.25,72.63L37.17,73.99L38.02,80.76L37.15,81.51L37.15,83.33L37.81,83.85L38.56,84.38L39.35,85.78L40.16,86.34L40.78,87.02L37.89,87.72L35.79,87.70L34.97,87.16L34.70,86.55L34.41,83.06L32.22,68.27L32.22,66.72L33.21,66.07L45.55,63.89L47.55,63.87z"/><path style="fill:#5e5e5e" d="M210.69,68.26L209.53,68.36L209.61,67.82L210.77,67.73z"/><path style="fill:#5e5e5e" d="M199.32,69.57L199.87,70.30L191.11,72.50L189.35,71.79L189.30,71.56L198.06,69.37L199.23,69.38z"/><path style="fill:#5e5e5e" d="M135.07,70.45L149.96,67.43L149.97,68.37L136.99,71.02L135.99,71.03L135.13,70.71z"/><path style="fill:#5e5e5e" d="M245.53,73.95L244.04,73.47L245.07,73.32L245.31,73.43z"/><path style="fill:#5e5e5e" d="M143.12,74.09L142.47,74.04L143.18,73.79z"/><path style="fill:#5e5e5e" d="M158.72,71.92L158.39,72.15L148.30,74.37L146.30,74.67L146.30,73.75L158.72,70.99z"/><path style="fill:#5e5e5e" d="M233.79,77.79L233.63,77.06L234.18,76.74L235.39,76.75L235.39,77.96z"/><path style="fill:#5e5e5e" d="M224.19,73.32L223.91,73.58L208.81,77.68L208.82,75.48L209.01,72.93L212.85,71.84L223.53,69.09L224.44,69.08z"/><path style="fill:#5e5e5e" d="M237.86,78.42L236.72,78.42L236.11,78.11L237.03,78.11z"/><path style="fill:#5e5e5e" d="M284.84,79.38L285.48,79.52L285.63,79.88L285.18,79.82z"/><path style="fill:#5e5e5e" d="M145.83,83.44L146.58,83.04L147.49,83.04L147.48,84.27L146.66,84.17L145.82,83.87z"/><path style="fill:#5e5e5e" d="M229.66,84.53L229.27,84.97L227.88,85.06L227.95,84.21L228.19,83.89L229.64,83.59z"/><path style="fill:#5e5e5e" d="M45.78,85.98L45.83,89.64L44.62,89.77L44.26,85.04L44.54,84.97z"/><path style="fill:#5e5e5e" d="M134.43,86.18L126.23,88.24L125.03,87.70L125.01,86.98L133.17,84.97L134.07,84.96z"/><path style="fill:#5e5e5e" d="M218.58,86.09L219.13,85.77L220.06,85.78L219.96,86.92L218.65,86.60z"/><path style="fill:#5e5e5e" d="M262.36,86.86L267.61,84.98L271.18,83.85L271.81,83.87L271.85,84.52L271.51,85.05L264.61,87.46L263.58,87.46z"/><path style="fill:#5e5e5e" d="M216.13,88.82L214.49,89.20L214.48,87.70L216.22,87.41z"/><path style="fill:#5e5e5e" d="M163.06,89.44L163.36,89.67L143.02,94.94L142.84,92.64L142.75,89.63L161.92,84.70L162.83,84.68z"/><path style="fill:#5e5e5e" d="M52.20,91.01L52.16,91.25L50.74,91.37L50.84,89.87z"/><path style="fill:#5e5e5e" d="M93.87,93.71L93.84,94.65L93.65,94.81L93.19,94.74L92.98,94.29L92.90,93.45L93.56,93.40z"/><path style="fill:#5e5e5e" d="M100.67,99.84L99.47,100.13L99.57,99.31L100.32,98.61L100.66,98.63z"/><path style="fill:#5e5e5e" d="M149.39,100.69L151.03,99.83L152.43,99.75L152.51,101.26L150.95,101.38L150.25,101.88L149.39,101.39z"/><path style="fill:#5e5e5e" d="M120.38,122.31L121.37,121.65L122.86,121.66L122.86,123.68L121.19,123.60L120.37,123.31z"/><path style="fill:#5e5e5e" d="M149.80,124.53L148.75,124.87L148.32,124.38L147.37,123.91L147.37,123.60L148.11,123.43L148.34,123.56z"/><path style="fill:#5e5e5e" d="M242.60,128.74L242.52,130.26L242.23,130.79L241.04,132.34L239.65,132.52L239.46,132.08L239.48,130.77L240.30,129.13L241.33,128.21L241.95,128.21z"/><path style="fill:#5e5e5e" d="M120.84,133.71L121.69,132.09L122.77,131.49L123.40,131.50L123.40,132.43L121.93,132.89L122.63,153.07L121.64,153.36z"/><path style="fill:#5e5e5e" d="M242.24,136.82L240.95,137.18L242.13,136.44L242.87,136.36z"/><path style="fill:#5e5e5e" d="M123.04,134.81L149.26,126.17L149.54,127.00L125.03,135.17L123.93,135.98L123.26,137.48L123.13,137.30z"/><path style="fill:#5e5e5e" d="M240.32,137.64L239.04,138.00L240.21,137.26L240.95,137.18z"/><path style="fill:#5e5e5e" d="M238.41,138.47L237.12,138.82L238.29,138.08L239.04,138.00z"/><path style="fill:#5e5e5e" d="M236.70,139.22L235.75,139.37L236.37,138.89L237.12,138.82z"/><path style="fill:#5e5e5e" d="M235.12,139.83L233.84,140.19L235.01,139.45L235.75,139.37z"/><path style="fill:#5e5e5e" d="M233.20,140.66L231.92,141.01L233.09,140.27L233.84,140.19z"/><path style="fill:#5e5e5e" d="M230.92,141.66L229.19,142.06L231.17,141.09L231.92,141.01z"/><path style="fill:#5e5e5e" d="M123.43,144.03L123.27,138.54L123.39,138.64z"/><path style="fill:#5e5e5e" d="M123.70,150.61L123.55,145.38L123.66,145.49z"/><path style="fill:#5e5e5e" d="M183.38,151.77L185.98,153.60L185.83,153.76L182.14,155.25L182.42,150.87L182.83,150.88z"/><path style="fill:#5e5e5e" d="M123.97,157.45L123.82,152.23L123.94,152.33z"/><path style="fill:#5e5e5e" d="M124.25,164.30L124.10,158.80L124.21,158.90z"/><path style="fill:#5e5e5e" d="M140.73,169.82L140.93,171.87L140.11,173.51L138.91,174.50L136.37,174.47L135.93,173.39L136.54,171.58L137.63,170.21L138.34,169.57L139.09,169.43L140.12,169.31z"/><path style="fill:#5e5e5e" d="M124.52,170.87L124.37,165.65L124.48,165.75z"/><path style="fill:#5e5e5e" d="M124.80,177.71L124.65,172.49L124.76,172.59z"/><path style="fill:#434343" d="M128.67,89.58L136.71,87.33L137.25,87.60L137.09,88.90L130.60,90.71z"/><path style="fill:#1e1e1e" d="M151.81,70.83L151.70,70.66L152.50,70.71z"/><path style="fill:#1e1e1e" d="M149.92,71.39L149.24,71.26L150.03,71.24z"/><path style="fill:#1e1e1e" d="M147.46,71.94L146.78,71.81L147.56,71.79z"/><path style="fill:#1e1e1e" d="M144.99,72.48L144.31,72.36L145.10,72.34z"/><path style="fill:#1e1e1e" d="M126.23,88.24L134.43,86.18L135.07,86.52L127.02,88.76L126.40,88.52z"/><path style="fill:#1e1e1e" d="M89.52,95.77L93.19,94.74L93.65,94.81L93.30,95.20L93.04,98.30z"/><path style="fill:#1e1e1e" d="M84.52,103.05L85.17,103.75L83.98,104.51L82.86,106.67L82.86,108.27L83.71,109.88L83.99,115.19L80.15,112.34L77.41,110.15L77.10,109.64L76.74,104.87L79.32,104.23L79.32,101.39L78.13,101.41L76.46,101.86L76.19,101.03L78.31,100.44L80.41,100.00z"/><path style="fill:#c0c0c0" d="M155.70,101.68L155.67,101.93L154.53,102.23L151.32,102.23L150.25,101.88L150.95,101.38L152.51,101.26L154.89,101.40z"/><path style="fill:#c0c0c0" d="M240.75,111.16L240.61,111.29L227.71,116.00L226.08,116.82L224.16,137.09L224.17,138.37L223.73,138.63L221.18,137.17L222.83,117.85L206.63,123.66L206.00,131.80L205.10,146.54L202.11,144.86L201.31,144.32L201.62,136.73L202.69,121.65L203.81,120.84L217.77,115.91L218.97,115.90L221.16,117.05L221.70,117.13L222.21,114.61L222.44,114.29L236.40,109.32L236.76,109.32z"/><path style="fill:#c0c0c0" d="M150.54,124.92L150.50,126.68L149.54,127.00L149.26,126.17L148.75,124.87L149.80,124.53z"/><path style="fill:#c0c0c0" d="M197.98,129.44L199.40,130.35L199.25,131.07L196.99,133.74L195.77,133.90L195.12,133.44L194.91,133.43L194.77,132.35L195.28,130.93L196.68,129.32L197.45,129.01z"/><path style="fill:#c0c0c0" d="M238.21,115.52L237.30,124.76L236.39,131.52L226.90,135.47L226.90,132.71L228.18,118.93L238.12,115.34z"/><path style="fill:#c0c0c0" d="M219.88,122.37L218.68,137.63L218.40,138.72L208.74,142.77L207.92,142.86L208.19,137.00L208.47,134.26L209.39,133.82L209.65,132.98L210.20,125.59L219.15,122.18L219.77,122.19z"/><path style="fill:#c0c0c0" d="M162.82,142.01L176.43,136.96L177.06,136.97L177.06,144.48L176.80,147.23L175.31,150.40L165.21,154.53L163.92,154.52L162.80,152.90z"/><path style="fill:#acacac" d="M197.45,129.01L197.86,129.05L197.98,129.44z"/><path style="fill:#acacac" d="M200.08,131.23L200.08,132.72L199.52,133.81L198.63,134.55L196.59,134.67L195.77,133.90L196.99,133.74L199.25,131.07L199.40,130.35z"/><path style="fill:#acacac" d="M187.60,130.90L187.74,131.81L187.48,134.09L186.93,135.18L184.90,136.98L183.17,137.24L182.99,137.09L182.71,135.10L183.51,132.85L185.18,130.97L186.28,130.41L187.21,130.38z"/><path style="fill:#acacac" d="M195.77,133.90L195.01,133.88L194.91,133.43L195.12,133.44z"/><path style="fill:#acacac" d="M172.17,143.26L172.15,146.96L171.63,147.81L168.77,149.07L167.75,149.07L167.73,145.01L168.48,144.11L171.23,143.00L171.88,142.97z"/><path style="fill:#b6b6cf" d="M206.74,96.86L205.90,96.93L206.61,96.73z"/><path style="fill:#b6b6cf" d="M180.57,104.76L180.82,104.42L182.53,104.11L182.62,105.63L181.78,105.93L180.90,105.79L180.61,105.50z"/><path style="fill:#b6b6cf" d="M156.35,112.20L155.54,112.21L156.23,112.07z"/><path style="fill:#b6b6cf" d="M154.50,112.53L154.55,112.37L155.22,112.30z"/><path style="fill:#b6b6cf" d="M153.58,113.42L153.49,112.99L153.91,112.90z"/><path style="fill:#b6b6cf" d="M200.24,150.67L200.81,150.09L201.15,150.11L201.15,151.36L200.63,151.25z"/><path style="fill:#b6b6cf" d="M193.47,153.24L194.32,153.13L194.32,154.09L193.47,153.98z"/><path style="fill:#b6b6cf" d="M206.55,152.88L205.30,153.60L204.91,153.68L194.95,158.05L194.13,157.93L194.51,156.45L206.73,151.41z"/><path style="fill:#696969" d="M160.19,44.30L154.96,44.92L155.07,44.74L158.08,44.18z"/><path style="fill:#696969" d="M159.26,54.31L159.28,55.51L158.61,56.23L157.91,56.24L157.50,55.58L158.19,54.67L158.27,53.99L158.73,53.99z"/><path style="fill:#696969" d="M156.22,54.67L156.97,53.20L157.51,52.92L158.74,52.93L157.87,53.28L157.09,54.14L156.81,56.05L156.22,55.40z"/><path style="fill:#696969" d="M278.65,94.28L279.22,95.02L276.84,94.27L277.47,93.98L278.10,93.98z"/><path style="fill:#696969" d="M209.12,97.28L209.69,97.85L209.67,98.47L208.74,98.67L206.35,98.67L204.71,98.10L204.66,97.65L205.10,97.16L205.90,96.93L206.74,96.86z"/><path style="fill:#696969" d="M281.69,98.09L281.66,100.94L281.11,103.68L279.74,107.24L277.44,110.69L274.85,113.03L273.37,113.74L270.69,113.72L270.50,113.42L270.80,113.32L272.01,113.19L274.02,112.19L274.07,112.03L275.64,110.81L275.68,110.61L277.19,108.80L279.39,104.42L280.29,101.22L280.43,97.48z"/><path style="fill:#696969" d="M184.74,106.08L181.96,106.05L181.78,105.93L182.62,105.63z"/><path style="fill:#696969" d="M158.98,112.92L159.31,113.84L158.37,114.29L154.60,114.29L153.78,114.00L153.58,113.42L153.91,112.90L154.50,112.53L155.22,112.30L155.54,112.21L156.35,112.20L157.35,112.36z"/><path style="fill:#696969" d="M265.61,98.01L262.77,118.47L262.40,119.47L250.44,124.21L249.53,124.52L249.48,123.49L261.02,118.91L261.41,118.21L263.09,105.67L263.59,103.13L264.15,98.01L264.32,97.84L265.52,97.83z"/><path style="fill:#ffffff" d="M171.59,53.21L171.83,57.90L172.39,58.44L174.86,59.25L181.73,61.71L162.74,65.81L160.62,65.82L154.69,63.46L159.54,62.34L160.37,61.52L160.63,60.42L160.82,52.91L162.46,52.95L166.59,52.15L167.09,51.73z"/><path style="fill:#ffffff" d="M158.19,54.67L157.50,55.58L157.61,54.09L158.27,53.99z"/><path style="fill:#ffffff" d="M205.81,72.39L207.76,73.17L207.74,78.14L206.08,78.14L191.11,72.50L199.87,70.30z"/><path style="fill:#ffffff" d="M38.26,81.12L38.53,83.69L37.81,83.85L37.15,83.33L37.15,81.51L38.02,80.76z"/><path style="fill:#ffffff" d="M88.36,98.14L88.37,98.76L87.55,98.65L85.15,96.93L86.25,96.66z"/><path style="fill:#ffffff" d="M78.31,100.44L76.19,101.03L76.21,99.19L76.40,99.05L76.83,99.20z"/><path style="fill:#ffffff" d="M260.60,104.71L258.31,105.52L254.97,106.87L254.28,106.91L251.68,105.95L252.27,102.50L253.37,101.68L264.15,98.01L263.59,103.13L263.09,105.67z"/><g id="Actor_.0"><g style="stroke:#000000;stroke-width:0.265"><path d="M78.24,98.41L85.53,103.72"/><path d="M79.42,98.13L86.74,103.42"/><path d="M88.52,98.81L92.92,101.86"/><path d="M93.23,99.60L88.03,96.06"/><path d="M167.34,163.33L169.71,165.05L170.29,165.70L170.72,166.61L170.86,167.53L170.81,169.46L170.99,170.17"/><path d="M172.25,170.41L172.34,166.90L172.20,165.98L171.78,165.08L171.19,164.43L168.82,162.72"/><path d="M172.29,168.82L172.89,169.26L173.09,161.84L173.28,161.14L173.74,160.86L174.36,161.07L178.19,163.76L179.03,164.12L180.04,164.21L180.96,164.01L186.18,161.78"/><path d="M173.45,171.09L173.90,170.83L174.09,170.15L174.31,162.71L178.13,165.42L178.97,165.78L179.98,165.87L180.90,165.67L184.86,163.96"/><path d="M176.30,159.63L176.45,159.74L173.74,160.86"/><path d="M176.45,159.74L179.64,158.42L179.49,158.32"/><path d="M179.64,158.42L181.05,157.84"/><path d="M205.19,153.53L204.76,153.87L186.95,161.46"/><path d="M187.60,154.91L188.03,155.40L189.29,156.22L187.81,156.83"/></g><g style="stroke:#000000;stroke-width:0.794"><path d="M76.33,98.87L78.46,100.44"/><path d="M84.88,96.81L87.95,98.95L88.52,98.81L88.47,98.23L86.02,96.54"/><path d="M89.17,95.78L93.15,98.47"/><path d="M186.58,163.23L184.86,163.96L184.79,165.52L184.60,166.19L184.12,166.46L173.45,171.09L172.84,170.86L172.25,170.41L171.51,170.52L170.99,170.17L163.78,164.81"/><path d="M180.85,157.70L181.05,157.84L184.56,156.38L185.19,156.58L186.44,157.40L187.81,156.83L187.52,156.52L187.60,154.91L187.65,154.53"/><path d="M205.26,153.50L205.15,155.07L204.65,155.47L187.84,162.69"/></g></g><g id="Actor_.1"><g style="stroke:#000000;stroke-width:0.176"><path d="M40.43,95.83L65.68,118.43"/><path d="M51.81,93.47L42.23,95.60L44.92,97.98L52.49,96.26L52.68,97.68L53.19,98.45L53.92,98.90L54.93,99.27L56.19,99.54L60.24,102.91"/><path d="M44.92,97.98L123.21,167.05"/><path d="M59.33,96.77L57.63,96.79L55.59,96.58L53.94,96.15L52.82,95.55L52.31,94.80L52.46,94.00"/><path d="M52.31,94.80L52.49,96.26"/><path d="M69.23,109.26L61.84,103.16L53.17,105.25"/><path d="M52.60,104.75L61.24,102.66L56.04,98.37L56.70,98.46L58.13,98.55L62.73,102.31L65.44,101.65"/><path d="M54.28,106.23L61.98,104.36L69.65,110.74"/><path d="M56.19,99.54L56.04,98.37"/><path d="M59.52,99.69L60.41,99.67L62.63,99.41"/><path d="M61.98,104.36L61.84,103.16"/><path d="M66.05,102.14L63.33,102.80L64.49,103.74L67.22,103.08"/><path d="M64.49,103.74L69.03,107.46"/><path d="M123.33,169.99L66.71,119.34"/><path d="M83.68,122.69L75.55,125.00"/><path d="M76.30,125.66L84.45,123.33"/><path d="M82.81,106.62L79.49,104.12L76.57,104.85"/><path d="M76.27,101.84L79.20,101.12L79.49,104.12"/><path d="M77.49,126.71L85.67,124.35"/><path d="M79.20,101.12L83.83,104.54"/><path d="M84.60,103.17L85.40,103.76"/><path d="M89.63,95.93L89.34,95.74"/><path d="M93.10,97.89L91.98,97.14L92.01,97.54"/><path d="M91.98,97.14L93.03,96.88"/><path d="M113.13,151.52L107.75,153.41"/><path d="M114.18,152.42L108.79,154.33"/><path d="M116.72,153.05L110.04,155.44"/><path d="M122.70,154.87L121.16,153.60"/><path d="M163.27,165.02L163.25,166.10L162.90,169.05L162.99,165.13"/><path d="M162.90,169.05L167.10,167.28"/><path d="M163.25,166.10L164.71,165.50"/><path d="M249.51,122.84L260.40,118.51L260.58,117.21L249.67,121.51"/><path d="M249.83,120.26L257.47,117.27L253.65,115.65L252.67,116.03L251.30,115.44L251.94,111.40L252.38,109.86L253.17,108.40L254.19,107.26L254.56,107.03"/><path d="M251.41,114.70L250.58,114.34"/><path d="M250.75,113.07L251.62,113.44"/><path d="M251.75,112.61L250.85,112.24"/><path d="M251.15,109.85L252.25,110.31"/><path d="M253.84,107.65L251.55,106.73"/><path d="M252.67,116.03L253.17,111.91L253.56,110.34L254.31,108.86L255.30,107.70L256.38,107.02L260.58,105.49L259.65,113.35L261.94,114.29"/><path d="M253.65,115.65L253.80,114.36L259.15,116.61L257.47,117.27"/><path d="M253.80,114.36L254.90,113.94L260.26,116.18L261.75,115.59"/><path d="M259.65,113.35L256.44,114.58"/><path d="M260.40,118.51L261.08,118.80"/><path d="M260.58,117.21L261.47,117.58"/><path d="M260.58,105.49L263.05,106.45"/><path d="M268.36,108.51L274.09,110.75L269.41,112.58"/><path d="M270.31,113.38L274.52,111.71"/><path d="M275.38,110.46L275.64,110.65"/></g><g style="stroke:#000000;stroke-width:0.529"><path d="M51.22,92.98L41.24,95.19L40.49,95.49L40.43,95.83L40.83,101.59L63.45,122.64"/><path d="M123.70,178.69L64.46,123.58"/><path d="M84.60,103.17L80.25,100.00L76.19,100.99"/><path d="M76.01,99.22L76.61,99.07"/><path d="M86.31,96.74L85.16,97.01"/><path d="M89.46,95.98L89.63,95.93L92.01,97.54L92.02,97.71"/><path d="M143.87,177.94L167.83,167.82"/><path d="M143.66,72.53L154.42,70.15"/><path d="M251.66,105.87L254.56,107.03L255.28,106.59L260.51,104.68L263.15,105.71"/><path d="M275.68,110.60L275.32,110.42L268.40,107.74"/></g></g><g id="Actor_.2"><g style="stroke:#000000;stroke-width:0.265"><path d="M35.25,87.33L34.86,86.49L32.04,67.54L32.13,66.88L32.53,66.34L33.16,66.06L47.12,63.65L47.64,63.99"/><path d="M37.18,74.04L34.93,72.32L34.74,71.08L37.00,72.79L38.13,80.68"/><path d="M34.74,71.08L36.82,70.71"/><path d="M38.58,83.79L38.65,84.21L38.39,84.26L37.32,83.79L37.21,83.58"/><path d="M37.00,72.79L36.77,71.18L36.85,70.47L37.28,69.90L37.93,69.61L51.57,67.16L51.47,66.38L50.85,66.66L50.44,67.21L50.42,67.36"/><path d="M38.65,84.21L38.76,84.69L38.99,85.29L39.23,85.64L40.94,87.07"/><path d="M37.93,69.61L75.83,97.37L75.06,97.77L74.53,98.49L74.39,99.34L75.49,110.27L77.06,109.86"/><path d="M44.55,89.92L44.66,89.59L44.63,88.99L44.20,85.84L44.18,85.23L44.29,84.89L44.51,84.90L45.92,86.03"/><path d="M45.60,85.78L45.65,86.09"/><path d="M46.97,67.98L46.66,65.43L49.75,67.48"/><path d="M46.66,65.43L46.72,64.76L47.13,64.22L47.74,63.95L51.47,66.38L52.51,66.31L53.23,66.46L53.20,66.75L52.43,67.00L51.57,67.16"/><path d="M47.74,63.95L48.30,63.80L48.60,63.61L48.54,63.44L46.98,62.43L46.76,62.44"/><path d="M47.12,63.65L46.67,63.36"/><path d="M46.98,62.43L49.43,62.00"/><path d="M48.90,66.92L48.05,66.35"/><path d="M48.56,63.63L48.54,63.44"/><path d="M50.73,91.56L50.49,89.69L52.38,91.20L50.73,91.56L53.88,94.11L54.03,95.28"/><path d="M50.49,89.69L50.07,89.35"/><path d="M53.88,94.11L54.99,94.67L56.65,95.04L57.21,95.07L52.38,91.20"/><path d="M58.78,96.33L57.21,95.07"/><path d="M60.12,60.16L60.34,60.14L60.82,60.41L60.02,60.55"/><path d="M60.34,60.14L122.39,49.56"/><path d="M74.82,98.09L75.99,98.95"/><path d="M75.49,110.27L84.29,117.33L84.12,115.47"/><path d="M75.83,97.37L92.85,93.32L93.70,93.21L94.53,93.26L95.11,93.45L95.29,93.75L95.02,94.06L94.36,94.32L100.68,98.42L102.00,98.30L103.03,98.56L103.16,99.05L102.32,99.48L93.40,101.73"/><path d="M77.05,63.28L78.78,64.23L86.79,62.77L86.69,61.54L77.05,63.28"/><path d="M78.78,64.23L80.89,65.38L90.66,63.57L86.69,61.54"/><path d="M82.68,106.97L83.33,107.95L83.45,108.00L83.27,105.98L83.31,105.74"/><path d="M83.59,109.58L83.45,108.00"/><path d="M83.27,105.98L100.91,119.19L100.14,118.61"/><path d="M125.33,185.01L124.93,183.89L122.98,135.72L122.79,134.65L122.35,133.64L121.78,132.97L123.47,132.43L123.43,131.26L122.51,131.56L85.58,104.51"/><path d="M86.79,62.77L88.95,63.88"/><path d="M92.98,96.23L96.72,98.72L96.02,98.26"/><path d="M92.97,94.87L92.85,93.32"/><path d="M94.36,94.32L93.63,94.70L93.57,94.79"/><path d="M99.11,100.29L96.72,98.72"/><path d="M99.27,100.25L99.40,99.55L99.92,98.82L100.68,98.42L100.77,99.87"/><path d="M100.91,119.19L120.75,134.05L121.55,152.52L121.45,153.30L121.08,153.63"/><path d="M120.41,123.31L121.70,123.76L123.40,123.76L124.86,123.31L125.15,122.99L125.11,121.88L123.83,121.44L122.15,121.44L120.70,121.88L120.03,122.59L120.41,123.31"/><path d="M121.55,152.52L122.58,152.15L121.78,132.97"/><path d="M120.75,134.05L120.96,133.02L121.60,132.11L122.51,131.56"/><path d="M122.62,153.07L122.58,152.15"/><path d="M123.47,132.43L124.55,132.08L123.43,131.26"/><path d="M125.15,122.99L125.51,122.59L125.11,121.88"/><path d="M124.85,87.64L124.61,87.37L124.80,87.09L125.37,86.86L125.41,87.94L124.85,87.64"/><path d="M131.30,48.04L124.29,49.23"/><path d="M125.94,88.22L125.41,87.94"/><path d="M125.37,86.86L134.09,84.77L134.11,85.77L134.38,86.05L134.54,86.13"/><path d="M156.56,49.22L160.70,48.47L160.69,49.56L156.55,50.32L156.56,49.22L153.99,48.38L146.55,49.70L149.07,50.58L130.10,54.02L154.47,63.43"/><path d="M132.13,54.80L149.07,51.69L149.07,50.58"/><path d="M162.88,89.74L142.78,95.04L143.05,95.51L142.79,95.66L142.72,90.31L142.58,89.45L142.22,88.69L141.74,88.23L134.34,84.50L134.08,84.23L134.09,84.77"/><path d="M134.08,84.23L134.25,83.95L134.82,83.72L152.05,79.61L152.82,79.51L153.62,79.55L154.26,79.72L161.96,83.17L141.74,88.23"/><path d="M151.19,68.82L151.18,67.52L150.64,67.40L149.96,67.37L149.31,67.44L134.66,70.57L135.42,70.91L135.95,71.05L136.66,71.08L137.34,71.00L148.67,68.56L149.31,68.48L150.02,68.51L150.69,68.70"/><path d="M136.31,171.75L136.01,173.10L136.38,174.23L136.07,173.96"/><path d="M136.38,174.23L137.32,174.77L138.58,174.60L139.82,173.75L140.71,172.46L141.02,171.06L140.66,169.93L139.73,169.38L138.47,169.55L137.26,170.37"/><path d="M140.66,169.93L139.86,169.24"/><path d="M139.67,72.81L139.66,72.03L139.18,72.21L139.04,72.43L139.28,72.65L143.11,74.35L143.10,73.49L142.90,73.83L142.38,74.02"/><path d="M139.66,72.03L151.04,69.54L151.49,69.38L151.60,69.17"/><path d="M141.99,73.85L142.15,73.78L142.17,73.31L141.48,73.15L140.68,73.15L141.58,72.95L141.92,72.97L142.74,73.18L143.10,73.49"/><path d="M140.68,73.15L140.51,73.19"/><path d="M140.80,46.73L141.93,46.54L141.32,46.33L141.02,46.37"/><path d="M142.22,95.93L142.34,95.92L142.79,95.66"/><path d="M142.17,73.31L142.41,73.56L142.15,73.78"/><path d="M141.68,72.96L143.60,72.50"/><path d="M142.72,90.31L162.94,85.16L162.89,89.39"/><path d="M143.11,74.35L144.07,74.78L144.62,74.92L145.35,74.96L146.07,74.88L146.79,74.71L146.78,73.65L146.09,73.71L145.36,73.67L144.80,73.53L143.99,73.18L144.02,74.53L144.81,74.88L144.80,73.53"/><path d="M143.99,73.18L143.75,72.96L143.77,74.31L144.02,74.53"/><path d="M144.02,72.69L143.88,72.74L143.75,72.96"/><path d="M145.66,83.65L145.62,83.61L146.05,83.19L147.12,82.93L148.43,82.93L149.48,83.19L149.87,83.61L149.45,84.03L148.37,84.30L147.05,84.30L146.00,84.04L145.66,83.65"/><path d="M145.05,74.95L144.81,74.88"/><path d="M146.79,74.71L158.16,72.14L158.16,71.07L146.78,73.65"/><path d="M148.06,123.36L147.06,123.68L148.24,124.43L148.75,124.96"/><path d="M153.99,48.38L153.99,49.46L148.65,50.43"/><path d="M149.93,101.83L149.22,101.13L149.54,100.40L150.75,99.83L152.52,99.57L154.40,99.68L155.90,100.16L155.88,101.76L156.30,101.56L156.58,100.83L155.90,100.16"/><path d="M149.48,84.00L149.48,83.19"/><path d="M149.31,68.48L149.31,67.44"/><path d="M151.05,70.86L151.04,69.54"/><path d="M151.18,67.52L155.98,69.48L156.24,69.68L156.13,69.89L155.69,70.05L154.71,70.27"/><path d="M153.54,113.56L153.54,113.51L154.02,114.11"/><path d="M153.54,113.51L154.09,112.77L155.53,112.33L157.33,112.33L158.79,112.77L159.36,113.51L158.92,114.11"/><path d="M156.55,50.32L153.99,49.46"/><path d="M153.78,44.94L155.09,45.36L155.95,45.21L156.38,45.27L160.67,46.63"/><path d="M154.40,45.14L159.86,44.20L160.28,44.26"/><path d="M159.16,53.12L158.54,52.91L157.73,52.80L156.92,53.22L156.32,54.05L156.10,55.08L156.32,56.03L156.91,56.63L157.52,56.85L158.33,56.95L159.14,56.53L159.73,55.70L159.95,54.68L159.74,53.73L159.16,53.12L158.35,53.01L157.54,53.43L156.94,54.27L156.72,55.30L156.93,56.24L157.52,56.85"/><path d="M160.62,52.71L156.35,51.27L156.04,50.95L155.93,50.45L155.93,50.12"/><path d="M158.16,72.14L160.95,71.51L160.11,71.16L159.54,71.02L158.83,70.99L158.16,71.07"/><path d="M158.04,53.83L158.35,53.67L158.89,53.74L159.28,54.15L159.42,54.78L159.27,55.46L158.87,56.02L158.33,56.30L157.80,56.23L157.40,55.82L157.38,55.74"/><path d="M159.37,113.58L159.36,113.51"/><path d="M160.11,71.69L160.11,71.16"/><path d="M161.89,47.36L161.57,47.41L160.25,46.99L161.12,46.84L161.55,46.91"/><path d="M161.49,53.01L161.18,52.68L161.07,52.17L161.09,49.70L160.69,49.56"/><path d="M161.09,49.70L165.88,51.26L161.93,52.01L161.94,50.83L162.36,50.91L163.42,50.95L164.52,50.81"/><path d="M160.70,48.47L193.77,59.13L181.95,61.69"/><path d="M162.94,85.16L162.81,84.33L162.46,83.60L161.96,83.17"/><path d="M161.95,49.98L161.94,50.83"/><path d="M162.90,87.89L165.44,89.07L165.78,89.49L165.16,89.87L164.11,89.96"/><path d="M165.43,89.70L165.44,89.07"/><path d="M165.75,52.34L165.76,51.29"/><path d="M165.88,51.26L167.26,51.71"/><path d="M171.65,53.14L191.51,59.62"/><path d="M172.31,45.72L232.04,63.60"/><path d="M182.06,106.11L183.62,106.08L184.14,106.22"/><path d="M182.31,150.96L182.79,150.77"/><path d="M189.58,72.01L189.25,71.81L189.29,71.59L189.69,71.41L189.66,72.05L189.58,72.01"/><path d="M190.80,72.47L189.66,72.05"/><path d="M189.69,71.41L199.34,69.10L199.29,70.00L199.83,70.27"/><path d="M207.92,71.67L223.45,67.78L215.13,65.13L214.50,65.00L213.76,64.96L213.13,65.04L200.27,68.11L199.79,68.22L199.39,68.40L199.37,68.61L199.72,68.82L207.92,71.67L208.44,72.04L208.79,72.70L208.88,73.46L208.59,77.69L209.02,78.04L208.58,78.36L207.83,78.42"/><path d="M199.37,68.61L199.34,69.10"/><path d="M204.55,97.91L204.83,97.35L206.00,96.99L207.62,96.99L209.07,97.35L209.81,97.93L209.58,98.43"/><path d="M208.54,78.36L208.59,77.69L221.29,74.34"/><path d="M208.88,73.46L224.40,69.50L224.24,71.40"/><path d="M212.40,68.55L211.98,68.66L210.82,68.66L209.78,68.46L209.25,68.13L209.44,67.81L210.27,67.61L211.42,67.60L212.46,67.80L212.40,68.55L212.79,68.46L212.99,68.13L212.46,67.80"/><path d="M209.81,97.93L209.79,98.23"/><path d="M211.99,88.88L211.27,88.36L211.38,86.85L211.63,86.34L212.73,86.03L214.27,86.03L215.67,86.34L216.40,86.85L216.17,87.36L215.07,87.68L213.51,87.68L212.10,87.36L211.99,88.88L213.38,89.20L214.95,89.20L216.05,88.88L216.28,88.36L216.40,86.85"/><path d="M211.38,86.85L212.10,87.36"/><path d="M218.48,86.29L218.44,86.38L219.08,86.82L220.30,87.09L221.64,87.09L222.57,86.82L222.74,86.38L222.09,85.95L220.88,85.68L219.56,85.68L218.63,85.95L218.48,86.29"/><path d="M222.09,85.95L222.00,86.98"/><path d="M224.06,73.47L224.04,73.61L223.86,73.66"/><path d="M224.04,73.61L225.09,73.79L226.10,73.71L226.49,73.42L226.02,73.09L225.97,73.72"/><path d="M224.40,69.50L224.32,68.77L223.97,68.14L223.45,67.78"/><path d="M225.48,84.96L224.73,84.48L224.86,83.00L225.61,83.48L225.48,84.96L227.00,85.27L228.38,85.26L229.42,84.96L229.59,84.47L229.73,83.00L229.56,83.48L228.52,83.78L227.01,83.78L225.61,83.48"/><path d="M229.73,83.00L228.97,82.52L227.58,82.23L226.08,82.23L225.05,82.52L224.86,83.00"/><path d="M224.83,72.69L226.02,73.09"/><path d="M229.08,142.08L229.02,142.02"/><path d="M245.53,74.06L243.81,73.51L244.76,73.25L235.96,70.47L235.01,70.72L232.88,70.04L243.94,67.16L233.49,64.03"/><path d="M238.61,78.38L238.97,78.33L239.71,77.92L239.58,77.41L238.66,76.93L237.18,76.61L235.55,76.53L234.18,76.72L233.45,77.12L233.54,77.62L234.37,78.06L235.40,77.92L237.04,78.00L238.61,78.38L237.60,78.52L235.94,78.44L234.37,78.06"/><path d="M235.53,77.93L235.64,78.07L236.84,78.48"/><path d="M241.57,67.78L243.80,68.45L243.32,72.70L236.41,70.52L235.96,70.47"/><path d="M243.80,68.45L236.09,70.49"/><path d="M238.66,76.93L238.51,78.32"/><path d="M239.40,132.07L239.89,132.59L239.43,132.37"/><path d="M239.89,132.59L240.67,132.55L241.52,131.92L242.20,130.90L242.55,129.73L242.46,128.75L241.96,128.20L241.24,128.23"/><path d="M241.63,128.06L241.96,128.20"/><path d="M243.32,72.70L244.16,72.97"/><path d="M243.94,67.16L244.37,67.21"/><path d="M244.76,73.25L245.21,73.30"/><path d="M249.42,123.56L249.36,123.98L249.39,124.31L249.54,124.49"/><path d="M257.70,71.27L284.48,79.29L284.96,79.46L284.92,79.70L284.51,79.58L284.88,79.46L285.38,79.48"/><path d="M264.26,97.88L265.22,97.55L265.45,97.56L265.60,97.76L265.61,98.10L262.66,118.66L262.55,119.04L262.33,119.36"/><path d="M262.86,86.52L261.93,86.82L263.26,87.27L263.81,87.64L271.64,85.10L271.85,83.64L262.86,86.52"/><path d="M271.85,83.64L273.18,84.07L273.82,84.48L274.21,85.14L274.30,85.97L274.08,87.44L264.17,90.73L264.38,89.23L262.92,89.71"/><path d="M263.81,87.64L263.90,87.70L264.31,88.42L264.38,89.23"/><path d="M264.31,89.78L272.74,87.00L272.96,85.54L271.64,85.10"/><path d="M276.71,94.29L277.56,93.99L279.21,94.16L280.52,95.12L281.37,96.80L281.71,99.03L281.52,101.65L280.82,104.44L279.67,107.19L278.16,109.68L276.40,111.74L274.53,113.20L272.69,113.93L271.02,113.87L270.23,113.38"/><path d="M272.74,87.00L274.08,87.44"/><path d="M274.30,85.97L285.31,82.35"/><path d="M279.50,95.25L279.21,94.67L278.40,94.08"/><path d="M284.92,79.70L285.62,79.91"/><path d="M288.30,81.37L286.81,81.86"/></g><g style="stroke:#000000;stroke-width:0.794"><path d="M124.91,183.89L123.87,182.91L122.62,153.07L121.08,153.63L120.55,153.42L70.04,111.32L69.70,110.85L69.40,110.12L69.23,109.31L68.85,105.74L68.68,104.93L68.38,104.19L68.04,103.73L58.78,96.33L56.80,96.21L55.14,95.84L54.03,95.28L50.88,92.70L50.64,92.37L50.43,91.82L50.29,91.20L50.05,89.34L45.92,86.03L45.65,86.09L46.00,88.70L46.02,89.30L45.91,89.63L44.55,89.92L44.33,89.89L40.94,87.07L37.01,87.88L36.04,87.84L35.25,87.33L34.84,86.97L34.45,86.13L31.63,67.23L31.71,66.57L32.12,66.03L32.74,65.75L46.67,63.36L46.65,62.78L46.76,62.44L49.43,62.00L49.89,62.28L60.00,60.55L60.12,60.16L60.31,60.13L122.40,49.54"/><path d="M37.55,83.73L37.21,83.58L36.79,82.77L37.00,81.60L37.88,80.73L38.13,80.68L38.58,83.79L37.97,83.92L37.55,83.73"/><path d="M76.24,101.53L75.99,98.95L92.97,94.87L93.57,94.79L93.12,95.40L92.98,96.23L93.40,101.73L84.77,103.91L83.97,104.34L83.42,105.10L83.31,105.74L83.09,105.90L82.68,106.97L82.82,108.53L83.48,109.53L83.59,109.58L84.12,115.47L77.06,109.86L76.24,101.53"/><path d="M84.77,103.91L85.58,104.51"/><path d="M123.87,182.91L124.27,184.01L125.33,185.01L126.31,185.53L127.60,185.32L142.52,179.00L143.72,178.17L144.59,176.90L144.90,175.55L144.86,172.62"/><path d="M172.31,45.72L171.82,45.57L161.89,47.36L161.86,47.24L161.55,46.91L160.67,46.63L160.69,45.08L160.58,44.59L160.29,44.27L159.65,44.07L159.24,44.00L153.78,44.94L152.27,44.46L141.02,46.37L140.80,46.73L131.90,48.25L131.30,48.04L124.30,49.22"/><path d="M125.94,88.22L134.54,86.13L141.76,89.82L141.83,94.54L141.97,95.39L142.22,95.93L141.07,96.03L139.98,95.78L125.94,88.22"/><path d="M143.93,72.65L144.02,72.69L144.35,72.57L154.71,70.27L151.19,68.82L150.69,68.70L151.34,68.97L151.60,69.17L151.61,70.48L151.49,70.69L151.05,70.86L143.60,72.50L143.93,72.65"/><path d="M149.44,127.07L149.27,126.00L148.83,125.05L148.75,124.96L149.98,124.57"/><path d="M150.21,101.92L149.93,101.83L150.75,101.44L152.52,101.18L154.40,101.29L155.88,101.76L155.10,102.14L153.29,102.41L151.38,102.29L150.21,101.92"/><path d="M154.76,63.37L154.47,63.43L161.44,66.13L181.95,61.69L172.21,58.34L171.88,58.08L171.64,57.62L171.57,57.08L171.65,53.14L167.26,51.71L166.84,52.03L165.75,52.34L161.92,53.07L161.49,53.01L160.62,52.71L160.55,60.69L160.38,61.46L159.93,62.10L159.31,62.42L154.76,63.37"/><path d="M157.54,55.62L157.38,55.74L157.26,55.20L157.41,54.51L157.81,53.95L158.04,53.83L158.17,54.37L157.97,55.16L157.54,55.62"/><path d="M162.88,89.74L162.89,89.39L164.11,89.96L163.96,89.97L162.88,89.74"/><path d="M171.82,45.57L172.24,45.64L232.09,63.54"/><path d="M186.24,153.62L182.14,155.29"/><path d="M190.80,72.47L199.83,70.27L207.83,73.09L207.54,77.31L207.64,78.06L207.83,78.42L207.51,78.44L206.45,78.25L190.80,72.47"/><path d="M228.99,142.03L229.08,142.08L229.89,142.01L280.46,120.60L281.16,120.07L281.76,119.15L282.10,118.11L288.30,81.37L288.23,80.59L287.83,79.93L287.20,79.54L285.84,79.98L285.62,79.91L285.38,79.48L257.63,71.18L257.21,71.13L257.70,71.27"/><path d="M262.92,89.71L228.88,100.90"/><path d="M242.46,67.54L244.69,68.22L244.64,67.60L244.37,67.21L233.55,63.98"/><path d="M257.21,71.13L246.08,74.23L245.53,74.06L245.50,73.70L245.21,73.30L244.16,72.97L244.69,68.22"/><path d="M262.33,119.36L262.08,119.55L249.79,124.48L249.54,124.49"/><path d="M249.54,122.59L249.42,123.56L260.81,119.01L261.06,118.82L261.28,118.50L261.39,118.13L264.26,97.88L252.66,101.94L252.37,102.16L252.16,102.48L252.04,102.87L249.54,122.59"/><path d="M264.95,97.86L264.64,97.75L265.14,97.93L264.95,97.86"/><path d="M265.14,97.93L265.61,98.10"/><path d="M268.49,110.11L268.32,109.21L268.46,106.55L269.15,103.67L270.33,100.80L271.91,98.20L273.75,96.09L275.68,94.65L276.71,94.29L279.50,95.25L280.06,96.34L280.41,98.57L280.23,101.18L279.53,103.97L278.39,106.71L276.88,109.20L275.13,111.24L273.25,112.69L271.41,113.42L270.23,113.38L269.66,113.02L268.74,111.43L268.49,110.11"/><path d="M286.81,81.86L285.33,82.34"/></g></g><g id="Actor_.3"><g style="stroke:#000000;stroke-width:0.176"><path d="M128.32,89.51L136.98,87.37"/><path d="M137.24,87.51L137.23,88.99L130.48,90.67"/><path d="M142.12,95.71L137.20,93.09L137.23,88.99"/><path d="M163.71,89.92L163.91,89.87"/><path d="M163.12,89.79L163.53,89.69"/><path d="M162.88,89.61L163.19,89.53"/></g><g style="stroke:#000000;stroke-width:0.529"><path d="M126.76,88.67L135.38,86.56"/></g></g><g id="Actor_.4"><g style="stroke:#000000;stroke-width:0.265"><path d="M126.63,183.58L126.10,182.09L124.41,138.46L124.62,137.42L125.27,136.49L126.19,135.93L151.69,127.49L150.49,126.72"/><path d="M140.15,169.23L141.17,169.84L141.57,171.12L141.22,172.70L140.21,174.16L138.81,175.12L137.38,175.33L136.31,174.71L136.18,174.32"/><path d="M141.71,116.14L142.11,117.46L143.45,118.67L150.48,123.03L151.08,123.65L151.53,124.61L151.69,125.64L151.69,127.49"/><path d="M154.29,114.19L153.94,114.09L153.34,113.31L153.93,112.55L155.47,112.08L157.38,112.08L158.95,112.55L159.57,113.32L159.00,114.09L158.61,114.21"/><path d="M156.09,155.75L156.09,157.06L157.13,156.65"/><path d="M158.95,112.55L158.94,112.96"/><path d="M174.55,131.54L175.82,131.09L175.81,131.27"/><path d="M184.84,106.04L185.61,105.81L186.01,105.13L185.31,104.47L183.80,104.06L182.05,104.06L180.70,104.47L180.28,105.13L180.96,105.81L181.39,105.92"/><path d="M197.39,144.88L183.72,150.35L183.76,149.55L183.43,148.99L182.73,149.27L182.53,149.69"/><path d="M187.20,130.40L187.60,130.38L188.70,131.33L189.04,133.04L188.52,135.06L187.30,136.85L185.69,137.94L184.11,138.04L183.18,137.29"/><path d="M183.72,150.35L192.47,155.97L193.30,156.31L194.29,156.39L195.18,156.20L206.24,151.53L206.74,151.14L206.72,151.45"/><path d="M185.25,105.92L185.31,104.47"/><path d="M195.70,153.21L194.71,152.91L193.69,153.04L193.23,153.53L193.60,154.08L194.59,154.39L195.61,154.25L196.07,153.76L195.70,153.21L195.64,154.23"/><path d="M194.87,133.91L194.88,133.95L195.67,134.64L196.62,134.59"/><path d="M197.41,144.89L206.28,150.18L206.75,150.65L206.74,151.14"/><path d="M198.64,145.62L198.77,143.56L198.48,143.03L197.81,143.28L197.46,144.05"/><path d="M197.79,129.02L198.26,129.00L199.04,129.71L199.09,130.01"/><path d="M202.49,151.37L201.51,151.49L200.52,151.20L200.14,150.66L200.58,150.19L201.58,150.06L202.56,150.35L202.49,151.37L202.95,150.89L202.56,150.35"/><path d="M202.24,144.89L201.04,145.37L201.12,144.12"/><path d="M209.19,97.44L209.21,97.15L207.66,96.77L205.93,96.77L204.68,97.15L204.38,97.77L205.15,98.39L205.50,98.48"/><path d="M209.21,97.15L210.00,97.77L209.72,98.39L208.77,98.68"/><path d="M219.08,116.02L219.06,115.83L218.85,115.62L218.55,115.62L217.79,115.89"/><path d="M221.01,137.30L221.09,137.27"/><path d="M249.36,95.35L248.83,95.32L228.77,101.96L228.87,100.94"/><path d="M237.11,109.55L237.10,109.43L236.92,109.22L236.64,109.22L235.79,109.52"/><path d="M241.65,128.06L242.35,128.02L242.92,128.65L243.02,129.77L242.63,131.09L241.85,132.25L240.89,132.96L240.01,133.01L239.43,132.40L239.42,132.35"/></g><g style="stroke:#000000;stroke-width:0.794"><path d="M219.32,146.12L206.72,151.45L206.62,152.74L206.12,153.13L195.08,157.83L194.20,158.02L193.21,157.94L192.38,157.60L183.66,151.94L183.06,151.34L182.65,150.47L182.53,149.69L182.35,150.11L182.12,155.68L181.90,156.55L181.37,157.33L180.65,157.84L144.25,172.87L144.27,174.53L143.86,176.36L142.68,178.06L141.05,179.19L129.67,184.00L127.94,184.28L126.63,183.58L125.55,182.58L125.02,181.09L123.28,137.60L123.49,136.57L124.14,135.65L125.05,135.09L150.49,126.72L150.48,124.88L143.47,120.48L142.13,119.26L141.74,117.93L141.71,116.14L142.29,114.84L143.75,113.69L145.95,112.79L198.58,97.04"/><path d="M136.55,174.33L136.27,174.37L136.18,174.32L135.89,173.43L136.24,171.84L137.27,170.36L138.69,169.39L140.12,169.21L140.15,169.23L140.27,169.60"/><path d="M154.29,114.19L155.51,114.57L157.45,114.57L158.61,114.21"/><path d="M156.09,155.75L156.16,138.06L174.55,131.54"/><path d="M181.39,105.92L181.98,105.74L183.74,105.74L184.84,106.04L184.26,106.22L182.48,106.22L181.39,105.92"/><path d="M186.18,135.94L186.07,136.12L184.46,137.20L183.18,137.29L182.98,137.12L182.62,135.41L183.13,133.37L184.38,131.55L186.01,130.46L187.20,130.40L187.45,130.62L187.79,132.33L187.63,132.97"/><path d="M187.30,134.27L187.28,134.35"/><path d="M197.86,129.44L197.78,129.02L197.12,129.06L195.95,129.85L195.04,131.18L194.65,132.69L194.87,133.91L195.43,133.88"/><path d="M197.44,144.16L197.39,144.88L197.41,144.89L197.46,144.05L197.44,144.16"/><path d="M201.12,144.12L202.56,122.09L202.67,121.65L202.94,121.26L203.28,121.03L217.79,115.89"/><path d="M201.28,96.23L207.66,94.32L209.86,93.87L212.43,93.72L215.14,93.87L217.73,94.31L219.97,95.01L227.76,98.17L228.40,98.66L228.83,99.45L228.93,100.34L228.87,100.94L247.49,94.82L248.02,94.85L249.36,95.35L249.69,95.78L249.75,96.51L245.33,132.47L244.87,133.99L243.97,135.35L242.86,136.18L220.73,145.53"/><path d="M205.50,98.48L206.71,98.78L208.46,98.78L208.77,98.68"/><path d="M235.79,109.52L222.60,114.19L222.28,114.41L222.03,114.78L221.91,115.20L221.73,117.26"/><path d="M241.65,128.06L241.46,128.06L240.50,128.77L239.71,129.94L239.32,131.27L239.42,132.35"/></g></g><g id="Actor_.5"><g style="stroke:#000000;stroke-width:0.176"><path d="M114.48,148.36L114.72,152.88"/></g><g style="stroke:#000000;stroke-width:0.529"><path d="M120.51,153.38L114.72,152.88L103.12,142.99L102.83,138.64"/><path d="M121.51,153.47L122.64,153.57"/></g></g><g id="Actor_.6"><g style="stroke:#000000;stroke-width:0.176"><path d="M201.16,143.51L205.00,145.76L206.56,123.64L202.67,121.65"/><path d="M205.30,146.70L205.00,145.76L205.12,146.47L205.56,146.85"/><path d="M205.33,146.71L206.19,146.79"/><path d="M206.56,123.64L222.79,117.76L220.83,139.29L220.43,140.37"/><path d="M212.74,141.10L207.72,143.13L208.13,137.58"/><path d="M208.37,134.32L209.50,133.89L210.12,125.55L208.99,125.97L208.25,135.98"/><path d="M209.50,133.89L218.51,138.76L214.18,140.51"/><path d="M210.12,125.55L219.99,121.91L218.51,138.76"/><path d="M222.79,117.76L218.37,115.68"/><path d="M219.47,141.32L220.27,140.61"/><path d="M221.09,136.47L223.99,138.00L224.08,138.69L224.47,139.07"/><path d="M225.05,139.02L224.24,138.93L223.99,138.00L226.03,116.59L222.05,114.75"/><path d="M238.17,133.08L238.57,132.04L240.94,111.19L226.03,116.59"/><path d="M226.54,135.50L228.17,118.89L238.28,115.16L236.47,131.48L226.54,135.50"/><path d="M236.47,131.48L227.37,127.01"/><path d="M237.32,133.95L238.02,133.31"/></g><g style="stroke:#000000;stroke-width:0.529"><path d="M215.29,143.04L206.19,146.79L205.56,146.85L205.33,146.71L205.30,146.71L205.30,146.70L201.12,144.24"/><path d="M205.13,146.16L205.06,146.12"/><path d="M216.71,142.45L219.47,141.32L220.10,140.86L220.60,140.12L220.83,139.29"/><path d="M220.27,140.61L220.38,140.52L220.43,140.37"/><path d="M221.02,137.23L224.47,139.07L225.05,139.02L237.27,133.98L237.32,133.95"/><path d="M224.13,138.54L224.05,138.49"/><path d="M240.94,111.19L236.47,109.28"/><path d="M237.27,133.98L237.86,133.55L238.34,132.84L238.57,132.04"/><path d="M238.02,133.31L238.12,133.22L238.17,133.08"/></g></g><g id="Actor_.7"><g style="stroke:#000000;stroke-width:0.176"><path d="M160.17,158.87L160.35,140.38L156.61,137.90"/><path d="M160.35,140.38L179.48,133.45L178.84,151.43"/><path d="M171.37,148.01L175.17,150.53L164.18,154.86L162.50,152.57L162.63,142.08L177.23,136.72L176.90,146.99L172.21,143.95"/><path d="M162.59,145.27L167.50,148.59L167.74,149.16L168.34,149.20L171.27,148.07L171.88,147.57L172.14,146.81L172.02,147.32L171.83,147.60L171.70,147.78L171.27,148.07"/><path d="M167.72,149.11L162.59,145.64"/><path d="M162.67,142.06L167.57,145.31L167.50,148.59L167.61,149.02L167.92,149.24L167.80,149.16"/><path d="M164.45,141.41L168.45,144.03L168.21,144.23L168.18,144.21L168.45,144.03L171.40,142.92L171.99,142.98L172.22,143.55L172.14,146.81"/><path d="M168.34,149.20L167.92,149.24"/><path d="M167.53,148.66L167.52,148.65"/><path d="M167.57,145.31L167.83,144.54L168.21,144.23"/><path d="M167.57,145.30L167.69,144.79L168.02,144.32L168.18,144.21"/><path d="M167.39,140.33L171.40,142.92L171.82,142.89L167.68,140.22"/><path d="M172.22,143.55L172.12,143.12L171.82,142.89"/><path d="M175.17,150.53L176.90,146.99"/></g><g style="stroke:#000000;stroke-width:0.529"><path d="M178.84,151.43L160.17,158.87L156.09,155.89"/><path d="M179.48,133.45L175.62,131.16"/></g></g><g id="Actor_.8"><g style="stroke:#000000;stroke-width:0.176"><path d="M194.81,133.56L194.86,133.58L194.89,133.57L195.99,134.19L195.95,134.04L196.08,134.24"/><path d="M194.72,132.41L195.69,132.95L196.25,133.18L196.98,133.30L197.73,133.29L198.32,133.15L198.35,133.40L198.47,133.60L198.61,133.65"/><path d="M195.95,134.04L195.78,133.78L195.69,132.95L195.88,132.02L196.37,131.05L197.07,130.28L197.80,129.86L198.45,129.76L197.39,129.18L197.14,129.05"/><path d="M194.80,133.52L194.89,133.57"/><path d="M195.99,134.19L196.05,134.23"/><path d="M196.24,131.31L196.15,131.42L196.09,131.61"/><path d="M197.28,130.16L197.19,130.20L197.15,130.24"/><path d="M197.31,129.14L197.25,129.05"/><path d="M198.64,133.62L198.47,133.59L198.32,133.15L198.53,132.57L198.97,132.19L199.39,132.25"/><path d="M198.32,133.15L198.38,132.86L198.53,132.56L198.75,132.33L198.97,132.19L199.19,132.16L199.39,132.24L199.39,132.25"/><path d="M198.70,133.62L198.88,133.65L199.33,133.27L199.53,132.69L199.47,132.98L199.32,133.28L199.11,133.51L198.88,133.65L198.67,133.68L198.66,133.68"/><path d="M198.43,129.77L198.40,129.75L198.30,129.78"/><path d="M198.45,129.76L198.51,129.75L198.65,129.82"/><path d="M199.39,132.25L199.39,132.25L199.39,132.25"/><path d="M200.12,132.13L199.94,132.46L199.53,132.69L199.43,132.37"/><path d="M199.53,132.69L199.51,132.44L199.44,132.33"/></g><g style="stroke:#000000;stroke-width:0.529"><path d="M198.65,129.82L199.14,130.03L199.54,130.39L199.91,131.00L200.05,131.47L200.12,132.13L199.96,132.87L199.57,133.63L199.02,134.24L198.44,134.59L197.99,134.71L197.32,134.81L196.82,134.67L196.18,134.41L196.08,134.24L196.05,134.23"/><path d="M198.66,133.68L198.61,133.65L198.64,133.62L198.70,133.62L198.66,133.68"/><path d="M199.39,132.25L199.43,132.37L199.44,132.33L199.39,132.25L199.39,132.25L199.39,132.25"/></g></g><g id="Actor_.9"><g style="stroke:#000000;stroke-width:0.176"><path d="M182.81,136.30L183.16,136.51L183.20,136.56L183.38,136.64L183.71,136.84L182.82,136.10L182.65,135.30"/><path d="M183.16,136.51L182.71,135.85"/><path d="M182.62,135.40L182.63,135.46"/><path d="M182.80,136.01L182.82,136.00"/><path d="M183.38,136.64L184.01,136.90L184.98,136.76L183.71,136.84"/><path d="M185.55,130.77L186.50,130.72L187.38,131.48L187.66,132.85L187.25,134.46L186.27,135.89L184.98,136.76L185.96,136.17L186.82,135.22L187.41,134.05L187.66,132.85L187.52,131.78L187.01,131.01L186.21,130.66L185.60,130.74"/><path d="M186.50,130.72L186.03,130.46"/></g></g><g><g><path style="stroke:#000000;stroke-width:0.250;stroke-opacity:0.98" d="M144.82,27.90L139.18,27.90L102.79,77.16"/></g><g><path style="fill:#000000" d="M103.83,77.18L103.82,77.08L103.81,76.98L103.78,76.88L103.75,76.79L103.71,76.70L103.66,76.62L103.60,76.54L103.53,76.47L103.46,76.40L103.38,76.34L103.30,76.29L103.21,76.25L103.12,76.22L103.02,76.19L102.92,76.18L102.83,76.18L102.73,76.18L102.63,76.19L102.53,76.22L102.44,76.25L102.35,76.29L102.27,76.34L102.19,76.40L102.12,76.47L102.05,76.54L101.99,76.62L101.94,76.70L101.90,76.79L101.87,76.88L101.84,76.98L101.83,77.08L101.83,77.18L101.83,77.27L101.84,77.37L101.87,77.47L101.90,77.56L101.94,77.65L101.99,77.73L102.05,77.81L102.12,77.88L102.19,77.95L102.27,78.01L102.35,78.06L102.44,78.10L102.53,78.13L102.63,78.16L102.73,78.17L102.83,78.18L102.92,78.17L103.02,78.16L103.12,78.13L103.21,78.10L103.30,78.06L103.38,78.01L103.46,77.95L103.53,77.88L103.60,77.81L103.66,77.73L103.71,77.65L103.75,77.56L103.78,77.47L103.81,77.37L103.82,77.27z"/></g><g><path style="fill:#ffffa0" d="M143.70,32.46L223.76,32.46L223.76,23.44L143.70,23.44z"/><path style="stroke:#000000;stroke-width:0.250;stroke-opacity:0.98" d="M143.70,32.46L223.76,32.46L223.76,23.44L143.70,23.44z"/><text xml:space="preserve" fill="#000000" stroke-width="0" x="144.83" y="29.93" font-size="5.51" opacity="1.00" font-family="MS Shell Dlg">Chapa de la estructura principal</text></g></g><g><g><path style="stroke:#000000;stroke-width:0.250;stroke-opacity:0.98" d="M49.08,151.07L66.54,118.13"/></g><g><path style="fill:#000000" d="M67.60,118.12L67.60,118.03L67.58,117.93L67.56,117.83L67.52,117.74L67.48,117.65L67.43,117.57L67.37,117.49L67.31,117.42L67.23,117.35L67.16,117.29L67.07,117.24L66.98,117.20L66.89,117.17L66.80,117.14L66.70,117.13L66.60,117.12L66.50,117.13L66.41,117.14L66.31,117.17L66.22,117.20L66.13,117.24L66.04,117.29L65.97,117.35L65.89,117.42L65.83,117.49L65.77,117.57L65.72,117.65L65.68,117.74L65.64,117.83L65.62,117.93L65.61,118.03L65.60,118.12L65.61,118.22L65.62,118.32L65.64,118.42L65.68,118.51L65.72,118.60L65.77,118.68L65.83,118.76L65.89,118.83L65.97,118.90L66.04,118.96L66.13,119.01L66.22,119.05L66.31,119.08L66.41,119.11L66.50,119.12L66.60,119.12L66.70,119.12L66.80,119.11L66.89,119.08L66.98,119.05L67.07,119.01L67.16,118.96L67.23,118.90L67.31,118.83L67.37,118.76L67.43,118.68L67.48,118.60L67.52,118.51L67.56,118.42L67.58,118.32L67.60,118.22z"/></g><g><path style="fill:#ffffa0" d="M17.70,152.16L80.59,152.16L80.59,143.14L17.70,143.14z"/><path style="stroke:#000000;stroke-width:0.250;stroke-opacity:0.98" d="M17.70,152.16L80.59,152.16L80.59,143.14L17.70,143.14z"/><text xml:space="preserve" fill="#000000" stroke-width="0" x="18.83" y="149.62" font-size="5.51" opacity="1.00" font-family="MS Shell Dlg">Cubierta baja en plstico</text></g></g><g><g><path style="stroke:#000000;stroke-width:0.250;stroke-opacity:0.98" d="M247.49,166.81L207.85,136.51"/></g><g><path style="fill:#000000" d="M208.82,136.50L208.82,136.40L208.81,136.30L208.78,136.21L208.75,136.12L208.71,136.03L208.66,135.94L208.60,135.87L208.53,135.79L208.46,135.73L208.38,135.67L208.30,135.62L208.21,135.58L208.12,135.54L208.02,135.52L207.92,135.50L207.82,135.50L207.73,135.50L207.63,135.52L207.53,135.54L207.44,135.58L207.35,135.62L207.27,135.67L207.19,135.73L207.12,135.79L207.05,135.87L206.99,135.94L206.94,136.03L206.90,136.12L206.87,136.21L206.84,136.30L206.83,136.40L206.82,136.50L206.83,136.60L206.84,136.70L206.87,136.79L206.90,136.88L206.94,136.97L206.99,137.06L207.05,137.13L207.12,137.21L207.19,137.27L207.27,137.33L207.35,137.38L207.44,137.42L207.53,137.46L207.63,137.48L207.73,137.50L207.82,137.50L207.92,137.50L208.02,137.48L208.12,137.46L208.21,137.42L208.30,137.38L208.38,137.33L208.46,137.27L208.53,137.21L208.60,137.13L208.66,137.06L208.71,136.97L208.75,136.88L208.78,136.79L208.81,136.70L208.82,136.60z"/></g><g><path style="fill:#ffffa0" d="M204.60,167.91L290.30,167.91L290.30,158.89L204.60,158.89z"/><path style="stroke:#000000;stroke-width:0.250;stroke-opacity:0.98" d="M204.60,167.91L290.30,167.91L290.30,158.89L204.60,158.89z"/><text xml:space="preserve" fill="#000000" stroke-width="0" x="205.72" y="165.37" font-size="5.51" opacity="1.00" font-family="MS Shell Dlg">Puertos de comunicacin del PCB</text></g></g><g><g><path style="stroke:#000000;stroke-width:0.250;stroke-opacity:0.98" d="M207.89,191.49L186.31,161.72"/></g><g><path style="fill:#000000" d="M187.30,161.70L187.30,161.60L187.28,161.50L187.26,161.41L187.22,161.32L187.18,161.23L187.13,161.14L187.07,161.07L187.01,160.99L186.93,160.93L186.86,160.87L186.77,160.82L186.68,160.78L186.59,160.74L186.49,160.72L186.40,160.70L186.30,160.70L186.20,160.70L186.10,160.72L186.01,160.74L185.92,160.78L185.83,160.82L185.74,160.87L185.67,160.93L185.59,160.99L185.53,161.07L185.47,161.14L185.42,161.23L185.38,161.32L185.34,161.41L185.32,161.50L185.30,161.60L185.30,161.70L185.30,161.80L185.32,161.89L185.34,161.99L185.38,162.08L185.42,162.17L185.47,162.26L185.53,162.33L185.59,162.41L185.67,162.47L185.74,162.53L185.83,162.58L185.92,162.62L186.01,162.66L186.10,162.68L186.20,162.70L186.30,162.70L186.40,162.70L186.49,162.68L186.59,162.66L186.68,162.62L186.77,162.58L186.86,162.53L186.93,162.47L187.01,162.41L187.07,162.33L187.13,162.26L187.18,162.17L187.22,162.08L187.26,161.99L187.28,161.89L187.30,161.80z"/></g><g><path style="fill:#ffffa0" d="M177.30,192.59L238.43,192.59L238.43,183.56L177.30,183.56z"/><path style="stroke:#000000;stroke-width:0.250;stroke-opacity:0.98" d="M177.30,192.59L238.43,192.59L238.43,183.56L177.30,183.56z"/><text xml:space="preserve" fill="#000000" stroke-width="0" x="178.42" y="190.05" font-size="5.50" opacity="1.00" font-family="MS Shell Dlg">Barra de aseguramiento</text></g></g><g><g><path style="stroke:#000000;stroke-width:0.250;stroke-opacity:0.98" d="M238.56,58.07L172.67,123.92"/></g><g><path style="fill:#000000" d="M173.65,123.90L173.65,123.80L173.63,123.70L173.61,123.61L173.57,123.52L173.53,123.43L173.48,123.34L173.42,123.27L173.36,123.19L173.28,123.13L173.21,123.07L173.12,123.02L173.03,122.98L172.94,122.94L172.85,122.92L172.75,122.90L172.65,122.90L172.55,122.90L172.45,122.92L172.36,122.94L172.27,122.98L172.18,123.02L172.09,123.07L172.02,123.13L171.94,123.19L171.88,123.27L171.82,123.34L171.77,123.43L171.73,123.52L171.69,123.61L171.67,123.70L171.65,123.80L171.65,123.90L171.65,124.00L171.67,124.10L171.69,124.19L171.73,124.28L171.77,124.37L171.82,124.46L171.88,124.53L171.94,124.61L172.02,124.67L172.09,124.73L172.18,124.78L172.27,124.82L172.36,124.86L172.45,124.88L172.55,124.90L172.65,124.90L172.75,124.90L172.85,124.88L172.94,124.86L173.03,124.82L173.12,124.78L173.21,124.73L173.28,124.67L173.36,124.61L173.42,124.53L173.48,124.46L173.53,124.37L173.57,124.28L173.61,124.19L173.63,124.10L173.65,124.00z"/></g><g><path style="fill:#ffffa0" d="M196.20,59.24L280.75,59.24L280.75,50.21L196.20,50.21z"/><path style="stroke:#000000;stroke-width:0.250;stroke-opacity:0.98" d="M196.20,59.24L280.75,59.24L280.75,50.21L196.20,50.21z"/><text xml:space="preserve" fill="#000000" stroke-width="0" x="197.32" y="56.70" font-size="5.52" opacity="1.00" font-family="MS Shell Dlg">Chapa de soporte frontal del PCB</text></g></g><g><g><path style="stroke:#000000;stroke-width:0.250;stroke-opacity:0.98" d="M83.43,201.44L43.49,199.51"/></g><g><path style="fill:#000000" d="M44.50,199.50L44.50,199.40L44.48,199.30L44.46,199.21L44.42,199.12L44.38,199.03L44.33,198.94L44.27,198.87L44.21,198.79L44.13,198.73L44.06,198.67L43.97,198.62L43.88,198.58L43.79,198.54L43.70,198.52L43.60,198.50L43.50,198.50L43.40,198.50L43.31,198.52L43.21,198.54L43.12,198.58L43.03,198.62L42.94,198.67L42.87,198.73L42.79,198.79L42.73,198.87L42.67,198.94L42.62,199.03L42.58,199.12L42.54,199.21L42.52,199.30L42.51,199.40L42.50,199.50L42.51,199.60L42.52,199.69L42.54,199.79L42.58,199.88L42.62,199.97L42.67,200.06L42.73,200.13L42.79,200.21L42.87,200.27L42.94,200.33L43.03,200.38L43.12,200.42L43.21,200.46L43.31,200.48L43.40,200.49L43.50,200.50L43.60,200.49L43.70,200.48L43.79,200.46L43.88,200.42L43.97,200.38L44.06,200.33L44.13,200.27L44.21,200.21L44.27,200.13L44.33,200.06L44.38,199.97L44.42,199.88L44.46,199.79L44.48,199.69L44.50,199.60z"/></g><g><path style="fill:#ffffa0" d="M29.89,202.96L137.00,202.96L137.00,190.64L29.89,190.64z"/><path style="stroke:#000000;stroke-width:0.250;stroke-opacity:0.98" d="M29.89,202.96L137.00,202.96L137.00,190.64L29.89,190.64z"/><text xml:space="preserve" fill="#000000" stroke-width="0" x="31.43" y="199.50" font-size="7.30" opacity="1.00" font-family="Microsoft Sans Serif" font-weight="bold">http://proyectahardeo.github.io/</text></g></g><g/><g/><g id="paperID" visibility="hidden" opacity="0.00" transform="scale(0.000100)"><path style="stroke:#000000;stroke-width:0.500;fill:#e6e6e6;fill-rule:evenodd" d="M-2000.00,-2000.00L2297.00,-2000.00L2297.00,2210.00L-2000.00,2210.00zM0.00,0.00L297.00,0.00L297.00,210.00L0.00,210.00z"/><path style="fill:#000000;fill-opacity:0.118" d="M3.00,210.00L297.00,210.00L297.00,3.00L300.00,3.00L300.00,213.00L3.00,213.00z"/></g><g id="hotspot.0" onmouseover="ShowHotSpot(evt,'0')" onmouseout="HideHotSpot(evt,'0')" onmousemove="ShowToolTip(evt,'0',&quot;Pasted Label 0&quot;)" opacity="0"><a xlink:href="http://proyectahardeo.github.io/"><path style="fill:#00ff00;fill-rule:evenodd" d="M25.04,203.02L15.38,203.02L15.38,193.36L25.04,193.36zM24.52,202.49L15.91,202.49L15.91,193.88L24.52,193.88zM16.58,197.18L17.63,195.60L18.53,194.93L23.47,194.41L22.90,199.31L22.27,199.72L19.66,200.78L19.20,201.37L16.98,201.42L16.55,200.80zM136.87,203.02L29.56,203.02L29.56,190.73L136.87,190.73z"/></a></g><g id="ToolTip" visibility="hidden" opacity="0" transform="translate(0,0)"><rect id="ToolTipShadow" opacity="0.20" fill="black" stroke="none" x="0" y="0" width="30" height="8"/><rect id="ToolTipBG" fill="#ffffe1" stroke="black" x="0" y="0" width="30" height="8"/><text xml:space="preserve" id="ToolTipText" fill="black" x="0" y="0" width="30" height="8">tooltip</text></g></g></svg>
