<?xml version="1.0" encoding="utf-8"?>
<!-- Generator: Adobe Illustrator 16.0.0, SVG Export Plug-In . SVG Version: 6.00 Build 0)  -->
<!DOCTYPE svg PUBLIC "-//W3C//DTD SVG 1.1//EN" "http://www.w3.org/Graphics/SVG/1.1/DTD/svg11.dtd">
<svg version="1.1" id="Layer_1" xmlns="http://www.w3.org/2000/svg" xmlns:xlink="http://www.w3.org/1999/xlink" x="0px" y="0px"
	 width="361.315px" height="355.725px" viewBox="0 0 361.315 355.725" enable-background="new 0 0 361.315 355.725"
	 xml:space="preserve">
<g>
	<path fill-rule="evenodd" clip-rule="evenodd" fill="#074BDD" d="M160.692,351.857c-8.583-1.609-17.256-2.709-25.701-5.088
		c-14.165-3.99-27.651-9.6-40.66-16.424c-18.907-9.691-34.848-23.252-48.851-38.953c-18.67-20.932-31.671-45.124-38.677-72.385
		c-2.624-10.209-4.535-20.518-5.27-31.103c-0.389-5.601-0.62-11.182-0.52-16.76c0.323-18.123,3.586-35.768,9.621-52.846
		c6.788-19.209,16.613-36.758,29.537-52.546c6.655-8.131,14.19-15.391,21.986-22.401c9.381-7.286,18.979-14.278,29.467-19.895
		c20.949-11.219,43.253-18.087,66.935-20.404c32.621-3.19,63.979,1.508,93.957,14.938c18.035,8.08,34.358,18.697,49.073,31.956
		c17.035,15.348,30.336,33.401,40.7,53.744c4.02,8.604,7.702,17.351,10.474,26.44c5.163,16.94,7.672,34.237,7.457,52
		c-0.264,21.799-4.432,42.731-12.566,62.918c-9.774,24.256-24.559,45.055-43.758,62.676c-12.65,11.613-26.971,20.898-42.331,28.563
		c-13.439,6.707-27.698,11.127-42.359,13.947c-6.286,1.209-12.556,3.254-19.123,2.861c-2.92,0.152-5.874-0.375-8.75,0.51
		c-5.212,0.629-10.424,0.742-15.637,0c-3.253-0.924-6.58-0.33-9.872-0.482C164.061,352.918,162.066,353.639,160.692,351.857z"/>
	<path fill-rule="evenodd" clip-rule="evenodd" fill="#C5985F" d="M341.507,103.845c-9.538-18.115-21.16-34.698-35.958-48.949
		c-22.828-21.985-49.509-37.213-80.093-45.531c-27.941-7.599-56.188-8.485-84.51-2.734c-28.232,5.734-53.66,17.722-76.084,35.922
		c-0.665,0.539-1.439,0.942-2.162,1.409c-0.827-0.238-1.691,1.728-2.491-0.043c12.768-11.826,27.422-20.806,43.185-27.933
		C130.876,3.56,159.795-1.706,189.858,0.483c50.943,3.708,93.597,24.646,127.526,62.906c14.778,16.664,25.982,35.528,33.147,56.702
		c0.629,1.858,1.372,3.678,2.063,5.515c-2.914,0.536-2.683-2.185-3.132-3.524c-1.923-5.739-4.31-11.257-6.999-16.662
		C342.187,104.864,341.911,104.318,341.507,103.845z"/>
	<path fill-rule="evenodd" clip-rule="evenodd" fill="#BE9972" d="M341.507,103.845c3.857,4.58,5.432,10.247,7.531,15.677
		c0.848,2.19,0.806,4.978,3.557,6.084c3.938,10.594,6.098,21.613,7.438,32.777c2.586,21.528,1.28,42.875-4.072,63.886
		c-8.111,31.843-23.91,59.315-47.495,82.257c-16.543,16.094-35.775,27.988-56.927,37.07c-11.202,4.811-22.951,7.365-34.757,9.859
		c-5,1.059-10.048,1.891-15.074,2.824c-3.449,0.365-7.104-0.746-10.297,1.445c-7.474-0.039-14.946-0.08-22.42-0.121
		c-2.066-2.098-4.832-1.178-7.27-1.654c-2.622-0.514-5.449,0.26-7.92-1.248c2.11-1.814,4.657-0.041,6.892-0.844
		c1.76,0.078,3.52,0.158,5.28,0.236c3.171,1.008,6.502-0.238,9.68,0.686c5.283,0.008,10.566,0.016,15.851,0.023
		c2.917-0.934,5.984,0.217,8.907-0.645c10.839-0.824,21.348-3.221,31.846-6.006c11.631-3.086,22.567-7.637,33.238-13.088
		c20.315-10.377,37.938-24.127,52.797-41.418c17.017-19.803,28.862-42.279,35.45-67.6c7.517-28.891,7.506-57.688,0.001-86.554
		c-2.803-10.781-6.603-21.169-11.384-31.215C341.991,105.506,341.786,104.658,341.507,103.845z"/>
	<path fill-rule="evenodd" clip-rule="evenodd" fill="#B8997E" d="M60.209,43.919c0.817,0.743,1.667-0.381,2.49,0.043
		c-5.602,5.677-11.692,10.851-17.007,16.831c-17.6,19.802-30.313,42.263-37.466,67.844c-4.914,17.575-7.239,35.457-6.335,53.666
		c1.074,21.618,5.915,42.363,14.648,62.271c10.096,23.012,24.531,42.795,42.858,59.83c9.623,8.943,20.159,16.68,31.56,23.232
		c1.242,0.713,2.891,1.014,3.373,2.709c-3.949,0.205-6.666-2.545-9.557-4.422c-38.879-25.236-65.701-59.694-78.192-104.563
		c-11.607-41.692-7.78-82.236,10.828-121.348c9.773-20.542,23.007-38.52,39.873-53.802C58.198,45.381,59.23,44.68,60.209,43.919z"/>
	<path fill-rule="evenodd" clip-rule="evenodd" fill="#878372" d="M153.801,352.701c4.466,0.313,8.954-0.059,13.422,0.729
		c1.638,0.287,2.2,0.6,1.767,2.176c-6.66,0.096-13.164-1.645-19.888-1.973C150.668,353.322,152.234,353.012,153.801,352.701z"/>
	<path fill-rule="evenodd" clip-rule="evenodd" fill="#847559" d="M191.41,355.725c-0.063-1.096,0.138-2.133,1.492-2.061
		c2.938,0.154,5.959-0.803,8.805,0.617C198.381,355.521,194.906,355.699,191.41,355.725z"/>
	<path fill-rule="evenodd" clip-rule="evenodd" fill="#C38881" d="M236.486,300.9c-0.746-10.838-0.037-21.691-0.267-32.535
		c-0.046-2.123-0.292-4.294,0.052-6.36c1.188-7.147-1.852-12.007-6.975-16.853c-4.646-4.395-9.015-6.561-15.608-6.559
		c-24.093,0.014-48.186-0.754-72.279-1.14c-1.855-0.029-4.068-0.923-5.534,1.187c-0.502,0.838-1.227,0.749-1.999,0.477
		c-0.339-0.289-0.449-0.644-0.338-1.074c0.653-1.564,1.945-2.19,3.521-2.412c9.048-0.207,18.095-0.039,27.142-0.102
		c2.094,0.061,4.198-0.107,6.278,0.275c1.687,0.617,3.448,0.46,5.19,0.48c10.859,0.126,21.722-0.256,32.574,0.221
		c14.724-0.877,14.565-0.711,25.198,9.436c4.04,3.854,5.792,7.834,5.608,13.443c-0.385,11.727-0.138,23.477-0.104,35.217
		c0.011,3.654,0.394,3.967,3.557,2.281c10.374-5.522,20.144-11.872,28.987-19.744c8.752-7.787,16.054-16.663,22.541-26.328
		c1.531-2.281,2.206-4.6,2.172-7.34c-0.104-8.367,0.003-16.736-0.06-25.104c-0.022-3.026,0.25-5.979,1.194-8.863
		c0.367-1.354,0.267-2.732,0.268-4.102c0.011-28.561,0.009-57.123,0-85.685c-0.001-1.365,0.128-2.749-0.344-4.075
		c-0.352-0.604-0.615-1.244-0.76-1.928c-0.135-0.943-0.068-1.833,0.728-2.507c1.954,2.013,2.373,4.432,2.362,7.184
		c-0.157,38.669-0.224,77.338-0.35,116.007c-0.009,2.732-0.238,5.451-0.07,8.201c0.192,3.156-0.526,6.164-2.418,8.839
		c-1.214,1.717-2.242,3.564-3.353,5.353c-1.583,3.114-3.669,5.846-6.233,8.213c-0.196,0.203-0.394,0.406-0.59,0.609
		c-4.653,7.658-11.479,13.103-18.604,18.24c-1.075,0.32-1.74,1.133-2.376,1.98c-6.846,5.206-13.585,10.58-21.767,13.656l0.045-0.029
		C241.443,300.098,239.464,303.061,236.486,300.9z"/>
	<path fill-rule="evenodd" clip-rule="evenodd" fill="#C48780" d="M297.229,111.207c-0.018,0.79-0.035,1.579-0.053,2.369
		c-2.433-0.05-2.753-2.341-3.69-3.757c-11.766-17.764-26.627-32.263-44.957-43.182c-2.043-1.216-4.26-2.115-6.231-3.423
		c-2.467-1.637-3.13-0.209-3.264,1.844c-0.237,3.613-0.087,7.239-0.091,10.86c-0.013,9.864-0.097,19.729,0.045,29.591
		c0.051,3.515-0.783,6.206-3.802,8.359c-2.729,1.946-5.007,4.522-7.239,7.038c-2.358,2.659-5.157,3.455-8.627,3.556
		c-13.111,0.381-26.175-0.986-39.275-0.827c-6.367,0.078-12.742-0.171-19.102,0.062c-7.382,0.27-14.679-1.045-22.045-0.858
		c-1.525,0.04-3.029-0.3-4.188-1.356c-4.247-3.867-8.34-7.893-12.147-12.196c-0.582-0.658-0.9-1.493-1.044-2.382
		c-0.284-15.082-0.097-30.16-0.085-45.237c0.001-1.289-0.231-2.844,1.506-3.447c0.907,10.589,0.147,21.202,0.45,31.799
		c0.007,0.25-0.011,0.5-0.011,0.75c0.011,5.243-1.501,11.163,0.444,15.55c2.131,4.808,7.49,8.167,11.362,12.235
		c1.322,1.389,2.79,1.815,4.661,1.836c22.352,0.262,44.702,0.593,67.052,0.903c0.875,0.012,1.751-0.027,2.623,0.02
		c14.924,0.8,15.883,0.341,25.752-11.168c1.338-1.561,1.205-3.197,1.209-4.904c0.027-13.618,0.01-27.235,0.032-40.853
		c0.01-6.091,1.011-6.682,6.507-3.828c21.967,11.406,39.574,27.602,53.032,48.342C296.52,109.622,296.84,110.437,297.229,111.207z"
		/>
	<path fill-rule="evenodd" clip-rule="evenodd" fill="#C5857D" d="M104.525,290.341c-3.973-2.942-7.945-5.884-11.918-8.825
		c-2.789-1.404-4.256-4.354-6.91-5.915c-8.714-9.102-16.826-18.671-23.339-29.52c-1.09-1.815-1.344-3.672-1.349-5.708
		c-0.067-33.079-0.015-66.16-0.364-99.237c-0.087-8.213,0.45-16.456-0.449-24.667c-0.225-2.046-0.48-4.278,1.289-5.977
		c0.903-0.263,1.224,0.313,1.463,1.014c0.08,0.466,0.063,0.927-0.039,1.386c-0.183,18.248-0.416,36.494,0.132,54.732
		c0.558,1.95,0.405,3.957,0.406,5.947c0.013,21.582,0.041,43.163-0.031,64.745c-0.011,3.127,0.792,5.786,2.471,8.418
		c5.857,9.178,12.425,17.8,20.328,25.279c9.629,9.113,20.172,17.034,32.177,22.847c0.385,0.137,0.759,0.299,1.128,0.457
		c2.788,0.33,1.824-1.865,1.84-3.029c0.104-7.867,0.054-15.738,0.054-23.605c-0.001-5.121,0.121-10.246-0.047-15.361
		c-0.105-3.227,0.781-5.831,3.232-7.994c1.868-1.648,3.515-3.548,5.341-5.252c0.989-0.925,1.959-2.022,3.576-1.416
		c0.128,0.134,0.254,0.27,0.378,0.406c-0.814,3.59-3.949,5.356-6.317,7.6c-2.479,2.349-3.399,4.774-3.351,8.184
		c0.194,13.365,0.088,26.735,0.075,40.104c-0.005,4.391-0.928,5.164-5.138,4.025c-4.011-1.084-7.759-2.838-10.785-5.734
		C107.183,292.1,105.522,291.676,104.525,290.341z"/>
	<path fill-rule="evenodd" clip-rule="evenodd" fill="#AD9187" d="M271.038,313.182c3.812,0.252,4.502,3.604,5.44,6.154
		c0.811,2.201-1.717,2.959-3.327,3.797c-8.281,4.311-16.641,8.475-24.842,12.932c-3.053,1.658-4.591,1.023-6.182-1.93
		c-3.6-6.686-7.482-13.221-11.305-19.785c-1.519-2.609-1.513-4.615,1.596-6.025c1.668-0.756,3.182-1.852,4.765-2.795
		c2.69-1.615,5.615-2.785,8.327-4.359l-0.03,0.021c2.572-0.977,4.677-2.736,6.977-4.17c1.27-0.793,2.585-1.508,3.956-2.098
		c5.374-2.308,7.074-1.527,9.157,4.139c0.12,0.941,0.359,1.887-0.13,2.801c-0.2,0.986-1.005,1.295-1.785,1.717
		c-5.34,2.881-10.697,5.725-16.123,8.438c4.841-2.352,9.594-4.875,14.332-7.426c1.388-0.746,2.759-1.912,4.393-0.473
		c1.778,2.145,3.74,4.213,3.131,7.373c-0.703,1.639-2.237,2.254-3.688,2.943c-4.581,2.178-8.813,4.992-13.354,7.252
		C258.752,319.229,264.237,314.76,271.038,313.182z"/>
	<path fill-rule="evenodd" clip-rule="evenodd" fill="#AD9186" d="M217.591,24.353c0.547,2.509-0.515,4.852-0.752,7.28
		c-2.467,2.5-5.393,1.198-8.105,0.814c-2.813-0.398-5.55-1.33-9.178-1.199c5.73,1.396,11.052,1.411,15.816,3.717l-0.018-0.018
		c3.65,2.014,1.486,4.994,1.068,7.519c-0.403,2.435-2.533,2.573-4.635,2.542c-1.642-0.024-3.16-0.347-4.627-1.031
		c-6.116-1.091-12.229-2.194-18.349-3.267c-2.542-0.446-3.582-1.672-3.076-4.422c1.527-8.301,2.974-16.623,4.211-24.972
		c0.433-2.924,1.744-3.882,4.48-3.395c7.701,1.371,15.425,2.625,23.099,4.135c4.032,0.794,4.391,5.962,0.819,10.091
		c-2.313,1.076-4.608-0.006-6.815-0.328c-2.727-0.398-5.426-1.14-7.234-1.356c2.939-0.044,6.541,1.737,10.455,1.79
		C216.002,22.27,217.054,23.096,217.591,24.353z"/>
	<path fill-rule="evenodd" clip-rule="evenodd" fill="#AC9186" d="M86.351,279.606c4.405,4.575,4.404,5.347-0.15,9.452
		c-5.276,4.758-10.637,9.426-15.831,14.271c-1.966,1.834-3.556,2.092-5.304-0.064c-0.156-0.193-0.362-0.342-0.536-0.521
		c-5.729-5.896-6.684-5.629,0.024-11.326c1.523-1.295,1.527-2.266,0.166-3.647c-2.796-2.839-5.602-5.685-8.176-8.72
		c-1.806-2.13-3.404-2.238-5.158-0.215c-4.451,5.133-5.348,4.982-10.636-0.958c-2.585-2.903-2.432-4.489,0.399-6.913
		c5.774-4.941,11.333-10.141,16.861-15.361c1.879-1.773,3.378-1.76,5.064,0.051c0.594,0.637,1.287,1.182,1.896,1.805
		c4.532,4.633,4.594,5.041-0.244,9.301c-2.214,1.95-2.836,3.346-0.219,5.564c2.549,2.162,4.863,4.691,6.885,7.358
		c2.246,2.963,4.06,2.464,6.098-0.005c0.473-0.574,1.013-1.092,1.521-1.635C82.062,275.437,82.062,275.437,86.351,279.606z"/>
	<path fill-rule="evenodd" clip-rule="evenodd" fill="#AD9184" d="M244.957,56.095c-8.047-1.874-15.758-4.674-22.199-10.006
		c-3.822-3.166-1.841-7.511-0.758-11.179c1.229-4.16,3.2-8.112,5.599-11.796c3.28-5.037,5.505-6.13,11.249-4.529
		c6.254,1.743,12.294,4.129,17.64,7.945c3.897,2.782,4.321,10.072,0.876,13.337c-0.862,0.817-1.702,0.928-2.706,0.446
		c-2.802-1.348-6.32-1.575-7.118-5.723c-0.379-1.967-8.808-5.372-10.538-4.425c-3.051,1.67-3.396,5.029-4.241,7.985
		c-0.13,0.456,0.311,1.193,0.675,1.653c2.178,2.753,8.556,3.96,12.057,2.935c3.085-0.904,5.885,0.833,8.052,2.81
		c1.994,1.82-0.011,3.679-0.989,5.281C250.845,53.63,249.005,56.398,244.957,56.095z"/>
	<path fill-rule="evenodd" clip-rule="evenodd" fill="#AB9188" d="M177.214,326.117c0.108,1.646,0.073,3.986-1.186,5.092
		c-3.768,3.305-2.309,6.996-1.756,10.869c0.732,5.127-0.47,6.109-5.48,5.264c-1.229-0.207-2.469-0.357-3.7-0.553
		c-2.247-0.357-3.81-1.404-3.438-3.957c0.433-2.973-1.102-3.986-3.744-4.297c-2.843-0.334-5.665-0.854-8.489-1.332
		c-2.202-0.373-3.602,0.07-3.755,2.721c-0.176,3.014-1.78,3.857-4.857,3.283c-8.169-1.523-8.217-1.389-7.182-9.477
		c0.789-6.172,1.669-12.332,2.459-18.504c0.366-2.855,1.716-4.266,4.753-3.783c8.979,1.424,18.027,2.494,26.934,4.277
		C174.82,317.133,177.247,320.225,177.214,326.117z"/>
	<path fill-rule="evenodd" clip-rule="evenodd" fill="#AD9083" d="M111.221,55.745c-0.939,2.725-3.738,3.602-6.035,4.934
		c-1.613,0.936-2.869-0.176-3.713-1.553c-1.75-2.854-3.777-2.842-6.14-0.765c-0.649,0.571-1.396,1.088-2.185,1.436
		c-3.372,1.488-4.821,3.329-1.666,6.536c1.474,1.498,0.999,2.913-0.741,3.996c-1.057,0.658-2.115,1.339-3.063,2.14
		c-2.26,1.911-3.986,1.412-5.573-0.917c-4.759-6.986-9.516-13.975-14.397-20.874c-1.889-2.669-1.431-4.367,1.302-6.06
		c4.88-3.022,9.537-6.403,14.419-9.422c8.24-5.097,13.966-3.795,17.598,5.14c1.926,4.738,4.146,8.621,8.125,11.674
		C110.202,52.816,111.047,54.016,111.221,55.745z"/>
	<path fill-rule="evenodd" clip-rule="evenodd" fill="#AA908A" d="M229.662,332.434c0.091,6.572-2.907,10.225-9.442,11.35
		c-9.432,1.623-18.895,3.082-28.3,4.844c-2.772,0.52-3.931-0.307-4.453-2.904c-1.595-7.922-3.269-15.828-4.931-23.736
		c-0.52-2.475,0.537-3.818,2.936-4.23c10.056-1.734,20.098-3.561,30.177-5.143c4.941-0.775,8.663,1.514,10.839,6.076
		C228.132,322.137,229.608,328.529,229.662,332.434z"/>
	<path fill-rule="evenodd" clip-rule="evenodd" fill="#AB9086" d="M165.345,41.539c-4.473,0.128-5.459-0.534-5.289-5.028
		c0.167-4.44-1.259-7.846-4.338-10.991c-3.652-3.73-6.916-7.84-10.349-11.785c-0.738-0.848-1.61-1.671-1.009-2.949
		c0.561-1.188,1.696-1.24,2.83-1.44c6.069-1.069,10.794,0.351,14.17,6.076c2.422,4.108,2.843,3.868,5.156-0.307
		c0.302-0.544,0.72-1.048,0.903-1.628c1.927-6.069,6.983-6.197,11.978-6.199c3.031-0.001,3.764,1.432,2.184,4.076
		c-2.809,4.699-5.493,9.506-8.717,13.912c-2.297,3.137-2.635,6.299-2.109,9.853C171.595,40.813,171.107,41.375,165.345,41.539z"/>
	<path fill-rule="evenodd" clip-rule="evenodd" fill="#AA9087" d="M288.397,268.934c5.706-4.602,9.208-4.797,15.17-0.828
		c3.775,2.514,6.896,5.742,9.75,9.215c2.656,3.232,3.075,6.754,0.639,10.332c-5.733,8.42-12.944,15.42-21.138,21.385
		c-2.47,1.799-5.496,1.67-8.225,0.256c-5.533-2.865-9.796-7.162-13.387-12.203c-3.101-4.349-0.827-8.018,1.351-11.709
		c0.625-1.058,1.4-2.027,2.105-3.039C278.599,277.213,282.837,272.396,288.397,268.934z"/>
	<path fill-rule="evenodd" clip-rule="evenodd" fill="#AA9087" d="M118.599,301.254c0.214,0.213,0.428,0.426,0.642,0.639
		c1.671,4.979,0.966,10.225,1.717,15.303c0.653,4.422-0.073,8.896,0.658,13.307c-0.007,0.621-0.018,1.242-0.02,1.865
		c-0.008,4.205-1.139,4.9-4.908,2.998c-1.776-0.896-3.503-1.902-5.318-2.711c-1.797-0.801-2.789-2.021-2.613-4.02
		c0.194-2.207-0.944-3.412-2.837-4.297c-2.705-1.262-5.36-2.641-7.979-4.074c-2.571-1.408-4.892-2.512-7.859-0.447
		c-2.484,1.729-4.715-0.637-6.845-1.66c-2.054-0.984-5.197-1.551-5.324-4.135c-0.132-2.676,3.084-3.225,5.013-4.408
		c7.627-4.686,15.327-9.25,23.001-13.859c1.24-0.963,2.59-0.777,3.815-0.127C112.835,297.27,116.497,298.045,118.599,301.254z"/>
	<path fill-rule="evenodd" clip-rule="evenodd" fill="#AB9188" d="M309.333,67.818c4.339,0.082,9.22,8.164,7.222,11.899
		c-4.174,7.807-8.321,15.627-12.455,23.455c-2.259,4.276-3.303,4.435-6.267,0.807c-2.17-2.656-5.068-5.153-1.947-9
		c0.684-0.843,0.059-1.634-0.521-2.333c-1.984-2.403-3.984-4.795-5.929-7.23c-1.083-1.358-2.328-0.978-3.728-0.675
		c-2.566,0.554-8.904-4.991-8.747-7.574c0.08-1.323,1.063-2.027,2.169-2.298c9.685-2.368,19.384-4.674,29.082-6.987
		C308.57,67.794,308.958,67.834,309.333,67.818z"/>
	<path fill-rule="evenodd" clip-rule="evenodd" fill="#AC9086" d="M270.464,33.118c1,0.567,2.042,1.017,2.922,1.68
		c6.463,4.869,12.78,9.939,19.374,14.622c4.134,2.937,1.144,4.885-0.372,7.291c-1.684,2.669-3.346,3.638-6.297,1.415
		c-5.498-4.14-5.574-3.999-9.625,1.335c-2.406,3.169-4.915,6.26-7.323,9.427c-1.397,1.839-2.884,2.178-4.747,0.682
		c-0.967-0.776-2.05-1.407-3.062-2.129c-2.133-1.522-2.432-3.226-0.738-5.366c3.165-3.999,6.049-8.232,9.385-12.078
		c1.901-2.192,1.399-3.34-0.737-4.574c-0.428-0.247-0.78-0.62-1.178-0.92c-4.497-3.396-4.097-7.992,0.955-10.813
		C269.438,33.458,269.914,33.333,270.464,33.118z"/>
	<path fill-rule="evenodd" clip-rule="evenodd" fill="#AC9188" d="M105.353,30.988c-0.478-7.084,3.072-9.028,6.539-10.721
		c5.268-2.571,10.883-4.252,16.654-5.323c4.619-0.856,7.264,0.347,9.748,4.369c3.381,5.472,5.341,11.47,6.45,17.767
		c0.653,3.708-1.08,6.412-4.15,8.047c-6.739,3.591-13.878,6.108-21.538,6.885c-2.676,0.272-4.895-0.608-6.525-2.823
		C108.049,43.102,106.248,36.054,105.353,30.988z"/>
	<path fill-rule="evenodd" clip-rule="evenodd" fill="#AB9084" d="M74.634,71.951c0.041,2.415-1.246,4.305-2.594,6.091
		c-1.426,1.888-2.901,3.804-4.667,5.352c-2.68,2.349-3.704,4.371-0.172,6.831c1.488,1.036,1.506,2.467,0.144,3.822
		c-0.974,0.968-1.914,1.976-2.798,3.026c-1.774,2.109-3.453,1.895-5.408,0.136c-6.309-5.676-12.659-11.307-19.076-16.86
		c-2.262-1.957-2.586-3.549-0.314-5.836c3.779-3.805,7.224-7.938,10.921-11.828c6.413-6.747,10.056-6.946,17.259-0.972
		c1.723,1.429,3.288,3.069,4.796,4.73C74.112,67.972,74.817,69.832,74.634,71.951z"/>
	<path fill-rule="evenodd" clip-rule="evenodd" fill="#BF9565" d="M48.276,176.93c0.222,8.216-6.659,15.159-15.183,15.321
		c-8.719,0.165-16.133-6.988-16.288-15.714c-0.15-8.494,6.488-15.161,15.449-15.517C40.687,160.686,48.035,167.983,48.276,176.93z"
		/>
	<path fill-rule="evenodd" clip-rule="evenodd" fill="#C2827C" d="M62.486,111.405c-0.334-0.304-0.667-0.609-1.001-0.913
		c13.652-23.293,32.773-40.645,57.03-52.379c1.358-0.658,3.021-2.372,4.424,0.106c-0.889,1.238-0.476,2.654-0.479,3.984
		c-0.045,15.171-0.048,30.343-0.062,45.515c-2.406-0.758-1.633-2.843-1.644-4.396c-0.086-12.474-0.045-24.948-0.047-37.423
		c-0.001-0.874-0.049-1.75,0.006-2.62c0.139-2.216-0.462-2.986-2.759-1.877c-9.145,4.415-17.583,9.909-25.405,16.36
		c-10.86,8.958-19.902,19.502-27.32,31.46C64.608,110.221,64.063,111.516,62.486,111.405z"/>
	<path fill-rule="evenodd" clip-rule="evenodd" fill="#C39764" d="M312.947,176.618c0.512-2.888,2.355-4.901,4.437-6.757
		c0.855,0.28,1.203,0.901,1.192,1.765c-0.104,0.627-0.412,1.162-0.744,1.695c-3.515,5.649-3.115,10.955,1.176,15.703
		c3.569,3.95,10.808,5.004,15.945,2.519c2.162-1.045,3.536-3.177,5.863-3.918c1.312,0.489,1.259,1.317,0.575,2.303
		c-3.373,5.596-8.473,7.743-14.77,7.036c-6.972-0.782-11.461-4.77-13.691-11.37C312.323,182.601,312.292,179.608,312.947,176.618z"
		/>
	<path fill-rule="evenodd" clip-rule="evenodd" fill="#1C4AC5" d="M118.599,301.254c-4.242-1.791-7.747-5.283-12.674-5.5
		c2.248-2.506-0.566-3.703-1.399-5.412c4.451,2.459,8.859,5,13.365,7.355c4.763,2.492,5.991,1.727,5.993-3.541
		c0.003-13.447,0.039-26.898-0.078-40.346c-0.024-2.801,0.634-4.883,2.814-6.842c2.648-2.381,5.623-4.565,7.273-7.904
		c0.66-0.141,1.321-0.281,1.981-0.424c-2.323,3.753-5.873,6.369-8.902,9.457c-1.604,1.637-2.329,3.262-2.313,5.576
		c0.098,13.58,0.052,27.16,0.049,40.74c-0.001,5.074-0.008,5.068-5.129,5.467C118.75,299.945,118.776,300.689,118.599,301.254z"/>
	<path fill-rule="evenodd" clip-rule="evenodd" fill="#AA9691" d="M341.392,189.927c-0.051-0.733,0.13-1.521-0.499-2.118
		c-0.756-0.807-0.305-1.655,0.008-2.422c1.996-4.897,0.436-9.073-2.908-12.611c-3.601-3.81-8.133-4.901-13.302-3.735
		c-2.26,0.509-4.008,2.454-6.504,2.15c-0.268-0.443-0.534-0.888-0.802-1.332c9.389-8.025,24.532-3.348,26.79,9.472
		C344.861,183.229,344.282,186.912,341.392,189.927z"/>
	<path fill-rule="evenodd" clip-rule="evenodd" fill="#134ACD" d="M288.397,268.934c-4.578,4.469-9.155,8.938-13.733,13.408
		c-0.216-1.832-0.876-2.54-2.419-0.941c-1.189,1.232-2.495,2.248-4.271,2.453c6.471-5.805,12.762-11.793,18.604-18.24
		C286.526,267.08,284.82,269.454,288.397,268.934z"/>
	<path fill-rule="evenodd" clip-rule="evenodd" fill="#164ACB" d="M265.57,299.063c-0.485-0.711-1.06-1.379-1.437-2.143
		c-1.378-2.795-3.18-3.211-6.036-1.832c-4.207,2.027-7.934,5.07-12.617,6.104c0.537-1.498,2.718-1.125,3.2-2.805
		c-1.899-0.705-3.092,1.482-4.85,1.105c5.271-3.277,10.527-6.578,15.821-9.815c2.016-1.231,3.613-3.105,5.945-3.842
		c-2.119,3.214-5.953,4.509-8.64,7.437C263.713,293.297,265.036,294.221,265.57,299.063z"/>
	<path fill-rule="evenodd" clip-rule="evenodd" fill="#254AB9" d="M271.038,313.182c-5.91,3.158-11.808,6.342-17.748,9.443
		c-0.873,0.455-2.135,1.598-2.892,0.09c-0.786-1.57,0.971-1.725,1.827-2.184c5.701-3.051,11.438-6.033,17.162-9.039
		C269.429,312.551,270.064,313.031,271.038,313.182z"/>
	<path fill-rule="evenodd" clip-rule="evenodd" fill="#274DBD" d="M215.372,34.965c-5.134-0.825-10.272-1.621-15.397-2.503
		c-0.9-0.155-2.32-0.247-2.166-1.537c0.188-1.572,1.514-1.184,2.646-0.988c4.271,0.74,8.569,1.338,12.815,2.198
		c1.354,0.274,2.423-0.042,3.569-0.502C217.551,33.271,213.265,32.712,215.372,34.965z"/>
	<path fill-rule="evenodd" clip-rule="evenodd" fill="#5B5588" d="M266.257,304.119c-4.854,0.191-8.308,3.623-12.464,5.428
		c-2.821,1.227-5.489,2.805-8.226,4.225c-0.172-0.309-0.344-0.615-0.516-0.922c6.798-3.662,13.596-7.326,20.391-10.988
		C265.713,302.615,265.985,303.367,266.257,304.119z"/>
	<path fill-rule="evenodd" clip-rule="evenodd" fill="#1C4AC5" d="M121.615,330.502c-1.275-4.605-0.665-9.379-1.267-14.059
		c-0.62-4.816-0.758-9.697-1.107-14.551c1.568,1.061,1.534,2.912,1.582,4.348C121.097,314.326,122.284,322.387,121.615,330.502z"/>
	<path fill-rule="evenodd" clip-rule="evenodd" fill="#555692" d="M217.591,24.353c-4.988-2.428-10.556-2.337-15.802-3.641
		c-0.657-0.163-1.557,0.122-1.919-1.613c6.332,1.044,12.404,2.046,18.477,3.048C218.094,22.883,217.843,23.617,217.591,24.353z"/>
	<path fill-rule="evenodd" clip-rule="evenodd" fill="#274DBD" d="M207.161,43.978c0.859,0.095,1.717,0.205,2.578,0.283
		c2.033,0.184,4.67,1.455,5.745-0.987c1.131-2.567,2.554-5.611-0.13-8.326c2.997,0.144,2.33,2.434,2.281,4.157
		c-0.067,2.371-0.239,5.271-2.84,5.945C212.367,45.678,209.38,46.514,207.161,43.978z"/>
	<path fill-rule="evenodd" clip-rule="evenodd" fill="#134ACD" d="M287.167,265.004c1.852-2.909,3.894-5.674,6.233-8.212
		C292.59,260.491,290.354,263.108,287.167,265.004z"/>
	<path fill-rule="evenodd" clip-rule="evenodd" fill="#1A4AC6" d="M86.351,279.606c-2.28-1.297-4.086-4.823-7.338-1.564
		C81.57,274.383,83.442,274.781,86.351,279.606z"/>
	<path fill-rule="evenodd" clip-rule="evenodd" fill="#1A4AC6" d="M85.697,275.601c2.921,1.25,4.764,3.759,6.91,5.915
		C89.299,280.718,87.725,277.896,85.697,275.601z"/>
	<path fill-rule="evenodd" clip-rule="evenodd" fill="#164ACB" d="M245.511,301.17c-2.405,2.16-5.24,3.5-8.327,4.359
		C239.491,303.182,242.397,301.979,245.511,301.17z"/>
	<path fill-rule="evenodd" clip-rule="evenodd" fill="#164ACB" d="M236.486,300.9c2.807,1.285,4.824-1.486,7.39-1.439
		c-1.102,1.635-3.023,1.939-4.605,2.77C237.926,302.936,236.929,302.367,236.486,300.9z"/>
	<path fill-rule="evenodd" clip-rule="evenodd" fill="#878372" d="M175.652,352.779c-3.232-0.158-6.546,0.832-9.681-0.686
		C169.214,352.115,172.49,351.637,175.652,352.779z"/>
	<path fill-rule="evenodd" clip-rule="evenodd" fill="#4E5EAB" d="M312.947,176.618c-0.006,2.991-0.011,5.983-0.017,8.975
		C311.488,182.599,311.602,179.607,312.947,176.618z"/>
	<path fill-rule="evenodd" clip-rule="evenodd" fill="#878372" d="M200.41,352.158c-2.89,1.332-5.933,0.533-8.909,0.645
		C194.41,351.736,197.419,352.063,200.41,352.158z"/>
	<path fill-rule="evenodd" clip-rule="evenodd" fill="#B9080D" d="M62.486,111.405c6.88-10.733,14.467-20.888,23.917-29.546
		c9.624-8.817,20.25-16.126,31.967-21.909c3.013-1.486,3.437-0.697,3.416,2.268c-0.099,13.851-0.035,27.703,0.014,41.553
		c0.005,1.322-0.451,2.762,0.599,3.945c4.196,4.269,8.441,8.492,12.562,12.832c1.313,1.383,2.855,1.309,4.462,1.387
		c16.473,0.804,32.963,0.466,49.443,0.764c10.736,0.195,21.473,0.362,32.206,0.636c2.027,0.051,3.515-0.535,4.953-1.978
		c3.348-3.36,6.792-6.633,10.342-9.779c1.646-1.457,1.705-3.17,1.703-5.074c-0.01-13.244-0.021-26.488,0.03-39.732
		c0.027-6.932,0.115-6.984,6.072-3.768c21.454,11.584,38.578,27.788,51.525,48.43c0.46,0.735,0.984,1.429,1.479,2.142
		c0.153,0.277,0.308,0.556,0.461,0.834c1.143,0.686,0.621,1.808,0.622,2.718c0.029,30.246,0.027,60.492,0.016,90.739
		c0,0.85,0.232,1.766-0.436,2.51c-1.036,11.219-0.312,22.467-0.486,33.699c-0.037,2.345-0.55,4.336-1.815,6.314
		c-13.312,20.814-31.106,36.609-53.171,47.639c-4.526,2.262-4.565,2.209-4.563-2.785c0.008-13.369-0.033-26.739,0.096-40.107
		c0.023-2.467-0.586-4.336-2.495-5.87c-0.969-0.778-1.785-1.745-2.669-2.628c-9.904-9.893-9.904-9.893-24.023-9.391
		c-11.424-0.65-22.857-0.115-34.284-0.314c-1.337-0.023-2.738,0.391-4.011-0.387c-1.931-0.01-3.863-0.02-5.795-0.029
		c-9.639-0.525-19.277-0.502-28.917-0.018c-0.729,0.719-1.459,1.439-2.188,2.158c-3.949,2.693-6.844,6.518-10.369,9.665
		c-1.184,1.058-0.793,2.563-0.793,3.897c0.01,13.979,0.064,27.955,0.058,41.934c0,1.039,0.604,2.496-0.648,3.041
		c-1.233,0.537-2.352-0.285-3.164-1.326c1.36-1.701,1.294-3.734,1.265-5.727c-0.184-12.492,0.444-24.991-0.357-37.477
		c-0.145-2.255,0.691-4.156,2.148-5.817c1.484-1.693,3.394-3.043,4.671-4.858c6.419-9.117,15.51-9.852,25.369-8.363
		c1.362,0.207,2.723,0.401,4.102,0.381c20.489-0.299,40.958,1.412,61.444,0.694c4.918-0.173,8.721,1.443,12.034,4.849
		c2.353,2.418,4.702,4.848,7.174,7.141c3.08,2.858,3.995,6.324,4.032,10.446c0.099,10.983-0.78,21.937-0.737,32.913
		c0.003,0.873-0.042,1.752,0.032,2.623c0.26,3.025,1.038,3.455,3.829,2.023c16.594-8.515,30.785-20.031,42.149-34.798
		c10.951-14.231,8.382-9.505,8.892-25.796c1.164-37.223,0.474-74.452,0.766-111.676c0.034-4.338-1.092-7.983-3.519-11.542
		c-12.239-17.949-27.603-32.529-46.401-43.434c-4.874-2.828-4.992-2.695-4.997,2.787c-0.009,11.873-0.073,23.747,0.038,35.618
		c0.037,3.937-1.259,7.122-4.222,9.568c-3.189,2.633-6.138,5.509-9.021,8.455c-1.86,1.9-4.021,2.81-6.693,2.789
		c-22.856-0.175-45.704-1.023-68.568-0.915c-4.452,0.021-8.956-0.643-13.453-0.599c-2.402,0.023-4.339-0.879-6.019-2.56
		c-3.447-3.446-6.838-6.951-10.361-10.316c-2.249-2.148-3.109-4.647-3.095-7.711c0.058-12.247,0.044-24.496,0.016-36.744
		c-0.011-4.564-0.37-4.697-4.282-2.659c-18.79,9.788-33.84,23.76-46.096,40.909c-3.234,4.525-4.714,9.361-4.55,15.049
		c1.132,39.22,0.812,78.454,0.789,117.685c-0.002,3.308,1.087,6.037,2.873,8.709c11.992,17.942,27.021,32.657,45.728,43.566
		c1.958,1.141,4.937,1.572,5.058,4.795c-8.354-3.219-15.416-8.549-22.408-13.932c-12.48-9.607-22.707-21.277-31.162-34.553
		c-1.674-2.629-2.509-5.238-2.512-8.388c-0.024-23.583-0.19-47.167-0.312-70.75c-0.272-18.681-0.236-37.363-0.02-56.043
		C62.312,111.944,62.399,111.674,62.486,111.405z"/>
	<path fill-rule="evenodd" clip-rule="evenodd" fill="#C48780" d="M297.839,210.377c0.047-29.76,0.101-59.519,0.123-89.278
		c0.002-2.229,0.299-4.484-0.324-6.688c1.527,0.731,1.012,2.146,1.012,3.304c0.025,29.729,0.023,59.459,0.003,89.19
		C298.651,208.099,299.063,209.445,297.839,210.377z"/>
	<path fill-rule="evenodd" clip-rule="evenodd" fill="#C5857D" d="M170.417,236.547c11.916,0.074,23.832,0.141,35.747,0.244
		c0.851,0.008,1.698,0.299,2.548,0.458c-1.742,1.235-3.53-0.017-5.294,0.015c-9.712,0.166-19.43,0.094-29.144,0.049
		C172.968,237.307,171.498,237.814,170.417,236.547z"/>
	<path fill-rule="evenodd" clip-rule="evenodd" fill="#C5857D" d="M135.705,236.5c0.92-0.929,2.106-0.658,3.188-0.621
		c8.574,0.293,17.175-0.5,25.728,0.639C154.983,236.512,145.344,236.506,135.705,236.5z"/>
	<path fill-rule="evenodd" clip-rule="evenodd" fill="#C2827C" d="M62.224,112.213c0.007,18.682,0.014,37.363,0.02,56.044
		c-0.769-0.836-0.535-1.874-0.536-2.845c-0.011-16.783-0.012-33.567-0.001-50.35C61.707,114.092,61.468,113.056,62.224,112.213z"/>
	<path fill-rule="evenodd" clip-rule="evenodd" fill="#FCFDFB" d="M247.736,303.334c0.973-0.039,1.638-0.291,1.013-1.447
		c4.115-0.83,7.366-3.471,11.021-5.268c0.552,0.068,1.12,0.102,1.407,0.701c2.575,2.537,2.569,2.857-0.205,4.594
		c-3.383,2.119-7.132,3.543-10.57,5.553c-2.104,1.234-4.38,2.15-6.478,3.391c-1.083,0.641-2.66,1.283-1.164,3.008
		c0.923,2.234,2.341,2.533,4.438,1.402c4.479-2.418,9.025-4.709,13.476-7.188c1.863-0.287,3.872-3.465,5.543-0.051
		c1.67,3.412-1.966,3.113-3.446,4.248c-0.858,0.658-1.918,1.064-2.865,1.615c-3.342,1.68-6.598,3.525-9.886,5.311
		c-1.115,0.605-3.192,0.678-2.568,2.549c0.594,1.781,0.77,4.389,3.77,4.178c5.607-2.863,11.228-5.699,16.801-8.629
		c4.426-2.029,4.986-1.777,5.504,2.475c-2.798,2.57-6.384,3.807-9.646,5.566c-4.817,2.598-9.759,4.959-14.535,7.646
		c-3.667,2.063-4.149,1.857-6.154-1.654c-3.268-5.723-6.334-11.559-9.748-17.197c-1.06-1.75-1.313-3.07,0.953-4.166
		C238.864,307.807,243.117,305.201,247.736,303.334z"/>
	<path fill-rule="evenodd" clip-rule="evenodd" fill="#392A20" d="M235.396,310.059c-2.006,1.092-2.567,1.822-1.229,4.031
		c3.395,5.609,6.563,11.363,9.591,17.18c1.251,2.402,2.312,2.811,4.784,1.463c8.163-4.445,16.478-8.615,24.733-12.889
		c0.446-0.512,0.058-1.381,0.764-1.779c1.519,1.492,0.611,2.357-0.8,3.094c-8.827,4.596-17.662,9.174-26.471,13.805
		c-1.28,0.672-2.021,0.393-2.695-0.814c-4.063-7.277-8.159-14.539-12.249-21.803c-0.36-0.641-0.937-1.313,0.153-1.779"/>
	<path fill-rule="evenodd" clip-rule="evenodd" fill="#43342A" d="M260.691,308.725c-4.555,2.426-9.125,4.82-13.657,7.287
		c-2.429,1.32-3.949,0.701-4.7-1.93c-0.15-0.283-0.147-0.563,0.033-0.832c1.868,2.143,3.71,2.104,6.149,0.588
		c3.573-2.219,7.445-3.955,11.189-5.898C260.097,308.123,260.592,308.176,260.691,308.725z"/>
	<path fill-rule="evenodd" clip-rule="evenodd" fill="#30221B" d="M251.403,326.447c-3.385,0.598-3.629-2.449-4.513-4.287
		c-0.938-1.953,1.015-2.688,2.491-3.42c3.323-1.65,6.617-3.357,9.924-5.041c0.516-0.236,0.978-0.156,1.387,0.236
		c-2.993,1.658-5.963,3.359-8.983,4.963c-4.757,2.525-4.771,2.498-1.161,6.846C251.345,325.355,251.464,325.791,251.403,326.447z"/>
	<path fill-rule="evenodd" clip-rule="evenodd" fill="#3F2F26" d="M260.692,313.936c-0.462-0.078-0.924-0.156-1.386-0.236
		c1.601-0.889,3.231-1.73,4.796-2.682c0.988-0.604,2.846-0.619,1.715-2.766c-1.193-2.27-2.296-0.783-3.499-0.191
		c-0.523,0.26-1.083,0.445-1.627,0.664c-0.329-0.262-0.657-0.523-0.985-0.785c0.879-0.467,1.831-0.836,2.623-1.422
		c2.371-1.754,3.524-0.773,4.834,1.514c1.61,2.813-0.551,3.1-2.087,3.891C263.647,312.656,262.155,313.27,260.692,313.936z"/>
	<path fill-rule="evenodd" clip-rule="evenodd" fill="#403127" d="M251.403,326.447c-0.285-0.234-0.57-0.469-0.855-0.703
		c5.404-2.754,10.809-5.508,16.214-8.262c0.554-0.273,1.045-0.188,1.474,0.256C262.624,320.643,257.015,323.545,251.403,326.447z"/>
	<path fill-rule="evenodd" clip-rule="evenodd" fill="#35251A" d="M249.956,307.221c3.249-1.738,6.436-3.611,9.77-5.17
		c2.443-1.143,3.317-2.428,1.451-4.73c2.24-0.469,2.315,1.617,2.779,2.734c0.604,1.451-1.135,1.598-2.015,2.068
		c-3.698,1.979-7.436,3.883-11.158,5.814C250.008,308.273,249.873,307.873,249.956,307.221z"/>
	<path fill-rule="evenodd" clip-rule="evenodd" fill="#423429" d="M259.77,296.619c-3.26,2.621-6.379,5.537-11.021,5.27
		C252.339,299.957,255.693,297.533,259.77,296.619z"/>
	<path fill-rule="evenodd" clip-rule="evenodd" fill="#47372E" d="M249.956,307.221c0.275,0.238,0.552,0.479,0.827,0.717
		c-2.581,2.125-6.316,2.418-8.415,5.309c-0.012,0.281-0.023,0.559-0.034,0.836c-1.417-1.902-0.188-3.006,1.308-3.818
		C245.693,309.15,247.846,308.227,249.956,307.221z"/>
	<path fill-rule="evenodd" clip-rule="evenodd" fill="#372926" d="M268.235,317.738c-0.49-0.086-0.981-0.17-1.473-0.258
		c0.721-0.463,1.485-0.875,2.159-1.4c2.845-2.225,4.349-1.09,5.116,1.984c-0.254,0.592-0.509,1.186-0.764,1.779
		C273.107,315.52,270.784,316.359,268.235,317.738z"/>
	<path fill-rule="evenodd" clip-rule="evenodd" fill="#FCFCFA" d="M188.564,34.119c1.514-0.7,0.611-1.93,0.648-2.954
		c0.193-3.075,1.062-6.059,1.242-9.136c1-2.94,1.008-6.062,1.674-9.069c0.457-2.067,1.247-3.015,3.52-2.536
		c4.071,0.856,8.224,1.33,12.204,2.616c0.487,0.056,0.976,0.111,1.463,0.166c2.389-0.043,4.688,0.554,7.022,0.935
		c1.828,0.299,2.214,1.368,1.913,2.942c-0.289,1.516-1.031,2.59-2.774,2.353c-1.978-0.269-3.917-0.764-5.876-1.128
		c-2.125-0.411-4.282-0.654-6.404-1.078c-1.718-0.047-3.757-1.628-5.077,0.275c-1.478,2.131-0.89,4.16,1.585,5.385
		c1.138,0.688,2.355,0.967,3.677,0.724c2.745-0.76,5.245,0.892,7.925,0.801c0.95,0.291,2.016,0.196,2.876,0.734
		c1.676,1.047,1.333,2.701,0.673,3.981c-0.899,1.742-2.062,0.374-3.079-0.167c-1.071-0.554-2.143-0.043-3.214-0.002
		c-3.986-0.743-7.906-1.958-12.028-1.726c-1.817,5.145-1.692,5.773,1.494,7.478c0.773,0.073,1.548,0.145,2.321,0.216
		c4.096,0.333,8.08,1.456,12.165,1.784c2.181,0.175,1.827,1.472,1.808,2.869c-0.021,1.537-0.209,2.835-2.205,2.571
		c-0.994-0.132-1.986-0.168-2.98-0.196c-5.906-1.841-12.119-2.123-18.113-3.538C187.824,38.344,187.35,36.713,188.564,34.119z"/>
	<path fill-rule="evenodd" clip-rule="evenodd" fill="#402F22" d="M207.853,13.04c-4.148,0-8.082-1.32-12.114-2.023
		c-2.068-0.361-2.696,0.079-3.062,2.232c-0.507,2.999-0.498,6.154-1.94,8.963c-0.438-0.097-0.483-0.539-0.714-0.819
		c0.492-3.055,0.977-6.11,1.48-9.163c0.338-2.047,0.926-3.305,3.608-2.565c3.444,0.949,7.055,1.297,10.595,1.897
		C206.657,11.723,207.801,11.582,207.853,13.04z"/>
	<path fill-rule="evenodd" clip-rule="evenodd" fill="#3A271A" d="M208.689,41.586c0.989-0.026,1.991-0.16,2.967-0.056
		c1.697,0.18,2.027-0.686,2.188-2.154c0.202-1.841-0.89-1.897-2.179-2.162c-3.771-0.773-7.787-0.341-11.317-2.286
		c1.878-1.623,3.718,0.072,5.563,0.148c2.08,0.085,4.139,0.72,6.203,1.132c1.141,0.229,2.954-0.318,3.102,1.272
		c0.154,1.652-0.423,3.404-0.86,5.064c-0.187,0.708-1.021,0.51-1.627,0.401c-1.341-0.239-2.68-0.492-4.019-0.74
		c-0.229-0.13-0.308-0.266-0.238-0.405C208.543,41.658,208.615,41.586,208.689,41.586z"/>
	<path fill-rule="evenodd" clip-rule="evenodd" fill="#463222" d="M209.415,17.737c1.838,0.302,3.697,0.509,5.506,0.935
		c1.391,0.328,2.383,0.482,2.68-1.372c0.265-1.657-0.023-2.292-1.896-2.715c-2.12-0.479-4.453-0.095-6.389-1.38
		c3.175-1.448,6.291-0.092,9.059,0.908c2.041,0.737,0.104,3.263,0.121,4.989c0.014,1.507-1.06,1.332-2.108,1.107
		c-2.644-0.569-5.296-1.101-7.944-1.648C208.538,18.018,209.054,17.97,209.415,17.737z"/>
	<path fill-rule="evenodd" clip-rule="evenodd" fill="#493626" d="M208.689,41.586c0.02,0.207,0.026,0.414,0.021,0.62
		c-6.045-1.195-12.225-1.678-18.157-3.46c0.063-0.497,0.533-0.54,0.847-0.757C197.166,39.173,203.16,39.264,208.689,41.586z"/>
	<path fill-rule="evenodd" clip-rule="evenodd" fill="#5F4F3D" d="M199.704,22.889c-2.436,0.129-3.449-0.946-2.99-3.404
		c0.392-2.093,0.875-4.018,3.689-3.46c0.837,0.167,1.65,0.458,2.475,0.693c-0.286,0.76-1.164,0.327-1.596,0.791
		C197.618,17.517,197.298,18.61,199.704,22.889z"/>
	<path fill-rule="evenodd" clip-rule="evenodd" fill="#2F1F18" d="M211.775,28.962c0.999-0.324,2.687,1.337,2.902-1.295
		c0.268-3.257-2.327-2.04-3.718-2.712c0.104-1.391,0.97-0.86,1.699-0.675c1.387,0.102,3.287-0.436,3.448,1.666
		c0.115,1.5,0.038,3.449-1.265,4.339C214.041,30.832,212.097,31.035,211.775,28.962z"/>
	<path fill-rule="evenodd" clip-rule="evenodd" fill="#2A1D16" d="M196.065,27.371c1.602-1.808,3.408-0.619,5.127-0.312
		c2.501,0.446,5.173,0.267,7.369,1.902c-4.103,0.425-7.94-1.113-11.919-1.607C196.461,27.73,196.269,27.735,196.065,27.371z"/>
	<path fill-rule="evenodd" clip-rule="evenodd" fill="#322013" d="M190.022,21.393c0.238,0.273,0.477,0.546,0.714,0.819
		c-0.073,3.058-0.246,6.1-1.523,8.953C188.133,27.795,190.026,24.673,190.022,21.393z"/>
	<path fill-rule="evenodd" clip-rule="evenodd" fill="#251912" d="M196.065,27.371c0.192,0.009,0.386,0.004,0.577-0.017
		c-0.099,2.558-2.017,5.459,1.385,7.358C194.166,33.844,193.769,32.355,196.065,27.371z"/>
	<path fill-rule="evenodd" clip-rule="evenodd" fill="#322219" d="M212.659,24.28c-0.566,0.225-1.133,0.45-1.699,0.675
		c-2.525-0.447-5.052-0.894-7.578-1.342C206.63,21.658,209.566,24.051,212.659,24.28z"/>
	<path fill-rule="evenodd" clip-rule="evenodd" fill="#2B1D16" d="M201.282,17.508c0.531-0.264,1.063-0.527,1.596-0.791
		c2.179,0.34,4.357,0.68,6.537,1.02c-0.324,0.275-0.648,0.549-0.973,0.825C206.056,18.21,203.669,17.86,201.282,17.508z"/>
	<path fill-rule="evenodd" clip-rule="evenodd" fill="#180500" d="M191.399,37.99c-0.282,0.252-0.564,0.504-0.847,0.756
		c-3.495-0.518-3.72-1.041-1.988-4.627C188.016,36.504,188.315,38.267,191.399,37.99z"/>
	<path fill-rule="evenodd" clip-rule="evenodd" fill="#3C2E24" d="M57.134,258.863c1.16-1.179,2.369-3.619,3.828-2.766
		c2.271,1.328,4.095,3.631,5.679,5.83c0.77,1.068-1.008,1.767-1.745,2.479c-5.33,5.156-5.351,5.139-0.156,10.55
		c2.676,2.787,5.4,5.53,8.018,8.371c1.088,1.181,1.924,1.298,3.027,0.064c0.826-0.923,1.97-1.577,2.731-2.542
		c2.468-3.125,4.241-2.555,6.881,0.223c2.712,2.855,2.743,4.341-0.322,6.84c-5.304,4.324-10.3,9.039-15.27,13.756
		c-1.673,1.586-2.576,1.59-4.133-0.145c-4.465-4.977-4.536-4.895,0.637-9.569c0.9-0.813,2.075-1.456,2.208-2.874
		c0.338-0.194,0.649-0.157,0.934,0.109c0.983,2.482-0.919,3.67-2.355,4.947c-1.441,1.281-3.114,2.184-1.139,4.441
		c2.158,2.463,3.435,0.719,4.815-0.723c3.801-3.967,8.244-7.227,12.141-11.091c1.37-1.358,2.332-2.43,0.581-4.327
		c-1.826-1.98-2.866-0.883-4.236,0.438c-4.479,4.316-5.339,4.285-9.755-0.106c-3.182-3.166-6.404-6.293-9.502-9.54
		c-2.732-2.865-2.675-4.412,0.041-7.352c0.593-0.641,1.236-1.232,1.848-1.854c0.924-0.94,2.387-1.739,1.076-3.377
		c-0.997-1.245-2.11-2.171-3.826-1.167c-0.635,0.37-1.3,0.785-2.095,0.383C56.89,259.512,56.929,259.18,57.134,258.863z"/>
	<path fill-rule="evenodd" clip-rule="evenodd" fill="#36281D" d="M69.109,289.078c-0.198,0-0.396,0.001-0.593,0.002
		c-4.24-4.396-8.527-8.746-12.69-13.214c-1.331-1.429-2.343-1.616-3.552-0.025c-0.223,0.292-0.545,0.509-0.82,0.761
		c-5.118,4.693-4.948,4.521-9.718-0.195c-2.712-2.682-0.333-3.389,1.11-4.677c0.316-0.235,0.631-0.233,0.944,0.003
		c0.319,0.75-0.073,1.455-0.137,2.182c-0.14,1.601,0.899,2.524,2.049,3.285c1.387,0.918,2.3-0.13,3.208-0.979
		c0.724-0.678,1.422-1.383,2.136-2.07c1.977-1.903,4.245-1.939,5.936-0.045c3.801,4.258,7.999,8.122,11.81,12.358
		C69.438,287.182,70.062,288.082,69.109,289.078z"/>
	<path fill-rule="evenodd" clip-rule="evenodd" fill="#2F221C" d="M57.134,258.863c0.025,0.33,0.051,0.658,0.077,0.988
		c-1.304,4.348-4.992,6.133-8.602,8.008c-0.391-0.055-0.719-0.229-0.987-0.52C50.793,264.515,53.964,261.689,57.134,258.863z"/>
	<path fill-rule="evenodd" clip-rule="evenodd" fill="#58493D" d="M47.622,267.34c0.471,0.016,0.94,0.031,1.41,0.046
		c-0.638,2.671-1.991,4.548-5.039,4.544c-0.383-0.066-0.765-0.134-1.146-0.2C44.438,270.266,46.03,268.803,47.622,267.34z"/>
	<path fill-rule="evenodd" clip-rule="evenodd" fill="#FCFDFB" d="M231.181,48.371c-0.711-0.26-1.423-0.521-2.135-0.78
		c-1.763-1.312-3.806-2.263-5.205-4.045c-1.851-2.66-0.568-5.25,0.17-7.852c1.443-4.082,3.24-8.002,5.585-11.646
		c2.437-3.788,4.037-4.393,8.392-3.335c4.463,1.084,8.64,2.92,12.759,4.907c1.304,0.439,2.323,1.36,3.435,2.101
		c3.403,2.267,3.773,3.498,2.631,7.767c-0.049,0.453-0.098,0.906-0.146,1.36c-2.202,0.927-5.81,0.129-6.167-1.731
		c-0.942-4.913-5.404-4.867-8.619-6.576c-0.499-0.265-1.239,0.017-1.733-0.479l0.088,0.031c-3.052-1.645-5.098-0.497-6.824,2.219
		c-5.039,7.929-4.157,10.981,4.463,14.542c2.812,1.162,5.488,2.703,8.684,0.295c1.438-1.083,3.39,0.568,4.596,1.668
		c1.172,1.069-0.276,2.23-0.825,3.246c-1.452,2.683-3.457,3.86-6.735,3.17C239.145,52.297,235.173,50.357,231.181,48.371z"/>
	<path fill-rule="evenodd" clip-rule="evenodd" fill="#3F3026" d="M231.181,48.371c4.253,0.899,7.941,3.383,12.223,4.268
		c2.801,0.579,4.902-0.071,6.344-2.519c0.571-0.97,2.104-2.308,0.871-3.096c-1.28-0.818-2.992-2.753-4.91-0.764
		c-1.245,1.292-2.779,1.121-4.138,0.598c-2.991-1.153-5.94-2.448-8.816-3.865c-2.874-1.417-3.762-3.711-2.616-6.814
		c1.035-2.803,1.977-5.667,4.012-7.911c1.866-2.059,3.979-2.858,6.084-0.174c-4.964-0.164-10.279,6.439-9.074,11.351
		c0.164,0.669,0.621,1.439,1.178,1.81c3.133,2.088,6.59,3.512,10.18,4.608c0.713,0.218,1.59,0.321,2.111-0.329
		c2.849-3.547,5.014,0.333,7.491,0.681c0.501,0.07,0.504,0.679,0.437,1.236c-0.284,2.344-4.251,6.937-6.404,6.694
		C240.706,53.531,235.466,52.12,231.181,48.371z"/>
	<path fill-rule="evenodd" clip-rule="evenodd" fill="#3C2E23" d="M250.319,26.008c-4.322-1.836-8.515-3.933-13.198-4.907
		c-3.053-0.635-4.87,0.347-6.631,2.693c-2.718,3.619-3.825,8.018-6.14,11.812c-0.234,0.247-0.471,0.249-0.709,0.004
		c1.054-4.519,3.398-8.439,5.706-12.382c2.102-3.593,5.27-4.164,8.953-3.176c4.555,1.221,8.861,3.092,13.081,5.173
		C251.459,26.07,251.048,26.254,250.319,26.008z"/>
	<path fill-rule="evenodd" clip-rule="evenodd" fill="#3C2C20" d="M240.146,28.062c4.664,0.644,9.172,1.183,11.026,6.822
		c0.547,1.664,3.153,2.668,5.493,1.963c0.236,1.157-0.088,2.366-1.374,1.685c-2.132-1.129-5.626-0.664-5.653-4.654
		c-0.012-1.634-1.939-2.067-3.227-2.732C244.344,30.077,242.236,29.086,240.146,28.062z"/>
	<path fill-rule="evenodd" clip-rule="evenodd" fill="#46352B" d="M250.319,26.008c0.354-0.262,0.709-0.522,1.063-0.784
		c1.764,1.156,3.77,2.068,5.23,3.527c1.995,1.993,2.813,4.417,0.199,6.737C258.044,30.001,254.075,28.077,250.319,26.008z"/>
	<path fill-rule="evenodd" clip-rule="evenodd" fill="#4E3F34" d="M223.642,35.61c0.236,0.007,0.473,0.005,0.709-0.004
		c-0.389,2.749-1.555,5.509,0.131,8.224c-0.391,0.324-0.797,0.347-1.22,0.066C221.084,41.028,222.485,38.325,223.642,35.61z"/>
	<path fill-rule="evenodd" clip-rule="evenodd" fill="#2A1E19" d="M223.262,43.896c0.406-0.022,0.813-0.044,1.22-0.065
		c1.562,1.205,3.598,1.833,4.564,3.76C226.514,47.304,224.895,45.589,223.262,43.896z"/>
	<path fill-rule="evenodd" clip-rule="evenodd" fill="#FCFDFB" d="M139.571,340.002c-1.178-0.559-2.725,0.787-3.72-0.719
		c-1.069-3.918,0.931-7.604,0.874-11.443c0.757-4.121,1.165-8.289,1.815-12.424c0.159-1.01,0.113-2.152,1.607-1.818
		c4.308,0.965,8.888,0.473,13.002,2.447c4.304-0.152,8.348,1.818,12.667,1.549c1.467,0.645,3.108,0.467,4.61,1.213
		c3.615,1.797,4.854,3.818,4.486,8.08c-0.333,3.867-1.892,5.721-5.686,6.768c-1.63,0.941-0.812,1.85,0.153,2.539
		c1.876,1.34,2.633,3.215,2.917,5.385c-0.203,1.529,0.802,3.895-2.341,3.383c-4.873-0.123-4.873-0.123-6.406-6.252
		c-1.353-2.844-4.482-1.512-6.513-2.77c-2.787-0.334-5.586-0.576-8.32-1.244c-1.13-1.613-2.562-0.68-3.908-0.461
		c-0.855,1.111-0.952,2.479-1.205,3.773C143.12,340.498,141.974,341.475,139.571,340.002z"/>
	<path fill-rule="evenodd" clip-rule="evenodd" fill="#443426" d="M168.214,333.402c4.775-1.252,5.68-2.564,6.09-7.447
		c0.361-4.301-2.27-5.916-5.609-7.199c-0.962-0.371-2.366,0.307-2.877-1.164c3.77-0.42,7.093,0.643,8.938,4.006
		c1.981,3.607,0.987,7.314-1.083,10.658c-1.004,1.621-2.712,2.107-4.583,1.969C168.385,334.391,168.058,334.154,168.214,333.402z"/>
	<path fill-rule="evenodd" clip-rule="evenodd" fill="#322217" d="M153.15,316.045c-3.809-0.545-7.64-0.969-11.417-1.682
		c-1.813-0.342-2.604-0.385-2.775,1.889c-0.296,3.947-1.084,7.859-1.665,11.787c-1.409-0.07-0.863-0.961-0.708-1.688
		c0.428-3.43,1.055-6.852,1.221-10.295c0.139-2.879,1.385-3.496,3.951-2.992c3.032,0.598,6.104,1,9.165,1.449
		C151.944,314.662,152.908,314.801,153.15,316.045z"/>
	<path fill-rule="evenodd" clip-rule="evenodd" fill="#3A2C25" d="M136.585,326.352c0.236,0.563,0.472,1.125,0.708,1.688
		c-0.48,3.748-0.961,7.496-1.441,11.244c-0.653,0.391-1.523,0.945-1.312-0.494C135.151,334.633,135.894,330.496,136.585,326.352z"/>
	<path fill-rule="evenodd" clip-rule="evenodd" fill="#38251D" d="M139.571,340.002c2.75,0.713,3.584-0.678,3.771-3.164
		c0.069-0.924-0.713-2.723,1.469-2.604c-0.176,1.359-0.344,2.721-0.531,4.078c-0.163,1.172,0.349,2.834-1.229,3.176
		C141.791,341.764,140.249,341.611,139.571,340.002z"/>
	<path fill-rule="evenodd" clip-rule="evenodd" fill="#625347" d="M168.214,333.402c0.291,0.273,0.584,0.549,0.876,0.822
		c0.879,2.15,3.736,3.107,3.552,5.898c-0.294,0.277-0.357,0.785-0.857,0.855c-0.772-1.881-1.544-3.689-3.478-4.824
		C167.245,335.531,166.59,334.375,168.214,333.402z"/>
	<path fill-rule="evenodd" clip-rule="evenodd" fill="#140200" d="M163.796,338.244c0.605,0.338,0.866,0.924,0.789,1.539
		c-0.492,3.928,1.732,5.02,5.095,4.967c-0.001,0.148-0.002,0.297-0.003,0.445c-5.929,0.174-5.929,0.174-6.029-5.813
		C163.33,338.957,163.38,338.576,163.796,338.244z"/>
	<path fill-rule="evenodd" clip-rule="evenodd" fill="#2B180C" d="M148.719,334.695c3.059-0.184,6.012,0.443,8.953,1.16
		l-0.035-0.041C154.479,336.924,151.586,335.91,148.719,334.695z"/>
	<path fill-rule="evenodd" clip-rule="evenodd" fill="#190701" d="M169.677,345.195c-0.003-0.148-0.002-0.297,0.003-0.445
		c2.942-0.006,1.796-2.295,2.104-3.771c0.285-0.285,0.571-0.57,0.857-0.855c0.029,1.119,0.009,2.242,0.1,3.355
		C172.975,346.334,171.678,346.373,169.677,345.195z"/>
	<path fill-rule="evenodd" clip-rule="evenodd" fill="#35251D" d="M157.637,335.814c0,0,0.035,0.043,0.035,0.041
		c1.939,1.059,4.937-0.598,6.124,2.389c-0.05,0.381-0.1,0.76-0.148,1.139C162.494,336.762,159.096,337.922,157.637,335.814z"/>
	<path fill-rule="evenodd" clip-rule="evenodd" fill="#FCFDFC" d="M99.233,46.918c-1.448,3.038-1.224,3.237,3.395,3.013
		c2.124,0.076,3.229,1.707,4.467,3.044c0.867,0.938,2.268,2.122,0.524,3.369c-1.32,0.945-2.65,2.218-4.631,0.693
		c-4.713-3.63-4.774-3.549-9.694-0.208c-0.976,0.556-1.877,1.225-2.81,1.847c-4.34,2.892-4.396,2.913-1.852,7.285
		c0.884,1.519,0.681,2.479-0.766,3.42c-1.441,0.938-2.754,1.895-4.115-0.076c-4.523-6.544-9.172-13.003-13.621-19.601
		c-1.066-1.582-0.4-2.492,0.794-3.447c2.045-1.636,4.283-2.983,6.474-4.402c2.09-1.354,4.25-2.606,6.128-4.266
		c1.066-0.367,1.932-1.102,2.94-1.583c5.623-2.678,8.062-2.001,11.465,3.245C99.151,41.673,101.743,43.863,99.233,46.918z"/>
	<path fill-rule="evenodd" clip-rule="evenodd" fill="#3B2D23" d="M83.459,37.901c-2.994,3.433-7.21,5.161-10.865,7.657
		c-2.429,1.659-3.017,2.725-0.994,5.369c4.372,5.715,8.345,11.743,12.329,17.744c1.1,1.656,1.951,1.355,3.244,0.467
		c1.09-0.75,1.919-1.163,0.975-2.848c-2.741-4.894-2.636-4.96,2.213-8.25c0.813-0.551,1.676-1.029,2.517-1.541
		c0.517-0.285,0.969-0.205,1.355,0.24c-0.789,0.596-1.569,1.204-2.368,1.786c-1.597,1.163-3.941,2-4.596,3.555
		c-0.643,1.523,1.607,3.077,2.64,4.56c1.096,1.575,0.244,2.365-0.975,2.799c-1.623,0.578-3.07,3.842-4.919,1.34
		c-5.316-7.194-10.244-14.676-15.331-22.04c-0.971-1.405,0.059-1.977,1.03-2.606c4.584-2.972,9.162-5.952,13.742-8.93
		c0.268,0.154,0.356,0.309,0.269,0.464C83.638,37.824,83.549,37.901,83.459,37.901z"/>
	<path fill-rule="evenodd" clip-rule="evenodd" fill="#403124" d="M94.232,56.739c-0.451-0.08-0.903-0.161-1.355-0.24
		c5.216-4.069,6.024-4.101,10.453,0.169c2.339,2.256,2.876-1.419,4.984-0.583c-1.591-3.043-3.547-4.682-5.684-6.153
		c2.138,0.019,6.96,3.421,6.848,5.148c-0.129,1.99-2.375,2.201-3.603,3.294c-0.974,0.867-2.007,1.138-2.786-0.171
		C100.697,54.186,97.713,54.034,94.232,56.739z"/>
	<path fill-rule="evenodd" clip-rule="evenodd" fill="#33241C" d="M83.459,37.901c0.002-0.233,0.001-0.465-0.003-0.698
		c7.242-5.124,10.973-4.595,15.081,2.137c-0.273,0.333-0.562,0.345-0.863,0.038c-5.281-5.553-5.636-5.604-12.511-2.001
		C84.646,37.649,84.029,37.731,83.459,37.901z"/>
	<path fill-rule="evenodd" clip-rule="evenodd" fill="#3A2B1E" d="M97.674,39.378c0.288-0.013,0.575-0.025,0.863-0.038
		c1.942,2.211,2.995,4.69,2.013,7.632c-0.202,0.606-0.967,2.018-1.316-0.055C100.856,43.961,98.478,41.833,97.674,39.378z"/>
	<path fill-rule="evenodd" clip-rule="evenodd" fill="#FCFDFB" d="M191.509,319.143c3.748-0.545,7.496-1.092,11.245-1.639
		c3.784-1.711,7.954-1.527,11.904-2.424c5.141-0.916,8.699,0.973,10.522,5.938c-0.285,0.697,0.194,1.066,0.624,1.457
		c0.44,3.508,1.684,6.883,1.649,10.48c-0.018,1.768-0.263,3.398-1.261,4.875c-1.3,1.852-3.264,2.828-5.315,3.26
		c-6.814,1.436-13.633,2.92-20.611,3.375c-1.898,0.508-3.797,1.014-5.695,1.52c-4.975,0.18-4.508,1.201-5.582-4.422
		c-1.094-5.729-2.382-11.416-3.459-17.146c-0.838-4.459-0.785-4.488,3.769-4.982C190.038,319.354,190.748,319.057,191.509,319.143z"
		/>
	<path fill-rule="evenodd" clip-rule="evenodd" fill="#3C2C21" d="M191.509,319.143c-0.065,0.107-0.113,0.287-0.199,0.309
		c-6.045,1.514-6.014,1.506-4.603,8.041c0.892,4.127,1.838,8.254,2.457,12.426c0.496,3.348,1.134,6.236,5.407,6.066
		c-4.6,1.842-5.047,1.656-5.971-2.828c-1.354-6.576-2.507-13.199-4.031-19.734c-0.704-3.021-0.055-4.574,3.139-4.369
		C188.98,319.133,190.293,317.736,191.509,319.143z"/>
	<path fill-rule="evenodd" clip-rule="evenodd" fill="#403024" d="M200.267,344.465c5.971-1.148,11.92-2.432,17.921-3.387
		c2.912-0.463,5.396-1.568,7.694-3.285c0.361-0.273,0.699-0.248,1.017,0.074c-1.322,2.648-3.888,3.404-6.433,3.916
		c-6.203,1.244-12.443,2.299-18.67,3.422C201.132,345.324,200.577,345.123,200.267,344.465z"/>
	<path fill-rule="evenodd" clip-rule="evenodd" fill="#503D2B" d="M226.898,337.867c-0.339-0.025-0.678-0.051-1.017-0.074
		c1.405-3.602,0.713-7.205,0.172-10.855c-0.213-1.443-1.513-2.916-0.249-4.463C227.795,327.49,229.536,332.523,226.898,337.867z"/>
	<path fill-rule="evenodd" clip-rule="evenodd" fill="#443429" d="M214.835,315.414c-3.936,1.229-8.053,1.404-12.082,2.09
		c0.405-2.246,2.327-1.324,3.587-1.623c2.264-0.539,4.587-0.832,6.885-1.227C213.654,315.137,214.492,314.748,214.835,315.414z"/>
	<path fill-rule="evenodd" clip-rule="evenodd" fill="#281A14" d="M214.835,315.414c-0.537-0.254-1.074-0.506-1.61-0.76
		c4.623-0.346,9.421-1.117,11.694,4.541c0.223,0.553,0.181,1.213,0.262,1.822C222.919,316.959,219.661,314.738,214.835,315.414z"/>
	<path fill-rule="evenodd" clip-rule="evenodd" fill="#FCFCFB" d="M149.02,11.748c0.229,0.083,0.479,0.275,0.682,0.234
		c3.946-0.792,6.708,0.76,8.515,4.246c2.025,0.541,2.705,2.411,3.851,3.841c1.978,2.469,2.735,2.436,4.255-0.223
		c0.559-0.979,1.281-1.841,1.805-2.839c0.581-1.253,1.551-2.339,1.962-3.615c1.204-3.742,4.043-3.88,7.205-3.652
		c1.93,0.139,2.08,0.983,1.19,2.425c-1.311,2.122-2.756,4.16-3.938,6.359c-0.274,0.417,0.124-0.065-0.198,0.312
		c-4.752,5.573-7.116,11.881-5.976,19.281c-4.374,1.81-5.298,1.258-5.964-3.259c-0.42-2.848,0.107-6.042-2.622-8.159
		c-2.616-3.499-5.716-6.592-8.463-9.974C150.207,15.353,147.773,14.311,149.02,11.748z"/>
	<path fill-rule="evenodd" clip-rule="evenodd" fill="#362820" d="M174.188,18.379c1.461-2.558,2.922-5.116,4.413-7.726
		c-5.851-0.809-5.841-0.803-8.499,3.844c-0.606,1.062-1.303,2.073-1.958,3.107c-0.317,0.334-0.625,0.327-0.925-0.023
		c1.231-2.29,2.492-4.564,3.679-6.877c0.52-1.012,1.261-1.445,2.375-1.433c2.439,0.027,4.879,0.008,7.711,0.008
		c-2.094,3.331-4.127,6.563-6.159,9.795C174.204,19.216,173.824,19.138,174.188,18.379z"/>
	<path fill-rule="evenodd" clip-rule="evenodd" fill="#453528" d="M149.02,11.748c-0.649,1.408,0.602,1.993,1.261,2.786
		c3.16,3.803,6.358,7.574,9.544,11.355c-0.09,0.339-0.303,0.567-0.624,0.7c-4.41-4.985-8.821-9.97-13.33-15.066
		C147.301,10.649,148.236,10.632,149.02,11.748z"/>
	<path fill-rule="evenodd" clip-rule="evenodd" fill="#433328" d="M174.188,18.379c0.212,0.231,0.425,0.463,0.637,0.695
		c-0.379,0.636-0.684,1.333-1.149,1.897c-4.18,5.067-5.838,10.719-4.115,17.197c0.135,0.509-0.07,0.957-0.634,1.141
		c-0.454-0.376-0.749-0.831-0.72-1.446c-0.196-1.967-0.203-3.976-0.629-5.891c-0.785-3.532,1.555-5.815,3.084-8.411
		C171.719,21.765,173.004,20.102,174.188,18.379z"/>
	<path fill-rule="evenodd" clip-rule="evenodd" fill="#2E2018" d="M168.206,37.863c0.608,0.298,0.744,0.832,0.72,1.446
		c-6.631,0.457-6.702,0.463-7.357-5.999c-0.252-2.479-0.279-4.935-2.368-6.721c0.208-0.234,0.416-0.467,0.624-0.7
		c3.021,2.029,2.768,5.259,3.045,8.296C163.298,38.876,163.3,38.876,168.206,37.863z"/>
	<path fill-rule="evenodd" clip-rule="evenodd" fill="#483A30" d="M167.219,17.58c0.309,0.008,0.616,0.015,0.925,0.023
		c-2.949,6.539-3.289,6.59-7.848,1.167c-0.704-0.838-1.387-1.695-2.08-2.543c0.201-0.731,0.549-1.127,1.194-0.396
		c0.971,1.1,2,2.167,2.824,3.372c1.485,2.173,2.706,2.722,3.853-0.235C166.292,18.44,166.833,18.04,167.219,17.58z"/>
	<path fill-rule="evenodd" clip-rule="evenodd" fill="#FDFDFB" d="M300.229,268.865c0.784,1.181,2.16,1.498,3.252,2.231
		c4.014,2.581,7.275,5.858,9.421,10.171c0.007,1.467,0.015,2.936,0.021,4.402c-4.304,5.81-9.26,11.029-14.491,15.996
		c-2.435,2.311-4.986,4.475-8.111,5.838c-1.902,1.307-3.649,0.311-5.229-0.57c-4.614-2.572-8.295-6.211-11.401-10.465
		c-2.23-3.055-1.986-5.971,0.321-8.836l-0.019,0.031c5.025-6.936,11.066-12.883,17.819-18.11c1.043-0.808,2.214-1.589,3.592-1.86
		C297.22,267.242,298.718,268.078,300.229,268.865z"/>
	<path fill-rule="evenodd" clip-rule="evenodd" fill="#3C2C22" d="M274.013,287.633c-2.478,4.586-0.627,8.18,2.568,11.529
		c2.831,2.967,5.816,5.703,9.491,7.621c1.438,0.75,2.848,0.861,4.349,0.359c0.438,0.246,0.467,0.533,0.083,0.859
		c-1.828,1.404-3.68,0.529-5.237-0.307c-5.451-2.926-9.954-6.99-12.953-12.438C270.77,292.452,271.035,289.637,274.013,287.633z"/>
	<path fill-rule="evenodd" clip-rule="evenodd" fill="#36281F" d="M290.504,308.002c-0.028-0.285-0.056-0.572-0.083-0.859
		c7.651-5.258,14.127-11.723,19.726-19.107c0.727-0.957,1.433-2.072,2.777-2.364C307.173,294.844,299.972,302.561,290.504,308.002z"
		/>
	<path fill-rule="evenodd" clip-rule="evenodd" fill="#3A2D25" d="M295.019,268.129c-7.365,4.574-13.188,10.811-18.735,17.35
		c-0.678,0.801-0.955,2.061-2.289,2.186c0.01-0.354-0.126-0.822,0.05-1.048c5.754-7.4,11.875-14.421,20.154-19.167
		C294.471,267.678,294.946,267.66,295.019,268.129z"/>
	<path fill-rule="evenodd" clip-rule="evenodd" fill="#2A1D18" d="M312.902,281.268c-2.765-3.738-6.188-6.865-9.421-10.171
		C308.204,273.021,311.568,276.204,312.902,281.268z"/>
	<path fill-rule="evenodd" clip-rule="evenodd" fill="#352921" d="M295.019,268.129c-0.273-0.227-0.547-0.453-0.82-0.68
		c2.283-0.688,4.523-1.197,6.031,1.416C298.492,268.62,296.756,268.375,295.019,268.129z"/>
	<path fill-rule="evenodd" clip-rule="evenodd" fill="#FDFDFC" d="M116.524,302.621c0.464,1.387,0.927,2.773,1.39,4.158
		c-0.036,2.68-0.166,5.361,0.348,8.018c0.208,2.254-0.261,4.545,0.364,6.775c-0.033,3.098,0.219,6.184,0.434,9.271
		c0.139,1.979-0.77,2.535-2.476,1.715c-2.835-1.361-6.317-2.217-5.721-6.584c0.244-1.781-1.192-2.297-2.329-2.961
		c-2.996-1.75-6.326-2.875-9.174-4.9c-1.268-0.477-2.516-1.047-3.642-1.773c-1.563-1.012-3.1-1.074-4.39,0.135
		c-2.077,1.947-3.952,1.293-5.907-0.055c-1.304-0.816-3.59-0.881-3.687-2.586c-0.1-1.771,2.154-2.045,3.443-2.887
		c2.883-1.881,5.958-3.459,8.709-5.547c4.314-1.955,8.094-4.857,12.32-6.975C110.283,298.262,113.137,301.1,116.524,302.621z"/>
	<path fill-rule="evenodd" clip-rule="evenodd" fill="#3C2D22" d="M99.193,317.713c3.534,1.762,7.074,3.512,10.598,5.295
		c0.925,0.467,1.744,1.193,1.59,2.305c-0.769,5.549,3.921,5.535,7.229,7.457c-0.204-3.84-0.388-7.283-0.571-10.727
		c0.458-0.439,0.058-1.291,0.772-1.607c1.256,4.602,0.333,9.359,1.391,14.279c-3.439-0.949-6.014-2.668-8.733-4.07
		c-0.91-0.471-1.309-1.229-1.119-2.129c0.777-3.711-1.738-4.916-4.417-6.176c-2.345-1.102-4.575-2.445-6.856-3.682
		C98.742,318.297,98.781,317.982,99.193,317.713z"/>
	<path fill-rule="evenodd" clip-rule="evenodd" fill="#31221B" d="M94.297,305.723c-4.063,2.648-8.125,5.297-12.39,8.076
		c1.385,0.867,2.584,1.619,3.783,2.371c0.198,0.217,0.256,0.428,0.174,0.629c-0.08,0.197-0.156,0.297-0.228,0.297
		c-2.006-0.881-5.299-1.42-5.46-3.143c-0.189-2.029,3.173-2.539,4.949-3.748c2.541-1.727,5.29-3.148,7.95-4.701
		C93.55,305.209,93.956,305.281,94.297,305.723z"/>
	<path fill-rule="evenodd" clip-rule="evenodd" fill="#43352D" d="M94.297,305.723c-0.406-0.072-0.813-0.146-1.22-0.219
		c4.205-2.643,8.318-5.441,12.818-7.588c0.338,0.309,0.364,0.639,0.079,0.994C102.191,301.369,98.545,304.061,94.297,305.723z"/>
	<path fill-rule="evenodd" clip-rule="evenodd" fill="#3B2C23" d="M85.637,317.096c0.019-0.309,0.036-0.617,0.054-0.926
		c1.91,0.887,3.557,1.43,5.608-0.264c3.104-2.563,5.32,0.85,7.895,1.807c-0.039,0.314-0.079,0.629-0.118,0.945
		c-3.113-1.33-6.037-3.934-9.553-0.438C88.366,319.369,86.823,317.939,85.637,317.096z"/>
	<path fill-rule="evenodd" clip-rule="evenodd" fill="#46362A" d="M105.975,298.91c-0.026-0.33-0.053-0.662-0.079-0.992
		c1.316-1.498,2.551-0.336,3.575,0.305c2.351,1.465,5.374,1.871,7.054,4.398c-2.857-0.125-4.844-2.316-7.42-3.16
		C108.045,299.113,107.144,298.449,105.975,298.91z"/>
	<path fill-rule="evenodd" clip-rule="evenodd" fill="#57442C" d="M117.763,314.777c-0.589-2.678-1.436-5.361,0.151-7.998
		c0.743,1.848,0.874,3.762,0.624,5.717C117.988,313.158,118.76,314.268,117.763,314.777z"/>
	<path fill-rule="evenodd" clip-rule="evenodd" fill="#130200" d="M117.763,314.777c0.259-0.76,0.518-1.52,0.775-2.281
		c0.091,2.646,0.182,5.295,0.272,7.939c-0.258,0.537-0.515,1.072-0.772,1.607C117.946,319.621,117.854,317.199,117.763,314.777z"/>
	<path fill-rule="evenodd" clip-rule="evenodd" fill="#FCFDFB" d="M297.162,98.173l-0.003,0.113
		c3.878-5.184-0.826-8.017-3.183-11.461c-0.695-1.016-1.837-1.693-2.409-2.836c-1.158-2.311-2.986-2.641-5.326-2.021
		c-2.193,0.582-5.47-1.717-5.64-3.801c-0.092-1.129,0.707-1.496,1.615-1.666c2.326-0.439,4.604-1.083,6.909-1.616
		c6.58-1.707,13.228-3.125,19.804-4.836c0.672-0.175,1.203,0.055,1.695,0.471c4.256,3.578,5.459,7.599,1.784,12.324
		c-1.81,2.576-2.725,5.625-4.377,8.283c-1.586,1.854-2.562,4.032-3.357,6.306c-0.216,0.86-0.758,1.542-1.275,2.221
		c-0.835,1.095-0.851,3.254-2.76,2.968c-1.47-0.221-2.333-1.674-2.914-3.088C297.539,99.08,297.311,98.643,297.162,98.173z"/>
	<path fill-rule="evenodd" clip-rule="evenodd" fill="#3D2F24" d="M288.92,75.297c-2.447,1.234-5.227,1.313-8.087,2.191
		c1.638,2.667,2.833,5.385,6.709,3.695c1.404-0.611,2.605,0.109,3.543,1.322c1.741,2.25,3.318,4.7,5.39,6.604
		c3.263,2.999,3.685,5.874,0.685,9.175c2.666-7.604-4.565-10.464-7.414-15.422c-0.434-0.755-1.379-0.889-2.003-0.548
		c-4.063,2.223-5.807-0.727-7.72-3.347c-0.431-0.59-0.842-1.195-1.486-2.114c3.618-0.916,6.847-2.194,10.368-2.322
		c0.183,0.167,0.245,0.335,0.189,0.506C289.037,75.211,288.979,75.297,288.92,75.297z"/>
	<path fill-rule="evenodd" clip-rule="evenodd" fill="#433327" d="M288.92,75.297c-0.005-0.254-0.01-0.509-0.016-0.764
		c6.712-2.277,13.678-3.552,20.556-5.171c0.387-0.091,0.878,0.259,1.32,0.404c0.272,0.446,0.219,0.85-0.159,1.212
		c-3.706-0.683-6.977,1.213-10.465,1.813C296.38,73.443,292.663,74.447,288.92,75.297z"/>
	<path fill-rule="evenodd" clip-rule="evenodd" fill="#3F3126" d="M310.621,70.979c0.053-0.403,0.105-0.806,0.158-1.211
		c0.351,0.337,0.731,0.648,1.046,1.016c4.761,5.557,4.759,5.558,1.098,12.08c-0.327,0.336-0.634,0.317-0.919-0.055
		C315.063,78.454,314.552,74.516,310.621,70.979z"/>
	<path fill-rule="evenodd" clip-rule="evenodd" fill="#392A22" d="M297.162,98.173c1.189,1.368,2.193,3.572,3.616,3.889
		c1.716,0.381,1.38-2.745,2.951-3.58c0.391-0.208,0.634-0.692,0.945-1.05c-0.236,0.836-0.313,1.767-0.742,2.489
		c-0.916,1.543-1.664,4.752-2.779,4.296C298.974,103.324,296.949,101.203,297.162,98.173z"/>
	<path fill-rule="evenodd" clip-rule="evenodd" fill="#493B32" d="M312.004,82.808c0.307,0.018,0.612,0.036,0.919,0.055
		c-1.642,2.748-2.275,6.091-4.891,8.263C308.332,87.864,310.271,85.386,312.004,82.808z"/>
	<path fill-rule="evenodd" clip-rule="evenodd" fill="#FCFCFB" d="M282.992,52.202c-1.144-0.922-2.003-2.978-3.882-0.974
		c-0.777,3.159-3.396,5.108-5.159,7.597c-1.714,2.417-3.782,4.62-5.426,7.1c-1.563,2.357-2.997,1.381-4.641,0.265
		c-1.648-1.121-2.164-2.205-0.582-3.9c1.178-1.262,2.021-2.835,3.206-4.123l-0.017,0.021c1.604-2.173,3.247-4.314,5.055-6.325
		c3.47-5.424,3.455-5.405-1.997-9.479c-1.363-1.019-3.646-1.701-1.59-4.208c1.779-2.169,3.288-2.461,5.508-0.489
		c1.832,1.629,3.827,3.131,5.885,4.512c3.892,2.833,7.667,5.817,11.536,8.678c1.848,1.366,1.229,2.709,0.028,4.053
		c-1.158,1.296-2.48,2.359-4.038,0.666C285.697,54.31,283.971,53.69,282.992,52.202z"/>
	<path fill-rule="evenodd" clip-rule="evenodd" fill="#3D2E26" d="M278.838,42.472c-2.158-1.646-4.356-3.243-6.463-4.952
		c-1.729-1.403-2.627-0.647-3.862,0.833c-1.602,1.92-0.351,2.513,0.998,3.323c0.531,0.319,1.01,0.724,1.502,1.103
		c5.209,4.009,5.243,4.581,0.575,9.308c-0.333,0.333-0.643,0.312-0.929-0.061c3.472-5.216,3.472-5.216-1.574-9.063
		c-3.399-2.592-3.243-4.891,0.313-7.577c1.215-0.918,1.831-0.122,2.564,0.435c2.773,2.107,5.509,4.264,8.258,6.403
		C279.821,42.651,279.36,42.734,278.838,42.472z"/>
	<path fill-rule="evenodd" clip-rule="evenodd" fill="#403126" d="M266.509,58.167c0.021,1.675-1.313,2.592-2.203,3.699
		c-1.066,1.326-2.244,2.197-0.1,3.798c1.941,1.449,2.788,1.397,4.248-0.664c3.354-4.731,7.081-9.198,10.656-13.772
		c1.744,0.56,0.444,1.363,0.055,1.874c-3.563,4.667-7.269,9.227-10.755,13.949c-2.433,3.294-3.716,0.038-5.373-0.775
		c-2.015-0.987-2.36-2.401-0.575-4.034C263.875,60.949,264.323,58.694,266.509,58.167z"/>
	<path fill-rule="evenodd" clip-rule="evenodd" fill="#3C2E27" d="M278.838,42.472c0.461-0.083,0.921-0.166,1.382-0.248
		c3.987,2.925,7.963,5.865,11.967,8.766c1.06,0.768,1.708,1.63,0.467,2.626c-1.514,1.215-1.884,4.698-4.299,3.621
		c-2.069-0.923-4.798-2.085-5.362-5.034c1.419,0.317,2.341,1.397,3.356,2.284c1.646,1.438,2.826,1.81,4.445-0.328
		c1.729-2.281-0.116-2.665-1.285-3.558C285.956,47.886,282.396,45.181,278.838,42.472z"/>
	<path fill-rule="evenodd" clip-rule="evenodd" fill="#3E3026" d="M270.659,52.026c0.31,0.021,0.619,0.04,0.929,0.061
		c-1.551,2.158-2.553,4.773-5.096,6.102C266.881,55.458,269.064,53.94,270.659,52.026z"/>
	<path fill-rule="evenodd" clip-rule="evenodd" fill="#3F2F24" d="M139.814,26.564c0.156,0.193,0.38,0.361,0.459,0.582
		c5.356,14.821,3.986,15.16-9.142,20.097c-3.603,1.354-7.319,2.437-11.205,2.847c-3.251,0.344-5.586-0.842-7.149-3.647
		c-3.003-5.39-5.112-11.106-5.873-17.243c-0.309-2.495,0.5-4.632,2.9-5.988c3.923-2.217,8.01-3.985,12.413-4.989
		c0.764-0.326,1.054,0.073,1.159,0.755c-2.601,2.756-6.452,2.981-9.589,4.696c-4.513,2.468-5.271,3.542-4.086,8.556
		c1.034,4.369,2.449,8.611,4.745,12.515c1.577,2.684,3.665,3.582,6.878,2.984c5.45-1.015,10.527-2.995,15.544-5.18
		c3.796-1.654,4.516-3.709,3.624-7.843c-0.584-2.709-2.946-5.059-1.719-8.145C139.122,26.29,139.469,26.292,139.814,26.564z"/>
	<path fill-rule="evenodd" clip-rule="evenodd" fill="#3A2B22" d="M139.814,26.564c-0.275,0.017-0.551,0.032-0.825,0.048
		c-2.133-0.815-2.365-3.065-3.444-4.659c-1.054-1.556-2.343-2.88-3.552-4.289c-0.08-0.366,0.004-0.694,0.229-0.99
		C137.43,17.916,138.264,22.515,139.814,26.564z"/>
	<path fill-rule="evenodd" clip-rule="evenodd" fill="#43352E" d="M132.222,16.673c-0.01,0.315-0.021,0.631-0.03,0.947
		c-2.878,1.273-5.755,2.549-9.007,1.392c-0.322-0.263-0.645-0.525-0.967-0.789C125.43,16.918,128.718,16.103,132.222,16.673z"/>
	<path fill-rule="evenodd" clip-rule="evenodd" fill="#3E2F24" d="M46.814,70.221c2.399-4.603,5.678-8.868,10.471-10.496
		c6.54-2.221,9.926,3.646,13.849,7.383c2.914,2.778,2.544,6.029,0.258,9.092c-1.034,1.384-2.276,2.612-3.425,3.911
		c-0.366-0.104-0.589-0.346-0.688-0.708c-0.116-1.572,1.097-2.436,1.884-3.526c2.365-3.278,2.323-4.881-0.223-8.025
		c-0.236-0.292-0.497-0.561-0.75-0.837c-6.932-7.553-10.12-7.515-16.852,0.208c-1.135,1.302-2.011,2.927-4.01,3.115
		C47.158,70.301,46.986,70.261,46.814,70.221z"/>
	<path fill-rule="evenodd" clip-rule="evenodd" fill="#3D2F23" d="M60.646,95.723c-6.545-5.714-13.1-11.419-19.622-17.16
		c-0.585-0.514-1.649-1.161-0.72-2.109c2.103-2.145,3.452-5.088,6.51-6.233c0.001,0-0.031-0.042-0.031-0.042
		c0.937,2.211-0.962,3.168-2.104,4.25c-1.909,1.808-1.871,3.241,0.129,4.869c5.188,4.221,10.029,8.841,15.03,13.276
		c0.958,0.85,2.471,1.436,1.836,3.217C61.323,95.885,60.98,95.869,60.646,95.723z"/>
	<path fill-rule="evenodd" clip-rule="evenodd" fill="#3E2E22" d="M60.646,95.723c0.425-0.088,0.85-0.176,1.275-0.264
		c1.237-2.093,1.737-4.006-0.679-5.775c-1.044-0.765-1.415-2.309-0.718-3.408c1.746-2.756,3.481-5.631,6.923-6.672
		c0.169,0.172,0.342,0.341,0.519,0.506c-0.781,0.952-1.527,1.936-2.354,2.849c-3.594,3.974-3.682,4.045,0.011,7.783
		c1.289,1.306,1.02,2.293-0.199,2.886C63.871,94.384,63.742,98.592,60.646,95.723z"/>
	<path fill-rule="evenodd" clip-rule="evenodd" fill="#FCFBFB" d="M46.721,176.919c0.805,7.628-7.279,12.238-13.246,12.212
		c-7.964-0.035-14.579-6.711-14.536-14.575c0.037-6.676,6.24-12.172,13.618-12.067C40.396,162.601,46.744,169.069,46.721,176.919z"
		/>
	<path fill-rule="evenodd" clip-rule="evenodd" fill="#FEFDFD" d="M318.187,171.192c4.187-3.188,8.778-4.322,13.989-3.082
		c7.096,1.689,13.899,11.013,8.716,19.7c-5.962,6.543-12.893,7.999-19.681,4.133C313.588,187.602,312.288,178.686,318.187,171.192z"
		/>
	<path fill-rule="evenodd" clip-rule="evenodd" fill="#FD0908" d="M118.637,295.879c-2.694-3.064-6.561-4.359-9.877-6.476
		c-17.712-11.296-32.057-25.89-43.279-43.62c-1.205-1.904-1.541-3.822-1.539-5.993c0.021-26.865,0.172-53.733-0.104-80.596
		c-0.125-12.218-0.155-24.466-0.81-36.65c-0.465-8.639,2.992-15.136,7.855-21.396c8.845-11.384,19.022-21.433,30.988-29.52
		c4.723-3.192,9.842-5.796,14.746-8.722c2.784-1.661,3.631-0.863,3.608,2.259c-0.097,13.369,0.02,26.741-0.082,40.11
		c-0.018,2.446,0.534,4.353,2.449,5.907c1.062,0.861,2.047,1.853,2.915,2.911c5.667,6.909,11.927,11.381,21.907,10.379
		c5.868-0.589,12.164,0.415,18.252,0.309c17.73-0.312,35.432,0.816,53.152,0.9c3.626,0.018,6.412-0.738,8.852-3.571
		c2.262-2.627,4.821-5.014,7.63-7.148c2.873-2.185,4.299-5.07,4.224-9.029c-0.246-12.991-0.096-25.989-0.077-38.985
		c0.005-3.808,0.312-3.981,3.65-2.098c17.562,9.905,32.887,22.381,44.717,38.883c0.795,1.11,1.73,2.121,2.619,3.163
		c4.758,5.577,6.251,11.881,6.146,19.3c-0.398,28.484,0.058,56.981-0.322,85.466c-0.152,11.42-0.57,22.846-0.523,34.271
		c0.01,2.516-1.436,4.295-2.64,6.048c-11.596,16.874-26.12,30.673-43.833,41.024c-2.355,1.377-4.836,2.541-7.276,3.768
		c-2.021,1.018-3.255,0.301-3.221-1.898c0.084-5.232-0.144-10.457,0.257-15.703c0.45-5.906,0.215-11.864,0.255-17.799
		c0.002-0.361-0.341-0.753-0.271-1.078c2.74-12.94-8.753-16.811-15.242-23.846c-0.419-0.455-1.374-0.479-2.098-0.572
		c-0.737-0.095-1.497-0.046-2.246-0.029c-21.602,0.473-43.18-0.848-64.777-0.922c-4.817-0.017-9.692-0.388-14.538-0.627
		c-3.004-0.148-5.326,0.869-7.363,2.895c-3.367,3.348-6.73,6.699-10.102,10.043c-1.799,1.784-2.727,3.799-1.936,6.39
		c0.212,0.697,0.188,1.481,0.188,2.227c0.016,12.245,0.009,24.491,0.035,36.736c0.003,1.696,0.143,3.384-2.327,3.28L118.637,295.879
		z"/>
	<path fill-rule="evenodd" clip-rule="evenodd" fill="#FDFDFC" d="M43.993,271.93c2.099-1.05,3.524-2.846,5.039-4.544
		c2.882-2.342,5.873-4.565,8.179-7.534c1.771,0.202,2.097-3.928,4.794-1.395c3.7,3.475,3.818,3.35,0.082,6.829
		c-4.49,4.183-4.465,4.158-0.131,8.577c3.136,3.195,6.263,6.406,9.259,9.73c2.073,2.3,3.938,2.863,6.055,0.137
		c0.524-0.676,1.398-1.082,1.913-1.762c1.887-2.491,3.313-2.24,5.402,0.078c1.907,2.117,1.768,3.005-0.379,4.803
		c-5.048,4.227-9.889,8.721-14.595,13.33c-1.968,1.928-2.986,0.842-3.999-0.629c-0.913-1.33-3.732-2.195-0.92-4.639
		c1.791-1.555,4.936-2.418,4.417-5.834c-0.03-2.297-2.079-3.179-3.325-4.572c-2.825-3.157-5.879-6.109-8.734-9.242
		c-1.973-2.164-3.786-2.623-5.823-0.138c-0.627,0.765-1.585,1.271-2.163,2.062c-1.729,2.365-2.922,1.683-4.903-0.036
		C41.832,275.131,41.777,273.752,43.993,271.93z"/>
	<path fill-rule="evenodd" clip-rule="evenodd" fill="#A78D85" d="M145.634,328c-0.268-0.664-0.422-1.332-0.043-2.01
		c0.096-0.854,0.107-1.713,0.115-2.57c0.021-2.275,1.241-3.039,3.355-2.67c2.891,0.508,5.803,0.875,8.684,1.439
		c1.54,0.516,3.173,0.316,4.762,0.684c2.756,0.637,4.222,2.029,3.761,4.918c-0.483,3.035-2.827,3.121-5.129,2.861
		c-2.703-0.303-5.409-0.621-8.1-1.039C150.565,329.1,147.907,329.43,145.634,328z"/>
	<path fill-rule="evenodd" clip-rule="evenodd" fill="#312214" d="M153.148,328.959c2.956,0.41,5.909,0.846,8.87,1.223
		c2.001,0.254,3.44-0.398,3.772-2.607c0.309-2.057-0.455-3.414-2.556-3.855c-1.819-0.383-3.647-0.723-5.473-1.082
		c-0.074-0.615,0.001-1.043,0.763-0.602c1.886-0.279,3.685,0.205,5.467,0.688c2.731,0.74,3.188,2.807,2.839,5.225
		c-0.336,2.33-1.785,3.527-4.089,3.344c-3.438-0.275-6.86-0.744-10.289-1.133C152.255,329.51,152.634,329.195,153.148,328.959z"/>
	<path fill-rule="evenodd" clip-rule="evenodd" fill="#402F1F" d="M158.525,322.035c-0.254,0.201-0.509,0.402-0.763,0.604
		c-2.458-0.375-4.921-0.727-7.375-1.129c-2.283-0.375-4.266-0.447-4.064,2.818c0.033,0.537-0.475,1.107-0.732,1.662
		c-1.535-5.369-0.562-6.563,4.829-5.525C153.121,320.984,156.013,320.564,158.525,322.035z"/>
	<path fill-rule="evenodd" clip-rule="evenodd" fill="#21110A" d="M153.148,328.959c-0.231,0.4-0.464,0.801-0.695,1.199
		c-1.901-0.139-3.727-0.828-5.693-0.633c-0.728,0.072-1.645-0.359-1.126-1.525C148.139,328.32,150.644,328.639,153.148,328.959z"/>
	<path fill-rule="evenodd" clip-rule="evenodd" fill="#392C25" d="M93.188,49.824c-2.881,1.958-5.778,3.894-8.639,5.881
		c-1.743,1.21-3.163,1.178-4.329-0.785c-0.696-1.172-1.488-2.291-2.273-3.408c-1.12-1.593-0.607-2.833,0.85-3.792
		c3.012-1.983,5.996-4.02,9.111-5.828c2.215-1.286,4.505-1.587,6.107,1.125c0.364,0.708-0.07,0.946-0.645,1.102
		c-2.531-1.189-4.765-0.623-6.912,1.031c-1.475,1.135-3.058,2.138-4.648,3.107c-1.615,0.984-2.374,1.958-1.082,3.855
		c1.248,1.832,2.369,2.05,4.279,0.882c2.412-1.474,4.453-3.631,7.36-4.256C92.941,48.872,93.354,49.131,93.188,49.824z"/>
	<path fill-rule="evenodd" clip-rule="evenodd" fill="#5E4F41" d="M93.179,43.884c0.279-0.289,0.558-0.579,0.836-0.867
		c2.168,2.565,2.105,4.861-0.827,6.807c-0.27-0.259-0.539-0.518-0.809-0.777C92.467,47.298,93.001,45.619,93.179,43.884z"/>
	<path fill-rule="evenodd" clip-rule="evenodd" fill="#A98E82" d="M209.466,337.787c-0.776,0.014-1.553,0.025-2.328,0.037
		c-1.985,0.141-3.951,0.418-5.908,0.779c-4.086,0.754-4.388,0.549-5.168-3.49c-0.118-0.615-0.137-1.238-0.18-1.861
		c-1.75-2.064-1.019-4.877-2.167-7.186c-0.547-1.1,0.127-2.277,1.862-2.459c3.88-0.402,7.738-1.027,11.604-1.561
		c2.692-0.852,5.538,0.145,8.232-0.682c3.237,0.928,3.22,3.93,3.819,6.367c0.422,1.715,0.59,3.602,0.078,5.412
		c-1.504,2.09-3.565,3.059-6.097,3.471C211.968,336.816,210.52,336.797,209.466,337.787z"/>
	<path fill-rule="evenodd" clip-rule="evenodd" fill="#3A2A20" d="M195.882,333.252c2.164,5.109,2.167,5.137,8.051,4.365
		c1.11-0.145,2.166-0.346,3.205,0.207c-2.846,1.529-6.183,2.072-9.076,1.732C194.707,339.164,195.655,335.738,195.882,333.252z"/>
	<path fill-rule="evenodd" clip-rule="evenodd" fill="#534439" d="M209.466,337.787c-0.065-0.93,0.441-1.406,1.3-1.473
		c3.157-0.236,6.005-1.283,8.546-3.17C217.58,337.98,213.076,336.936,209.466,337.787z"/>
	<path fill-rule="evenodd" clip-rule="evenodd" fill="#110200" d="M215.414,321.365c-2.652,1.328-5.469,0.688-8.232,0.682
		C209.83,320.668,212.622,321.014,215.414,321.365z"/>
	<path fill-rule="evenodd" clip-rule="evenodd" fill="#45362C" d="M295.484,275.352c4.113,0.85,6.954,3.674,9.019,7.379
		c1.635,2.936-0.54,4.834-2.126,6.852c-2.55,3.242-5.528,6.064-8.615,8.779c-2.501,2.199-5.048,2.441-7.675,0.189
		c-0.659-0.564-1.443-0.988-2.086-1.568c-4.868-4.4-5.164-6.52-0.99-11.613c2.355-2.875,5.121-5.436,7.863-7.963
		C292.027,276.344,293.502,275.521,295.484,275.352z"/>
	<path fill-rule="evenodd" clip-rule="evenodd" fill="#403126" d="M108.068,317.668c-2.325-1.146-4.684-2.229-6.966-3.453
		c-2.246-1.205-3.104-2.76-0.288-4.242c2.928-1.541,5.148-4.527,8.889-4.434c0.186,0.189,0.265,0.393,0.236,0.609
		c-0.029,0.223-0.07,0.334-0.12,0.332c-2.495,2.068-5.46,3.453-8.088,5.537c2.22,2.08,5.874,2.027,7.438,5.006
		C109.026,317.621,108.774,318.033,108.068,317.668z"/>
	<path fill-rule="evenodd" clip-rule="evenodd" fill="#63543F" d="M108.068,317.668c0.29-0.279,0.581-0.557,0.871-0.834
		c-0.239-1.375-0.214-2.742,0.139-4.1c0.708-1.619-0.194-3.721,1.499-5.043c1.036,2.723,0.569,5.574,0.569,8.357
		C111.146,317.963,110.153,319.143,108.068,317.668z"/>
	<path fill-rule="evenodd" clip-rule="evenodd" fill="#180801" d="M110.577,307.691c-0.656,1.707,0.412,3.662-0.755,5.297
		c-1.698-2.135-1.548-4.326-0.205-6.553c0.028-0.299,0.058-0.598,0.086-0.896C111.081,305.814,110.485,306.893,110.577,307.691z"/>
	<path fill-rule="evenodd" clip-rule="evenodd" fill="#AB8D75" d="M303.202,87.468c-0.742,1.118-1.546,1.051-2.396,0.127
		c-0.704-2.166-2.352-3.657-3.735-5.354c-1.151-1.41-1.209-2.75,1.011-3.13c3.11-0.532,5.989-2.227,9.276-1.844
		c1.163,1.386-0.188,2.25-0.751,3.191C305.265,82.701,303.921,84.929,303.202,87.468z"/>
	<path fill-rule="evenodd" clip-rule="evenodd" fill="#43352A" d="M307.445,77.877c-3.739-0.407-6.955,1.581-10.733,2.19
		c0.78,2.364,2.783,3.644,3.861,5.53c0.35,0.61,1.67,1.161,0.232,1.997c-0.777-0.947-1.5-1.949-2.345-2.834
		c-5.204-5.464-3.004-5.897,2.577-7.105c2.123-0.459,4.256-2.254,6.63-0.684C308,77.373,307.926,77.675,307.445,77.877z"/>
	<path fill-rule="evenodd" clip-rule="evenodd" fill="#403329" d="M307.445,77.877c0.074-0.302,0.148-0.605,0.223-0.907
		c1.635,0.462,0.81,1.438,0.382,2.192c-1.58,2.789-3.226,5.54-4.848,8.306c-1.45-1.61,0.434-2.48,0.915-3.561
		C305.046,81.817,306.316,79.878,307.445,77.877z"/>
	<path fill-rule="evenodd" clip-rule="evenodd" fill="#FCFDFB" d="M123.185,19.012c2.989-0.544,5.903-1.58,9.006-1.392
		c4.291,1.468,4.693,5.874,6.799,8.992c0.813,2.695,1.725,5.365,2.418,8.09c1.303,5.116,0.707,6.319-3.928,8.607
		c-5.179,2.556-10.662,4.186-16.284,5.421c-3.518,0.772-6.02-0.271-7.674-3.588c-2.453-4.917-4.467-9.946-5.284-15.423
		c-0.427-2.862,0.613-4.734,3.151-6.048C115.169,21.714,119.124,20.239,123.185,19.012z"/>
	<path fill-rule="evenodd" clip-rule="evenodd" fill="#FCFDFB" d="M67.447,79.604c-2.394,1.574-3.869,4.05-5.877,6.007
		c-1.383,1.349-0.926,2.848,0.505,3.726c3.623,2.224,2.648,4.153-0.154,6.122C55.74,89.95,49.676,84.303,43.315,79.01
		c-2.154-1.792-1.659-2.618-0.104-4.251c1.318-1.385,3.211-2.418,3.57-4.581c3.025-1.449,4.5-4.501,6.854-6.655
		c4.314-3.947,5.93-4.174,10.704-0.956C73.015,68.416,73.483,70.99,67.447,79.604z"/>
	<path fill-rule="evenodd" clip-rule="evenodd" fill="#1A49C3" d="M150.861,323.439c3.569,0.555,7.138,1.113,10.707,1.662
		c1.415,0.217,2.498,0.908,2.147,2.445c-0.359,1.576-1.647,1.008-2.764,0.828c-3.563-0.576-7.137-1.076-10.709-1.594
		c-1.259-0.182-2.631-0.201-2.308-2.105C148.272,322.689,149.678,323.395,150.861,323.439z"/>
	<path fill-rule="evenodd" clip-rule="evenodd" fill="#AF907D" d="M93.179,43.884c1.328,1.968,0.782,3.646-0.8,5.163
		c-2.499,1.652-4.958,3.371-7.521,4.917c-0.853,0.514-1.881,2.001-2.788,1.065c-1.439-1.483-2.395-3.438-3.54-5.202
		c-0.041-0.063,0.054-0.219,0.098-0.328c0.438-1.095,11.332-7.294,12.514-7.128C92.098,42.505,92.646,43.182,93.179,43.884z"/>
	<path fill-rule="evenodd" clip-rule="evenodd" fill="#0A4AD9" d="M211.729,323.922c4.76-0.117,3.954,3.529,4.716,6.074
		c0.763,2.547-0.4,3.809-2.779,4.23c-4.165,0.736-8.36,1.314-12.497,2.182c-1.981,0.414-2.8-0.252-3.069-2.072
		c-0.055-0.367-0.2-0.723-0.282-1.086c-1.461-6.484-1.467-6.518,5.025-7.801C205.897,324.846,208.981,324.391,211.729,323.922z"/>
	<path fill-rule="evenodd" clip-rule="evenodd" fill="#AC9185" d="M303.902,284.617c-0.264,0.707-0.364,1.364-0.71,1.847
		c-3.284,4.589-7.192,8.581-11.783,11.866c-1.248,0.893-2.617,0.506-3.872-0.25c-2.173-1.311-3.882-3.117-5.396-5.109
		c-1.129-1.484-0.976-3.08,0.077-4.51c3.044-4.138,6.636-7.756,10.688-10.912c1.439-1.121,2.953-1.193,4.502-0.218
		C300.281,279.141,302.905,281.166,303.902,284.617z"/>
	<path fill-rule="evenodd" clip-rule="evenodd" fill="#AF907D" d="M109.617,306.436c0.068,2.184,0.137,4.367,0.205,6.553
		c-0.531,1.227,0.501,2.814-0.883,3.846c-2.863-1.477-5.727-2.955-8.985-4.637C103.289,309.945,106.05,307.551,109.617,306.436z"/>
	<path fill-rule="evenodd" clip-rule="evenodd" fill="#2947AA" d="M304.272,79.896c-1.158,2.044-0.814,4.012-2.817,4.033
		c-0.51,0.005-1.533-1.293-1.459-1.884C300.255,79.979,302.161,80.786,304.272,79.896z"/>
	<path fill-rule="evenodd" clip-rule="evenodd" fill="#AD9183" d="M126.559,24.263c1.141-0.115,1.954-1.878,3.358-0.668
		c2.419,1.72,3.187,4.49,4.427,6.963c1.647,6.218,1.22,7.191-4.3,9.77c-2.304,0.434-4.371,1.69-6.729,1.94
		c-2.989,1.188-4.966,0.189-6.222-2.716c-0.932-2.154-2.06-4.228-2.437-6.579c-0.307-1.914-0.172-3.712,1.593-4.973
		C119.478,26.18,122.854,24.767,126.559,24.263z"/>
	<path fill-rule="evenodd" clip-rule="evenodd" fill="#3F2F23" d="M116.668,28.235c-3.63,4.134-0.191,7.69,1.05,11.343
		c0.886,2.605,3.093,2.98,5.548,2.22c0.372,0.187,0.861,0.221,0.976,0.745c-4.974,1.409-6.234,1.006-8.115-3.55
		c-1.444-3.495-4.148-7.098-0.658-10.962C115.934,27.713,116.333,27.781,116.668,28.235z"/>
	<path fill-rule="evenodd" clip-rule="evenodd" fill="#58493A" d="M129.93,40.007c5.286-3.371,5.286-3.371,3.746-9.643
		c0.274-0.329,0.374-0.822,0.879-0.934c2.778,7.191,1.841,9.498-4.623,11.371c-0.255-0.176-0.341-0.352-0.256-0.529
		C129.76,40.095,129.845,40.007,129.93,40.007z"/>
	<path fill-rule="evenodd" clip-rule="evenodd" fill="#3A291D" d="M116.668,28.235c-0.4-0.069-0.8-0.137-1.2-0.205
		c3.301-2.42,6.805-4.243,11.09-3.768C123.262,25.586,119.965,26.911,116.668,28.235z"/>
	<path fill-rule="evenodd" clip-rule="evenodd" fill="#3B2F2A" d="M134.555,29.431c-0.293,0.311-0.586,0.623-0.879,0.934
		c-1.253-2.257-2.506-4.513-3.759-6.77C132.791,24.484,133.556,27.05,134.555,29.431z"/>
	<path fill-rule="evenodd" clip-rule="evenodd" fill="#302219" d="M129.93,40.007c0.001,0.264,0.001,0.529,0.002,0.794
		c-1.854,0.721-3.588,1.833-5.69,1.741c-0.325-0.248-0.65-0.497-0.977-0.745C125.487,41.201,127.708,40.604,129.93,40.007z"/>
	<path fill-rule="evenodd" clip-rule="evenodd" fill="#3C3028" d="M65.765,71.947c0.106,0.575-0.458,1.382-1.124,2.145
		c-2.279,2.611-4.582,5.203-6.835,7.836c-1.228,1.434-2.406,1.349-3.863,0.284c-5.626-4.113-5.728-4.704-1.225-9.768
		c1.479-1.663,2.917-3.375,4.521-4.912c1.188-1.139,2.72-2.015,4.373-1.019C63.498,67.65,65.493,68.822,65.765,71.947z"/>
	<path fill-rule="evenodd" clip-rule="evenodd" fill="#184CC9" d="M83.358,53.114c-1.187-0.01-1.625-0.948-2.17-1.746
		c-0.645-0.945-0.254-1.596,0.597-2.131c2.511-1.58,5.033-3.14,7.515-4.764c0.958-0.627,1.611-0.237,2.268,0.421
		c0.562,0.562,1.047,1.354,0.475,1.962C89.565,49.491,86.428,51.248,83.358,53.114z"/>
	<path fill-rule="evenodd" clip-rule="evenodd" fill="#094ADB" d="M301.793,284.098c0.038,1.61-0.505,2.52-1.168,3.213
		c-2.838,2.963-5.652,5.967-8.698,8.711c-2.879,2.592-4.688-0.156-6.571-1.793c-1.906-1.657-3.219-3.309-1.029-5.947
		c2.479-2.986,5.253-5.639,8.054-8.285c1.376-1.301,3.013-2.078,4.697-0.833C299.031,280.607,301.264,281.922,301.793,284.098z"/>
	<path fill-rule="evenodd" clip-rule="evenodd" fill="#314EAC" d="M108.262,312.113c-0.215,0.842,0.49,2.377-1.233,2.035
		c-1.301-0.258-3.054-0.906-3.023-2.334c0.028-1.348,1.727-2.232,3.035-2.271C108.792,309.49,107.973,311.188,108.262,312.113z"/>
	<path fill-rule="evenodd" clip-rule="evenodd" fill="#0A4BD9" d="M127.79,26.452c4.011,0.497,3.828,4.247,4.927,6.895
		c0.856,2.064-0.134,3.588-2.247,4.34c-1.285,0.457-2.543,0.994-3.84,1.414c-6.581,2.132-7.109,1.747-9.342-4.677
		c-1.024-2.947-0.53-4.626,2.5-5.698C122.363,27.816,124.949,27.039,127.79,26.452z"/>
	<path fill-rule="evenodd" clip-rule="evenodd" fill="#A98D7D" d="M64.571,71.248c-0.119,1.243-0.758,2.145-1.51,2.985
		c-1.734,1.939-3.589,3.784-5.176,5.836c-1.518,1.963-2.598,1.831-4.33,0.133c-3.372-3.305-4.315-2.442-0.244-6.662
		c1.547-1.603,2.975-3.323,4.542-4.905c0.856-0.863,1.815-1.809,3.239-0.987C62.613,68.524,64.01,69.52,64.571,71.248z"/>
	<path fill-rule="evenodd" clip-rule="evenodd" fill="#144ACD" d="M55.567,79.679c-0.734-0.595-1.538-1.15-2.223-1.827
		c-0.816-0.808-0.369-1.565,0.268-2.269c1.583-1.751,3.144-3.522,4.737-5.264c0.875-0.957,1.868-1.205,2.938-0.284
		c0.902,0.777,1.713,1.743,0.809,2.869c-1.709,2.128-3.581,4.127-5.412,6.154C56.455,79.311,56.059,79.414,55.567,79.679z"/>
</g>
</svg>
