<svg
   xmlns:dc="http://purl.org/dc/elements/1.1/"
   xmlns:cc="http://creativecommons.org/ns#"
   xmlns:rdf="http://www.w3.org/1999/02/22-rdf-syntax-ns#"
   xmlns:svg="http://www.w3.org/2000/svg"
   xmlns="http://www.w3.org/2000/svg"
   id="svg2"
   xml:space="preserve"
   enable-background="new 0 0 375.349 368.912"
   viewBox="0 0 375.349 368.912"
   height="368.912px"
   width="375.349px"
   y="0px"
   x="0px"
   version="1.1"><metadata
     id="metadata72"><rdf:RDF><cc:Work
         rdf:about=""><dc:format>image/svg+xml</dc:format><dc:type
           rdf:resource="http://purl.org/dc/dcmitype/StillImage" /><dc:title></dc:title></cc:Work></rdf:RDF></metadata><defs
     id="defs70" /><g
     id="Layer_2" /><g
     id="g6"><path
       d="m 120.43,362.396 c 0.197,-0.801 0.641,-1.39 1.52,-1.371 4.788,0.098 9.389,-1.032 13.9,-2.382 4.521,-1.353 9.387,0.232 13.933,-1.814 -7.041,-2.187 -14.004,-4.07 -20.767,-6.513 -11.436,-4.129 -22.688,-8.742 -32.997,-15.32 C 90.678,331.587 85.427,328.037 80.135,324.551 70.657,317.172 61.698,309.213 53.643,300.294 31.914,276.236 17.535,248.422 10.933,216.613 8.309,203.969 6.863,191.228 7.232,178.328 8.47,135.198 23.506,97.448 52.095,65.213 77.817,36.211 110.263,18.684 147.881,10.354 c 17.088,-3.785 34.486,-4.588 51.808,-3.205 29.081,2.321 56.381,11.059 81.369,26.192 16.352,9.903 30.734,22.242 43.341,36.776 19.706,22.722 33.026,48.59 39.617,77.843 5.764,25.583 5.384,51.227 -0.196,76.873 -3.638,16.714 -10.088,32.336 -18.135,47.252 -6.188,11.471 -14.474,21.616 -22.897,31.569 -0.482,0.547 -0.965,1.093 -1.447,1.638 0,0 -0.015,0.016 -0.014,0.016 -0.709,0.285 -1.199,0.787 -1.476,1.498 l -0.051,-0.008 c -7.959,7.514 -15.995,14.895 -25.036,21.175 -10.853,7.538 -22.349,13.803 -34.327,19.322 -7.738,3.566 -16.009,5.561 -23.87,8.729 -0.994,0.401 -2.216,0.229 -3.329,0.341 -0.759,0.078 -1.624,0.202 -1.65,1.146 -0.026,0.942 0.829,1.019 1.572,1.23 4.607,1.316 9.487,0.128 14.061,1.528 2.011,0.615 4.577,-0.252 5.96,2.125 M 9.241,179.813 c -0.478,14.687 1.431,27.798 4.344,40.857 2.086,9.355 4.987,18.431 8.652,27.206 6.012,14.398 13.689,27.916 23.353,40.242 9.501,12.119 20.226,22.992 32.351,32.521 5.664,4.45 11.598,8.491 17.746,12.165 6.145,3.672 12.464,7.183 19.044,9.967 9.077,3.842 18.23,7.514 27.888,9.92 9.229,2.299 18.455,5.043 27.859,5.76 15.851,1.209 31.717,1.288 47.604,-1.497 12.597,-2.208 24.895,-5.112 36.813,-9.603 22.373,-8.433 42.175,-21.031 59.428,-37.568 11.55,-11.071 21.269,-23.641 29.279,-37.472 8.697,-15.019 14.703,-31.094 18.539,-48.04 1.738,-7.681 2.419,-15.471 3.575,-23.214 1.639,-10.973 0.484,-21.965 -0.38,-32.822 -0.817,-10.286 -3.212,-20.512 -6.429,-30.441 -3.436,-10.603 -7.383,-20.988 -12.619,-30.85 C 340.251,95.576 333.081,85.012 324.865,75.062 310.336,57.465 292.879,43.508 273.073,32.454 261.089,25.765 248.358,20.774 235.135,16.912 224.155,13.704 213.019,11.075 201.7,10.338 185.551,9.286 169.392,9.383 153.274,12.481 142.506,14.55 131.962,17.155 121.723,20.878 97.534,29.675 76.292,43.393 58.238,61.609 47.799,72.142 38.692,83.824 31.351,97.013 22.727,112.507 16.384,128.717 12.669,145.888 10.177,157.41 8.298,169.162 9.241,179.813 Z"
       id="path8"
       style="clip-rule:evenodd;fill:#2447ea;fill-rule:evenodd;fill-opacity:1" /><path
       d="m 321.34,305.292 c 0.482,-0.545 0.965,-1.091 1.447,-1.638 0.121,1.076 -0.306,1.672 -1.447,1.638 z"
       id="path10"
       style="clip-rule:evenodd;fill:#e1e1ca;fill-rule:evenodd" /><path
       d="m 319.851,306.806 c 0.276,-0.711 0.767,-1.213 1.476,-1.498 0.059,1.043 -0.439,1.536 -1.476,1.498 z"
       id="path12"
       style="clip-rule:evenodd;fill:#e1e1ca;fill-rule:evenodd" /><path
       d="m 128.532,304.53 c 1.105,-1.407 0.83,-3.068 0.827,-4.665 -0.02,-13.375 -0.001,-26.75 -0.127,-40.124 -0.026,-2.798 0.493,-4.998 2.843,-6.849 3.019,-2.376 5.372,-5.485 8.312,-8.02 2.177,-1.876 4.254,-2.602 7.031,-2.545 26.733,0.544 53.469,1.007 80.204,1.444 1.868,0.03 3.328,0.525 4.645,1.895 4.054,4.215 9.48,7.711 11.939,12.689 2.418,4.896 0.617,11.286 0.668,17.019 0.08,9.249 0.072,18.5 -0.047,27.749 -0.037,2.854 0.911,3.148 3.246,2.018 17.296,-8.386 32.245,-19.804 44.492,-34.631 2.339,-2.83 4.257,-6.006 6.645,-8.854 3.59,-4.278 5.279,-9.067 5.266,-15.033 -0.093,-40.243 0.224,-80.488 0.491,-120.732 0.02,-2.878 -0.68,-5.282 -2.19,-7.71 -8.854,-14.231 -19.851,-26.542 -33.203,-36.63 -6.598,-4.985 -13.613,-9.407 -20.978,-13.27 -3.192,-1.674 -3.47,-0.492 -3.462,2.284 0.04,13.875 -0.061,27.75 0.016,41.624 0.014,2.535 -0.551,4.435 -2.501,6.233 -4.018,3.704 -7.104,9.19 -11.996,10.962 -4.757,1.723 -10.608,0.536 -15.976,0.443 -22.732,-0.39 -45.463,-0.872 -68.195,-1.244 -2.296,-0.038 -3.964,-0.752 -5.542,-2.445 -3.141,-3.367 -6.441,-6.593 -9.813,-9.73 -1.803,-1.678 -2.396,-3.54 -2.384,-5.959 0.072,-13.875 -0.045,-27.75 0.04,-41.625 0.019,-3.055 -0.502,-3.66 -3.523,-2.245 -9.981,4.676 -18.887,10.925 -27.423,17.791 -0.815,0.655 -1.519,1.755 -2.874,1.299 1.325,-4.21 5.547,-5.42 8.487,-7.846 6.584,-5.432 14.098,-9.536 21.721,-13.369 3.863,-1.942 5.545,-0.93 5.563,3.394 0.058,13.994 0.101,27.988 0.02,41.982 -0.015,2.557 1,4.271 2.479,6.288 6.441,8.778 14.658,11.583 25.588,11.061 22.576,-1.079 45.176,1.182 67.787,1.153 2.567,-0.003 4.219,-1.026 6.234,-2.496 8.396,-6.123 11.879,-13.698 10.808,-24.378 -1.055,-10.517 -0.237,-21.225 -0.189,-31.848 0.021,-4.568 1.26,-5.285 5.449,-3.158 23.921,12.148 42.857,29.604 56.56,52.76 1.677,2.833 1.131,5.577 1.132,8.287 0.014,40.618 -0.211,81.236 -0.145,121.854 0.008,4.942 -2.447,8.575 -4.875,12.107 -13.347,19.417 -30.481,34.571 -51.847,44.76 -0.67,0.319 -1.353,0.621 -2.052,0.866 -3.611,1.262 -4.449,0.7 -4.455,-3.195 -0.02,-12.87 -0.201,-25.745 0.133,-38.607 0.118,-4.517 -1.572,-7.412 -4.365,-10.773 -6.174,-7.427 -13.449,-9.797 -23.017,-9.326 -18.583,0.913 -37.186,-0.971 -55.795,-1.055 -2.32,-0.011 -4.671,0.184 -6.956,-0.115 -6.327,-0.828 -11.113,0.97 -15.781,5.79 -4.63,4.782 -7.036,9.251 -6.666,16.111 0.646,11.965 0.236,23.989 0.137,35.986 -0.011,1.172 1.241,4.374 -2.386,2.628 z"
       id="path14"
       style="clip-rule:evenodd;fill:#ec0c25;fill-rule:evenodd;fill-opacity:1" /><path
       d="m 243.913,315.657 c -0.942,-2.298 0.908,-3.318 2.281,-4.072 5.938,-3.261 11.985,-6.322 18.016,-9.414 3.934,-2.016 9.095,0.607 8.298,4.752 -0.524,2.73 0.861,3.814 1.751,5.38 2.977,5.235 2.854,5.626 -2.392,8.233 -4.951,2.46 -9.772,5.184 -14.914,7.931 1.511,1.57 2.798,0.921 4.087,0.244 4.927,-2.587 9.737,-5.436 14.816,-7.674 4.211,-1.855 3.544,-2.199 6.743,3.212 1.591,2.69 0.225,4.094 -2.375,5.389 -8.771,4.37 -17.46,8.916 -26.045,13.64 -2.089,1.149 -3.323,0.793 -4.324,-0.925 -4.146,-7.116 -8.245,-14.26 -12.252,-21.456 -2.074,-3.726 -1.291,-4.968 2.992,-5.009 1.08,-0.01 2.101,-1.005 3.206,-0.175 -0.567,0.466 -1.066,1.06 -1.704,1.366 -1.739,0.836 -2.157,1.516 -1.084,3.592 2.922,5.649 6.751,10.792 9.429,16.504 1.678,3.577 3.265,3.137 6.075,1.965 6.325,-2.636 11.766,-6.885 18.055,-9.602 1.86,-0.804 3.983,-1.299 5.559,-2.83 0.885,-0.861 1.166,-1.691 0.288,-2.531 -0.601,-0.574 -1.056,-1.979 -2.213,-1.264 -5.955,3.68 -13.081,5.07 -18.606,9.593 -1.218,0.998 -3.299,1.693 -3.672,-0.19 -0.368,-1.866 -4.184,-3.373 -0.975,-5.754 5.255,-3.896 11.407,-6.209 16.951,-9.591 0.646,-0.394 2.011,-0.245 1.803,-1.479 -0.187,-1.105 -1.352,-1.385 -2.245,-1.767 -1.042,-0.445 -1.813,0.3 -2.732,0.675 -4.432,1.804 -8.023,5.01 -12.258,7.129 -1.476,0.738 -2.864,1.33 -4.607,1.113 -1.764,-0.219 -2.086,-1.721 -2.734,-2.785 -0.803,-1.317 0.637,-2.266 1.471,-2.504 2.573,-0.733 4.269,-2.841 6.908,-3.666 4.038,-1.264 7.344,-4.326 11.35,-5.974 2.416,-0.993 -0.484,-2.278 -0.228,-3.584 0.216,-1.095 -0.936,-0.996 -1.583,-0.675 -3.517,1.747 -7.242,3.217 -10.427,5.452 -3.994,2.802 -8.247,4.928 -12.709,6.751 z"
       id="path16"
       style="clip-rule:evenodd;fill:#161616;fill-rule:evenodd;fill-opacity:1" /><path
       d="m 204.821,37.38 c 2.226,1.873 4.423,2.306 6.546,2.309 3.559,0.006 6.814,1.415 10.284,1.786 3.044,0.327 2.145,2.791 2.173,4.679 0.039,2.582 -0.493,4.756 -3.651,5.027 -2.504,0.215 -4.909,-0.311 -7.352,-0.79 -5.833,-1.143 -11.705,-2.077 -17.551,-3.157 -2.261,-0.417 -3.061,-1.982 -2.698,-4.132 1.007,-5.958 2.069,-11.907 3.106,-17.86 0.442,-2.542 0.886,-5.083 1.311,-7.628 0.468,-2.801 1.203,-4.271 4.862,-3.342 7.522,1.909 15.217,3.197 22.891,4.429 3.378,0.542 3.298,2.666 2.815,4.89 -0.539,2.486 -0.548,5.813 -4.729,5.101 -4.96,-0.844 -9.927,-1.646 -14.897,-2.468 -0.224,1.47 0.643,1.449 1.364,1.404 4.17,-0.26 8.136,1.075 12.214,1.506 3.465,0.366 3.635,2.698 2.943,5.145 -0.636,2.248 -0.595,5.393 -4.716,4.527 -3.247,-0.682 -6.587,-0.891 -9.823,-1.789 -1.447,-0.402 -3.082,-0.397 -5.092,0.363 z m 11.721,10.537 c 0.358,0 0.857,0.014 1.355,-0.002 1.207,-0.041 2.501,0.249 2.757,-1.635 0.24,-1.775 -0.811,-2.108 -2.101,-2.393 -1.417,-0.312 -2.76,-0.809 -4.23,-1.055 -3.6,-0.604 -7.366,-0.362 -10.815,-1.938 -1.076,-0.492 -2.122,-0.697 -1.981,-2.207 0.405,-4.357 3.517,-5.846 7.91,-4.589 3.313,0.947 6.755,2.4 10.412,1.21 0.712,-0.231 1.468,-0.207 1.588,-1.22 0.117,-0.992 -0.163,-1.632 -1.113,-2.079 -0.993,-0.468 -1.791,-1.262 -3.051,-1.178 -3.453,0.229 -6.823,-0.394 -10.181,-1.139 -1.526,-0.339 -3.811,-0.071 -3.359,-2.409 0.37,-1.922 0.692,-4.346 4.116,-4.016 3.974,0.383 7.944,0.569 11.737,1.893 1.692,0.591 3.347,0.327 4.83,-0.275 0.537,-0.218 1.028,-2.268 0.706,-2.56 -0.943,-0.852 -2.324,-1.761 -3.501,-1.72 -5.566,0.193 -10.708,-1.739 -16.048,-2.618 -1.522,-0.251 -4.173,-1.772 -5.286,0.436 -0.777,1.541 -1.384,3.442 -1.697,5.169 -0.949,5.24 -1.238,10.598 -2.165,15.842 -0.86,4.871 -0.866,4.685 4.166,5.829 3.5,0.797 7.267,-0.283 10.492,1.581 1.72,0.995 3.394,1.462 5.459,1.073 z"
       id="path18"
       style="clip-rule:evenodd;fill:#000000;fill-rule:evenodd;fill-opacity:1" /><path
       d="m 46.194,281.206 c -0.084,-1.059 -0.017,-1.941 0.863,-2.736 5.688,-5.136 11.337,-10.315 16.987,-15.494 1.748,-1.603 3.457,-2.519 5.217,-0.027 0.135,0.192 0.406,0.285 0.604,0.435 8.519,6.441 6.663,5.03 0.562,11.027 -1.845,1.813 -1.383,1.937 0.062,3.272 3.095,2.863 6.188,5.807 8.771,9.114 1.417,1.815 2.306,1.638 3.765,0.595 0.201,-0.144 0.469,-0.196 0.661,-0.349 1.789,-1.418 3.056,-4.386 5.49,-3.867 2.904,0.62 4.428,3.721 6.498,5.789 1.287,1.287 1.456,3.035 0.07,4.306 -6.521,5.977 -12.674,12.521 -19.904,17.485 -3.789,2.602 -5.542,-3.517 -8.293,-5.556 -1.645,-1.219 -1.088,-2.782 0.299,-4.123 5.092,-4.927 5.078,-4.941 0.374,-9.974 -0.339,-0.362 -0.628,-0.782 -1.007,-1.093 -2.095,-1.723 -2.938,-4.915 -5.724,-5.66 -3.164,-0.847 -4.169,2.846 -6.585,3.908 -1.647,0.723 -2.655,0.993 -3.839,-0.445 -1.746,-2.12 -4.61,-3.418 -4.871,-6.607 z m 7.049,4.898 c 1.62,-1.529 3.231,-2.915 4.683,-4.452 2.231,-2.363 3.984,-2.023 6.032,0.393 3.118,3.678 6.494,7.141 9.815,10.645 3.209,3.385 3.238,3.951 -0.092,7.144 -0.433,0.415 -0.964,0.727 -1.435,1.104 -1.43,1.147 -3.389,2.465 -1.167,4.243 1.731,1.385 3.599,4.577 6.423,1.192 4.275,-5.124 9.666,-9.096 14.356,-13.797 1.084,-1.086 1.326,-1.613 0.366,-2.995 -1.042,-1.5 -2.197,-3.371 -3.861,-2.54 -1.785,0.891 -4.04,1.733 -5.049,3.668 -1.227,2.352 -2.486,1.969 -4.08,0.58 -4.731,-4.123 -7.709,-9.915 -12.955,-13.559 -1.008,-0.701 -0.378,-1.846 0.19,-2.277 2.355,-1.789 2.859,-5.223 5.869,-6.432 -0.838,-0.948 -1.674,-1.862 -2.474,-2.809 -1.319,-1.559 -2.154,-2.221 -4.395,-0.497 -5.184,3.986 -9.47,8.909 -14.521,12.983 -2.304,1.858 -1.738,3.424 -0.102,5.15 0.758,0.798 1.602,1.512 2.397,2.256 z"
       id="path20"
       style="clip-rule:evenodd;fill:#161616;fill-rule:evenodd;fill-opacity:1" /><path
       d="m 266.086,38.971 c -0.126,2.312 -0.082,3.575 -0.283,4.797 -0.545,3.306 -2.297,4.242 -5.309,2.915 -2.6,-1.145 -4.64,-2.541 -6.188,-5.332 -1.899,-3.424 -6.315,-4.803 -9.764,-4.791 -3.073,0.01 -3.91,4.274 -4.913,7.158 -0.813,2.339 1.014,3.899 2.591,4.263 3.345,0.772 6.164,3.881 10.475,1.256 2.338,-1.424 6.173,0.602 8.205,2.958 1.661,1.926 -0.344,3.964 -1.484,5.671 -3.32,4.968 -6.364,5.717 -12.118,3.742 -5.833,-2.002 -11.538,-4.211 -16.431,-8.035 -4.143,-3.237 -4.241,-7.004 -1.581,-11.625 1.619,-2.812 1.886,-6.284 3.42,-9.349 4.062,-8.115 7.225,-10.226 18.101,-5.863 3.327,1.334 6.666,2.608 9.829,4.322 3.599,1.95 6.697,4.113 5.45,7.913 z m -2.47,1.689 c 0.304,-2.7 -0.334,-5.525 -3.181,-6.585 -4.812,-1.792 -8.815,-5.175 -14.095,-6.181 -3.818,-0.728 -6.33,-0.768 -8.635,2.534 -3.248,4.652 -5.462,9.835 -7.52,15.091 -0.933,2.382 0.045,4.232 1.834,5.546 3.638,2.672 7.615,4.986 11.892,6.237 2.909,0.85 5.688,2.816 9.071,1.986 2.516,-0.618 3.633,-2.473 4.547,-4.526 0.318,-0.717 0.381,-1.681 -0.79,-2.147 -1.86,-0.743 -3.635,-1.75 -5.197,0.555 -0.282,0.418 -1.28,0.851 -1.601,0.667 -3.653,-2.085 -8.185,-2.578 -11.073,-6.041 -3.96,-4.75 0.507,-8.125 2.087,-11.87 1.221,-2.894 3.724,-2.296 6.069,-1.335 4.266,1.746 10.051,0.852 11.687,7.213 0.283,1.103 2.287,2.762 4.091,2.293 1.55,-0.404 0.878,-2.037 0.814,-3.437 z"
       id="path22"
       style="clip-rule:evenodd;fill:#000000;fill-rule:evenodd;fill-opacity:1" /><path
       d="m 181.146,349.102 c 0.016,4.808 -1.288,5.608 -6.196,4.804 -3.611,-0.592 -6.625,-1.064 -5.879,-5.917 0.31,-2.017 -1.799,-2.247 -3.119,-2.545 -3.247,-0.732 -6.554,-1.214 -9.849,-1.713 -2.236,-0.339 -3.714,0.343 -3.396,2.989 0.268,2.225 -1.208,2.717 -2.939,2.935 -2.778,0.352 -5.43,-0.563 -8.105,-0.995 -2.103,-0.34 -1.868,-2.442 -1.686,-4.018 0.455,-3.919 0.826,-7.879 1.729,-11.704 0.476,-2.015 0.221,-3.948 0.456,-5.901 0.651,-5.432 3.353,-9.769 10.078,-8.535 7.121,1.306 14.304,2.697 21.555,3.496 4.532,0.5 8.467,2.291 10.271,7.24 1.367,3.747 0.299,7.256 -1.579,9.892 -1.917,2.687 -2.469,4.838 -1.376,7.74 0.246,0.654 0.035,1.483 0.035,2.232 z m -32.954,-28.077 c -0.886,-0.404 -1.406,-0.146 -2.162,1.919 -2.033,5.557 -1.481,11.445 -2.773,17.084 -0.367,1.604 -1.451,4.112 -0.548,5.389 1.494,2.111 4.403,0.962 6.658,1.039 1.893,0.064 0.932,-1.865 0.993,-2.914 0.083,-1.416 -0.018,-3.328 1.917,-2.785 5.325,1.495 11.065,-0.007 16.221,2.471 1.992,0.958 3.749,1.916 3.587,4.568 -0.226,3.697 3.198,2.188 4.814,3.27 0.707,0.474 1.602,0.498 1.787,-0.386 0.376,-1.79 0.881,-3.69 -0.688,-5.274 -0.701,-0.708 -1.329,-1.489 -2.047,-2.18 -2.308,-2.219 -0.834,-3.289 1.282,-3.958 4.094,-1.292 6.042,-6.486 3.749,-10.127 -1.691,-2.686 -4.501,-3.612 -7.248,-4.338 -8.094,-2.138 -16.475,-2.467 -25.542,-3.778 z"
       id="path24"
       style="clip-rule:evenodd;fill:#161616;fill-rule:evenodd;fill-opacity:1" /><path
       d="m 98.141,38.579 c 5.119,0.398 10.929,6.351 11.608,12.319 0.227,2.001 0.972,3.135 2.603,4.096 1.919,1.13 3.403,2.764 4.793,4.535 1.917,2.443 1.576,4.226 -1.108,5.664 -1.191,0.638 -2.392,1.262 -3.565,1.931 -1.7,0.969 -2.993,0.787 -4.026,-1.051 -1.724,-3.065 -3.879,-3.402 -6.452,-0.863 -0.687,0.677 -1.578,1.222 -2.472,1.601 -2.438,1.036 -3.367,2.217 -1.721,4.923 1.847,3.038 -0.351,5.919 -4.255,8.032 -2.997,1.623 -3.969,-0.853 -5.18,-2.566 -4.623,-6.541 -9.214,-13.106 -13.69,-19.748 -1.285,-1.906 -2.665,-3.961 0.511,-5.837 6.678,-3.945 12.61,-9.088 19.743,-12.322 1.047,-0.477 2.039,-0.929 3.211,-0.714 z m 17.217,23.66 c -1.388,-2.573 -3.13,-4.628 -5.889,-5.257 -2.776,-0.634 -5.737,-0.613 -2.739,-4.755 0.594,-0.821 0.578,-3.333 -1.108,-4.715 -1.212,-0.992 -2.056,-2.418 -3.162,-3.555 -3.677,-3.778 -5.432,-4.268 -9.636,-0.902 -4.315,3.454 -8.834,6.523 -13.625,9.17 -2.772,1.532 -4.166,2.456 -0.705,4.859 1.432,0.995 2.044,3.095 3.264,4.485 3.355,3.825 4.921,8.852 8.576,12.487 1.188,1.181 1.652,3.056 3.928,1.346 2.37,-1.779 0.424,-2.878 -0.272,-4.28 -1.202,-2.42 -0.603,-4.658 1.818,-5.546 2.385,-0.875 4.333,-2.268 6.311,-3.677 2.378,-1.694 4.885,-1.915 6.67,0.316 2.293,2.865 4.189,1.913 6.569,0.024 z"
       id="path26"
       style="clip-rule:evenodd;fill:#000000;fill-rule:evenodd;fill-opacity:1" /><path
       d="m 158.184,15.931 c 5.454,-1.613 7.626,2.611 10.172,6.053 2.609,3.526 2.759,3.549 4.921,-0.359 1.015,-1.836 2.112,-3.632 3.261,-5.387 0.76,-1.162 1.71,-2.01 3.333,-1.948 1.351,0.052 2.76,-0.138 4.068,-0.495 1.917,-0.523 3.937,-0.868 5.125,0.908 1.261,1.887 -0.401,3.486 -1.382,5.041 -2.955,4.682 -5.827,9.42 -8.899,14.025 -1.864,2.792 -1.262,5.699 -0.971,8.649 0.26,2.636 0.899,5.46 -3.159,5.771 -6.656,0.507 -8.083,-0.068 -7.562,-4.789 0.855,-7.747 -4.877,-11.539 -8.931,-16.238 -2.08,-2.411 -4.039,-4.947 -6.177,-7.321 -1.78,-1.976 -1.06,-3.529 1.619,-3.875 1.473,-0.191 2.989,-0.035 4.582,-0.035 z m 27.478,0.917 c -2.443,0.206 -5.535,-0.831 -7.155,1.141 -2.273,2.766 -3.846,6.19 -5.303,9.515 -0.901,2.058 -1.644,1.783 -2.901,0.612 -2.7,-2.517 -5.279,-5.132 -7.319,-8.244 -1.033,-1.576 -6.306,-2.657 -7.03,-1.327 -1.132,2.076 1.026,3.031 2.165,4.322 3.515,3.984 6.949,8.04 10.435,12.05 0.533,0.613 0.737,1.251 0.638,2.05 -0.233,1.885 0.327,3.595 0.879,5.397 0.526,1.719 0.854,2.527 2.938,2.276 2.41,-0.291 2.22,-1.869 1.81,-3.176 -1.428,-4.544 0.834,-7.978 2.795,-11.724 2.35,-4.49 6.803,-7.608 8.048,-12.892 z"
       id="path28"
       style="clip-rule:evenodd;fill:#000000;fill-rule:evenodd;fill-opacity:1" /><path
       d="m 277.216,298.782 c -0.333,-2.168 0.473,-3.842 1.706,-5.535 5.275,-7.244 11.469,-13.576 18.515,-19.09 3.113,-2.436 6.3,-2.873 10.014,-1.039 5.707,2.818 10.415,6.649 13.673,12.12 2.537,4.262 1.12,8.318 -1.693,11.63 -5.661,6.665 -11.492,13.243 -18.8,18.215 -4.371,2.974 -7.267,2.649 -11.459,-0.45 -3.209,-2.373 -6.09,-5.067 -8.849,-7.925 -2.165,-2.242 -3.615,-4.729 -3.107,-7.926 z m 26.178,-23.97 c -2.478,-0.466 -4.528,0.728 -6.074,2.631 -4.136,5.089 -9.825,8.559 -13.849,13.832 -3.033,3.977 -4.853,7.505 -2.885,10.342 2.622,3.781 5.418,7.449 9.441,10.141 2.36,1.578 4.641,3.938 7.118,2.138 2.075,-1.509 4.556,-2.178 6.495,-4.184 3.947,-4.08 7.808,-8.26 11.838,-12.251 4.851,-4.807 5.3,-8.702 1.102,-14.081 -2.215,-2.837 -5.615,-4.048 -8.021,-6.493 -1.47,-1.498 -2.955,-2.294 -5.165,-2.075 z"
       id="path30"
       style="clip-rule:evenodd;fill:#161616;fill-rule:evenodd;fill-opacity:1" /><path
       d="m 128.102,326.638 c 0,4.327 0.029,8.656 -0.009,12.983 -0.031,3.534 -1.145,4.164 -4.346,2.549 -1.645,-0.831 -3.282,-1.679 -4.938,-2.485 -1.914,-0.934 -3.294,-2.199 -3.022,-4.563 0.258,-2.237 -1.021,-3.345 -2.871,-4.207 -2.677,-1.25 -5.328,-2.57 -7.903,-4.017 -2.675,-1.502 -5.194,-2.813 -7.953,-0.113 -0.976,0.955 -2.515,0.805 -3.435,0.029 -2.03,-1.711 -4.562,-2.391 -6.75,-3.732 -2.897,-1.776 -3.007,-3.607 -0.156,-5.295 8.367,-4.952 16.84,-9.727 25.176,-14.729 1.375,-0.824 2.649,-1.004 3.831,-0.445 3.13,1.48 6.179,3.147 9.17,4.894 0.908,0.529 1.562,1.426 1.641,2.738 0.331,5.469 0.806,10.928 1.228,16.389 0.111,0 0.224,0.002 0.337,0.004 z m -4.081,-8.683 c 0,-1.717 0.078,-2.846 -0.018,-3.958 -0.156,-1.811 0.032,-4.672 -1.331,-5.071 -4.186,-1.229 -7.462,-6.106 -13.211,-1.792 -5.724,4.296 -12.332,7.576 -18.422,11.513 -1.818,1.176 -2.177,2.486 0.284,3.539 2.621,1.121 5.256,2.384 7.817,0.119 0.985,-0.87 1.447,-0.382 2.447,-0.108 4.085,1.115 6.617,4.941 10.85,5.795 4.017,0.81 6.961,2.777 6.441,7.665 -0.121,1.138 5.072,4.335 6.211,4.021 0.611,-0.168 0.968,-0.519 0.812,-1.356 -0.22,-1.181 0.1,-2.399 0.087,-3.621 -0.059,-5.866 -2.194,-11.471 -1.967,-16.746 z"
       id="path32"
       style="clip-rule:evenodd;fill:#161616;fill-rule:evenodd;fill-opacity:1" /><path
       d="m 70.122,115.504 c -1.623,12.154 -0.643,24.364 -0.673,36.544 -0.078,31.449 0.124,62.898 0.138,94.348 10e-4,2.354 0.516,4.412 1.711,6.365 11.09,18.125 25.95,32.567 43.562,44.245 3.567,2.364 7.774,3.745 10.859,6.896 -1.028,0.355 -1.956,0.047 -2.864,-0.425 -17.579,-9.138 -32.103,-21.904 -44.368,-37.354 -3.46,-4.357 -6.654,-8.879 -9.41,-13.736 -0.939,-1.656 -1.146,-3.213 -1.15,-4.95 -0.092,-41.976 -0.191,-83.951 -0.26,-125.926 -0.004,-2.286 -0.558,-4.906 2.455,-6.007 z"
       id="path34"
       style="clip-rule:evenodd;fill:#ec0c25;fill-rule:evenodd;fill-opacity:1" /><path
       d="m 324.635,83.649 c -0.158,0.492 -0.33,1.496 -0.78,2.353 -4.353,8.283 -8.73,16.553 -13.149,24.801 -1.588,2.964 -3.095,3.149 -5.342,0.566 -2.522,-2.9 -6.043,-5.66 -2.444,-10.092 0.364,-0.448 0.228,-0.923 -0.118,-1.346 -2.269,-2.771 -4.557,-5.525 -6.794,-8.32 -0.802,-1.001 -1.926,-0.881 -2.718,-0.492 -2.773,1.366 -4.391,0.108 -5.813,-2.106 -0.463,-0.72 -1.218,-1.246 -1.791,-1.903 -2.896,-3.318 -2.381,-5.133 1.827,-6.166 8.723,-2.142 17.451,-4.255 26.19,-6.325 4.017,-0.951 10.786,4.395 10.932,9.03 z m -37.345,0.53 c 3.302,3.958 3.306,3.983 8.008,3.193 0.949,-0.16 1.25,0.398 1.773,0.956 1.75,1.863 3.069,4.075 4.646,5.999 2.399,2.923 5.586,4.955 3.293,9.553 -1.129,2.263 1.227,4.619 2.609,5.087 1.979,0.671 2.259,-1.85 2.473,-3.572 0.06,-0.474 0.267,-1.014 0.584,-1.358 4.797,-5.2 5.679,-12.644 10.294,-17.968 0.551,-0.635 1.321,-1.453 0.573,-2.909 -2.756,-5.366 -4.897,-6.452 -10.548,-4.711 -0.35,0.108 -0.728,0.124 -1.095,0.168 -7.625,0.913 -14.774,3.637 -22.61,5.562 z"
       id="path36"
       style="clip-rule:evenodd;fill:#000000;fill-rule:evenodd;fill-opacity:1" /><path
       d="m 112.097,36.194 c -0.748,-5.191 2.856,-7.585 6.506,-9.427 5.253,-2.65 10.939,-4.242 16.784,-5.164 5.251,-0.828 7.988,0.731 10.684,5.327 2.485,4.235 3.8,8.871 5.278,13.445 1.925,5.956 0.286,9.602 -5.598,12.445 -6.042,2.918 -12.353,5.109 -19.128,5.611 -3.474,0.257 -6.025,-0.729 -8.076,-4 -3.556,-5.675 -5.702,-11.689 -6.45,-18.237 z m 36.867,6.794 c -1.118,-6.124 -3.728,-11.698 -7.024,-17.013 -1.473,-2.376 -3.502,-2.659 -6.089,-2.391 -2.095,0.217 -3.596,1.613 -5.721,1.907 -5.086,0.706 -9.377,3.623 -13.662,6.317 -1.9,1.195 -2.367,2.899 -1.788,5.138 1.587,6.135 4.525,11.658 7.407,17.224 0.795,1.535 2.568,2.076 3.521,1.773 6.461,-2.048 13.442,-2.419 19.338,-6.414 2.506,-1.697 4.452,-3.128 4.018,-6.541 z"
       id="path38"
       style="clip-rule:evenodd;fill:#000000;fill-rule:evenodd;fill-opacity:1" /><path
       d="m 221.263,319.656 c 9.64,0.033 11.675,1.518 13.394,9.089 0.846,3.72 2.138,7.381 1.986,11.3 -0.188,4.85 -2.668,8.301 -7.379,9.427 -10.2,2.438 -20.521,4.261 -30.917,5.662 -2.239,0.303 -3.391,-0.179 -3.862,-2.684 -1.529,-8.123 -3.35,-16.191 -4.994,-24.295 -0.347,-1.706 -0.104,-3.051 2.128,-3.553 10.401,-2.339 20.917,-3.89 29.644,-4.946 z m -4.728,30.007 c 3.752,0.031 7.347,-0.982 10.885,-1.938 6.484,-1.75 8.935,-7.73 6.065,-13.962 -0.407,-0.885 -0.934,-1.656 -1.078,-2.713 -1.029,-7.523 -5.769,-10.773 -13.067,-9.021 -7.995,1.919 -16.112,3.207 -24.251,4.207 -2.729,0.336 -3.083,1.95 -2.501,3.378 2.458,6.038 1.556,12.624 3.452,18.752 1.144,3.697 2.217,4.815 5.951,3.883 4.796,-1.198 9.593,-2.317 14.544,-2.586 z"
       id="path40"
       style="clip-rule:evenodd;fill:#161616;fill-rule:evenodd;fill-opacity:1" /><path
       d="m 81.626,77.942 c 0.294,3.294 -1.734,5.606 -3.485,7.969 -1.164,1.571 -2.633,2.921 -4.004,4.333 -2.156,2.218 -2.76,4.348 0.12,6.488 1.559,1.159 1.223,2.279 0.115,3.76 -4.637,6.194 -5.148,6.273 -10.979,1.063 C 58.056,96.786 52.7,92.039 47.294,87.348 c -2.592,-2.249 -2.791,-4.186 -0.211,-6.761 4.181,-4.172 7.91,-8.796 12.077,-12.983 4.771,-4.794 8.175,-4.852 13.727,-0.886 2.818,2.013 5.688,3.872 7.495,7.036 0.786,1.378 1.146,2.708 1.244,4.188 z m -2.316,1.696 c -0.747,-2.61 -0.809,-4.989 -2.811,-6.462 -2.475,-1.82 -5.278,-3.295 -7.423,-5.436 -2.299,-2.295 -3.792,-1.55 -6.057,-0.029 -5.356,3.595 -7.852,9.9 -13.193,13.445 -2.649,1.758 -1.759,3.226 0.319,4.787 2.831,2.127 5.584,4.365 8.293,6.647 3.135,2.641 6.195,5.372 9.271,8.083 0.869,0.766 1.751,1.292 2.261,-0.209 0.299,-0.882 2.452,-1.414 0.857,-2.625 -3.555,-2.7 -2.833,-4.903 0.001,-7.768 1.308,-1.321 2.586,-2.858 3.805,-4.357 1.675,-2.062 3.244,-4.206 4.677,-6.076 z"
       id="path42"
       style="clip-rule:evenodd;fill:#000000;fill-rule:evenodd;fill-opacity:1" /><path
       d="m 301.915,59.633 c -1.067,1.818 -2.364,4.243 -4.809,5.902 -2.467,1.675 -3.569,-0.533 -4.987,-1.646 -4.087,-3.208 -5.018,-3.073 -7.939,0.915 -2.519,3.437 -5.178,6.775 -7.874,10.075 -2.157,2.641 -4.422,2.196 -8.56,-1.129 -2.519,-2.024 -1.559,-3.529 0.081,-5.508 3.106,-3.75 5.82,-7.829 8.981,-11.528 1.702,-1.992 1.214,-3.221 -0.495,-4.57 -0.872,-0.688 -1.759,-1.36 -2.656,-2.015 -2.435,-1.776 -3.255,-3.327 -0.881,-6.224 4.152,-5.067 4.462,-5.455 9.508,-1.243 5.588,4.665 11.383,9.019 17.476,12.999 1.083,0.709 2.354,1.55 2.155,3.972 z m -28.412,14.796 c 2.941,-4.067 5.67,-8.13 8.694,-11.958 4.892,-6.189 4.975,-6.125 11.008,-1.011 0.189,0.16 0.31,0.401 0.503,0.554 2.452,1.935 3.165,-0.345 4.505,-1.679 2.053,-2.042 -0.238,-1.731 -0.984,-2.583 -1.672,-1.908 -4.132,-2.925 -5.685,-4.477 -3.438,-3.439 -7.8,-5.532 -11.192,-8.9 -1.651,-1.638 -3.311,-2.352 -5.075,0.084 -1.767,2.438 0.451,2.862 1.689,3.823 1.28,0.994 2.642,1.896 3.85,2.972 1.325,1.18 1.767,2.188 0.331,4.042 -3.075,3.969 -5.756,8.143 -9.536,11.639 -3.622,3.35 -2.893,5.066 1.907,7.495 0.1,0.049 0.224,0.049 -0.015,-0.001 z"
       id="path44"
       style="clip-rule:evenodd;fill:#000000;fill-rule:evenodd;fill-opacity:1" /><path
       d="m 347.626,179.4 c 2.881,0.512 3.026,3.168 3.475,5.109 1.898,8.219 -3.371,16.862 -11.182,18.821 -9.249,2.32 -17.785,-2.606 -20.121,-11.613 -1.636,-6.305 1.011,-13.623 5.99,-16.569 6.562,-3.882 14.981,-3.332 20.078,1.18 1.011,0.894 1.622,1.823 1.801,3.104 -1.585,-0.062 -2.226,-1.49 -3.274,-2.309 -6.057,-4.721 -14.893,-4.013 -20.031,1.655 -4.385,4.838 -4.093,12.121 0.692,17.276 4.723,5.086 12.856,6.089 18.847,2.165 4.387,-2.874 8.29,-8.467 4.242,-16.69 -0.315,-0.638 -0.351,-1.415 -0.517,-2.129 z"
       id="path46"
       style="clip-rule:evenodd;fill:#26253f;fill-rule:evenodd;fill-opacity:1" /><path
       d="m 39.502,167.435 c 8.788,0.051 16.489,7.57 16.119,16.491 -0.353,8.509 -6.368,14.919 -16.485,14.897 -9.247,-0.02 -15.505,-7.492 -15.573,-15.512 -0.08,-9.371 6.762,-15.887 15.939,-15.876 z m 14.299,15.97 c 0.004,-7.782 -6.404,-14.289 -14.243,-14.461 -7.45,-0.163 -13.659,5.492 -13.654,12.434 0.006,7.852 6.783,14.582 14.721,14.423 6.073,-0.121 13.959,-4.842 13.176,-12.396 z"
       id="path48"
       style="clip-rule:evenodd;fill:#26253f;fill-rule:evenodd;fill-opacity:1" /><path
       d="m 91.212,88.744 c 0.216,1.232 -0.333,2.172 -1.189,2.958 -7.165,6.58 -12.689,14.466 -18.008,22.522 -0.154,0.232 -0.635,0.248 -0.962,0.362 -0.492,-3.862 2.688,-5.906 4.428,-8.581 3.97,-6.102 9.078,-11.296 14.125,-16.51 0.386,-0.396 1.064,-0.507 1.606,-0.751 z"
       id="path50"
       style="clip-rule:evenodd;fill:#ec0c25;fill-rule:evenodd;fill-opacity:1" /><path
       d="m 159.197,327.376 c 2.623,1.42 7.575,1.004 12.08,2.644 2.265,0.825 3.366,2.125 2.57,4.487 -0.793,2.355 -2.757,3.578 -5.049,3.431 -2.139,-0.137 -4.301,-0.155 -6.454,-1.327 -2.209,-1.203 -5.042,0.005 -7.644,-0.46 -2.889,-0.516 -3.506,-1.753 -2.661,-4.362 0.876,-2.708 1.088,-5.976 7.158,-4.413 z m 7.964,7.939 c 1.673,-0.316 3.59,0.639 3.807,-1.374 0.223,-2.072 -1.895,-1.94 -3.2,-2.212 -3.396,-0.704 -6.838,-1.186 -10.253,-1.806 -1.148,-0.208 -2.231,-0.579 -2.54,1.127 -0.265,1.464 0.548,2.277 1.732,2.374 3.681,0.305 7.274,1.087 10.454,1.891 z"
       id="path52"
       style="clip-rule:evenodd;fill:#161616;fill-rule:evenodd;fill-opacity:1" /><path
       d="m 101.678,52.742 c 0.355,2.237 -0.624,3.561 -3.001,4.583 -2.643,1.137 -5.095,2.88 -7.455,4.522 -2.569,1.787 -3.43,0.302 -4.482,-1.32 -1.325,-2.044 -3.635,-4.27 -0.67,-6.56 2.806,-2.17 5.848,-4.086 8.962,-5.792 3.868,-2.117 6.901,-0.03 6.646,4.567 z M 99.596,52.601 C 98.354,52.039 98.295,49.977 96.3,51.26 c -2.28,1.467 -4.749,2.65 -6.964,4.201 -0.548,0.384 -2.301,0.979 -0.913,2.566 0.948,1.084 1.746,1.786 3.086,0.867 2.233,-1.531 4.446,-3.092 6.634,-4.686 0.471,-0.343 0.804,-0.877 1.453,-1.607 z"
       id="path54"
       style="clip-rule:evenodd;fill:#000000;fill-rule:evenodd;fill-opacity:1" /><path
       d="m 296.745,306.113 c -3.623,-0.13 -8.838,-4.463 -9.753,-7.57 -0.883,-2.999 1.715,-4.191 3.001,-5.924 3.014,-4.058 6.452,-7.735 11.193,-9.946 4.018,-1.873 5.916,1.328 8.209,3.343 2.112,1.856 3.026,4.007 1.604,7.048 -2.515,5.376 -6.653,9.04 -11.464,12.119 -0.891,0.571 -1.925,1.248 -2.79,0.93 z m 0.012,-2.241 c 0.74,-0.448 1.617,-0.885 2.388,-1.463 3.065,-2.296 5.496,-5.25 8.159,-7.963 2.088,-2.13 2.219,-3.93 -0.228,-6.105 -2.433,-2.163 -4.566,-4.578 -7.816,-1.641 -2.55,2.305 -5.039,4.719 -7.232,7.354 -0.973,1.169 -2.903,2.552 -1.603,4.521 1.505,2.278 3.513,4.11 6.332,5.297 z"
       id="path56"
       style="clip-rule:evenodd;fill:#161616;fill-rule:evenodd;fill-opacity:1" /><path
       d="m 111.813,321.122 c -3.019,2.146 -3.73,-1.256 -5.114,-2.395 -1.743,-1.436 0.442,-1.979 1.296,-2.507 2.091,-1.294 4.373,-2.395 6.4,-3.654 2.685,-1.669 3.171,-0.083 3.4,1.484 0.43,2.942 0.385,5.959 0.457,8.946 0.027,1.162 -0.815,2.119 -1.839,1.916 -1.644,-0.326 -3.124,-1.219 -3.443,-3.169 2.168,-1.05 2.963,-2.886 1.731,-4.839 -1.227,-1.945 -2.39,0.324 -3.286,0.816 -2.018,1.112 0.853,2.158 0.398,3.402 z"
       id="path58"
       style="clip-rule:evenodd;fill:#161616;fill-rule:evenodd;fill-opacity:1" /><path
       d="m 314.932,83.026 c 0.638,0.06 0.866,0.826 0.283,1.907 -1.486,2.755 -2.968,5.516 -4.576,8.199 -0.867,1.448 -2.043,1.673 -3.19,0.171 -0.75,-0.98 -1.435,-2.02 -2.264,-2.928 -3.354,-3.673 -3.422,-3.803 1.085,-5.394 2.535,-0.894 5.273,-1.213 8.662,-1.955 z"
       id="path60"
       style="clip-rule:evenodd;fill:#000000;fill-rule:evenodd;fill-opacity:1" /><path
       d="m 128.294,48.995 c -2.542,0.13 -4.237,-1.192 -5.329,-3.33 -1.155,-2.261 -1.936,-4.696 -2.221,-7.202 -0.175,-1.533 0.51,-3.347 1.893,-3.902 3.73,-1.498 7.022,-4.106 11.344,-4.2 4.066,-0.089 6.995,1.823 7.583,5.813 0.217,1.472 0.57,2.869 1.001,4.264 0.863,2.796 0.131,4.317 -2.778,5.699 -3.727,1.77 -7.474,2.656 -11.493,2.858 z m 0.636,-2.387 c 5.105,-0.041 11.013,-3.123 10.961,-5.719 -0.07,-3.55 -2.856,-7.597 -5.28,-7.669 -3.733,-0.113 -10.936,3.062 -11.034,4.862 -0.206,3.77 2.793,8.547 5.353,8.526 z"
       id="path62"
       style="clip-rule:evenodd;fill:#000000;fill-rule:evenodd;fill-opacity:1" /><path
       d="m 217.261,343.583 c -2.339,2.797 -6.025,1.067 -9.21,2.114 -2.923,0.96 -5.206,-0.378 -5.386,-3.425 -0.159,-2.708 -0.427,-5.35 -1.15,-7.965 -0.709,-2.563 1.192,-4.059 3.001,-4.221 4.766,-0.429 9.429,-0.667 13.992,-2.583 2.507,-1.052 5.218,0.056 6.25,3.106 0.705,2.08 1.281,4.214 1.775,6.356 0.681,2.956 -0.887,5.563 -3.865,5.92 -1.668,0.202 -2.96,2.095 -5.407,0.698 z m 5.89,-6.615 c -0.05,-5.894 -0.613,-6.477 -5.975,-6.089 -1.972,0.143 -3.924,0.53 -5.887,0.798 -8.105,1.107 -8,1.083 -6.194,9.252 0.409,1.853 1.057,2.263 2.688,2.007 4.041,-0.633 8.126,-1.053 12.118,-1.908 2.037,-0.438 4.161,-1.447 3.25,-4.06 z"
       id="path64"
       style="clip-rule:evenodd;fill:#161616;fill-rule:evenodd;fill-opacity:1" /><path
       stroke-miterlimit="10"
       d="m 72.807,78.418 c -0.411,0.682 -0.69,1.392 -1.176,1.908 -1.771,1.878 -3.472,3.783 -5.045,5.855 -0.974,1.283 -2.716,3.77 -4.261,2.937 -2.139,-1.154 -4.679,-2.263 -6.034,-4.642 -0.72,-1.264 -0.127,-2.432 0.832,-2.884 3.271,-1.545 4.258,-5.253 7.152,-7.176 1.321,-0.878 1.984,-2.295 3.999,-1.083 2.127,1.281 3.555,2.944 4.533,5.085 z"
       id="path66"
       style="clip-rule:evenodd;fill:#222240;fill-rule:evenodd;stroke:#a38a7e;stroke-width:3;stroke-miterlimit:10;fill-opacity:1" /></g></svg>
